<svg xmlns="http://www.w3.org/2000/svg" width="31" height="25" viewBox="0 0 31 25" fill="none">
    <path d="M1 3.33195V22.2722C1 22.8812 1.36501 23.4309 1.92631 23.6671C2.11218 23.7454 2.31181 23.7857 2.51347 23.7857H14.2872H21.3335H28.1001C28.2854 23.7857 28.4696 23.7573 28.6463 23.7015L28.7223 23.6775C29.4771 23.4392 29.9903 22.7391 29.9903 21.9476V3.33195C29.9903 2.33004 29.1781 1.51782 28.1761 1.51782H15.4951H2.81413C1.81221 1.51782 1 2.33004 1 3.33195Z" fill="#F5F5F5" stroke="black" stroke-width="0.907066"/>
    <path d="M29.5785 20.5535L17.4516 8.17127C16.3816 7.07877 14.6218 7.08216 13.5561 8.17876L1.75937 20.3169C1.27243 20.8179 1.00003 21.4891 1.00003 22.1877V22.6527C1.00003 23.0415 1.1994 23.4031 1.52818 23.6107C1.70922 23.725 1.91896 23.7857 2.13308 23.7857H3.41589L8.16288 23.7857L21.7535 23.7857L28.3797 23.7857C30.0271 23.7857 30.4021 21.643 29.5785 20.5535Z" stroke="black" stroke-width="0.907066"/>
    <path d="M1.63846 4.39857L14.8989 16.0094C15.2425 16.3102 15.7562 16.3087 16.098 16.0058L29.54 4.09441C29.8325 3.83517 30 3.46302 30 3.07214C30 2.7761 29.9038 2.48808 29.7259 2.25144L29.582 2.06001C29.33 1.72469 28.9826 1.47328 28.5853 1.33869L28.0101 1.14386C27.7289 1.0486 27.434 1 27.1371 1H22.841H16.0351H12.4121H8.78904H2.57812C1.03955 1 0.661144 2.87867 1.28989 3.99863C1.37708 4.15393 1.50446 4.28124 1.63846 4.39857Z" fill="#F5F5F5" stroke="black" stroke-width="0.907066"/>
    <path d="M15.0422 6.5331C14.7955 6.5331 14.5681 6.62806 14.3593 6.81946C14.1506 7.01087 13.9925 7.28302 13.8867 7.63592C13.7815 7.98882 13.7279 8.3021 13.7279 8.575C13.7279 8.93912 13.8017 9.20828 13.9485 9.38024C14.0962 9.55221 14.2788 9.63894 14.4965 9.63894L14.668 10.3791C14.5397 10.4113 14.407 10.427 14.2691 10.427C13.7935 10.427 13.3991 10.2625 13.0852 9.93352C12.9876 9.83109 12.9048 9.71744 12.8377 9.59333C12.6894 9.32043 12.6148 8.99669 12.6148 8.62136C12.6148 7.94621 12.8042 7.33012 13.1821 6.77385C13.6406 6.09571 14.2274 5.75702 14.9438 5.75702C14.999 5.75702 15.0527 5.75926 15.1041 5.7645L15.0422 6.53236V6.5331Z" fill="#70B62B"/>
    <path d="M17.5203 5.50581C17.0104 5.03029 16.2984 4.79253 15.3852 4.79253C14.6091 4.79253 13.9515 4.95179 13.4118 5.2688C12.872 5.58581 12.4649 6.03218 12.1913 6.60863C11.9177 7.18434 11.7813 7.78397 11.7813 8.40679C11.7813 8.89876 11.882 9.35558 12.0832 9.77652C12.1295 9.87372 12.1817 9.96868 12.2383 10.0621C12.5432 10.5593 12.9719 10.9212 13.5228 11.1493C14.0738 11.3773 14.7045 11.4917 15.415 11.4917C16.1255 11.4917 16.6883 11.396 17.1804 11.2053C17.6732 11.0147 18.0698 10.7276 18.371 10.3463H19.2857C18.9994 10.9294 18.5603 11.3855 17.9669 11.7167C17.2877 12.0958 16.4602 12.2857 15.4836 12.2857C14.5069 12.2857 13.7219 12.1257 13.0353 11.8057C12.3479 11.485 11.8372 11.0132 11.5017 10.3881C11.167 9.76232 11 9.08193 11 8.34697C11 7.53948 11.1901 6.78807 11.5711 6.09124C11.952 5.39516 12.4739 4.87179 13.1352 4.52262C13.7964 4.17496 14.5524 4 15.403 4C16.1247 4 16.7659 4.14131 17.328 4.42244C17.8894 4.70356 18.318 5.10431 18.614 5.62245C18.9107 6.14059 19.0591 6.70732 19.0591 7.32191C19.0591 8.05388 18.8339 8.71632 18.3844 9.30773C17.82 10.0547 17.0969 10.4277 16.2149 10.4277C15.9778 10.4277 15.7982 10.3866 15.6774 10.3029C15.5574 10.2199 15.4769 10.098 15.4373 9.93727C15.2047 10.1623 14.9475 10.3096 14.6672 10.3799L14.4957 9.6397C14.659 9.6397 14.8118 9.59932 14.955 9.51858C15.0638 9.46175 15.1712 9.37128 15.2771 9.24717C15.4291 9.07222 15.5596 8.81651 15.6707 8.48006C15.781 8.14435 15.8362 7.83183 15.8362 7.54098C15.8362 7.21724 15.7609 6.96751 15.611 6.79405C15.4604 6.61985 15.2711 6.53312 15.0422 6.53312L15.1041 5.76526C15.5328 5.80264 15.8563 5.99554 16.0733 6.34396L16.1806 5.86544H17.3146L16.666 8.95408C16.6264 9.14997 16.6056 9.27633 16.6056 9.33315C16.6056 9.40493 16.622 9.45876 16.6555 9.49465C16.6891 9.53054 16.7278 9.54848 16.7733 9.54848C16.9105 9.54848 17.0887 9.46549 17.3056 9.29876C17.5979 9.08044 17.8342 8.7881 18.0146 8.42024C18.195 8.05239 18.2852 7.67182 18.2852 7.27855C18.2852 6.61611 18.0608 6.0561 17.6135 5.59628C17.5837 5.56563 17.5524 5.53572 17.5203 5.50581Z" fill="#70B62B"/>
</svg>