<svg xmlns="http://www.w3.org/2000/svg" width="16" height="16" viewBox="0 0 16 16" fill="none">
    <path d="M4.06082 3.75646C4.2774 3.8327 4.50791 3.86117 4.73652 3.83993C4.96514 3.81868 5.18646 3.74823 5.38528 3.63339C5.58411 3.51856 5.75573 3.36207 5.88838 3.17465C6.02102 2.98724 6.11155 2.77335 6.15374 2.54766L6.4084 1.1789C7.4555 0.940367 8.54285 0.940367 9.58996 1.1789L9.8462 2.54766C9.8884 2.77335 9.97892 2.98724 10.1116 3.17465C10.2442 3.36207 10.4158 3.51856 10.6147 3.63339C10.8135 3.74823 11.0348 3.81868 11.2634 3.83993C11.492 3.86117 11.7226 3.8327 11.9391 3.75646L13.2514 3.2949C13.9818 4.08176 14.5261 5.02277 14.8438 6.04833L13.7854 6.95553C13.611 7.10495 13.4711 7.29031 13.3752 7.49889C13.2793 7.70748 13.2296 7.93435 13.2296 8.16394C13.2296 8.39353 13.2793 8.6204 13.3752 8.82898C13.4711 9.03757 13.611 9.22293 13.7854 9.37234L14.8438 10.2787C14.5261 11.3043 13.9818 12.2453 13.2514 13.0322L11.9383 12.5706C11.7218 12.4944 11.4912 12.4659 11.2626 12.4872C11.034 12.5084 10.8127 12.5789 10.6139 12.6937C10.415 12.8085 10.2434 12.965 10.1108 13.1524C9.97813 13.3398 9.8876 13.5537 9.84541 13.7794L9.59155 15.1482C8.54444 15.3867 7.4571 15.3867 6.40999 15.1482L6.15374 13.7794C6.11155 13.5537 6.02102 13.3398 5.88838 13.1524C5.75573 12.965 5.58411 12.8085 5.38528 12.6937C5.18646 12.5789 4.96514 12.5084 4.73652 12.4872C4.50791 12.4659 4.2774 12.4944 4.06082 12.5706L2.74856 13.0322C2.0181 12.2453 1.47389 11.3043 1.15619 10.2787L2.21459 9.37155C2.38877 9.22213 2.52858 9.03682 2.62443 8.82831C2.72028 8.6198 2.7699 8.39303 2.7699 8.16354C2.7699 7.93405 2.72028 7.70728 2.62443 7.49877C2.52858 7.29026 2.38877 7.10495 2.21459 6.95553L1.15619 6.04833C1.47366 5.02284 2.01759 4.08184 2.74777 3.2949L4.06082 3.75646ZM7.99997 5.77617C8.63314 5.77617 9.24038 6.0277 9.6881 6.47542C10.1358 6.92313 10.3873 7.53037 10.3873 8.16354C10.3873 8.79671 10.1358 9.40395 9.6881 9.85166C9.24038 10.2994 8.63314 10.5509 7.99997 10.5509C7.36681 10.5509 6.75957 10.2994 6.31185 9.85166C5.86413 9.40395 5.61261 8.79671 5.61261 8.16354C5.61261 7.53037 5.86413 6.92313 6.31185 6.47542C6.75957 6.0277 7.36681 5.77617 7.99997 5.77617Z" stroke="black" stroke-width="1.5" stroke-linecap="round" stroke-linejoin="round"/>
</svg>