<svg xmlns="http://www.w3.org/2000/svg" width="26" height="26" viewBox="0 0 26 26" fill="none">
    <g clip-path="url(#clip0_9701_40694)">
        <rect width="26" height="26" rx="2" fill="white"></rect>
        <path d="M0 23.2893L0 2.71C0 1.21331 1.21331 0 2.71 0L23.29 0C24.7867 0 26 1.21331 26 2.71V23.2893C26 24.7864 24.7864 26 23.2893 26H2.71067C1.21361 26 0 24.7864 0 23.2893Z" fill="#F5F5F5" stroke="black" stroke-width="0.903555"></path>
        <path d="M0 7.5L0 2.71067C0 1.21361 1.21361 0 2.71067 0L23.2893 0C24.7864 0 26 1.21361 26 2.71067V7.5H0Z" fill="#F5F5F5" stroke="black" stroke-width="0.903555"></path>
        <circle cx="2.75" cy="3.75" r="0.75" fill="#70B62B"></circle>
        <circle cx="4.95001" cy="3.75" r="0.75" fill="#70B62B"></circle>
        <circle cx="7.15002" cy="3.75" r="0.75" fill="#70B62B"></circle>
        <path d="M10 4H24" stroke="#70B62B" stroke-width="0.9" stroke-linecap="square"></path>
        <rect x="2.45" y="10.45" width="9.1" height="3.1" rx="0.55" stroke="black" stroke-width="0.9"></rect>
        <rect x="2.45" y="15.45" width="14.1" height="3.1" rx="0.55" stroke="black" stroke-width="0.9"></rect>
        <rect x="7.45" y="20.45" width="16.1" height="3.1" rx="0.55" stroke="black" stroke-width="0.9"></rect>
    </g>
    <defs>
        <clipPath id="clip0_9701_40694">
            <rect width="26" height="26" rx="2" fill="white"></rect>
        </clipPath>
    </defs>
</svg>