<svg xmlns="http://www.w3.org/2000/svg" width="16" height="16" viewBox="0 0 16 16" fill="none">
    <g clip-path="url(#clip0_7553_36216)">
        <g clip-path="url(#clip1_7553_36216)">
            <path d="M12.7551 5.08399C13.0491 4.79533 13.5216 4.79983 13.8101 5.09404C14.0984 5.38802 14.0939 5.86 13.8001 6.14848L8.53324 11.3202C8.44031 11.4119 8.33016 11.4845 8.20911 11.5335C8.08806 11.5826 7.9585 11.6072 7.82789 11.606C7.69729 11.6048 7.56821 11.5777 7.44809 11.5264C7.32797 11.4751 7.21918 11.4006 7.12798 11.3071L1.95537 6.03836C1.66693 5.74455 1.67129 5.27254 1.96512 4.98412C2.25891 4.69574 2.73086 4.7001 3.01927 4.99387L7.8422 9.90638L12.7551 5.08399Z" fill="#808080"/>
        </g>
    </g>
    <defs>
        <clipPath id="clip0_7553_36216">
            <rect width="16" height="16" fill="white"/>
        </clipPath>
        <clipPath id="clip1_7553_36216">
            <rect width="11.9347" height="16" fill="white" transform="translate(16.1094 2.14868) rotate(90.5324)"/>
        </clipPath>
    </defs>
</svg>