<svg xmlns="http://www.w3.org/2000/svg" width="16" height="16" viewBox="0 0 16 16" fill="none">
    <g clip-path="url(#clip0_8602_61316)">
        <g clip-path="url(#clip1_8602_61316)">
            <path d="M2.31229 5.68825C2.21731 5.59151 2.21877 5.43558 2.31552 5.34061C2.41217 5.24599 2.56727 5.24749 2.66218 5.34383L7.48588 10.257L7.83609 10.6138L8.19288 10.2636L13.1051 5.44088C13.202 5.34578 13.3576 5.34731 13.4527 5.44411C13.5478 5.54102 13.5463 5.69665 13.4495 5.79175L8.18246 10.9637L8.18148 10.9647C8.13556 11.01 8.08107 11.0454 8.02132 11.0697C7.96136 11.094 7.89718 11.1066 7.83249 11.106C7.76783 11.1054 7.70385 11.0916 7.64438 11.0662C7.58509 11.0408 7.53125 11.0044 7.48619 10.9582L7.48523 10.9573L2.31229 5.68825Z" fill="black" stroke="black"/>
        </g>
    </g>
    <defs>
        <clipPath id="clip0_8602_61316">
            <rect width="16" height="16" fill="white"/>
        </clipPath>
        <clipPath id="clip1_8602_61316">
            <rect width="11.9347" height="16" fill="white" transform="translate(16.1094 2.14868) rotate(90.5324)"/>
        </clipPath>
    </defs>
</svg>