<svg xmlns="http://www.w3.org/2000/svg" width="18" height="20" viewBox="0 0 18 20" fill="none">
    <g clip-path="url(#clip0_10701_44425)">
        <path d="M1.5 2V10V18C1.5 18.5523 1.94772 19 2.5 19H15H15.5C16.0523 19 16.5 18.5523 16.5 18V6.91421C16.5 6.649 16.3946 6.39464 16.2071 6.20711L11.2929 1.29289C11.1054 1.10536 10.851 1 10.5858 1H2.5C1.94772 1 1.5 1.44772 1.5 2Z" stroke="black" stroke-linecap="round"/>
        <path d="M11.2441 1.4504V6.04035C11.2441 6.09558 11.2889 6.14035 11.3441 6.14035H13.7098H15.9341C16.0232 6.14035 16.0678 6.03263 16.0048 5.96964L11.4149 1.37969C11.3519 1.3167 11.2441 1.36131 11.2441 1.4504Z" stroke="black" stroke-linecap="square"/>
        <path d="M7.63574 16.8315H4.45898C4.18284 16.8315 3.95898 16.6077 3.95898 16.3315V14.6567H7.63574V16.8315ZM14.04 16.3315C14.04 16.6077 13.8162 16.8315 13.54 16.8315H8.63574V14.6567H14.04V16.3315ZM7.63574 11.7466V13.6567H3.95898V11.7466H7.63574ZM14.04 11.7466V13.6567H8.63574V11.7466H14.04ZM13.54 8.36572C13.8162 8.36572 14.04 8.58959 14.04 8.86572V10.7466H8.63574V8.36572H13.54ZM4.45898 8.36572H7.63574V10.7466H3.95898V8.86572C3.95903 8.58965 4.18292 8.36578 4.45898 8.36572Z" stroke="black"/>
    </g>
    <defs>
        <clipPath id="clip0_10701_44425">
            <rect width="18" height="20" fill="white"/>
        </clipPath>
    </defs>
</svg>