<svg xmlns="http://www.w3.org/2000/svg" width="18" height="20" viewBox="0 0 18 20" fill="none">
    <g clip-path="url(#clip0_10701_44424)">
        <path d="M16.5 11.8366V6.91421C16.5 6.649 16.3946 6.39464 16.2071 6.20711L11.2929 1.29289C11.1054 1.10536 10.851 1 10.5858 1H2.5C1.94772 1 1.5 1.44772 1.5 2V10V11.8366" stroke="black" stroke-linecap="round"/>
        <path d="M11.2441 1.4504V6.04035C11.2441 6.09558 11.2889 6.14035 11.3441 6.14035H15.9341C16.0232 6.14035 16.0678 6.03263 16.0048 5.96964L11.4149 1.37969C11.3519 1.3167 11.2441 1.36131 11.2441 1.4504Z" stroke="black" stroke-linecap="square"/>
        <path d="M17.2236 14.1068C17.2236 14.2455 17.1684 14.3786 17.0703 14.4768C16.9722 14.5749 16.8391 14.63 16.7003 14.63H14.4328V16.3743H16.0026C16.1414 16.3743 16.2745 16.4294 16.3726 16.5275C16.4707 16.6257 16.5259 16.7588 16.5259 16.8976C16.5259 17.0363 16.4707 17.1694 16.3726 17.2676C16.2745 17.3657 16.1414 17.4208 16.0026 17.4208H14.4328V18.9906C14.4328 19.1294 14.3776 19.2625 14.2795 19.3607C14.1814 19.4588 14.0483 19.5139 13.9095 19.5139C13.7707 19.5139 13.6376 19.4588 13.5395 19.3607C13.4414 19.2625 13.3862 19.1294 13.3862 18.9906V14.1068C13.3862 13.968 13.4414 13.8349 13.5395 13.7368C13.6376 13.6386 13.7707 13.5835 13.9095 13.5835H16.7003C16.8391 13.5835 16.9722 13.6386 17.0703 13.7368C17.1684 13.8349 17.2236 13.968 17.2236 14.1068ZM5.71157 15.851C5.71157 16.4524 5.47267 17.0291 5.04743 17.4544C4.62219 17.8796 4.04544 18.1185 3.44406 18.1185H2.57194V18.9906C2.57194 19.1294 2.51681 19.2625 2.41867 19.3607C2.32054 19.4588 2.18744 19.5139 2.04866 19.5139C1.90988 19.5139 1.77679 19.4588 1.67865 19.3607C1.58052 19.2625 1.52539 19.1294 1.52539 18.9906V14.1068C1.52539 13.968 1.58052 13.8349 1.67865 13.7368C1.77679 13.6386 1.90988 13.5835 2.04866 13.5835H3.44406C4.04544 13.5835 4.62219 13.8224 5.04743 14.2476C5.47267 14.6729 5.71157 15.2496 5.71157 15.851ZM4.66502 15.851C4.66502 15.5272 4.53639 15.2166 4.30741 14.9877C4.07844 14.7587 3.76788 14.63 3.44406 14.63H2.57194V17.072H3.44406C3.76788 17.072 4.07844 16.9433 4.30741 16.7144C4.53639 16.4854 4.66502 16.1748 4.66502 15.851ZM11.9908 16.5487C11.9908 17.3351 11.6784 18.0893 11.1223 18.6454C10.5663 19.2015 9.81205 19.5139 9.02563 19.5139H7.63023C7.49145 19.5139 7.35836 19.4588 7.26023 19.3607C7.16209 19.2625 7.10696 19.1294 7.10696 18.9906V14.1068C7.10696 13.968 7.16209 13.8349 7.26023 13.7368C7.35836 13.6386 7.49145 13.5835 7.63023 13.5835H9.02563C9.81205 13.5835 10.5663 13.8959 11.1223 14.452C11.6784 15.0081 11.9908 15.7623 11.9908 16.5487ZM10.9443 16.5487C10.9443 16.0398 10.7421 15.5518 10.3823 15.192C10.0225 14.8322 9.53449 14.63 9.02563 14.63H8.15351V18.4674H9.02563C9.53449 18.4674 10.0225 18.2652 10.3823 17.9054C10.7421 17.5456 10.9443 17.0576 10.9443 16.5487Z" fill="black"/>
    </g>
    <defs>
        <clipPath id="clip0_10701_44424">
            <rect width="18" height="20" fill="white"/>
        </clipPath>
    </defs>
</svg>