<svg xmlns="http://www.w3.org/2000/svg" width="24" height="25" viewBox="0 0 24 25" fill="none">
    <g clip-path="url(#clip0_9070_24096)">
        <path d="M4.5 12.5V4.5C4.5 3.94772 4.94772 3.5 5.5 3.5H13.5858C13.851 3.5 14.1054 3.60536 14.2929 3.79289L19.2071 8.70711C19.3946 8.89464 19.5 9.149 19.5 9.41421V20.5C19.5 21.0523 19.0523 21.5 18.5 21.5H18" stroke="black" stroke-linecap="round"/>
        <path d="M14.2441 3.9504V8.54035C14.2441 8.59558 14.2889 8.64035 14.3441 8.64035H18.9341C19.0232 8.64035 19.0678 8.53263 19.0048 8.46964L14.4149 3.87969C14.3519 3.8167 14.2441 3.86131 14.2441 3.9504Z" stroke="black" stroke-linecap="square"/>
        <path d="M2.16592 21.5668L5.54909 16.3795C5.58926 16.3179 5.67992 16.3193 5.71821 16.382L7.05695 18.5761C7.09541 18.6391 7.18657 18.6401 7.22646 18.578L9.60827 14.8688C9.64688 14.8086 9.73426 14.8072 9.77478 14.8661L14.3875 21.5646C14.4332 21.631 14.3857 21.7214 14.3052 21.7214L2.24968 21.7214C2.17026 21.7214 2.12254 21.6333 2.16592 21.5668Z" stroke="black" stroke-linecap="square"/>
    </g>
    <defs>
        <clipPath id="clip0_9070_24096">
            <rect width="24" height="24" fill="white" transform="translate(0 0.5)"/>
        </clipPath>
    </defs>
</svg>