<svg xmlns="http://www.w3.org/2000/svg" width="18" height="20" viewBox="0 0 18 20" fill="none">
    <g clip-path="url(#clip0_10701_44425)">
        <path d="M16.5 11.8366V6.91421C16.5 6.649 16.3946 6.39464 16.2071 6.20711L11.2929 1.29289C11.1054 1.10536 10.851 1 10.5858 1H2.5C1.94772 1 1.5 1.44772 1.5 2V10V11.8366" stroke="black" stroke-linecap="round"/>
        <path d="M11.2441 1.4504V6.04035C11.2441 6.09558 11.2889 6.14035 11.3441 6.14035H15.9341C16.0232 6.14035 16.0678 6.03263 16.0048 5.96964L11.4149 1.37969C11.3519 1.3167 11.2441 1.36131 11.2441 1.4504Z" stroke="black" stroke-linecap="square"/>
        <path d="M2.54562 13.5835H1.15023C1.01144 13.5835 0.878347 13.6386 0.780215 13.7368C0.682082 13.8349 0.626953 13.968 0.626953 14.1068V18.9906C0.626953 19.1294 0.682082 19.2625 0.780215 19.3607C0.878347 19.4588 1.01144 19.5139 1.15023 19.5139H2.54562C3.33204 19.5139 4.08625 19.2015 4.64234 18.6454C5.19842 18.0893 5.51082 17.3351 5.51082 16.5487C5.51082 15.7623 5.19842 15.0081 4.64234 14.452C4.08625 13.8959 3.33204 13.5835 2.54562 13.5835ZM2.54562 18.4674H1.6735V14.63H2.54562C3.05448 14.63 3.5425 14.8322 3.90232 15.192C4.26214 15.5518 4.46428 16.0398 4.46428 16.5487C4.46428 17.0576 4.26214 17.5456 3.90232 17.9054C3.5425 18.2652 3.05448 18.4674 2.54562 18.4674ZM17.2103 17.9912C17.3104 18.0872 17.3683 18.219 17.3713 18.3577C17.3742 18.4964 17.322 18.6306 17.226 18.7308C16.9994 18.9752 16.7252 19.1707 16.4204 19.3054C16.1155 19.44 15.7863 19.511 15.453 19.5139C14.0105 19.5139 12.8366 18.1839 12.8366 16.5487C12.8366 14.9135 14.0105 13.5835 15.453 13.5835C15.7864 13.5866 16.1157 13.6579 16.4206 13.7929C16.7255 13.9278 16.9995 14.1237 17.226 14.3684C17.3175 14.4694 17.3659 14.602 17.3611 14.7382C17.3563 14.8743 17.2986 15.0032 17.2003 15.0975C17.1019 15.1917 16.9707 15.2439 16.8345 15.2429C16.6982 15.242 16.5678 15.1879 16.4708 15.0923C16.3414 14.9502 16.1844 14.8359 16.0094 14.7564C15.8345 14.677 15.6451 14.634 15.453 14.63C14.587 14.63 13.8832 15.4908 13.8832 16.5487C13.8832 17.6066 14.587 18.4674 15.453 18.4674C15.645 18.4637 15.8343 18.4209 16.0092 18.3418C16.1842 18.2626 16.3412 18.1487 16.4708 18.0069C16.5668 17.9068 16.6986 17.8489 16.8373 17.846C16.976 17.843 17.1101 17.8953 17.2103 17.9912ZM9.17373 13.5835C7.73124 13.5835 6.55737 14.9135 6.55737 16.5487C6.55737 18.1839 7.73124 19.5139 9.17373 19.5139C10.6162 19.5139 11.7901 18.1839 11.7901 16.5487C11.7901 14.9135 10.6162 13.5835 9.17373 13.5835ZM9.17373 18.4674C8.30771 18.4674 7.60391 17.6066 7.60391 16.5487C7.60391 15.4908 8.30771 14.63 9.17373 14.63C10.0397 14.63 10.7435 15.4908 10.7435 16.5487C10.7435 17.6066 10.0397 18.4674 9.17373 18.4674Z" fill="black"/>
    </g>
    <defs>
        <clipPath id="clip0_10701_44425">
            <rect width="18" height="20" fill="white"/>
        </clipPath>
    </defs>
</svg>