<svg xmlns="http://www.w3.org/2000/svg" width="21" height="21" viewBox="0 0 21 21" fill="none">
    <path d="M5.50076 8.27753L5.48535 7.46527C5.48535 4.72289 7.70849 2.49976 10.4509 2.49976C13.1932 2.49976 15.4164 4.72289 15.4164 7.46527V8.4158" stroke="black" stroke-width="1.5"/>
    <path d="M3.27832 16.0906V10.978C3.27832 9.64759 4.35682 8.56909 5.68721 8.56909H15.2143C16.5447 8.56909 17.6231 9.64759 17.6231 10.978V16.0906C17.6231 17.4214 16.5444 18.5001 15.2137 18.5001H5.6878C4.35708 18.5001 3.27832 17.4214 3.27832 16.0906Z" stroke="black" stroke-width="1.5"/>
    <mask id="path-3-inside-1_10707_41872" fill="white">
        <path d="M8.79447 14.2612C8.61488 14.2612 8.46234 14.1907 8.33686 14.0495C8.21138 13.9083 8.14864 13.7367 8.14864 13.5347C8.14864 13.3326 8.21138 13.161 8.33686 13.0199C8.46234 12.8787 8.61488 12.8081 8.79447 12.8081C8.97406 12.8081 9.1266 12.8787 9.25208 13.0199C9.37757 13.161 9.44031 13.3326 9.44031 13.5347C9.44031 13.7367 9.37757 13.9083 9.25208 14.0495C9.1266 14.1907 8.97406 14.2612 8.79447 14.2612ZM8.79447 15.3967C9.18514 15.3967 9.52649 15.2725 9.8185 15.024C10.1105 14.7761 10.298 14.4764 10.3811 14.1251H11.3782L11.7522 14.4478C11.778 14.4667 11.8048 14.4819 11.8323 14.4935C11.8598 14.505 11.8901 14.5106 11.9232 14.5104C11.9564 14.5101 11.9866 14.5045 12.0139 14.4935C12.0411 14.4819 12.0678 14.4641 12.094 14.4399L12.5687 14.0267L12.9928 14.3939C13.0231 14.4164 13.0557 14.4347 13.0907 14.4486C13.1255 14.4625 13.1594 14.4662 13.1925 14.4596C13.2256 14.4531 13.2578 14.442 13.2891 14.4265C13.3203 14.4111 13.3483 14.3888 13.373 14.3596L13.8775 13.7547C13.9067 13.7206 13.9275 13.6856 13.9398 13.6496C13.9519 13.6139 13.958 13.5748 13.958 13.5323C13.958 13.4898 13.9516 13.4511 13.9388 13.4162C13.9259 13.3813 13.9048 13.3475 13.8754 13.3147L13.6312 13.0395C13.6009 13.0054 13.5683 12.981 13.5333 12.9663C13.4983 12.9516 13.4621 12.9443 13.4248 12.9443H10.3811C10.2994 12.5992 10.1135 12.301 9.8234 12.0497C9.53348 11.7983 9.19051 11.6726 8.79447 11.6726C8.328 11.6726 7.93546 11.8518 7.61685 12.2102C7.29872 12.5684 7.13965 13.0099 7.13965 13.5347C7.13965 14.0595 7.29895 14.5011 7.61755 14.8595C7.93616 15.2179 8.32846 15.3969 8.79447 15.3964"/>
    </mask>
    <path d="M8.79447 14.2612C8.61488 14.2612 8.46234 14.1907 8.33686 14.0495C8.21138 13.9083 8.14864 13.7367 8.14864 13.5347C8.14864 13.3326 8.21138 13.161 8.33686 13.0199C8.46234 12.8787 8.61488 12.8081 8.79447 12.8081C8.97406 12.8081 9.1266 12.8787 9.25208 13.0199C9.37757 13.161 9.44031 13.3326 9.44031 13.5347C9.44031 13.7367 9.37757 13.9083 9.25208 14.0495C9.1266 14.1907 8.97406 14.2612 8.79447 14.2612ZM8.79447 15.3967C9.18514 15.3967 9.52649 15.2725 9.8185 15.024C10.1105 14.7761 10.298 14.4764 10.3811 14.1251H11.3782L11.7522 14.4478C11.778 14.4667 11.8048 14.4819 11.8323 14.4935C11.8598 14.505 11.8901 14.5106 11.9232 14.5104C11.9564 14.5101 11.9866 14.5045 12.0139 14.4935C12.0411 14.4819 12.0678 14.4641 12.094 14.4399L12.5687 14.0267L12.9928 14.3939C13.0231 14.4164 13.0557 14.4347 13.0907 14.4486C13.1255 14.4625 13.1594 14.4662 13.1925 14.4596C13.2256 14.4531 13.2578 14.442 13.2891 14.4265C13.3203 14.4111 13.3483 14.3888 13.373 14.3596L13.8775 13.7547C13.9067 13.7206 13.9275 13.6856 13.9398 13.6496C13.9519 13.6139 13.958 13.5748 13.958 13.5323C13.958 13.4898 13.9516 13.4511 13.9388 13.4162C13.9259 13.3813 13.9048 13.3475 13.8754 13.3147L13.6312 13.0395C13.6009 13.0054 13.5683 12.981 13.5333 12.9663C13.4983 12.9516 13.4621 12.9443 13.4248 12.9443H10.3811C10.2994 12.5992 10.1135 12.301 9.8234 12.0497C9.53348 11.7983 9.19051 11.6726 8.79447 11.6726C8.328 11.6726 7.93546 11.8518 7.61685 12.2102C7.29872 12.5684 7.13965 13.0099 7.13965 13.5347C7.13965 14.0595 7.29895 14.5011 7.61755 14.8595C7.93616 15.2179 8.32846 15.3969 8.79447 15.3964" fill="black"/>
    <path d="M9.8185 15.024L8.8476 13.8806L8.84641 13.8816L9.8185 15.024ZM10.3811 14.1251V12.6251H9.19425L8.92128 13.7801L10.3811 14.1251ZM11.3782 14.1251L12.3582 12.9894L11.9359 12.6251H11.3782V14.1251ZM11.7522 14.4478L10.7722 15.5834L10.8185 15.6234L10.868 15.6595L11.7522 14.4478ZM12.0139 14.4935L12.5755 15.8843L12.587 15.8797L12.5983 15.8749L12.0139 14.4935ZM12.094 14.4399L11.1091 13.3085L11.0923 13.3232L11.0759 13.3383L12.094 14.4399ZM12.5687 14.0267L13.5507 12.8928L12.5662 12.0402L11.5839 12.8953L12.5687 14.0267ZM12.9928 14.3939L12.0108 15.5278L12.0527 15.5641L12.0972 15.5972L12.9928 14.3939ZM13.0907 14.4486L13.648 13.056L13.6448 13.0547L13.0907 14.4486ZM13.373 14.3596L14.5166 15.3304L14.525 15.3203L13.373 14.3596ZM13.8775 13.7547L12.7373 12.7801L12.7314 12.787L12.7256 12.794L13.8775 13.7547ZM13.9398 13.6496L15.3583 14.1374L15.36 14.1323L13.9398 13.6496ZM13.8754 13.3147L12.7536 14.3104L12.7583 14.3156L13.8754 13.3147ZM13.6312 13.0395L14.7531 12.0438L14.7524 12.043L13.6312 13.0395ZM10.3811 12.9443L8.92137 13.2896L9.19454 14.4443H10.3811V12.9443ZM9.8234 12.0497L8.84075 13.183L8.8412 13.1834L9.8234 12.0497ZM7.61685 12.2102L6.49574 11.2137L6.49538 11.2141L7.61685 12.2102ZM8.79447 14.2612V12.7612C8.90704 12.7612 9.0408 12.7847 9.1753 12.847C9.30793 12.9084 9.40074 12.9886 9.45797 13.0529L8.33686 14.0495L7.21574 15.046C7.60919 15.4887 8.16193 15.7612 8.79447 15.7612V14.2612ZM8.33686 14.0495L9.45797 13.0529C9.51624 13.1185 9.5689 13.2025 9.60448 13.2998C9.6395 13.3956 9.64864 13.4785 9.64864 13.5347H8.14864H6.64864C6.64864 14.0762 6.8283 14.6102 7.21574 15.046L8.33686 14.0495ZM8.14864 13.5347H9.64864C9.64864 13.5908 9.6395 13.6738 9.60448 13.7695C9.5689 13.8668 9.51624 13.9509 9.45797 14.0164L8.33686 13.0199L7.21574 12.0233C6.8283 12.4592 6.64864 12.9931 6.64864 13.5347H8.14864ZM8.33686 13.0199L9.45797 14.0164C9.40074 14.0808 9.30793 14.161 9.1753 14.2224C9.0408 14.2846 8.90704 14.3081 8.79447 14.3081V12.8081V11.3081C8.16193 11.3081 7.60919 11.5807 7.21574 12.0233L8.33686 13.0199ZM8.79447 12.8081V14.3081C8.6819 14.3081 8.54814 14.2846 8.41365 14.2224C8.28101 14.161 8.18821 14.0808 8.13097 14.0164L9.25208 13.0199L10.3732 12.0233C9.97975 11.5807 9.42701 11.3081 8.79447 11.3081V12.8081ZM9.25208 13.0199L8.13097 14.0164C8.0727 13.9509 8.02004 13.8668 7.98446 13.7695C7.94944 13.6738 7.94031 13.5908 7.94031 13.5347H9.44031H10.9403C10.9403 12.9931 10.7606 12.4592 10.3732 12.0233L9.25208 13.0199ZM9.44031 13.5347H7.94031C7.94031 13.4785 7.94944 13.3956 7.98446 13.2998C8.02004 13.2025 8.0727 13.1185 8.13097 13.0529L9.25208 14.0495L10.3732 15.046C10.7606 14.6102 10.9403 14.0762 10.9403 13.5347H9.44031ZM9.25208 14.0495L8.13097 13.0529C8.18821 12.9886 8.28101 12.9084 8.41365 12.847C8.54814 12.7847 8.6819 12.7612 8.79447 12.7612V14.2612V15.7612C9.42701 15.7612 9.97975 15.4887 10.3732 15.046L9.25208 14.0495ZM8.79447 15.3967V16.8967C9.53399 16.8967 10.2217 16.6505 10.7906 16.1664L9.8185 15.024L8.84641 13.8816C8.83651 13.8901 8.83082 13.8935 8.82946 13.8943C8.82822 13.8951 8.82882 13.8946 8.83044 13.894C8.83203 13.8934 8.83143 13.8939 8.82723 13.8946C8.82285 13.8953 8.8124 13.8967 8.79447 13.8967V15.3967ZM9.8185 15.024L10.7894 16.1674C11.3095 15.7258 11.6796 15.1525 11.8409 14.47L10.3811 14.1251L8.92128 13.7801C8.91651 13.8003 8.91151 13.8264 8.8476 13.8806L9.8185 15.024ZM10.3811 14.1251V15.6251H11.3782V14.1251V12.6251H10.3811V14.1251ZM11.3782 14.1251L10.3982 15.2607L10.7722 15.5834L11.7522 14.4478L12.7321 13.3122L12.3582 12.9894L11.3782 14.1251ZM11.7522 14.4478L10.868 15.6595C10.9812 15.7422 11.1092 15.8168 11.252 15.8767L11.8323 14.4935L12.4125 13.1102C12.5003 13.147 12.5749 13.1912 12.6364 13.2361L11.7522 14.4478ZM11.8323 14.4935L11.252 15.8767C11.4866 15.9751 11.7211 16.012 11.9351 16.0103L11.9232 14.5104L11.9114 13.0104C12.0591 13.0093 12.233 13.0349 12.4125 13.1102L11.8323 14.4935ZM11.9232 14.5104L11.9351 16.0103C12.1332 16.0088 12.3529 15.9742 12.5755 15.8843L12.0139 14.4935L11.4522 13.1026C11.6202 13.0347 11.7795 13.0115 11.9114 13.0104L11.9232 14.5104ZM12.0139 14.4935L12.5983 15.8749C12.8136 15.7838 12.9834 15.6604 13.112 15.5416L12.094 14.4399L11.0759 13.3383C11.1523 13.2677 11.2687 13.18 11.4294 13.112L12.0139 14.4935ZM12.094 14.4399L13.0788 15.5713L13.5536 15.1581L12.5687 14.0267L11.5839 12.8953L11.1091 13.3085L12.094 14.4399ZM12.5687 14.0267L11.5867 15.1606L12.0108 15.5278L12.9928 14.3939L13.9747 13.26L13.5507 12.8928L12.5687 14.0267ZM12.9928 14.3939L12.0972 15.5972C12.2321 15.6976 12.3795 15.78 12.5366 15.8425L13.0907 14.4486L13.6448 13.0547C13.7319 13.0893 13.814 13.1353 13.8883 13.1906L12.9928 14.3939ZM13.0907 14.4486L12.5334 15.8412C12.8072 15.9508 13.1358 16 13.484 15.931L13.1925 14.4596L12.9011 12.9882C13.183 12.9324 13.4438 12.9742 13.648 13.056L13.0907 14.4486ZM13.1925 14.4596L13.484 15.931C13.6512 15.8979 13.8089 15.843 13.9549 15.7707L13.2891 14.4265L12.6233 13.0824C12.7067 13.0411 12.8001 13.0082 12.9011 12.9882L13.1925 14.4596ZM13.2891 14.4265L13.9549 15.7707C14.1859 15.6562 14.3724 15.5002 14.5166 15.3303L13.373 14.3596L12.2295 13.3889C12.3242 13.2773 12.4547 13.1659 12.6233 13.0824L13.2891 14.4265ZM13.373 14.3596L14.525 15.3203L15.0295 14.7154L13.8775 13.7547L12.7256 12.794L12.2211 13.3989L13.373 14.3596ZM13.8775 13.7547L15.0178 14.7293C15.1478 14.5772 15.2746 14.3807 15.3583 14.1374L13.9398 13.6496L12.5213 13.1618C12.5803 12.9904 12.6656 12.864 12.7373 12.7801L13.8775 13.7547ZM13.9398 13.6496L15.36 14.1323C15.4313 13.9227 15.458 13.7183 15.458 13.5323H13.958H12.458C12.458 13.4314 12.4726 13.3052 12.5196 13.1669L13.9398 13.6496ZM13.958 13.5323H15.458C15.458 13.3382 15.4285 13.1212 15.3467 12.8987L13.9388 13.4162L12.5309 13.9337C12.4747 13.781 12.458 13.6414 12.458 13.5323H13.958ZM13.9388 13.4162L15.3467 12.8987C15.2575 12.6561 15.1257 12.4623 14.9926 12.3137L13.8754 13.3147L12.7583 14.3156C12.6839 14.2327 12.5944 14.1065 12.5309 13.9337L13.9388 13.4162ZM13.8754 13.3147L14.9973 12.3189L14.7531 12.0438L13.6312 13.0395L12.5094 14.0353L12.7536 14.3104L13.8754 13.3147ZM13.6312 13.0395L14.7524 12.043C14.6029 11.8748 14.3935 11.7007 14.1141 11.5834L13.5333 12.9663L12.9524 14.3493C12.743 14.2614 12.599 14.136 12.5101 14.0361L13.6312 13.0395ZM13.5333 12.9663L14.1141 11.5834C13.8984 11.4928 13.665 11.4443 13.4248 11.4443V12.9443V14.4443C13.2593 14.4443 13.0982 14.4105 12.9524 14.3493L13.5333 12.9663ZM13.4248 12.9443V11.4443H10.3811V12.9443V14.4443H13.4248V12.9443ZM10.3811 12.9443L11.8408 12.5989C11.6806 11.9218 11.3129 11.3555 10.8056 10.916L9.8234 12.0497L8.8412 13.1834C8.91415 13.2466 8.9183 13.2767 8.92137 13.2896L10.3811 12.9443ZM9.8234 12.0497L10.806 10.9164C10.2339 10.4203 9.53882 10.1726 8.79447 10.1726V11.6726V13.1726C8.81393 13.1726 8.8253 13.1741 8.83005 13.1749C8.83461 13.1757 8.83496 13.1761 8.83261 13.1753C8.83163 13.1749 8.83058 13.1745 8.82962 13.174C8.82866 13.1736 8.82818 13.1733 8.82828 13.1733C8.82839 13.1734 8.82941 13.174 8.83136 13.1754C8.83333 13.1769 8.83647 13.1793 8.84075 13.183L9.8234 12.0497ZM8.79447 11.6726V10.1726C7.88602 10.1726 7.08988 10.5453 6.49574 11.2137L7.61685 12.2102L8.73797 13.2068C8.75709 13.1853 8.76962 13.1751 8.77428 13.1716C8.7786 13.1683 8.77802 13.1693 8.77318 13.1715C8.76826 13.1738 8.76468 13.1746 8.76482 13.1746C8.76531 13.1745 8.77433 13.1726 8.79447 13.1726V11.6726ZM7.61685 12.2102L6.49538 11.2141C5.90937 11.8739 5.63965 12.6806 5.63965 13.5347H7.13965H8.63965C8.63965 13.3392 8.68807 13.263 8.73833 13.2064L7.61685 12.2102ZM7.13965 13.5347H5.63965C5.63965 14.3894 5.90998 15.1963 6.49644 15.856L7.61755 14.8595L8.73867 13.863C8.68792 13.8059 8.63965 13.7295 8.63965 13.5347H7.13965ZM7.61755 14.8595L6.49644 15.856C7.09063 16.5245 7.88707 16.8974 8.79616 16.8964L8.79447 15.3964L8.79278 13.8964C8.77295 13.8964 8.76426 13.8945 8.76408 13.8945C8.76379 13.8944 8.76481 13.8946 8.7668 13.8953C8.7688 13.8959 8.77104 13.8968 8.77326 13.8978C8.77833 13.9001 8.77906 13.9013 8.77484 13.8981C8.77028 13.8946 8.7578 13.8845 8.73867 13.863L7.61755 14.8595Z" fill="black" mask="url(#path-3-inside-1_10707_41872)"/>
</svg>