<svg xmlns="http://www.w3.org/2000/svg" width="23" height="19" viewBox="0 0 23 19" fill="none">
    <path d="M8.97977 17.3983C8.71058 17.3187 8.46764 17.1684 8.27621 16.9631C8.08478 16.7578 7.95186 16.5049 7.89128 16.2308C7.83114 15.9826 7.71326 15.7522 7.54722 15.5582C7.38118 15.3641 7.17168 15.2121 6.93576 15.1143C6.69985 15.0166 6.44419 14.9759 6.18959 14.9957C5.935 15.0154 5.68866 15.095 5.47063 15.2279C4.01899 16.1123 2.35662 14.4508 3.24096 12.9983C3.37371 12.7803 3.45315 12.5341 3.47285 12.2797C3.49254 12.0253 3.45192 11.7698 3.3543 11.534C3.25667 11.2983 3.10479 11.0889 2.911 10.9228C2.71721 10.7568 2.48698 10.6389 2.23902 10.5786C0.586994 10.1778 0.586994 7.8277 2.23902 7.42692C2.4872 7.36679 2.71767 7.2489 2.91168 7.08287C3.10569 6.91683 3.25776 6.70732 3.3555 6.47141C3.45324 6.23549 3.49389 5.97983 3.47415 5.72524C3.45441 5.47064 3.37484 5.2243 3.2419 5.00627C2.35756 3.55464 4.01899 1.89226 5.47157 2.7766C6.41236 3.3486 7.63162 2.84246 7.89128 1.77466C8.29205 0.122638 10.6421 0.122638 11.0429 1.77466C11.1031 2.02284 11.2209 2.25332 11.387 2.44733C11.553 2.64134 11.7625 2.7934 11.9984 2.89114C12.2343 2.98888 12.49 3.02954 12.7446 3.0098C12.9992 2.99006 13.2455 2.91048 13.4636 2.77754C14.9152 1.8932 16.5776 3.55464 15.6932 5.00721C15.5605 5.22515 15.481 5.47134 15.4613 5.72576C15.4417 5.98019 15.4823 6.23567 15.5799 6.47144C15.6775 6.70721 15.8294 6.91662 16.0232 7.08264C16.217 7.24867 16.4472 7.36662 16.6952 7.42692C17.9295 7.72609 18.2418 9.1147 17.6313 9.96423"
          stroke="white" stroke-linecap="round" stroke-linejoin="round"></path>
    <path d="M6.64453 9.00279C6.64453 9.75132 6.94189 10.4692 7.47118 10.9985C8.00048 11.5278 8.71836 11.8252 9.4669 11.8252C10.2154 11.8252 10.9333 11.5278 11.4626 10.9985C11.9919 10.4692 12.2893 9.75132 12.2893 9.00279C12.2893 8.25425 11.9919 7.53637 11.4626 7.00707C10.9333 6.47778 10.2154 6.18042 9.4669 6.18042C8.71836 6.18042 8.00048 6.47778 7.47118 7.00707C6.94189 7.53637 6.64453 8.25425 6.64453 9.00279Z"
          stroke="white" stroke-linecap="round" stroke-linejoin="round"></path>
    <path d="M19.7039 17.2988L21.5855 15.4172L19.7039 13.5356M16.8816 13.5356L15 15.4172L16.8816 17.2988" stroke="white"
          stroke-linecap="round" stroke-linejoin="round"></path>
    <path d="M1.0377 8.46108C1.11791 8.19207 1.26873 7.94946 1.47448 7.75849C1.68023 7.56751 1.93338 7.43515 2.20762 7.37517C2.45593 7.31559 2.68666 7.19821 2.88104 7.0326C3.07542 6.86699 3.22794 6.65782 3.3262 6.42212C3.42446 6.18643 3.46568 5.93086 3.4465 5.67622C3.42733 5.42158 3.34829 5.17506 3.21584 4.95674C2.3347 3.50316 3.9998 1.84445 5.45043 2.732C5.66807 2.86523 5.91408 2.94522 6.16846 2.96547C6.42284 2.98573 6.67841 2.94568 6.9144 2.84857C7.15038 2.75146 7.36013 2.60004 7.52658 2.40662C7.69303 2.2132 7.81149 1.98323 7.87234 1.7354C8.27676 0.0842664 10.6268 0.0894537 11.024 1.74236C11.0836 1.99067 11.2009 2.2214 11.3665 2.41578C11.5322 2.61016 11.7413 2.76268 11.977 2.86094C12.2127 2.9592 12.4683 3.00042 12.7229 2.98124C12.9776 2.96207 13.2241 2.88303 13.4424 2.75058C14.896 1.86945 16.5547 3.53454 15.6671 4.98517C15.0931 5.92469 15.5965 7.14507 16.6637 7.40708C18.3149 7.8115 18.3097 10.1616 16.6568 10.5587C16.4085 10.6183 16.1777 10.7357 15.9834 10.9013M11.95 15.0853C11.714 15.1824 11.5043 15.3338 11.3378 15.5273C11.1714 15.7207 11.0529 15.9507 10.9921 16.1985C10.6902 17.4321 9.30088 17.7414 8.4527 17.129"
          stroke="white" stroke-linecap="round" stroke-linejoin="round"></path>
</svg>