<svg xmlns="http://www.w3.org/2000/svg" width="12" height="12" viewBox="0 0 16 16" fill="none">
    <g clip-path="url(#clip0_3114_3006)">
        <path d="M6.10195 3.60534C6.94662 2.09067 7.36862 1.33334 7.99995 1.33334C8.63129 1.33334 9.05329 2.09067 9.89795 3.60534L10.1166 3.99734C10.3566 4.428 10.4766 4.64334 10.6633 4.78534C10.85 4.92734 11.0833 4.98 11.55 5.08534L11.974 5.18134C13.614 5.55267 14.4333 5.738 14.6286 6.36534C14.8233 6.992 14.2646 7.646 13.1466 8.95334L12.8573 9.29134C12.54 9.66267 12.3806 9.84867 12.3093 10.078C12.238 10.308 12.262 10.556 12.31 11.0513L12.354 11.5027C12.5226 13.2473 12.6073 14.1193 12.0966 14.5067C11.586 14.894 10.818 14.5407 9.28329 13.834L8.88529 13.6513C8.44929 13.45 8.23129 13.35 7.99995 13.35C7.76862 13.35 7.55062 13.45 7.11462 13.6513L6.71729 13.834C5.18195 14.5407 4.41395 14.894 3.90395 14.5073C3.39262 14.1193 3.47729 13.2473 3.64595 11.5027L3.68995 11.052C3.73795 10.556 3.76195 10.308 3.68995 10.0787C3.61929 9.84867 3.45995 9.66267 3.14262 9.292L2.85329 8.95334C1.73529 7.64667 1.17662 6.99267 1.37129 6.36534C1.56595 5.738 2.38662 5.552 4.02662 5.18134L4.45062 5.08534C4.91662 4.98 5.14929 4.92734 5.33662 4.78534C5.52395 4.64334 5.64329 4.428 5.88329 3.99734L6.10195 3.60534Z" fill="#70B62B" stroke="#70B62B" stroke-width="1.5"/>
    </g>
    <defs>
        <clipPath id="clip0_3114_3006">
            <rect width="16" height="16" fill="white"/>
        </clipPath>
    </defs>
</svg>