<svg xmlns="http://www.w3.org/2000/svg" width="16" height="16" viewBox="0 0 16 16" fill="none">
    <path d="M3.91243 6.08761L3.89917 5.38859C3.89917 3.02856 5.81235 1.11538 8.17238 1.11538C10.5324 1.11538 12.4456 3.02856 12.4456 5.38859V6.20659" stroke="#808080" stroke-width="1.5"/>
    <path d="M2 12.8111V8.41123C2 7.26633 2.92813 6.3382 4.07304 6.3382H12.2718C13.4167 6.3382 14.3448 7.26633 14.3448 8.41123V12.8111C14.3448 13.9563 13.4165 14.8846 12.2713 14.8846H4.07354C2.92836 14.8846 2 13.9563 2 12.8111Z" stroke="#808080" stroke-width="1.5"/>
    <path d="M6.74759 11.2367C6.59303 11.2367 6.46176 11.1759 6.35378 11.0544C6.24579 10.933 6.1918 10.7853 6.1918 10.6114C6.1918 10.4375 6.24579 10.2899 6.35378 10.1684C6.46176 10.0469 6.59303 9.98614 6.74759 9.98614C6.90214 9.98614 7.03341 10.0469 7.1414 10.1684C7.24939 10.2899 7.30338 10.4375 7.30338 10.6114C7.30338 10.7853 7.24939 10.933 7.1414 11.0544C7.03341 11.1759 6.90214 11.2367 6.74759 11.2367ZM6.74759 12.2139C7.08379 12.2139 7.37755 12.1069 7.62885 11.8931C7.88015 11.6797 8.04152 11.4218 8.11298 11.1195H8.97105L9.29291 11.3972C9.31519 11.4135 9.33817 11.4266 9.36185 11.4365C9.38554 11.4464 9.41163 11.4513 9.44014 11.4511C9.46864 11.4509 9.49463 11.446 9.51811 11.4365C9.5416 11.4266 9.56458 11.4112 9.58706 11.3904L9.99562 11.0348L10.3605 11.3508C10.3866 11.3702 10.4147 11.3859 10.4448 11.3979C10.4747 11.4099 10.5039 11.413 10.5324 11.4074C10.5609 11.4017 10.5886 11.3923 10.6155 11.3789C10.6424 11.3656 10.6665 11.3464 10.6878 11.3214L11.122 10.8007C11.147 10.7714 11.1649 10.7412 11.1756 10.7103C11.186 10.6796 11.1912 10.646 11.1912 10.6094C11.1912 10.5728 11.1857 10.5395 11.1746 10.5095C11.1636 10.4794 11.1454 10.4503 11.1202 10.4221L10.91 10.1853C10.8839 10.1559 10.8558 10.1349 10.8257 10.1223C10.7956 10.1097 10.7645 10.1033 10.7324 10.1033H8.11298C8.04273 9.8064 7.88276 9.54977 7.63306 9.33344C7.38357 9.11712 7.08841 9.00895 6.74759 9.00895C6.34615 9.00895 6.00834 9.16318 5.73416 9.47164C5.46038 9.77987 5.32349 10.1598 5.32349 10.6114C5.32349 11.063 5.46058 11.4431 5.73476 11.7515C6.00894 12.06 6.34655 12.214 6.74759 12.2135" fill="#808080"/>
</svg>