<svg xmlns="http://www.w3.org/2000/svg" width="16" height="16" viewBox="0 0 16 16" fill="none">
    <g clip-path="url(#clip0_7370_34479)">
        <g clip-path="url(#clip1_7370_34479)">
            <path d="M7.22 14.6018C7.00833 14.5392 6.8173 14.4211 6.66678 14.2596C6.51625 14.0982 6.41173 13.8993 6.36409 13.6838C6.31681 13.4886 6.22412 13.3074 6.09355 13.1549C5.96299 13.0023 5.79826 12.8827 5.61275 12.8059C5.42724 12.729 5.22621 12.6971 5.02602 12.7126C4.82582 12.7281 4.63212 12.7907 4.46068 12.8952C3.31922 13.5906 2.01205 12.2842 2.70743 11.142C2.81182 10.9706 2.87429 10.777 2.88977 10.5769C2.90526 10.3769 2.87332 10.176 2.79655 9.9906C2.71979 9.80521 2.60036 9.64055 2.44798 9.51C2.2956 9.37945 2.11456 9.2867 1.91958 9.23928C0.620555 8.92414 0.620555 7.07621 1.91958 6.76107C2.11473 6.71378 2.29596 6.62109 2.44852 6.49053C2.60107 6.35997 2.72064 6.19523 2.7975 6.00972C2.87435 5.82422 2.90632 5.62319 2.8908 5.42299C2.87528 5.22279 2.8127 5.02909 2.70817 4.85765C2.01279 3.71619 3.31922 2.40903 4.46142 3.10441C5.20118 3.55418 6.15992 3.15619 6.36409 2.31656C6.67923 1.01753 8.52717 1.01753 8.84231 2.31656C8.88959 2.51171 8.98229 2.69293 9.11285 2.84549C9.24341 2.99804 9.40815 3.11761 9.59365 3.19447C9.77916 3.27133 9.98019 3.30329 10.1804 3.28777C10.3806 3.27225 10.5743 3.20968 10.7457 3.10515C11.8872 2.40977 13.1943 3.71619 12.499 4.85839C12.3946 5.02976 12.3321 5.22334 12.3166 5.4234C12.3011 5.62346 12.3331 5.82435 12.4098 6.00975C12.4866 6.19514 12.606 6.3598 12.7584 6.49035C12.9108 6.6209 13.0918 6.71365 13.2868 6.76107C14.2574 6.99631 14.503 8.08821 14.0229 8.75621" stroke="#808080" stroke-width="1.5" stroke-linecap="round" stroke-linejoin="round"/>
            <path d="M13.5222 14.6579L15.0017 13.1784L13.5222 11.6989M11.3029 11.6989L9.82336 13.1784L11.3029 14.6579M5.38477 8.00006C5.38477 8.58865 5.61858 9.15314 6.03478 9.56934C6.45098 9.98554 7.01547 10.2194 7.60406 10.2194C8.19266 10.2194 8.75714 9.98554 9.17334 9.56934C9.58954 9.15314 9.82336 8.58865 9.82336 8.00006C9.82336 7.41146 9.58954 6.84698 9.17334 6.43078C8.75714 6.01458 8.19266 5.78076 7.60406 5.78076C7.01547 5.78076 6.45098 6.01458 6.03478 6.43078C5.61858 6.84698 5.38477 7.41146 5.38477 8.00006Z" stroke="#808080" stroke-width="1.5" stroke-linecap="round" stroke-linejoin="round"/>
        </g>
    </g>
    <defs>
        <clipPath id="clip0_7370_34479">
            <rect width="16" height="16" fill="white"/>
        </clipPath>
        <clipPath id="clip1_7370_34479">
            <rect width="16" height="16" fill="white"/>
        </clipPath>
    </defs>
</svg>