<svg xmlns="http://www.w3.org/2000/svg" width="16" height="16" viewBox="0 0 16 16" fill="none">
    <g clip-path="url(#clip0_7370_14360)">
        <g clip-path="url(#clip1_7370_14360)">
            <g clip-path="url(#clip2_7370_14360)">
                <path d="M7.22 14.6016C7.00833 14.539 6.8173 14.4208 6.66678 14.2594C6.51625 14.0979 6.41173 13.8991 6.36409 13.6835C6.31681 13.4884 6.22412 13.3072 6.09355 13.1546C5.96299 13.0021 5.79826 12.8825 5.61275 12.8056C5.42724 12.7288 5.22621 12.6968 5.02602 12.7123C4.82582 12.7279 4.63212 12.7904 4.46068 12.895C3.31922 13.5903 2.01205 12.2839 2.70743 11.1417C2.81182 10.9703 2.87429 10.7768 2.88977 10.5767C2.90526 10.3766 2.87332 10.1758 2.79655 9.99036C2.71979 9.80496 2.60036 9.6403 2.44798 9.50975C2.2956 9.3792 2.11456 9.28645 1.91958 9.23904C0.620555 8.9239 0.620555 7.07596 1.91958 6.76082C2.11473 6.71354 2.29596 6.62084 2.44852 6.49028C2.60107 6.35972 2.72064 6.19498 2.7975 6.00948C2.87435 5.82397 2.90632 5.62294 2.8908 5.42275C2.87528 5.22255 2.8127 5.02885 2.70817 4.85741C2.01279 3.71595 3.31922 2.40878 4.46142 3.10416C5.20118 3.55394 6.15992 3.15595 6.36409 2.31631C6.67923 1.01728 8.52717 1.01728 8.84231 2.31631C8.88959 2.51146 8.98229 2.69269 9.11285 2.84524C9.24341 2.9978 9.40815 3.11737 9.59365 3.19423C9.77916 3.27108 9.98019 3.30305 10.1804 3.28753C10.3806 3.27201 10.5743 3.20943 10.7457 3.1049C11.8872 2.40952 13.1943 3.71595 12.499 4.85815C12.3946 5.02952 12.3321 5.2231 12.3166 5.42316C12.3011 5.62322 12.3331 5.82411 12.4098 6.0095C12.4866 6.19489 12.606 6.35956 12.7584 6.49011C12.9108 6.62066 13.0918 6.71341 13.2868 6.76082C14.2574 6.99607 14.503 8.08796 14.0229 8.75597" stroke="white" stroke-width="1.5" stroke-linecap="round" stroke-linejoin="round"/>
                <path d="M13.5222 14.6577L15.0017 13.1782L13.5222 11.6986M11.3029 11.6986L9.82336 13.1782L11.3029 14.6577M5.38477 7.99981C5.38477 8.58841 5.61858 9.15289 6.03478 9.56909C6.45098 9.98529 7.01547 10.2191 7.60406 10.2191C8.19266 10.2191 8.75714 9.98529 9.17334 9.56909C9.58954 9.15289 9.82336 8.58841 9.82336 7.99981C9.82336 7.41122 9.58954 6.84673 9.17334 6.43053C8.75714 6.01434 8.19266 5.78052 7.60406 5.78052C7.01547 5.78052 6.45098 6.01434 6.03478 6.43053C5.61858 6.84673 5.38477 7.41122 5.38477 7.99981Z" stroke="white" stroke-width="1.5" stroke-linecap="round" stroke-linejoin="round"/>
            </g>
        </g>
    </g>
    <defs>
        <clipPath id="clip0_7370_14360">
            <rect width="16" height="16" fill="white"/>
        </clipPath>
        <clipPath id="clip1_7370_14360">
            <rect width="16" height="16" fill="white"/>
        </clipPath>
        <clipPath id="clip2_7370_14360">
            <rect width="16" height="16" fill="white"/>
        </clipPath>
    </defs>
</svg>