<svg width="16" height="16" viewBox="0 0 16 16" fill="none" xmlns="http://www.w3.org/2000/svg">
<g clip-path="url(#clip0_7702_23754)">
<path d="M11.8889 10.6667C11.6685 10.6667 11.4839 10.592 11.3351 10.4427C11.1863 10.2933 11.1116 10.1087 11.1111 9.88889V6.77778C11.1111 6.55741 11.1858 6.37281 11.3351 6.224C11.4844 6.07519 11.669 6.00052 11.8889 6H14.2222C14.4426 6 14.6274 6.07467 14.7768 6.224C14.9261 6.37333 15.0005 6.55793 15 6.77778V7.55556H13.8333V7.16667H12.2778V9.5H13.8333V9.11111H15V9.88889C15 10.1093 14.9253 10.2941 14.776 10.4434C14.6267 10.5928 14.4421 10.6672 14.2222 10.6667H11.8889ZM6.05555 10.6667V6H9.16667C9.38704 6 9.57189 6.07467 9.72122 6.224C9.87055 6.37333 9.94496 6.55793 9.94444 6.77778V7.55556C9.94444 7.77593 9.86978 7.96078 9.72044 8.11011C9.57111 8.25944 9.38652 8.33385 9.16667 8.33333C9.38704 8.33333 9.57189 8.408 9.72122 8.55733C9.87055 8.70667 9.94496 8.89126 9.94444 9.11111V9.88889C9.94444 10.1093 9.86978 10.2941 9.72044 10.4434C9.57111 10.5928 9.38652 10.6672 9.16667 10.6667H6.05555ZM7.22222 7.75H8.77778V7.16667H7.22222V7.75ZM7.22222 9.5H8.77778V8.91667H7.22222V9.5ZM1 10.6667V6.77778C1 6.55741 1.07467 6.37281 1.224 6.224C1.37333 6.07519 1.55793 6.00052 1.77778 6H4.11111C4.33148 6 4.51633 6.07467 4.66567 6.224C4.815 6.37333 4.88941 6.55793 4.88889 6.77778V10.6667H3.72222V9.5H2.16667V10.6667H1ZM2.16667 8.33333H3.72222V7.16667H2.16667V8.33333Z" fill="black"/>
</g>
<defs>
<clipPath id="clip0_7702_23754">
<rect width="16" height="16" fill="white"/>
</clipPath>
</defs>
</svg>
