<svg xmlns="http://www.w3.org/2000/svg" width="16" height="16" viewBox="0 0 16 16" fill="none">
    <g clip-path="url(#clip0_5805_3793)">
        <path d="M1 3.48889V12.5111C1 13.3822 1 13.8178 1.16956 14.1507C1.31869 14.4434 1.55665 14.6813 1.84933 14.8304C2.18144 15 2.617 15 3.48656 15H12.5134C13.383 15 13.8178 15 14.1499 14.8304C14.4429 14.6814 14.6811 14.4435 14.8304 14.1507C15 13.8186 15 13.3838 15 12.5142V3.48656C15 2.617 15 2.18144 14.8304 1.84933C14.6811 1.55611 14.4431 1.31889 14.1499 1.16956C13.8178 1 13.3822 1 12.5111 1H3.48889C2.61778 1 2.18222 1 1.84933 1.16956C1.55611 1.31889 1.31889 1.55611 1.16956 1.84933C1 2.18222 1 2.61778 1 3.48889Z" stroke="black" stroke-width="1.5" stroke-linecap="round" stroke-linejoin="round"/>
        <circle cx="8" cy="6" r="2.25" stroke="black" stroke-width="1.5"/>
        <path d="M1.5 14.5C2 13.6666 4 11 8 11C12 11 14 13.6666 14.5 14.5" stroke="black" stroke-width="1.5"/>
    </g>
    <defs>
        <clipPath id="clip0_5805_3793">
            <rect width="16" height="16" fill="white"/>
        </clipPath>
    </defs>
</svg>