<svg width="16" height="16" viewBox="0 0 16 16" fill="none" xmlns="http://www.w3.org/2000/svg">
<g clip-path="url(#clip0_4666_10928)">
<path d="M8.00008 10.3337C9.28875 10.3337 10.3334 9.28899 10.3334 8.00033C10.3334 6.71166 9.28875 5.66699 8.00008 5.66699C6.71142 5.66699 5.66675 6.71166 5.66675 8.00033C5.66675 9.28899 6.71142 10.3337 8.00008 10.3337Z" stroke="black" stroke-width="1.5"/>
<path d="M13.8334 8.00033C13.8334 4.77858 11.2218 2.16699 8.00008 2.16699C4.77833 2.16699 2.16675 4.77858 2.16675 8.00033C2.16675 11.2221 4.77833 13.8337 8.00008 13.8337C9.31375 13.8337 10.5259 13.3997 11.5007 12.667" stroke="black" stroke-width="1.5" stroke-linecap="round" stroke-linejoin="round"/>
<path d="M10.3335 5.66699V8.00033C10.3335 8.58366 10.6835 9.75033 12.0835 9.75033C13.4835 9.75033 13.8335 8.58366 13.8335 8.00033" stroke="black" stroke-width="1.5" stroke-linecap="round"/>
</g>
<defs>
<clipPath id="clip0_4666_10928">
<rect width="14" height="14" fill="white" transform="translate(1 1)"/>
</clipPath>
</defs>
</svg>
