<svg width="16" height="17" viewBox="0 0 16 17" fill="none" xmlns="http://www.w3.org/2000/svg">
<g clip-path="url(#clip0_5964_24554)">
<path d="M5.45616 12.6802L11.0009 7.37228C11.1585 7.22422 11.2841 7.04545 11.3699 6.84699C11.4558 6.64853 11.5001 6.43459 11.5001 6.21836C11.5001 6.00212 11.4558 5.78818 11.3699 5.58972C11.2841 5.39126 11.1585 5.21249 11.0009 5.06443C10.6747 4.75752 10.2436 4.58664 9.79568 4.58664C9.34776 4.58664 8.91671 4.75752 8.59045 5.06443L3.08506 10.3337C2.78552 10.615 2.5468 10.9546 2.38361 11.3318C2.22042 11.7089 2.13623 12.1154 2.13623 12.5263C2.13623 12.9372 2.22042 13.3437 2.38361 13.7208C2.5468 14.098 2.78552 14.4376 3.08506 14.7189C4.35002 15.9297 6.40066 15.9297 7.66562 14.7189L13.2518 9.37233C15.1155 7.58732 15.1155 4.69478 13.2518 2.90978C11.3881 1.12478 8.36487 1.12548 6.50045 2.90978L2 7.21767" stroke="#808080" stroke-width="1.5812" stroke-linecap="round"/>
</g>
<defs>
<clipPath id="clip0_5964_24554">
<rect width="16" height="16" fill="white" transform="translate(0 0.571289)"/>
</clipPath>
</defs>
</svg>
