<svg xmlns="http://www.w3.org/2000/svg" width="16" height="16" viewBox="0 0 16 16" fill="none">
    <g clip-path="url(#clip0_5002_16155)">
        <path d="M9.9999 12H3.17552C2.59365 12 2.30271 11.3891 2.63521 10.9822C3.4374 10 4.00427 9.5 4.00427 6.79219C3.83615 6.04458 3.94991 4.29444 5.7499 3.27469C5.93107 3.17069 6.11899 3.07893 6.3124 3C6.4524 2.94312 6.58271 2.81469 6.6249 2.67094C6.80615 2.04844 7.31802 1.5 7.9999 1.5C8.68177 1.5 9.19396 2.04812 9.37646 2.67031C9.41865 2.8125 9.54896 2.94312 9.6874 3C10.7299 3.42906 11.9961 4.3125 11.9961 6.79063C11.9961 9.00781 12.3755 9.74531 12.953 10.4781M9.9999 12V12.5C9.9999 13.0304 9.78918 13.5391 9.41411 13.9142C9.03904 14.2893 8.53033 14.5 7.9999 14.5C7.46946 14.5 6.96076 14.2893 6.58568 13.9142C6.21061 13.5391 5.9999 13.0304 5.9999 12.5V12M9.9999 12H11.9961C12.5956 12 13.6356 11.7 12.9999 10.5" stroke="#000000" stroke-width="1.5" stroke-linecap="round" stroke-linejoin="round"/>
    </g>
    <defs>
        <clipPath id="clip0_5002_16155">
            <rect width="16" height="16" fill="white"/>
        </clipPath>
    </defs>
</svg>