<svg width="17" height="17" viewBox="0 0 17 17" fill="none" xmlns="http://www.w3.org/2000/svg">
<g clip-path="url(#clip0_4137_13139)">
<g clip-path="url(#clip1_4137_13139)">
<path d="M5.8062 8.3H11.4062M6.5062 5.5H4.4062C3.66359 5.5 2.9514 5.795 2.4263 6.3201C1.9012 6.8452 1.6062 7.55739 1.6062 8.3C1.6062 9.04261 1.9012 9.7548 2.4263 10.2799C2.9514 10.805 3.66359 11.1 4.4062 11.1H6.5062M10.7062 5.5H12.8062C13.5488 5.5 14.261 5.795 14.7861 6.3201C15.3112 6.8452 15.6062 7.55739 15.6062 8.3C15.6062 9.04261 15.3112 9.7548 14.7861 10.2799C14.261 10.805 13.5488 11.1 12.8062 11.1H10.7062" stroke="#FFF" stroke-width="1.5" stroke-linecap="round" stroke-linejoin="round"/>
</g>
</g>
<defs>
<clipPath id="clip0_4137_13139">
<rect width="16" height="16" fill="white" transform="translate(0.606201 0.5)"/>
</clipPath>
<clipPath id="clip1_4137_13139">
<rect width="16" height="16" fill="white" transform="translate(0.606201 0.5)"/>
</clipPath>
</defs>
</svg>
