<svg width="98" height="102" viewBox="0 0 98 102" fill="none" xmlns="http://www.w3.org/2000/svg">
<circle cx="48.5714" cy="51.0001" r="48.5714" fill="#E6E6E6"/>
<path d="M83.3173 59.1194C84.265 59.1155 84.8432 58.0759 84.3464 57.2687L72.2223 37.5674L62.0445 59.207L83.3173 59.1194Z" fill="#F5F5F5" stroke="black" stroke-width="2.42857"/>
<path d="M37.6427 38.7574C37.6427 49.9243 48.3538 59.3005 62.0781 59.3005C75.8107 59.3005 86.6407 49.9173 86.6407 38.7574C86.6407 27.594 75.8702 18.2143 62.1417 18.2143C48.4132 18.2143 37.6427 27.594 37.6427 38.7574Z" fill="#F5F5F5" stroke="black" stroke-width="2.42857"/>
<circle cx="2.96692" cy="2.96692" r="2.96692" transform="matrix(-1 0 0 1 53.1772 34.8018)" fill="#70B62B"/>
<path d="M78.8907 49.6362L79.8796 51.6142L83.7856 58.0297H63.1428L59.4999 56.8154L69.99 56.559L72.9569 55.5701L78.8907 49.6362Z" fill="#F5F5F5"/>
<path d="M17.864 83.5593C16.9163 83.5553 16.3381 82.5157 16.8349 81.7086L15.8007 81.0722L16.8349 81.7086L32.5058 56.2438L45.4065 83.6727L17.864 83.5593Z" fill="#F5F5F5" stroke="black" stroke-width="2.42857"/>
<path d="M75.2074 58.2856C75.2074 72.1901 61.888 83.7856 44.9284 83.7856C27.9604 83.7856 14.4931 72.1831 14.4931 58.2856C14.4931 44.3846 27.8864 32.7856 44.8502 32.7856C61.8141 32.7856 75.2074 44.3846 75.2074 58.2856Z" fill="#F5F5F5" stroke="black" stroke-width="2.42857"/>
<circle cx="30.3572" cy="57.0716" r="3.64286" fill="#70B62B"/>
<circle cx="44.9285" cy="57.0716" r="3.64286" fill="#70B62B"/>
<circle cx="59.5" cy="57.0716" r="3.64286" fill="#70B62B"/>
<path d="M24.286 71.6431L23.0718 74.0716L17.647 82.5716H43.7145L35.2145 80.1431L31.5716 78.9288L24.286 71.6431Z" fill="#F5F5F5"/>
</svg>
