<svg width="68" height="69" viewBox="0 0 68 69" fill="none" xmlns="http://www.w3.org/2000/svg">
<path d="M2.15039 11.5644C2.15039 6.19933 6.49962 1.8501 11.8647 1.8501H34.0004H56.1361C61.5011 1.8501 65.8504 6.19933 65.8504 11.5644V42.2085C65.8504 47.5736 61.5012 51.9228 56.1361 51.9228H40.8716C39.8554 51.9228 38.8647 52.2416 38.0391 52.8343L18.2421 67.0461C17.5994 67.5075 16.7042 67.0481 16.7042 66.2569V52.8943C16.7042 52.3578 16.2693 51.9228 15.7328 51.9228H11.8647C6.49962 51.9228 2.15039 47.5736 2.15039 42.2085V11.5644Z" fill="#F5F5F5" stroke="black" stroke-width="2.42857"/>
<circle cx="17.7854" cy="26.4998" r="3.64286" fill="#70B62B"/>
<circle cx="32.3577" cy="26.4998" r="3.64286" fill="#70B62B"/>
<circle cx="49.3577" cy="26.4998" r="3.64286" fill="#70B62B"/>
</svg>
