<svg xmlns="http://www.w3.org/2000/svg" width="16" height="16" viewBox="0 0 16 16" fill="none">
    <g clip-path="url(#clip0_4763_13201)" transform="rotate(180 8 8)">
        <g clip-path="url(#clip1_4763_13201)">
            <path d="M12.7568 5.08399C13.0508 4.79533 13.5233 4.79983 13.8118 5.09404C14.1001 5.38802 14.0956 5.86 13.8018 6.14848L8.53495 11.3202C8.44202 11.4119 8.33187 11.4845 8.21082 11.5335C8.08976 11.5826 7.96021 11.6072 7.8296 11.606C7.699 11.6048 7.56992 11.5777 7.4498 11.5264C7.32968 11.4751 7.22089 11.4006 7.12969 11.3071L1.95708 6.03836C1.66863 5.74455 1.673 5.27254 1.96683 4.98412C2.26062 4.69574 2.73256 4.7001 3.02097 4.99387L7.8439 9.90638L12.7568 5.08399Z" fill="black"/>
        </g>
    </g>
    <defs>
        <clipPath id="clip0_4763_13201">
            <rect width="16" height="16" fill="white"/>
        </clipPath>
        <clipPath id="clip1_4763_13201">
            <rect width="11.9347" height="16" fill="white" transform="translate(16.1102 2.14868) rotate(90.5324)"/>
        </clipPath>
    </defs>
</svg>