<svg xmlns="http://www.w3.org/2000/svg" width="16" height="11" viewBox="0 0 16 11" fill="none">
    <path d="M15.235 8.50871V2.989C15.235 2.55358 14.6953 2.35072 14.4085 2.67831L11.7952 5.66307C11.6298 5.85201 11.6414 6.13743 11.8217 6.31228L14.435 8.84724C14.7341 9.13739 15.235 8.92543 15.235 8.50871Z" stroke="#808080" stroke-width="1.5"/>
    <path d="M0.972221 2.02231C0.972221 1.6551 1.2699 1.35742 1.63711 1.35742H10.6407C11.0079 1.35742 11.3056 1.6551 11.3056 2.02231V6.80583V9.33539C11.3056 9.7026 11.0079 10.0003 10.6407 10.0003H1.63711C1.2699 10.0003 0.972221 9.7026 0.972221 9.33539V2.02231Z" stroke="#808080" stroke-width="1.5"/>
    <line x1="3" y1="7.25" x2="9" y2="7.25" stroke="#808080" stroke-width="1.5"/>
    <rect x="9" y="3" width="0.876543" height="1.15932" fill="#808080"/>
</svg>