<svg xmlns="http://www.w3.org/2000/svg" width="16" height="16" viewBox="0 0 16 16" fill="none">
    <g clip-path="url(#clip0_4673_2431)">
        <path d="M7.21903 14.6017C7.00735 14.5391 6.81632 14.4209 6.6658 14.2594C6.51528 14.098 6.41076 13.8991 6.36312 13.6836C6.31583 13.4885 6.22314 13.3072 6.09258 13.1547C5.96202 13.0021 5.79728 12.8826 5.61177 12.8057C5.42627 12.7288 5.22524 12.6969 5.02504 12.7124C4.82485 12.7279 4.63114 12.7905 4.4597 12.895C3.31824 13.5904 2.01108 12.284 2.70646 11.1418C2.81084 10.9704 2.87331 10.7768 2.8888 10.5768C2.90428 10.3767 2.87234 10.1758 2.79558 9.99042C2.71881 9.80503 2.59938 9.64036 2.447 9.50981C2.29462 9.37926 2.11358 9.28651 1.91861 9.2391C0.619579 8.92396 0.619579 7.07602 1.91861 6.76088C2.11376 6.7136 2.29498 6.6209 2.44754 6.49034C2.60009 6.35978 2.71967 6.19505 2.79652 6.00954C2.87338 5.82403 2.90534 5.623 2.88982 5.42281C2.8743 5.22261 2.81173 5.02891 2.7072 4.85747C2.01182 3.71601 3.31824 2.40884 4.46044 3.10422C5.20021 3.554 6.15894 3.15601 6.36312 2.31637C6.67826 1.01735 8.52619 1.01735 8.84133 2.31637C8.88862 2.51152 8.98131 2.69275 9.11187 2.84531C9.24243 2.99786 9.40717 3.11743 9.59268 3.19429C9.77818 3.27114 9.97921 3.30311 10.1794 3.28759C10.3796 3.27207 10.5733 3.20949 10.7447 3.10496C11.8862 2.40958 13.1934 3.71601 12.498 4.85821C12.3936 5.02958 12.3311 5.22316 12.3157 5.42322C12.3002 5.62328 12.3321 5.82417 12.4089 6.00956C12.4856 6.19496 12.6051 6.35962 12.7574 6.49017C12.9098 6.62072 13.0909 6.71347 13.2858 6.76088C14.2564 6.99613 14.502 8.08802 14.0219 8.75603" stroke="black" stroke-width="1.5" stroke-linecap="round" stroke-linejoin="round"/>
        <path d="M13.5202 14.6578L14.9998 13.1783L13.5202 11.6988M11.3009 11.6988L9.8214 13.1783L11.3009 14.6578M5.38281 7.99994C5.38281 8.58853 5.61663 9.15302 6.03283 9.56922C6.44903 9.98541 7.01351 10.2192 7.60211 10.2192C8.1907 10.2192 8.75519 9.98541 9.17139 9.56922C9.58759 9.15302 9.8214 8.58853 9.8214 7.99994C9.8214 7.41134 9.58759 6.84685 9.17139 6.43066C8.75519 6.01446 8.1907 5.78064 7.60211 5.78064C7.01351 5.78064 6.44903 6.01446 6.03283 6.43066C5.61663 6.84685 5.38281 7.41134 5.38281 7.99994Z" stroke="black" stroke-width="1.5" stroke-linecap="round" stroke-linejoin="round"/>
    </g>
    <defs>
        <clipPath id="clip0_4673_2431">
            <rect width="16" height="16" fill="white"/>
        </clipPath>
    </defs>
</svg>