<svg xmlns="http://www.w3.org/2000/svg" width="68" height="69" viewBox="0 0 68 69" fill="none">
    <path d="M2.15015 11.5619C2.15015 6.19689 6.49938 1.84766 11.8644 1.84766H34.0001H56.1359C61.5009 1.84766 65.8501 6.19689 65.8501 11.5619V42.2061C65.8501 47.5712 61.5009 51.9204 56.1359 51.9204H40.8714C39.8551 51.9204 38.8644 52.2392 38.0389 52.8318L18.2419 67.0436C17.5992 67.505 16.704 67.0457 16.704 66.2545V52.8918C16.704 52.3553 16.269 51.9204 15.7325 51.9204H11.8644C6.49937 51.9204 2.15015 47.5712 2.15015 42.2061V11.5619Z" fill="#F5F5F5" stroke="black" stroke-width="2.42857"/>
    <circle cx="17.7859" cy="26.4983" r="3.64286" fill="#70B62B"/>
    <circle cx="32.3572" cy="26.4983" r="3.64286" fill="#70B62B"/>
    <circle cx="49.3572" cy="26.4983" r="3.64286" fill="#70B62B"/>
</svg>