<svg xmlns="http://www.w3.org/2000/svg" width="18" height="19" viewBox="0 0 18 19" fill="none">
    <path d="M1.5 4C1.5 2.61929 2.61929 1.5 4 1.5H9H14C15.3807 1.5 16.5 2.61929 16.5 4V11.2727C16.5 12.6534 15.3807 13.7727 14 13.7727H10.6654C10.3957 13.7727 10.1333 13.86 9.91722 14.0214L5.32676 17.4514C5.16189 17.5746 4.92712 17.4569 4.92712 17.2511V14.0227C4.92712 13.8847 4.81519 13.7727 4.67712 13.7727H4C2.61929 13.7727 1.5 12.6534 1.5 11.2727V4Z" stroke="black" stroke-width="1.5"/>
    <path d="M5.25 7.75H5.25972" stroke="black" stroke-width="1.875" stroke-linecap="round" stroke-linejoin="round"/>
    <path d="M9.00977 7.75H9.01949" stroke="black" stroke-width="1.875" stroke-linecap="round" stroke-linejoin="round"/>
    <path d="M12.7695 7.75H12.7793" stroke="black" stroke-width="1.875" stroke-linecap="round" stroke-linejoin="round"/>
</svg>