<svg xmlns="http://www.w3.org/2000/svg" width="17" height="17" viewBox="0 0 17 17" fill="none">
    <g clip-path="url(#clip0_5002_14552)">
        <path d="M5.80632 8.3H11.4063M6.50632 5.5H4.40632C3.66372 5.5 2.95153 5.795 2.42642 6.3201C1.90132 6.8452 1.60632 7.55739 1.60632 8.3C1.60632 9.04261 1.90132 9.7548 2.42642 10.2799C2.95153 10.805 3.66372 11.1 4.40632 11.1H6.50632M10.7063 5.5H12.8063C13.5489 5.5 14.2611 5.795 14.7862 6.3201C15.3113 6.8452 15.6063 7.55739 15.6063 8.3C15.6063 9.04261 15.3113 9.7548 14.7862 10.2799C14.2611 10.805 13.5489 11.1 12.8063 11.1H10.7063" stroke="#808080" stroke-width="1.5" stroke-linecap="round" stroke-linejoin="round"/>
    </g>
    <defs>
        <clipPath id="clip0_5002_14552">
            <rect width="16" height="16" fill="white" transform="translate(0.606323 0.5)"/>
        </clipPath>
    </defs>
</svg>