<svg width="16" height="16" viewBox="0 0 16 16" fill="none" xmlns="http://www.w3.org/2000/svg">
<g clip-path="url(#clip0_3125_2063)">
<path d="M14.9928 14.4599L14.0354 9.03046H14.3587C14.6189 9.03046 14.8284 8.82437 14.8284 8.56853V5.15736C14.8284 4.90152 14.6189 4.69543 14.3587 4.69543H9.91485V1.46193C9.91485 1.20609 9.7053 1 9.44517 1H6.55484C6.29471 1 6.08517 1.20609 6.08517 1.46193V4.69543H1.64129C1.38116 4.69543 1.17161 4.90152 1.17161 5.15736V8.56853C1.17161 8.82437 1.38116 9.03046 1.64129 9.03046H1.96465L1.00723 14.4599C1.00181 14.4865 1 14.5132 1 14.5381C1 14.7939 1.20955 15 1.46968 15H14.5303C14.5574 15 14.5845 14.9982 14.6098 14.9929C14.8663 14.9503 15.0379 14.7104 14.9928 14.4599ZM2.43613 5.93909H7.34968V2.24365H8.65033V5.93909H13.5639V7.7868H2.43613V5.93909ZM10.8903 13.7563V10.9848C10.8903 10.9066 10.8253 10.8426 10.7458 10.8426H9.87872C9.79923 10.8426 9.7342 10.9066 9.7342 10.9848V13.7563H6.26581V10.9848C6.26581 10.9066 6.20078 10.8426 6.12129 10.8426H5.2542C5.17471 10.8426 5.10968 10.9066 5.10968 10.9848V13.7563H2.41445L3.22916 9.13706H12.769L13.5838 13.7563H10.8903Z" fill="#808080"/>
</g>
<defs>
<clipPath id="clip0_3125_2063">
<rect width="16" height="16" fill="white"/>
</clipPath>
</defs>
</svg>
