<svg width="16" height="17" viewBox="0 0 16 17" fill="none" xmlns="http://www.w3.org/2000/svg">
<g clip-path="url(#clip0_5170_20500)">
<g clip-path="url(#clip1_5170_20500)">
<path d="M4.70711 2.29289L1.29289 5.70711C1.10536 5.89464 1 6.149 1 6.41421V11.5858C1 11.851 1.10536 12.1054 1.29289 12.2929L4.70711 15.7071C4.89464 15.8946 5.149 16 5.41421 16H10.5858C10.851 16 11.1054 15.8946 11.2929 15.7071L14.7071 12.2929C14.8946 12.1054 15 11.851 15 11.5858V6.41421C15 6.149 14.8946 5.89464 14.7071 5.70711L11.2929 2.29289C11.1054 2.10536 10.851 2 10.5858 2H5.41421C5.149 2 4.89464 2.10536 4.70711 2.29289Z" stroke="#D74642" stroke-width="1.5"/>
<path d="M5 6L11 12" stroke="#D74642" stroke-width="1.5" stroke-linecap="round"/>
<path d="M5 12L11 6" stroke="#D74642" stroke-width="1.5" stroke-linecap="round"/>
</g>
</g>
<defs>
<clipPath id="clip0_5170_20500">
<rect width="16" height="16" fill="white" transform="translate(0 0.5)"/>
</clipPath>
<clipPath id="clip1_5170_20500">
<rect width="16" height="16" fill="white" transform="translate(0 0.5)"/>
</clipPath>
</defs>
</svg>
