<svg width="16" height="16" viewBox="0 0 16 16" fill="none" xmlns="http://www.w3.org/2000/svg">
<g clip-path="url(#clip0_3611_6504)">
<g clip-path="url(#clip1_3611_6504)">
<path d="M1.70001 8.93733C1.51868 8.68866 1.42801 8.564 1.36535 8.324C1.32304 8.11029 1.32304 7.89037 1.36535 7.67666C1.42801 7.436 1.51868 7.31133 1.70001 7.06333C2.69268 5.7 4.86868 3.33333 8.00001 3.33333C11.1313 3.33333 13.3073 5.69999 14.3 7.06266C14.4813 7.31133 14.572 7.43599 14.6347 7.676C14.677 7.8897 14.677 8.10962 14.6347 8.32333C14.572 8.56399 14.4813 8.68866 14.3 8.93666C13.3073 10.3 11.1313 12.6667 8.00001 12.6667C4.86868 12.6667 2.69268 10.3 1.70001 8.93733Z" stroke="#808080" stroke-width="1.5" stroke-linecap="round" stroke-linejoin="round"/>
<path d="M7.99996 9.33333C8.35358 9.33333 8.69272 9.19285 8.94277 8.94281C9.19282 8.69276 9.33329 8.35362 9.33329 8C9.33329 7.64638 9.19282 7.30724 8.94277 7.05719C8.69272 6.80714 8.35358 6.66666 7.99996 6.66666C7.64634 6.66666 7.3072 6.80714 7.05715 7.05719C6.8071 7.30724 6.66663 7.64638 6.66663 8C6.66663 8.35362 6.8071 8.69276 7.05715 8.94281C7.3072 9.19285 7.64634 9.33333 7.99996 9.33333Z" stroke="#808080" stroke-width="1.5" stroke-linecap="round" stroke-linejoin="round"/>
</g>
</g>
<defs>
<clipPath id="clip0_3611_6504">
<rect width="16" height="16" fill="white"/>
</clipPath>
<clipPath id="clip1_3611_6504">
<rect width="16" height="16" fill="white"/>
</clipPath>
</defs>
</svg>
