<svg width="16" height="16" viewBox="0 0 16 16" fill="none" xmlns="http://www.w3.org/2000/svg">
<g clip-path="url(#clip0_4592_11149)">
<g clip-path="url(#clip1_4592_11149)">
<path d="M1.69989 8.93701C1.51856 8.68834 1.42789 8.56367 1.36523 8.32367C1.32292 8.10997 1.32292 7.89005 1.36523 7.67634C1.42789 7.43567 1.51856 7.31101 1.69989 7.06301C2.69256 5.69967 4.86856 3.33301 7.99989 3.33301C11.1312 3.33301 13.3072 5.69967 14.2999 7.06234C14.4812 7.31101 14.5719 7.43567 14.6346 7.67567C14.6769 7.88938 14.6769 8.1093 14.6346 8.32301C14.5719 8.56367 14.4812 8.68834 14.2999 8.93634C13.3072 10.2997 11.1312 12.6663 7.99989 12.6663C4.86856 12.6663 2.69256 10.2997 1.69989 8.93701Z" stroke="black" stroke-width="1.5" stroke-linecap="round" stroke-linejoin="round"/>
<path d="M7.99984 9.33268C8.35346 9.33268 8.6926 9.19221 8.94265 8.94216C9.19269 8.69211 9.33317 8.35297 9.33317 7.99935C9.33317 7.64573 9.19269 7.30659 8.94265 7.05654C8.6926 6.80649 8.35346 6.66602 7.99984 6.66602C7.64622 6.66602 7.30708 6.80649 7.05703 7.05654C6.80698 7.30659 6.6665 7.64573 6.6665 7.99935C6.6665 8.35297 6.80698 8.69211 7.05703 8.94216C7.30708 9.19221 7.64622 9.33268 7.99984 9.33268Z" stroke="black" stroke-width="1.5" stroke-linecap="round" stroke-linejoin="round"/>
</g>
</g>
<defs>
<clipPath id="clip0_4592_11149">
<rect width="16" height="16" fill="white"/>
</clipPath>
<clipPath id="clip1_4592_11149">
<rect width="16" height="16" fill="white"/>
</clipPath>
</defs>
</svg>
