<svg width="16" height="16" viewBox="0 0 16 16" fill="none" xmlns="http://www.w3.org/2000/svg">
<g clip-path="url(#clip0_4386_1821)">
<path d="M6.10195 3.60525C6.94662 2.09059 7.36862 1.33325 7.99995 1.33325C8.63129 1.33325 9.05329 2.09059 9.89795 3.60525L10.1166 3.99725C10.3566 4.42792 10.4766 4.64325 10.6633 4.78525C10.85 4.92725 11.0833 4.97992 11.55 5.08525L11.974 5.18125C13.614 5.55259 14.4333 5.73792 14.6286 6.36525C14.8233 6.99192 14.2646 7.64592 13.1466 8.95325L12.8573 9.29125C12.54 9.66259 12.3806 9.84859 12.3093 10.0779C12.238 10.3079 12.262 10.5559 12.31 11.0513L12.354 11.5026C12.5226 13.2473 12.6073 14.1193 12.0966 14.5066C11.586 14.8939 10.818 14.5406 9.28329 13.8339L8.88529 13.6513C8.44929 13.4499 8.23129 13.3499 7.99995 13.3499C7.76862 13.3499 7.55062 13.4499 7.11462 13.6513L6.71729 13.8339C5.18195 14.5406 4.41395 14.8939 3.90395 14.5073C3.39262 14.1193 3.47729 13.2473 3.64595 11.5026L3.68995 11.0519C3.73795 10.5559 3.76195 10.3079 3.68995 10.0786C3.61929 9.84859 3.45995 9.66259 3.14262 9.29192L2.85329 8.95325C1.73529 7.64659 1.17662 6.99259 1.37129 6.36525C1.56595 5.73792 2.38662 5.55192 4.02662 5.18125L4.45062 5.08525C4.91662 4.97992 5.14929 4.92725 5.33662 4.78525C5.52395 4.64325 5.64329 4.42792 5.88329 3.99725L6.10195 3.60525Z" stroke="#808080" stroke-width="1.5"/>
</g>
<defs>
<clipPath id="clip0_4386_1821">
<rect width="16" height="16" fill="white"/>
</clipPath>
</defs>
</svg>
