<svg xmlns="http://www.w3.org/2000/svg" width="16" height="16" viewBox="0 0 16 16" fill="none">
    <g clip-path="url(#clip0_5799_6188)">
        <path d="M7.9944 11.3889H8.0007M7.9944 9.22222V5.61111M8.217 2H7.783C6.0778 2 5.2252 2 4.528 2.39939C3.8301 2.79806 3.4164 3.52244 2.5883 4.97194L2.1753 5.69417C1.392 7.06567 1 7.75106 1 8.5C1 9.24894 1.392 9.93433 2.176 11.3058L2.5883 12.0281C3.4164 13.4776 3.8301 14.2019 4.5273 14.6013C5.2252 15 6.0778 15 7.7823 15H8.2177C9.9222 15 10.7748 15 11.4727 14.6013C12.1699 14.2019 12.5836 13.4776 13.4117 12.0281L13.8247 11.3058C14.608 9.93433 15 9.24894 15 8.5C15 7.75106 14.608 7.06567 13.824 5.69417L13.4117 4.97194C12.5836 3.52244 12.1699 2.79806 11.4727 2.39939C10.7748 2 9.9222 2 8.217 2Z" stroke="#FFFFFF" stroke-width="1.5" stroke-linecap="round" stroke-linejoin="round"/>
    </g>
    <defs>
        <clipPath id="clip0_5799_6188">
            <rect width="16" height="16" fill="white"/>
        </clipPath>
    </defs>
</svg>