<svg width="20" height="18" viewBox="0 0 20 18" fill="none" xmlns="http://www.w3.org/2000/svg">
    <path d="M18.75 4.90342V14.8273C18.75 15.7511 18.0011 16.5 17.0773 16.5H2.92266C1.99887 16.5 1.25 15.7511 1.25 14.8273L1.25 3.17265C1.25 2.24887 1.99887 1.49999 2.92265 1.49999H10.2176C10.6974 1.49999 11.1541 1.70603 11.4716 2.06573L12.0006 2.66503C12.3181 3.02473 12.7748 3.23076 13.2546 3.23076H17.0773C18.0011 3.23076 18.75 3.97964 18.75 4.90342Z" stroke="#808080" stroke-width="1.88"/>
    <path d="M1.25 9.93735V14.8273C1.25 15.7511 1.99887 16.5 2.92265 16.5H17.0773C18.0011 16.5 18.75 15.7511 18.75 14.8273V8.17265C18.75 7.24887 18.0011 6.49999 17.0773 6.49999H8.58259C8.16152 6.49999 7.75593 6.6588 7.44682 6.94472L6.50055 7.81997C6.19144 8.10589 5.78586 8.2647 5.36478 8.2647H2.92265C1.99887 8.2647 1.25 9.01357 1.25 9.93735Z" stroke="#808080" stroke-width="1.88"/>
</svg>
