<svg xmlns="http://www.w3.org/2000/svg" width="23" height="20" viewBox="0 0 23 20" fill="none">
    <path d="M3.75 5.96484V17.0898C3.75148 17.5867 3.9495 18.0627 4.30081 18.414C4.65212 18.7653 5.12817 18.9634 5.62499 18.9648H18.375C18.8718 18.9634 19.3478 18.7653 19.6991 18.414C20.0504 18.0627 20.2485 17.5867 20.2499 17.0898V5.96484" stroke="white" stroke-linecap="round" stroke-linejoin="round"/>
    <path d="M19.7884 1.96484H4.21154C3.54242 1.96484 3 2.56926 3 3.31484V4.47198C3 5.21757 3.54242 5.82198 4.21154 5.82198H19.7884C20.4575 5.82198 21 5.21757 21 4.47198V3.31484C21 2.56926 20.4575 1.96484 19.7884 1.96484Z" stroke="white" stroke-linejoin="round"/>
    <path d="M15 12.2148L12 15.2148L9 12.2148M12 14.1784V8.46484" stroke="white" stroke-linecap="round" stroke-linejoin="round"/>
</svg>