<svg width="16" height="17" viewBox="0 0 16 17" fill="none" xmlns="http://www.w3.org/2000/svg">
<g clip-path="url(#clip0_5165_20435)">
<circle cx="8" cy="8.5" r="7.25" stroke="#9747FF" stroke-width="1.5"/>
<path d="M7.84766 12.1689C8.15675 12.1691 8.40137 12.4071 8.40137 12.6924C8.40123 12.9695 8.1487 13.2147 7.84766 13.2148C7.54154 13.2148 7.29311 12.9652 7.29297 12.6924C7.29297 12.4115 7.53376 12.1689 7.84766 12.1689ZM7.41797 4.68457C7.41475 4.51747 7.58539 4.29297 8 4.29297C8.17233 4.29297 8.32941 4.36154 8.44336 4.45801C8.56695 4.56273 8.59766 4.66135 8.59766 4.69043V9.33398C8.59666 9.38376 8.57898 9.46836 8.53223 9.57812C8.48703 9.6842 8.42171 9.79668 8.34668 9.89941C8.271 10.003 8.19164 10.088 8.11914 10.1436C8.08326 10.171 8.05284 10.1876 8.03027 10.1973C8.01097 10.2055 8.00143 10.2069 8 10.207C7.99404 10.207 7.95365 10.2017 7.87891 10.1436C7.8083 10.0887 7.73097 10.005 7.6582 9.90137C7.54318 9.73754 7.46739 9.56535 7.43555 9.44043L7.41797 9.33398V4.68457Z" fill="#9747FF" stroke="#9747FF" stroke-width="0.585627"/>
</g>
<defs>
<clipPath id="clip0_5165_20435">
<rect width="16" height="16" fill="white" transform="translate(0 0.5)"/>
</clipPath>
</defs>
</svg>
