<svg xmlns="http://www.w3.org/2000/svg" width="16" height="16" viewBox="0 0 16 16" fill="none">
    <g clip-path="url(#clip0_5303_703)">
        <path fill-rule="evenodd" clip-rule="evenodd" d="M4.93853 0.608964C5.90914 0.206926 6.94943 0 8 0C9.05058 0 10.0909 0.206926 11.0615 0.608964C12.0321 1.011 12.914 1.60028 13.6569 2.34315C14.3997 3.08601 14.989 3.96793 15.391 4.93853C15.7931 5.90914 16 6.94943 16 8C16 9.05057 15.7931 10.0909 15.391 11.0615C14.989 12.0321 14.3997 12.914 13.6569 13.6569C12.914 14.3997 12.0321 14.989 11.0615 15.391C10.0909 15.7931 9.05057 16 8 16C6.94943 16 5.90914 15.7931 4.93853 15.391C3.96793 14.989 3.08601 14.3997 2.34315 13.6569C1.60028 12.914 1.011 12.0321 0.608964 11.0615C0.206926 10.0909 0 9.05058 0 8C0 6.94943 0.206926 5.90914 0.608964 4.93853C1.011 3.96793 1.60028 3.08601 2.34315 2.34315C3.08601 1.60028 3.96793 1.011 4.93853 0.608964ZM8 1.6C7.15954 1.6 6.32731 1.76554 5.55083 2.08717C4.77434 2.4088 4.06881 2.88022 3.47452 3.47452C2.88022 4.06881 2.4088 4.77434 2.08717 5.55083C1.76554 6.32731 1.6 7.15954 1.6 8C1.6 8.84046 1.76554 9.67269 2.08717 10.4492C2.4088 11.2257 2.88022 11.9312 3.47452 12.5255C4.06881 13.1198 4.77434 13.5912 5.55083 13.9128C6.32731 14.2345 7.15954 14.4 8 14.4C8.84046 14.4 9.67269 14.2345 10.4492 13.9128C11.2257 13.5912 11.9312 13.1198 12.5255 12.5255C13.1198 11.9312 13.5912 11.2257 13.9128 10.4492C14.2345 9.67269 14.4 8.84046 14.4 8C14.4 7.15954 14.2345 6.32731 13.9128 5.55083C13.5912 4.77434 13.1198 4.06881 12.5255 3.47452C11.9312 2.88022 11.2257 2.4088 10.4492 2.08717C9.67269 1.76554 8.84046 1.6 8 1.6ZM4.84105 6.54702C4.98077 6.12786 5.43383 5.90134 5.85298 6.04105L8 6.75673L10.147 6.04105C10.5662 5.90134 11.0192 6.12786 11.1589 6.54702C11.2987 6.96617 11.0721 7.41923 10.653 7.55895L8.8 8.17661V8.95778L10.2656 11.1562C10.5107 11.5239 10.4114 12.0206 10.0438 12.2656C9.67614 12.5107 9.17944 12.4114 8.93436 12.0438L8 10.6422L7.06564 12.0438C6.82056 12.4114 6.32386 12.5107 5.95624 12.2656C5.58862 12.0206 5.48928 11.5239 5.73436 11.1562L7.2 8.95778V8.17661L5.34702 7.55895C4.92786 7.41923 4.70134 6.96617 4.84105 6.54702Z" fill="#808080"/>
        <circle cx="8" cy="5" r="1" fill="#808080"/>
    </g>
    <defs>
        <clipPath id="clip0_5303_703">
            <rect width="16" height="16" fill="white"/>
        </clipPath>
    </defs>
</svg>