<svg xmlns="http://www.w3.org/2000/svg" width="16" height="16" viewBox="0 0 16 16" fill="none">
    <g clip-path="url(#clip0_5303_19023)">
        <path d="M12.2919 6.94437C12.1902 8.35654 11.1426 9.44441 10.0002 9.44441C8.85781 9.44441 7.80849 8.35689 7.70849 6.94437C7.60432 5.47525 8.62413 4.44434 10.0002 4.44434C11.3763 4.44434 12.3961 5.50199 12.2919 6.94437Z" stroke="#ffffff" stroke-width="1.5" stroke-linecap="round" stroke-linejoin="round"/>
        <path d="M10.0003 11.6667C7.7374 11.6667 5.56129 12.7907 5.01614 14.9796C4.94391 15.2692 5.20261 15.5001 5.50019 15.5001H14.655C14.9526 15.5001 15.056 15.2692 14.9848 14.9796C14.4397 12.7557 12.2636 11.6667 10.0003 11.6667Z" stroke="#ffffff" stroke-width="1.5" stroke-miterlimit="10"/>
        <path d="M6.99396 3.06725C6.91047 4.22611 6.04061 5.13878 5.10296 5.13878C4.16532 5.13878 3.29403 4.22646 3.21197 3.06725C3.1267 1.86165 3.97336 1 5.10296 1C6.23256 1 7.07923 1.88377 6.99396 3.06725Z" stroke="#ffffff" stroke-width="1.5" stroke-linecap="round" stroke-linejoin="round"/>
        <path d="M7 7.51202C6.37762 7.1422 5.69214 7 4.96563 7C3.17263 7 1.44514 8.15595 1.01241 10.4075C0.955512 10.7053 1.09964 11 1.33549 11H5.207" stroke="#ffffff" stroke-width="1.5" stroke-miterlimit="10" stroke-linecap="round"/>
    </g>
    <defs>
        <clipPath id="clip0_5303_19023">
            <rect width="16" height="16" fill="white"/>
        </clipPath>
    </defs>
</svg>