<svg xmlns="http://www.w3.org/2000/svg" width="205" height="47" viewBox="0 0 205 47" fill="none">
    <g clip-path="url(#clip0_3280_284)">
        <path d="M116.52 38.6773C117.847 38.6945 119.126 38.129 120.076 37.1051C121.026 36.0813 121.57 34.683 121.587 33.2179C121.603 31.7528 121.093 30.3409 120.166 29.2928C119.24 28.2447 117.974 27.6462 116.647 27.629C115.321 27.6119 114.041 28.1774 113.091 29.2013C112.141 30.2251 111.598 31.6234 111.581 33.0885C111.564 34.5536 112.075 35.9655 113.001 37.0136C113.927 38.0617 115.193 38.6602 116.52 38.6773Z" stroke="#B8DB95" stroke-width="2.9375"/>
        <path d="M181.511 35.1735C180.758 36.7272 178.852 37.2561 177.492 36.2725C174.811 34.3312 176 28.7077 179.706 29.623C180.53 29.8268 181.1 30.3015 181.463 31.0919C181.482 31.1343 181.51 31.1422 181.546 31.1155L182.952 30.0918C183.044 30.0243 183.058 29.9414 182.996 29.8433C182.141 28.5083 180.985 27.7842 179.527 27.6711C177.776 27.5345 176.375 28.0889 175.325 29.3344C173.773 31.1767 173.574 33.6716 174.703 35.8602C175.659 37.7143 177.417 38.8616 179.445 38.6307C180.923 38.4623 182.58 37.7002 183.168 36.1724C183.174 36.1559 183.174 36.1378 183.169 36.1213C183.163 36.1048 183.153 36.0912 183.139 36.0828L181.598 35.1452C181.59 35.1408 181.582 35.138 181.574 35.1371C181.566 35.1361 181.557 35.137 181.549 35.1396C181.541 35.1423 181.533 35.1466 181.527 35.1524C181.52 35.1583 181.515 35.1654 181.511 35.1735Z" stroke="#B8DB95" stroke-width="2.9375"/>
        <path d="M197.528 38.6764C198.855 38.6911 200.134 38.1232 201.083 37.0976C202.031 36.072 202.572 34.6727 202.587 33.2076C202.601 31.7425 202.088 30.3315 201.16 29.2851C200.232 28.2387 198.965 27.6426 197.637 27.6278C196.31 27.6131 195.032 28.181 194.083 29.2066C193.134 30.2322 192.593 31.6315 192.579 33.0966C192.564 34.5617 193.078 35.9727 194.006 37.0191C194.934 38.0655 196.201 38.6616 197.528 38.6764Z" stroke="#B8DB95" stroke-width="2.9375"/>
        <path d="M86.6822 34.9626C87.5092 34.954 88.3351 34.943 89.1599 34.9296C89.8764 34.9178 90.4679 34.7003 90.9345 34.277C93.015 32.3923 92.5444 28.7666 89.8608 27.8549C89.5656 27.7544 89.171 27.7049 88.6771 27.7065C87.3494 27.7104 86.0184 27.712 84.6841 27.7112C84.6462 27.7112 84.6273 27.7312 84.6273 27.7712V38.5188C84.6273 38.5581 84.6459 38.5777 84.6829 38.5777H86.5743C86.6114 38.5777 86.6299 38.5581 86.6299 38.5188V35.018C86.6299 34.9811 86.6474 34.9626 86.6822 34.9626Z" stroke="#B8DB95" stroke-width="2.9375"/>
        <path d="M98.5044 35.8685C98.5123 35.8683 98.52 35.8709 98.5264 35.8758C98.5328 35.8806 98.5376 35.8876 98.54 35.8955L99.3733 38.5506C99.3757 38.5586 99.3805 38.5655 99.3869 38.5704C99.3933 38.5753 99.401 38.5779 99.4089 38.5777H101.417C101.423 38.5777 101.429 38.5762 101.434 38.5733C101.439 38.5705 101.444 38.5663 101.447 38.5612C101.45 38.5562 101.453 38.5503 101.453 38.5442C101.454 38.538 101.454 38.5317 101.452 38.5259L97.7056 27.7371C97.703 27.7295 97.6984 27.723 97.6922 27.7184C97.686 27.7137 97.6786 27.7112 97.6711 27.7112H95.6751C95.6676 27.7112 95.6602 27.7137 95.654 27.7184C95.6478 27.723 95.6432 27.7295 95.6406 27.7371L91.8802 38.5259C91.8782 38.5317 91.8776 38.538 91.8784 38.5442C91.8792 38.5503 91.8814 38.5562 91.8848 38.5612C91.8881 38.5663 91.8926 38.5705 91.8978 38.5733C91.903 38.5762 91.9088 38.5777 91.9146 38.5777H93.9228C93.9307 38.5779 93.9385 38.5753 93.9449 38.5704C93.9513 38.5655 93.956 38.5586 93.9584 38.5506L94.794 35.8955C94.7964 35.8876 94.8011 35.8806 94.8075 35.8758C94.8139 35.8709 94.8217 35.8683 94.8296 35.8685H98.5044Z" stroke="#B8DB95" stroke-width="2.9375"/>
        <path d="M104.654 29.5664H109.938C109.975 29.5664 109.994 29.5468 109.994 29.5075V27.7701C109.994 27.7308 109.975 27.7112 109.938 27.7112H102.651C102.614 27.7112 102.595 27.7308 102.595 27.7701V38.5153C102.595 38.5506 102.612 38.5687 102.645 38.5695C105.095 38.5891 106.801 38.5891 107.765 38.5695C109.137 38.542 110.068 37.9283 110.56 36.7283C110.9 35.8991 110.93 34.7353 110.581 33.9237C110.015 32.6044 108.777 32.1379 107.545 32.1332C106.585 32.13 105.622 32.1281 104.655 32.1273C104.617 32.1273 104.598 32.1073 104.598 32.0672V29.6253C104.598 29.5861 104.617 29.5664 104.654 29.5664Z" stroke="#B8DB95" stroke-width="2.9375"/>
        <path d="M128.768 34.4549V38.5176C128.768 38.5333 128.774 38.5483 128.785 38.5593C128.795 38.5703 128.809 38.5765 128.824 38.5765L130.688 38.5777C130.725 38.5777 130.743 38.5581 130.743 38.5188V27.7701C130.743 27.7308 130.725 27.7112 130.688 27.7112H128.824C128.787 27.7112 128.768 27.7308 128.768 27.7701V32.4807C128.768 32.4967 128.764 32.5123 128.755 32.5256C128.747 32.5388 128.735 32.549 128.721 32.5549C128.011 32.8604 127.249 32.977 126.433 32.9047C125.381 32.8105 124.853 32.2078 124.85 31.0966C124.848 29.9901 124.847 28.8817 124.847 27.7713C124.847 27.7312 124.827 27.7112 124.789 27.7112H122.96C122.927 27.7112 122.911 27.7285 122.911 27.763C122.884 29.8888 122.885 31.245 122.914 31.8316C122.993 33.4187 123.738 34.3799 125.15 34.7152C126.336 34.9972 127.522 34.8959 128.707 34.4113C128.748 34.3948 128.768 34.4094 128.768 34.4549Z" stroke="#B8DB95" stroke-width="2.9375"/>
        <path d="M134.86 29.6465C134.86 29.6331 134.865 29.6202 134.874 29.6107C134.883 29.6012 134.895 29.5959 134.908 29.5959H139.82C139.832 29.5959 139.844 29.5906 139.853 29.5811C139.862 29.5716 139.867 29.5587 139.867 29.5452L139.866 27.7618C139.866 27.7552 139.865 27.7486 139.863 27.7424C139.86 27.7363 139.857 27.7307 139.852 27.726C139.848 27.7213 139.843 27.7176 139.837 27.715C139.831 27.7125 139.825 27.7112 139.818 27.7112H132.905C132.899 27.7112 132.892 27.7125 132.887 27.715C132.881 27.7176 132.876 27.7213 132.871 27.726C132.867 27.7307 132.863 27.7363 132.861 27.7424C132.858 27.7486 132.857 27.7552 132.857 27.7618V38.5259C132.857 38.5393 132.862 38.5522 132.871 38.5617C132.88 38.5712 132.892 38.5765 132.905 38.5765H139.931C139.943 38.5765 139.956 38.5712 139.965 38.5617C139.974 38.5522 139.979 38.5393 139.979 38.5259L139.977 36.7437C139.977 36.7302 139.972 36.7173 139.963 36.7078C139.955 36.6983 139.942 36.693 139.93 36.693H134.906C134.894 36.693 134.882 36.6877 134.873 36.6782C134.864 36.6687 134.859 36.6558 134.859 36.6424L134.86 33.9449C134.86 33.9314 134.865 33.9185 134.874 33.909C134.883 33.8995 134.895 33.8942 134.908 33.8942H139.126C139.139 33.8942 139.151 33.8889 139.16 33.8794C139.169 33.8699 139.174 33.857 139.174 33.8436L139.173 32.2062C139.173 32.1996 139.172 32.193 139.169 32.1868C139.167 32.1807 139.164 32.1751 139.159 32.1704C139.155 32.1657 139.149 32.162 139.144 32.1594C139.138 32.1569 139.132 32.1556 139.125 32.1556L134.908 32.1579C134.895 32.1579 134.883 32.1526 134.874 32.1431C134.865 32.1336 134.86 32.1207 134.86 32.1073V29.6465Z" stroke="#B8DB95" stroke-width="2.9375"/>
        <path d="M143.538 29.6465C143.538 29.6399 143.539 29.6333 143.541 29.6272C143.544 29.621 143.547 29.6154 143.552 29.6107C143.556 29.606 143.562 29.6023 143.567 29.5997C143.573 29.5972 143.579 29.5959 143.586 29.5959H148.469C148.475 29.5959 148.481 29.5946 148.487 29.592C148.493 29.5895 148.498 29.5858 148.503 29.5811C148.507 29.5764 148.51 29.5708 148.513 29.5646C148.515 29.5585 148.517 29.5519 148.517 29.5452V27.7618C148.517 27.7552 148.515 27.7486 148.513 27.7424C148.51 27.7363 148.507 27.7307 148.503 27.726C148.498 27.7213 148.493 27.7176 148.487 27.715C148.481 27.7125 148.475 27.7112 148.469 27.7112H141.554C141.548 27.7112 141.542 27.7125 141.536 27.715C141.53 27.7176 141.525 27.7213 141.52 27.726C141.516 27.7307 141.512 27.7363 141.51 27.7424C141.507 27.7486 141.506 27.7552 141.506 27.7618V38.5271C141.506 38.5405 141.511 38.5534 141.52 38.5629C141.529 38.5724 141.541 38.5777 141.554 38.5777L148.608 38.5765C148.614 38.5765 148.62 38.5752 148.626 38.5727C148.632 38.5701 148.637 38.5664 148.642 38.5617C148.646 38.557 148.65 38.5514 148.652 38.5453C148.654 38.5391 148.656 38.5325 148.656 38.5259V36.7437C148.656 36.737 148.654 36.7304 148.652 36.7243C148.65 36.7181 148.646 36.7126 148.642 36.7078C148.637 36.7031 148.632 36.6994 148.626 36.6969C148.62 36.6943 148.614 36.693 148.608 36.693H143.585C143.572 36.693 143.56 36.6877 143.551 36.6782C143.542 36.6687 143.537 36.6558 143.537 36.6424L143.538 33.9449C143.538 33.9382 143.539 33.9316 143.541 33.9255C143.544 33.9193 143.547 33.9138 143.552 33.909C143.556 33.9043 143.562 33.9006 143.567 33.8981C143.573 33.8955 143.579 33.8942 143.586 33.8942H147.802C147.815 33.8942 147.827 33.8889 147.836 33.8794C147.845 33.8699 147.85 33.857 147.85 33.8436V32.2074C147.85 32.194 147.845 32.1811 147.836 32.1716C147.827 32.1621 147.815 32.1567 147.802 32.1567L143.585 32.1579C143.572 32.1579 143.56 32.1526 143.551 32.1431C143.542 32.1336 143.537 32.1207 143.537 32.1073L143.538 29.6465Z" stroke="#B8DB95" stroke-width="2.9375"/>
        <path d="M162.006 31.6479V38.5035C162.006 38.553 162.029 38.5777 162.075 38.5777H163.953C163.99 38.5777 164.009 38.5581 164.009 38.5188V27.7701C164.009 27.7308 163.99 27.7112 163.953 27.7112H161.923C161.905 27.7112 161.888 27.7163 161.872 27.7261C161.857 27.7358 161.845 27.7498 161.836 27.7665L158.858 33.7776C158.854 33.7848 158.849 33.7908 158.843 33.795C158.836 33.7992 158.829 33.8015 158.821 33.8015C158.813 33.8015 158.806 33.7992 158.8 33.795C158.793 33.7908 158.788 33.7848 158.784 33.7776L155.835 27.7677C155.827 27.7507 155.814 27.7364 155.798 27.7264C155.783 27.7165 155.765 27.7112 155.747 27.7112H153.69C153.653 27.7112 153.634 27.7308 153.634 27.7701V38.4894C153.634 38.5483 153.662 38.5777 153.718 38.5777H155.609C155.646 38.5777 155.665 38.5581 155.665 38.5188V31.6373C155.665 31.6314 155.667 31.6258 155.671 31.6214C155.674 31.6169 155.679 31.6137 155.684 31.6124C155.69 31.6111 155.696 31.6116 155.701 31.614C155.706 31.6164 155.71 31.6204 155.713 31.6255L158.225 36.6965C158.243 36.7335 158.272 36.7519 158.31 36.7519H159.341C159.382 36.7519 159.412 36.7327 159.431 36.6942L161.94 31.6314C161.984 31.5411 162.006 31.5466 162.006 31.6479Z" stroke="#B8DB95" stroke-width="2.9375"/>
        <path d="M168.125 33.9378C168.125 33.9265 168.13 33.9158 168.137 33.9078C168.145 33.8999 168.155 33.8954 168.165 33.8954L172.398 33.8942C172.408 33.8942 172.418 33.8897 172.426 33.8818C172.434 33.8738 172.438 33.8631 172.438 33.8518V32.1992C172.438 32.1879 172.434 32.1771 172.426 32.1692C172.418 32.1612 172.408 32.1567 172.398 32.1567L168.164 32.1579C168.154 32.1579 168.144 32.1535 168.136 32.1455C168.129 32.1376 168.124 32.1268 168.124 32.1155L168.125 29.6383C168.125 29.6271 168.13 29.6163 168.137 29.6083C168.145 29.6004 168.155 29.5959 168.165 29.5959H173.092C173.103 29.5959 173.113 29.5914 173.12 29.5835C173.128 29.5755 173.132 29.5647 173.132 29.5535V27.7536C173.132 27.748 173.131 27.7425 173.129 27.7374C173.127 27.7322 173.124 27.7275 173.12 27.7236C173.117 27.7197 173.112 27.7165 173.107 27.7144C173.102 27.7123 173.097 27.7112 173.092 27.7112H166.163C166.158 27.7112 166.152 27.7123 166.148 27.7144C166.143 27.7165 166.138 27.7197 166.135 27.7236C166.131 27.7275 166.128 27.7322 166.126 27.7374C166.124 27.7425 166.123 27.748 166.123 27.7536V38.5353C166.123 38.5466 166.127 38.5574 166.135 38.5653C166.142 38.5733 166.152 38.5777 166.163 38.5777H173.203C173.214 38.5777 173.224 38.5733 173.232 38.5653C173.239 38.5574 173.243 38.5466 173.243 38.5353V36.7354C173.243 36.7242 173.239 36.7134 173.232 36.7054C173.224 36.6975 173.214 36.693 173.203 36.693H168.165C168.155 36.693 168.145 36.6885 168.137 36.6806C168.13 36.6726 168.125 36.6619 168.125 36.6506V33.9378Z" stroke="#B8DB95" stroke-width="2.9375"/>
        <path d="M186.854 29.5959C186.86 29.5959 186.866 29.5971 186.872 29.5996C186.877 29.602 186.883 29.6056 186.887 29.61C186.891 29.6145 186.894 29.6198 186.897 29.6257C186.899 29.6316 186.9 29.6378 186.9 29.6442V38.5294C186.9 38.5422 186.905 38.5545 186.913 38.5636C186.922 38.5726 186.934 38.5777 186.946 38.5777H188.857C188.869 38.5777 188.881 38.5726 188.889 38.5636C188.898 38.5545 188.903 38.5422 188.903 38.5294V29.6442C188.903 29.6314 188.908 29.6191 188.916 29.61C188.925 29.601 188.936 29.5959 188.948 29.5959H192.139C192.151 29.5959 192.163 29.5908 192.171 29.5817C192.18 29.5727 192.185 29.5604 192.185 29.5476V27.7595C192.185 27.7467 192.18 27.7344 192.171 27.7253C192.163 27.7163 192.151 27.7112 192.139 27.7112H183.664C183.652 27.7112 183.64 27.7163 183.631 27.7253C183.623 27.7344 183.618 27.7467 183.618 27.7595V29.5476C183.618 29.5604 183.623 29.5727 183.631 29.5817C183.64 29.5908 183.652 29.5959 183.664 29.5959H186.854Z" stroke="#B8DB95" stroke-width="2.9375"/>
        <path d="M116.582 36.7907C116.973 36.7915 117.361 36.6981 117.723 36.516C118.085 36.3338 118.414 36.0665 118.691 35.7292C118.969 35.392 119.189 34.9914 119.339 34.5503C119.49 34.1093 119.568 33.6364 119.569 33.1588C119.569 32.6811 119.493 32.2079 119.344 31.7663C119.195 31.3247 118.976 30.9233 118.7 30.585C118.424 30.2468 118.095 29.9782 117.734 29.7947C117.373 29.6113 116.985 29.5165 116.594 29.5158C116.203 29.515 115.815 29.6084 115.453 29.7905C115.091 29.9727 114.762 30.24 114.485 30.5772C114.207 30.9145 113.987 31.3151 113.837 31.7561C113.686 32.1972 113.608 32.67 113.607 33.1477C113.607 33.6254 113.683 34.0986 113.832 34.5402C113.981 34.9818 114.2 35.3832 114.476 35.7214C114.752 36.0597 115.081 36.3283 115.442 36.5117C115.803 36.6952 116.191 36.79 116.582 36.7907Z" stroke="#B8DB95" stroke-width="2.9375"/>
        <path d="M197.58 36.7907C197.972 36.7915 198.359 36.6981 198.721 36.516C199.083 36.3338 199.412 36.0665 199.69 35.7292C199.967 35.392 200.187 34.9914 200.338 34.5503C200.488 34.1093 200.566 33.6364 200.567 33.1588C200.568 32.6811 200.491 32.2079 200.342 31.7663C200.193 31.3247 199.974 30.9233 199.698 30.585C199.422 30.2468 199.094 29.9782 198.732 29.7947C198.371 29.6113 197.984 29.5165 197.592 29.5158C197.201 29.515 196.813 29.6084 196.451 29.7905C196.089 29.9727 195.76 30.24 195.483 30.5772C195.206 30.9145 194.985 31.3151 194.835 31.7561C194.684 32.1972 194.607 32.67 194.606 33.1477C194.605 33.6254 194.681 34.0986 194.83 34.5402C194.979 34.9818 195.198 35.3832 195.474 35.7214C195.751 36.0597 196.079 36.3283 196.44 36.5117C196.801 36.6952 197.189 36.79 197.58 36.7907Z" stroke="#B8DB95" stroke-width="2.9375"/>
        <path d="M86.6299 29.6465V33.0225C86.6299 33.0372 86.6354 33.0513 86.6452 33.0617C86.655 33.0721 86.6683 33.0779 86.6822 33.0779H88.835C89.1938 33.0779 89.5379 32.9132 89.7916 32.6201C90.0453 32.3269 90.1879 31.9293 90.1879 31.5148V31.1543C90.1879 30.7398 90.0453 30.3422 89.7916 30.049C89.5379 29.7559 89.1938 29.5912 88.835 29.5912H86.6822C86.6683 29.5912 86.655 29.597 86.6452 29.6074C86.6354 29.6178 86.6299 29.6319 86.6299 29.6465Z" stroke="#B8DB95" stroke-width="2.9375"/>
        <path d="M95.3001 34.3171C95.2984 34.3228 95.2979 34.3287 95.2987 34.3346C95.2996 34.3404 95.3017 34.346 95.305 34.3508C95.3082 34.3556 95.3125 34.3596 95.3175 34.3623C95.3224 34.3651 95.3279 34.3665 95.3335 34.3666H98.0081C98.0137 34.3665 98.0192 34.3651 98.0242 34.3623C98.0291 34.3596 98.0334 34.3556 98.0366 34.3508C98.0399 34.346 98.042 34.3404 98.0429 34.3346C98.0437 34.3287 98.0432 34.3228 98.0415 34.3171L96.7042 30.0718C96.7017 30.0646 96.6971 30.0584 96.6911 30.054C96.6852 30.0496 96.6781 30.0472 96.6708 30.0472C96.6635 30.0472 96.6564 30.0496 96.6505 30.054C96.6445 30.0584 96.64 30.0646 96.6374 30.0718L95.3001 34.3171Z" stroke="#B8DB95" stroke-width="2.9375"/>
        <path d="M104.599 33.8565L104.594 36.6601C104.594 36.6763 104.601 36.6919 104.611 36.7034C104.622 36.7149 104.637 36.7213 104.652 36.7213L107.36 36.726C107.545 36.7263 107.728 36.6892 107.899 36.6167C108.069 36.5443 108.225 36.4379 108.355 36.3037C108.486 36.1695 108.59 36.0101 108.661 35.8345C108.732 35.659 108.769 35.4708 108.769 35.2807V35.2501C108.769 34.8661 108.622 34.4976 108.358 34.2257C108.095 33.9538 107.738 33.8006 107.365 33.8L104.657 33.7953C104.641 33.7953 104.627 33.8017 104.616 33.8132C104.605 33.8247 104.599 33.8403 104.599 33.8565Z" stroke="#B8DB95" stroke-width="2.9375"/>
        <path d="M14.313 31.2874V46.8987C14.313 46.91 14.3087 46.9208 14.3012 46.9287C14.2937 46.9367 14.2835 46.9411 14.2729 46.9411H0.779676C0.774417 46.9411 0.769208 46.94 0.764349 46.9379C0.75949 46.9358 0.755074 46.9327 0.751355 46.9287C0.743844 46.9208 0.739624 46.91 0.739624 46.8987V0.130785C0.739624 0.125216 0.74066 0.119702 0.742673 0.114557C0.744686 0.109412 0.747636 0.104737 0.751355 0.100799C0.758866 0.0928467 0.769054 0.088379 0.779676 0.088379H39.7819C39.7891 0.0883647 39.7962 0.0904396 39.8025 0.0943817C39.8087 0.0983238 39.8138 0.103985 39.8172 0.11076C39.8207 0.117535 39.8223 0.125169 39.8219 0.132846C39.8216 0.140522 39.8193 0.147953 39.8152 0.154344L32.0128 12.9386C32.009 12.9446 32.0039 12.9494 31.9979 12.9527C31.9918 12.956 31.9851 12.9576 31.9783 12.9574H14.353C14.3424 12.9574 14.3322 12.9619 14.3247 12.9698C14.3172 12.9778 14.313 12.9886 14.313 12.9998V18.3041C14.313 18.3154 14.3172 18.3262 14.3247 18.3341C14.3322 18.3421 14.3424 18.3465 14.353 18.3465H29.0445C29.0499 18.3465 29.0553 18.3477 29.0603 18.35C29.0653 18.3522 29.0699 18.3556 29.0736 18.3598C29.0774 18.364 29.0803 18.3689 29.0821 18.3743C29.084 18.3798 29.0848 18.3855 29.0845 18.3913L28.516 31.205C28.5154 31.2158 28.511 31.226 28.5035 31.2334C28.4961 31.2409 28.4862 31.245 28.4759 31.245H14.353C14.3424 31.245 14.3322 31.2495 14.3247 31.2574C14.3172 31.2654 14.313 31.2762 14.313 31.2874Z" fill="#151515"/>
        <path d="M54.3665 13.0281C54.4117 12.981 54.4024 12.9574 54.3386 12.9574H35.4506C35.4031 12.9574 35.3923 12.9366 35.4183 12.895L43.322 0.140208C43.3435 0.105655 43.3739 0.0883789 43.4132 0.0883789H70.5532C70.5606 0.0883789 70.5677 0.0914815 70.5729 0.0970042C70.5781 0.102527 70.581 0.110017 70.581 0.117828V12.9044C70.581 12.9445 70.5673 12.9786 70.5399 13.0069C65.1228 18.6881 60.0283 25.1927 56.2634 32.3052C54.4822 35.6717 53.0269 39.4671 52.6153 43.2942C52.4951 44.4156 52.5285 45.6831 52.5296 46.8811C52.5296 46.9211 52.5111 46.9411 52.474 46.9411H36.8713C36.8328 46.9411 36.8124 46.9207 36.8101 46.8799C36.7004 44.6261 36.8665 42.4865 37.3086 40.4613C38.3043 35.9014 40.4961 31.4076 42.9537 27.4721C46.2314 22.2231 50.1532 17.4407 54.3665 13.0281Z" fill="#70B62B"/>
        <path d="M88.9437 20.3509C87.6165 20.3337 86.3505 19.7354 85.424 18.6875C84.4976 17.6396 83.9866 16.228 84.0035 14.7632C84.0118 14.0379 84.1495 13.3214 84.4088 12.6546C84.668 11.9877 85.0436 11.3837 85.5142 10.8768C85.9847 10.37 86.5411 9.97029 87.1514 9.70059C87.7617 9.43088 88.414 9.29644 89.0712 9.30494C90.3983 9.32212 91.6643 9.92046 92.5908 10.9684C93.5173 12.0163 94.0283 13.4279 94.0114 14.8926C94.003 15.6179 93.8653 16.3344 93.6061 17.0013C93.3469 17.6681 92.9713 18.2722 92.5007 18.779C92.0301 19.2859 91.4738 19.6855 90.8635 19.9552C90.2532 20.2249 89.6008 20.3594 88.9437 20.3509ZM89.0048 18.4678C89.3962 18.4685 89.7839 18.3751 90.1458 18.1929C90.5077 18.0107 90.8368 17.7433 91.1141 17.4059C91.3914 17.0685 91.6116 16.6678 91.7621 16.2266C91.9127 15.7855 91.9905 15.3124 91.9913 14.8346C91.9921 14.3568 91.9158 13.8835 91.7667 13.4417C91.6177 13 91.3988 12.5985 91.1226 12.2601C90.8464 11.9217 90.5182 11.653 90.1569 11.4695C89.7956 11.286 89.4082 11.1911 89.0168 11.1904C88.6253 11.1897 88.2376 11.2831 87.8757 11.4653C87.5138 11.6475 87.1847 11.9149 86.9074 12.2523C86.6301 12.5896 86.4099 12.9904 86.2594 13.4315C86.1088 13.8727 86.031 14.3457 86.0302 14.8236C86.0294 15.3014 86.1057 15.7747 86.2548 16.2165C86.4038 16.6582 86.6227 17.0597 86.8989 17.3981C87.1751 17.7365 87.5033 18.0052 87.8646 18.1887C88.2259 18.3722 88.6133 18.467 89.0048 18.4678Z" fill="#151515"/>
        <path d="M149.467 20.3511C148.139 20.3388 146.871 19.7452 145.942 18.7007C145.012 17.6562 144.496 16.2465 144.508 14.7817C144.514 14.0564 144.649 13.3394 144.906 12.6716C145.163 12.0038 145.537 11.3983 146.006 10.8898C146.475 10.3812 147.03 9.97945 147.639 9.70749C148.249 9.43554 148.901 9.29869 149.558 9.30476C150.885 9.31702 152.153 9.91069 153.083 10.9552C154.013 11.9996 154.528 13.4093 154.516 14.8742C154.51 15.5995 154.375 16.3165 154.118 16.9843C153.861 17.6521 153.487 18.2575 153.018 18.7661C152.55 19.2747 151.995 19.6764 151.385 19.9484C150.776 20.2203 150.124 20.3572 149.467 20.3511ZM149.508 18.4678C149.9 18.4685 150.287 18.3751 150.649 18.1929C151.011 18.0107 151.34 17.7433 151.617 17.4059C151.894 17.0686 152.114 16.6678 152.265 16.2266C152.415 15.7855 152.493 15.3124 152.494 14.8346C152.495 14.3568 152.418 13.8835 152.269 13.4417C152.12 13 151.902 12.5985 151.625 12.2601C151.349 11.9217 151.021 11.653 150.66 11.4695C150.299 11.286 149.912 11.1912 149.52 11.1904C149.129 11.1897 148.742 11.2831 148.38 11.4653C148.018 11.6475 147.689 11.9149 147.412 12.2523C147.135 12.5897 146.914 12.9904 146.764 13.4316C146.614 13.8728 146.536 14.3458 146.535 14.8236C146.534 15.3014 146.61 15.7747 146.759 16.2165C146.908 16.6582 147.127 17.0598 147.403 17.3981C147.679 17.7365 148.007 18.0052 148.369 18.1887C148.73 18.3722 149.117 18.4671 149.508 18.4678Z" fill="#151515"/>
        <path d="M97.6154 13.8056C98.6567 13.8111 99.6974 13.8236 100.737 13.8433C102.7 13.8798 103.945 15.2474 103.763 17.3241C103.637 18.7785 102.953 19.6961 101.712 20.0769C101.308 20.201 100.613 20.2631 99.6247 20.2631C98.2881 20.2631 96.9512 20.2619 95.6139 20.2595C95.5768 20.2595 95.5582 20.2399 95.5582 20.2006V9.45306C95.5582 9.4138 95.5768 9.39417 95.6139 9.39417H102.901C102.938 9.39417 102.957 9.4138 102.957 9.45306V11.1611C102.957 11.2003 102.938 11.22 102.901 11.22H97.6165C97.5794 11.22 97.5609 11.2396 97.5609 11.2789V13.7478C97.5609 13.7855 97.579 13.8048 97.6154 13.8056ZM97.5586 15.5419L97.5631 18.3477C97.5631 18.3551 97.5645 18.3625 97.5671 18.3694C97.5698 18.3762 97.5738 18.3825 97.5787 18.3877C97.5837 18.393 97.5896 18.3971 97.596 18.4C97.6025 18.4028 97.6095 18.4043 97.6165 18.4043L100.358 18.3996C100.722 18.3989 101.071 18.2478 101.328 17.9794C101.585 17.711 101.729 17.3473 101.729 16.9684V16.9071C101.728 16.7195 101.692 16.5337 101.623 16.3605C101.554 16.1872 101.453 16.0299 101.325 15.8974C101.197 15.765 101.046 15.66 100.879 15.5885C100.712 15.5169 100.534 15.4803 100.353 15.4806L97.612 15.4853C97.5979 15.4853 97.5843 15.4913 97.5743 15.5019C97.5643 15.5125 97.5586 15.5269 97.5586 15.5419Z" fill="#151515"/>
        <path d="M108.692 11.3284C108.656 13.4322 108.624 15.682 108.078 17.6704C107.569 19.5221 106.358 20.3314 104.573 20.3196C104.534 20.3196 104.515 20.2992 104.515 20.2584V18.5586C104.515 18.5193 104.533 18.4981 104.569 18.495C105.433 18.4211 105.984 17.9166 106.22 16.9813C106.425 16.1725 106.549 15.4786 106.593 14.8999C106.724 13.1557 106.802 11.3684 106.825 9.53787C106.827 9.44207 106.873 9.39417 106.963 9.39417H113.61C113.647 9.39417 113.666 9.4138 113.666 9.45306V20.2018C113.666 20.2411 113.647 20.2607 113.61 20.2607H111.719C111.681 20.2607 111.663 20.2411 111.663 20.2018V11.3083C111.663 11.2691 111.644 11.2494 111.607 11.2494H108.768C108.718 11.2494 108.693 11.2757 108.692 11.3284Z" fill="#151515"/>
        <path d="M121.44 17.5514H117.759C117.751 17.5512 117.743 17.5537 117.736 17.5586C117.729 17.5635 117.724 17.5705 117.722 17.5785L116.887 20.2336C116.885 20.2417 116.88 20.2487 116.873 20.2535C116.867 20.2584 116.859 20.2609 116.851 20.2607H114.846C114.84 20.2607 114.834 20.2592 114.828 20.2562C114.823 20.2532 114.818 20.2489 114.815 20.2435C114.811 20.2382 114.809 20.232 114.808 20.2256C114.807 20.2191 114.808 20.2126 114.81 20.2065L118.57 9.42008C118.572 9.41243 118.577 9.40585 118.584 9.40121C118.59 9.39658 118.598 9.39412 118.605 9.39417H120.606C120.613 9.39412 120.621 9.39658 120.627 9.40121C120.634 9.40585 120.639 9.41243 120.641 9.42008L124.386 20.2065C124.388 20.2126 124.389 20.2191 124.388 20.2256C124.388 20.232 124.385 20.2382 124.382 20.2435C124.378 20.2489 124.374 20.2532 124.368 20.2562C124.363 20.2592 124.357 20.2607 124.351 20.2607H122.348C122.34 20.2609 122.332 20.2584 122.325 20.2535C122.319 20.2487 122.314 20.2417 122.311 20.2336L121.477 17.5785C121.474 17.5705 121.469 17.5635 121.463 17.5586C121.456 17.5537 121.448 17.5512 121.44 17.5514ZM118.228 16.0036C118.227 16.0089 118.226 16.0146 118.227 16.0201C118.228 16.0256 118.23 16.0308 118.233 16.0353C118.236 16.0398 118.24 16.0434 118.245 16.0459C118.25 16.0484 118.255 16.0496 118.26 16.0496H120.948C120.954 16.0496 120.959 16.0484 120.964 16.0459C120.968 16.0434 120.972 16.0398 120.976 16.0353C120.979 16.0308 120.981 16.0256 120.982 16.0201C120.983 16.0146 120.982 16.0089 120.981 16.0036L119.636 11.7324C119.633 11.7257 119.629 11.72 119.623 11.7159C119.618 11.7119 119.611 11.7097 119.604 11.7097C119.598 11.7097 119.591 11.7119 119.585 11.7159C119.58 11.72 119.576 11.7257 119.573 11.7324L118.228 16.0036Z" fill="#151515"/>
        <path d="M130.252 16.0814C128.13 16.9601 124.537 16.814 124.447 13.5346C124.418 12.48 124.415 11.1175 124.438 9.44717C124.439 9.41183 124.456 9.39417 124.49 9.39417H126.32C126.359 9.39417 126.379 9.41537 126.379 9.45777C126.371 11.0095 126.375 12.1788 126.389 12.9657C126.427 15.073 129.039 14.7609 130.243 14.2261C130.28 14.2096 130.298 14.1802 130.298 14.1377V9.45306C130.298 9.4138 130.317 9.39417 130.354 9.39417H132.217C132.255 9.39417 132.273 9.4138 132.273 9.45306V20.2018C132.273 20.2411 132.255 20.2607 132.217 20.2607H130.354C130.317 20.2607 130.298 20.2411 130.298 20.2018V16.1155C130.298 16.0802 130.283 16.0688 130.252 16.0814Z" fill="#151515"/>
        <path d="M141 13.736L141.018 9.44242C141.018 9.43023 141.022 9.41855 141.031 9.40993C141.039 9.40132 141.05 9.39648 141.061 9.39648L142.967 9.39294C142.979 9.39294 142.99 9.39778 142.998 9.4064C143.006 9.41502 143.01 9.4267 143.01 9.43888L143.009 20.2147C143.009 20.2208 143.008 20.2267 143.006 20.2323C143.004 20.2379 143.001 20.2429 142.997 20.2472C142.993 20.2515 142.988 20.2549 142.983 20.2572C142.977 20.2595 142.972 20.2607 142.966 20.2607H141.05C141.039 20.2607 141.028 20.2558 141.019 20.2472C141.011 20.2386 141.007 20.2269 141.007 20.2147L141.006 15.6832C141.006 15.671 141.001 15.6593 140.993 15.6507C140.985 15.6421 140.974 15.6372 140.962 15.6372H136.433C136.427 15.6372 136.422 15.6384 136.416 15.6407C136.411 15.643 136.406 15.6464 136.402 15.6507C136.398 15.655 136.395 15.66 136.393 15.6656C136.391 15.6712 136.39 15.6771 136.39 15.6832V20.2147C136.39 20.2208 136.388 20.2267 136.386 20.2323C136.384 20.2379 136.381 20.2429 136.377 20.2472C136.373 20.2515 136.368 20.2549 136.363 20.2572C136.358 20.2595 136.352 20.2607 136.346 20.2607H134.43C134.419 20.2607 134.408 20.2558 134.4 20.2472C134.392 20.2386 134.387 20.2269 134.387 20.2147V9.44006C134.387 9.42788 134.392 9.41619 134.4 9.40758C134.408 9.39896 134.419 9.39412 134.43 9.39412H136.346C136.352 9.39412 136.358 9.39531 136.363 9.39762C136.368 9.39993 136.373 9.40331 136.377 9.40758C136.381 9.41184 136.384 9.41691 136.386 9.42248C136.388 9.42806 136.39 9.43403 136.39 9.44006V13.736C136.39 13.7421 136.391 13.748 136.393 13.7536C136.395 13.7592 136.398 13.7642 136.402 13.7685C136.406 13.7728 136.411 13.7762 136.416 13.7785C136.422 13.7808 136.427 13.782 136.433 13.782H140.957C140.968 13.782 140.979 13.7771 140.987 13.7685C140.996 13.7599 141 13.7482 141 13.736Z" fill="#151515"/>
        <path d="M158.029 15.629V18.3253C158.029 18.332 158.03 18.3386 158.033 18.3447C158.035 18.3509 158.039 18.3565 158.043 18.3612C158.047 18.3659 158.053 18.3696 158.059 18.3721C158.064 18.3747 158.071 18.376 158.077 18.376H163.127C163.139 18.376 163.152 18.3813 163.161 18.3908C163.17 18.4003 163.175 18.4132 163.175 18.4266V20.2101C163.175 20.2235 163.17 20.2364 163.161 20.2459C163.152 20.2554 163.139 20.2607 163.127 20.2607H156.074C156.062 20.2607 156.049 20.2554 156.04 20.2459C156.031 20.2364 156.026 20.2235 156.026 20.2101V9.44599C156.026 9.43256 156.031 9.41968 156.04 9.41018C156.049 9.40068 156.062 9.39534 156.074 9.39534L162.989 9.39417C162.995 9.39417 163.001 9.39547 163.007 9.39802C163.013 9.40057 163.018 9.4043 163.023 9.409C163.027 9.4137 163.031 9.41929 163.033 9.42543C163.035 9.43158 163.037 9.43817 163.037 9.44482L163.036 11.1988C163.036 11.2122 163.031 11.2251 163.022 11.2346C163.013 11.2441 163 11.2494 162.988 11.2494H158.077C158.071 11.2494 158.064 11.2507 158.059 11.2533C158.053 11.2558 158.047 11.2596 158.043 11.2643C158.039 11.269 158.035 11.2746 158.033 11.2807C158.03 11.2868 158.029 11.2934 158.029 11.3001L158.03 13.7891C158.03 13.8025 158.035 13.8154 158.044 13.8249C158.053 13.8344 158.065 13.8397 158.078 13.8397L162.292 13.8409C162.305 13.8409 162.317 13.8462 162.326 13.8557C162.335 13.8652 162.34 13.8781 162.34 13.8916V15.5277C162.34 15.5412 162.335 15.554 162.326 15.5635C162.317 15.573 162.305 15.5784 162.292 15.5784H158.077C158.071 15.5784 158.064 15.5797 158.059 15.5822C158.053 15.5848 158.047 15.5885 158.043 15.5932C158.039 15.5979 158.035 15.6035 158.033 15.6096C158.03 15.6158 158.029 15.6224 158.029 15.629Z" fill="#151515"/>
        <path d="M204.786 40.0146C204.786 40.0227 204.783 40.0306 204.778 40.0365C204.773 40.0424 204.766 40.0458 204.758 40.046L79.4345 43.5206C79.4269 43.5208 79.4194 43.5178 79.4139 43.5122C79.4083 43.5066 79.4051 43.4989 79.4049 43.4908L78.952 25.1824C78.9518 25.1742 78.9547 25.1664 78.96 25.1605C78.9652 25.1546 78.9725 25.1512 78.9802 25.151L204.304 21.6764C204.311 21.6762 204.319 21.6792 204.324 21.6848C204.33 21.6904 204.333 21.6981 204.333 21.7062L204.786 40.0146ZM116.52 38.6775C117.847 38.6946 119.126 38.1291 120.076 37.1052C121.026 36.0814 121.57 34.6831 121.587 33.218C121.604 31.7529 121.093 30.341 120.166 29.2929C119.24 28.2448 117.974 27.6463 116.647 27.6292C115.321 27.612 114.041 28.1775 113.091 29.2014C112.141 30.2252 111.598 31.6235 111.581 33.0886C111.564 34.5537 112.075 35.9656 113.001 37.0137C113.927 38.0618 115.193 38.6603 116.52 38.6775ZM181.511 35.1735C180.758 36.7272 178.852 37.2561 177.492 36.2725C174.811 34.3313 176 28.7077 179.706 29.623C180.53 29.8268 181.1 30.3015 181.463 31.0919C181.482 31.1343 181.51 31.1422 181.547 31.1155L182.952 30.0918C183.044 30.0243 183.059 29.9414 182.996 29.8433C182.141 28.5083 180.985 27.7842 179.527 27.6712C177.776 27.5345 176.375 28.0889 175.325 29.3344C173.773 31.1767 173.574 33.6716 174.703 35.8602C175.659 37.7143 177.417 38.8616 179.445 38.6308C180.924 38.4623 182.58 37.7002 183.168 36.1724C183.174 36.1559 183.174 36.1378 183.169 36.1213C183.164 36.1049 183.153 36.0912 183.139 36.0829L181.598 35.1452C181.59 35.1408 181.582 35.138 181.574 35.1371C181.566 35.1361 181.557 35.137 181.549 35.1396C181.541 35.1423 181.533 35.1466 181.527 35.1525C181.52 35.1583 181.515 35.1654 181.511 35.1735ZM197.529 38.6764C198.856 38.6911 200.134 38.1232 201.083 37.0976C202.032 36.072 202.573 34.6727 202.587 33.2076C202.602 31.7425 202.088 30.3315 201.16 29.2851C200.232 28.2387 198.965 27.6426 197.638 27.6279C196.311 27.6132 195.032 28.1811 194.083 29.2067C193.135 30.2323 192.594 31.6315 192.579 33.0966C192.565 34.5618 193.078 35.9727 194.006 37.0191C194.934 38.0655 196.201 38.6617 197.529 38.6764ZM86.6824 34.9626C87.5094 34.954 88.3353 34.943 89.16 34.9296C89.8765 34.9179 90.4681 34.7003 90.9346 34.2771C93.0151 32.3924 92.5445 28.7666 89.861 27.8549C89.5658 27.7544 89.1712 27.7049 88.6772 27.7065C87.3495 27.7104 86.0185 27.712 84.6842 27.7112C84.6464 27.7112 84.6274 27.7312 84.6274 27.7713V38.5188C84.6274 38.5581 84.646 38.5777 84.6831 38.5777H86.5744C86.6115 38.5777 86.6301 38.5581 86.6301 38.5188V35.018C86.6301 34.9811 86.6475 34.9626 86.6824 34.9626ZM98.5045 35.8685C98.5124 35.8683 98.5201 35.8709 98.5266 35.8758C98.533 35.8807 98.5377 35.8876 98.5401 35.8956L99.3734 38.5507C99.3758 38.5586 99.3806 38.5656 99.387 38.5704C99.3934 38.5753 99.4011 38.5779 99.409 38.5777H101.417C101.423 38.5777 101.429 38.5762 101.434 38.5733C101.439 38.5705 101.444 38.5663 101.447 38.5613C101.45 38.5562 101.453 38.5503 101.453 38.5442C101.454 38.538 101.454 38.5318 101.452 38.5259L97.7057 27.7371C97.7032 27.7296 97.6985 27.723 97.6923 27.7184C97.6861 27.7137 97.6788 27.7112 97.6712 27.7112H95.6752C95.6677 27.7112 95.6603 27.7137 95.6541 27.7184C95.648 27.723 95.6433 27.7296 95.6408 27.7371L91.8803 38.5259C91.8783 38.5318 91.8777 38.538 91.8785 38.5442C91.8793 38.5503 91.8815 38.5562 91.8849 38.5613C91.8883 38.5663 91.8927 38.5705 91.8979 38.5733C91.9031 38.5762 91.9089 38.5777 91.9148 38.5777H93.923C93.9309 38.5779 93.9386 38.5753 93.945 38.5704C93.9514 38.5656 93.9562 38.5586 93.9586 38.5507L94.7941 35.8956C94.7965 35.8876 94.8012 35.8807 94.8077 35.8758C94.8141 35.8709 94.8218 35.8683 94.8297 35.8685H98.5045ZM104.654 29.5665H109.938C109.975 29.5665 109.994 29.5468 109.994 29.5076V27.7701C109.994 27.7308 109.975 27.7112 109.938 27.7112H102.651C102.614 27.7112 102.595 27.7308 102.595 27.7701V38.5153C102.595 38.5507 102.612 38.5687 102.645 38.5695C105.095 38.5891 106.801 38.5891 107.766 38.5695C109.137 38.542 110.069 37.9283 110.56 36.7284C110.9 35.8991 110.93 34.7353 110.581 33.9237C110.015 32.6044 108.777 32.1379 107.545 32.1332C106.585 32.1301 105.622 32.1281 104.655 32.1273C104.617 32.1273 104.598 32.1073 104.598 32.0672V29.6254C104.598 29.5861 104.617 29.5665 104.654 29.5665ZM128.769 34.4549V38.5177C128.769 38.5333 128.774 38.5483 128.785 38.5593C128.795 38.5704 128.809 38.5766 128.824 38.5766L130.688 38.5777C130.725 38.5777 130.743 38.5581 130.743 38.5188V27.7701C130.743 27.7308 130.725 27.7112 130.688 27.7112H128.824C128.787 27.7112 128.769 27.7308 128.769 27.7701V32.4807C128.769 32.4967 128.764 32.5124 128.755 32.5256C128.747 32.5388 128.735 32.549 128.721 32.5549C128.012 32.8604 127.249 32.977 126.433 32.9048C125.381 32.8105 124.853 32.2078 124.85 31.0966C124.848 29.9901 124.847 28.8817 124.847 27.7713C124.847 27.7312 124.828 27.7112 124.789 27.7112H122.96C122.927 27.7112 122.911 27.7285 122.911 27.763C122.884 29.8888 122.885 31.245 122.914 31.8317C122.993 33.4187 123.738 34.3799 125.151 34.7153C126.337 34.9972 127.522 34.8959 128.707 34.4114C128.748 34.3949 128.769 34.4094 128.769 34.4549ZM134.86 29.6466C134.86 29.6331 134.865 29.6202 134.874 29.6108C134.883 29.6013 134.895 29.5959 134.908 29.5959H139.82C139.832 29.5959 139.845 29.5906 139.854 29.5811C139.863 29.5716 139.868 29.5587 139.868 29.5453L139.866 27.7619C139.866 27.7552 139.865 27.7486 139.863 27.7425C139.86 27.7363 139.857 27.7307 139.852 27.726C139.848 27.7213 139.843 27.7176 139.837 27.7151C139.831 27.7125 139.825 27.7112 139.819 27.7112H132.905C132.899 27.7112 132.893 27.7125 132.887 27.7151C132.881 27.7176 132.876 27.7213 132.871 27.726C132.867 27.7307 132.863 27.7363 132.861 27.7425C132.859 27.7486 132.857 27.7552 132.857 27.7619V38.5259C132.857 38.5393 132.862 38.5522 132.871 38.5617C132.88 38.5712 132.892 38.5766 132.905 38.5766H139.931C139.944 38.5766 139.956 38.5712 139.965 38.5617C139.974 38.5522 139.979 38.5393 139.979 38.5259L139.978 36.7437C139.978 36.7303 139.973 36.7174 139.964 36.7079C139.955 36.6984 139.943 36.693 139.93 36.693H134.907C134.894 36.693 134.882 36.6877 134.873 36.6782C134.864 36.6687 134.859 36.6558 134.859 36.6424L134.86 33.9449C134.86 33.9315 134.865 33.9186 134.874 33.9091C134.883 33.8996 134.895 33.8942 134.908 33.8942H139.127C139.139 33.8942 139.151 33.8889 139.16 33.8794C139.169 33.8699 139.174 33.857 139.174 33.8436L139.173 32.2062C139.173 32.1996 139.172 32.193 139.17 32.1869C139.167 32.1807 139.164 32.1751 139.159 32.1704C139.155 32.1657 139.15 32.162 139.144 32.1594C139.138 32.1569 139.132 32.1556 139.125 32.1556L134.908 32.1579C134.895 32.1579 134.883 32.1526 134.874 32.1431C134.865 32.1336 134.86 32.1207 134.86 32.1073V29.6466ZM143.538 29.6466C143.538 29.6399 143.539 29.6333 143.542 29.6272C143.544 29.621 143.548 29.6155 143.552 29.6108C143.556 29.606 143.562 29.6023 143.567 29.5998C143.573 29.5972 143.579 29.5959 143.586 29.5959H148.469C148.475 29.5959 148.481 29.5946 148.487 29.5921C148.493 29.5895 148.498 29.5858 148.503 29.5811C148.507 29.5764 148.511 29.5708 148.513 29.5646C148.515 29.5585 148.517 29.5519 148.517 29.5453V27.7619C148.517 27.7552 148.515 27.7486 148.513 27.7425C148.511 27.7363 148.507 27.7307 148.503 27.726C148.498 27.7213 148.493 27.7176 148.487 27.7151C148.481 27.7125 148.475 27.7112 148.469 27.7112H141.554C141.548 27.7112 141.542 27.7125 141.536 27.7151C141.53 27.7176 141.525 27.7213 141.52 27.726C141.516 27.7307 141.512 27.7363 141.51 27.7425C141.508 27.7486 141.506 27.7552 141.506 27.7619V38.5271C141.506 38.5405 141.511 38.5534 141.52 38.5629C141.529 38.5724 141.542 38.5777 141.554 38.5777L148.608 38.5766C148.614 38.5766 148.62 38.5753 148.626 38.5727C148.632 38.5702 148.637 38.5664 148.642 38.5617C148.646 38.557 148.65 38.5514 148.652 38.5453C148.655 38.5392 148.656 38.5326 148.656 38.5259V36.7437C148.656 36.737 148.655 36.7304 148.652 36.7243C148.65 36.7182 148.646 36.7126 148.642 36.7079C148.637 36.7032 148.632 36.6994 148.626 36.6969C148.62 36.6943 148.614 36.693 148.608 36.693H143.585C143.572 36.693 143.56 36.6877 143.551 36.6782C143.542 36.6687 143.537 36.6558 143.537 36.6424L143.538 33.9449C143.538 33.9382 143.539 33.9316 143.542 33.9255C143.544 33.9194 143.548 33.9138 143.552 33.9091C143.556 33.9044 143.562 33.9006 143.567 33.8981C143.573 33.8955 143.579 33.8942 143.586 33.8942H147.802C147.815 33.8942 147.827 33.8889 147.836 33.8794C147.845 33.8699 147.85 33.857 147.85 33.8436V32.2074C147.85 32.194 147.845 32.1811 147.836 32.1716C147.827 32.1621 147.815 32.1568 147.802 32.1568L143.585 32.1579C143.572 32.1579 143.56 32.1526 143.551 32.1431C143.542 32.1336 143.537 32.1207 143.537 32.1073L143.538 29.6466ZM162.007 31.6479V38.5035C162.007 38.553 162.03 38.5777 162.076 38.5777H163.954C163.991 38.5777 164.009 38.5581 164.009 38.5188V27.7701C164.009 27.7308 163.991 27.7112 163.954 27.7112H161.923C161.905 27.7112 161.888 27.7163 161.873 27.7261C161.857 27.7358 161.845 27.7498 161.836 27.7666L158.858 33.7776C158.855 33.7848 158.849 33.7908 158.843 33.795C158.836 33.7993 158.829 33.8015 158.821 33.8015C158.814 33.8015 158.806 33.7993 158.8 33.795C158.793 33.7908 158.788 33.7848 158.785 33.7776L155.835 27.7677C155.827 27.7507 155.814 27.7364 155.799 27.7264C155.783 27.7165 155.765 27.7112 155.747 27.7112H153.69C153.653 27.7112 153.634 27.7308 153.634 27.7701V38.4894C153.634 38.5483 153.662 38.5777 153.718 38.5777H155.609C155.646 38.5777 155.665 38.5581 155.665 38.5188V31.6373C155.665 31.6314 155.667 31.6259 155.671 31.6214C155.674 31.6169 155.679 31.6138 155.685 31.6124C155.69 31.6111 155.696 31.6117 155.701 31.614C155.706 31.6164 155.71 31.6204 155.713 31.6255L158.225 36.6966C158.243 36.7335 158.272 36.7519 158.311 36.7519H159.341C159.382 36.7519 159.412 36.7327 159.431 36.6942L161.94 31.6314C161.984 31.5411 162.007 31.5466 162.007 31.6479ZM168.126 33.9378C168.126 33.9266 168.13 33.9158 168.137 33.9078C168.145 33.8999 168.155 33.8954 168.166 33.8954L172.398 33.8942C172.409 33.8942 172.419 33.8898 172.426 33.8818C172.434 33.8739 172.438 33.8631 172.438 33.8518V32.1992C172.438 32.1879 172.434 32.1771 172.426 32.1692C172.419 32.1612 172.409 32.1568 172.398 32.1568L168.165 32.1579C168.154 32.1579 168.144 32.1535 168.136 32.1455C168.129 32.1376 168.125 32.1268 168.125 32.1155L168.126 29.6383C168.126 29.6271 168.13 29.6163 168.137 29.6083C168.145 29.6004 168.155 29.5959 168.166 29.5959H173.092C173.103 29.5959 173.113 29.5914 173.121 29.5835C173.128 29.5755 173.132 29.5648 173.132 29.5535V27.7536C173.132 27.748 173.131 27.7425 173.129 27.7374C173.127 27.7322 173.124 27.7276 173.121 27.7236C173.117 27.7197 173.112 27.7166 173.108 27.7144C173.103 27.7123 173.097 27.7112 173.092 27.7112H166.163C166.158 27.7112 166.153 27.7123 166.148 27.7144C166.143 27.7166 166.139 27.7197 166.135 27.7236C166.131 27.7276 166.128 27.7322 166.126 27.7374C166.124 27.7425 166.123 27.748 166.123 27.7536V38.5353C166.123 38.5466 166.127 38.5574 166.135 38.5653C166.142 38.5733 166.152 38.5777 166.163 38.5777H173.203C173.214 38.5777 173.224 38.5733 173.232 38.5653C173.239 38.5574 173.244 38.5466 173.244 38.5353V36.7354C173.244 36.7242 173.239 36.7134 173.232 36.7055C173.224 36.6975 173.214 36.693 173.203 36.693H168.166C168.155 36.693 168.145 36.6886 168.137 36.6806C168.13 36.6727 168.126 36.6619 168.126 36.6506V33.9378ZM186.855 29.5959C186.861 29.5959 186.867 29.5972 186.872 29.5996C186.878 29.602 186.883 29.6056 186.887 29.6101C186.891 29.6145 186.895 29.6199 186.897 29.6257C186.899 29.6316 186.9 29.6379 186.9 29.6442V38.5294C186.9 38.5423 186.905 38.5545 186.914 38.5636C186.922 38.5727 186.934 38.5777 186.946 38.5777H188.857C188.869 38.5777 188.881 38.5727 188.89 38.5636C188.898 38.5545 188.903 38.5423 188.903 38.5294V29.6442C188.903 29.6314 188.908 29.6191 188.916 29.6101C188.925 29.601 188.936 29.5959 188.949 29.5959H192.139C192.151 29.5959 192.163 29.5908 192.172 29.5818C192.18 29.5727 192.185 29.5604 192.185 29.5476V27.7595C192.185 27.7467 192.18 27.7344 192.172 27.7253C192.163 27.7163 192.151 27.7112 192.139 27.7112H183.664C183.652 27.7112 183.64 27.7163 183.632 27.7253C183.623 27.7344 183.618 27.7467 183.618 27.7595V29.5476C183.618 29.5604 183.623 29.5727 183.632 29.5818C183.64 29.5908 183.652 29.5959 183.664 29.5959H186.855Z" fill="#70B62B"/>
        <path d="M116.52 38.6773C115.193 38.6602 113.927 38.0617 113.001 37.0136C112.075 35.9655 111.564 34.5536 111.581 33.0885C111.598 31.6234 112.141 30.2251 113.091 29.2013C114.041 28.1774 115.321 27.6119 116.647 27.629C117.974 27.6462 119.24 28.2447 120.166 29.2928C121.093 30.3409 121.603 31.7528 121.587 33.2179C121.57 34.683 121.026 36.0813 120.076 37.1051C119.126 38.129 117.847 38.6945 116.52 38.6773ZM116.582 36.7907C116.974 36.7914 117.361 36.698 117.723 36.5159C118.085 36.3338 118.414 36.0664 118.691 35.7292C118.969 35.3919 119.189 34.9913 119.34 34.5503C119.49 34.1092 119.568 33.6364 119.569 33.1587C119.57 32.681 119.493 32.2079 119.344 31.7663C119.195 31.3247 118.976 30.9233 118.7 30.585C118.424 30.2467 118.096 29.9782 117.734 29.7947C117.373 29.6112 116.986 29.5164 116.594 29.5157C116.203 29.515 115.815 29.6083 115.453 29.7905C115.091 29.9726 114.762 30.2399 114.485 30.5772C114.207 30.9145 113.987 31.315 113.837 31.7561C113.686 32.1971 113.608 32.67 113.608 33.1477C113.607 33.6254 113.683 34.0985 113.832 34.5401C113.981 34.9817 114.2 35.3831 114.476 35.7214C114.753 36.0597 115.081 36.3282 115.442 36.5117C115.803 36.6952 116.191 36.79 116.582 36.7907Z" fill="white"/>
        <path d="M181.511 35.1735C181.515 35.1654 181.52 35.1583 181.527 35.1524C181.533 35.1466 181.541 35.1423 181.549 35.1396C181.557 35.137 181.566 35.1361 181.574 35.1371C181.582 35.138 181.59 35.1408 181.598 35.1452L183.139 36.0828C183.153 36.0912 183.164 36.1048 183.169 36.1213C183.174 36.1378 183.174 36.1559 183.168 36.1724C182.58 37.7002 180.924 38.4623 179.445 38.6307C177.417 38.8616 175.659 37.7143 174.703 35.8602C173.574 33.6716 173.773 31.1767 175.325 29.3344C176.375 28.0889 177.776 27.5345 179.527 27.6711C180.985 27.7842 182.141 28.5083 182.996 29.8433C183.059 29.9414 183.044 30.0243 182.952 30.0918L181.547 31.1155C181.51 31.1422 181.482 31.1343 181.463 31.0919C181.1 30.3015 180.53 29.8268 179.706 29.623C176 28.7077 174.811 34.3312 177.492 36.2725C178.852 37.2561 180.758 36.7272 181.511 35.1735Z" fill="white"/>
        <path d="M197.528 38.6764C196.201 38.6616 194.934 38.0655 194.006 37.0191C193.078 35.9727 192.564 34.5617 192.579 33.0966C192.593 31.6315 193.134 30.2322 194.083 29.2066C195.032 28.181 196.31 27.6131 197.637 27.6278C198.965 27.6426 200.232 28.2387 201.16 29.2851C202.088 30.3315 202.601 31.7425 202.587 33.2076C202.572 34.6727 202.031 36.072 201.083 37.0976C200.134 38.1232 198.855 38.6911 197.528 38.6764ZM197.58 36.7908C197.972 36.7915 198.359 36.6981 198.721 36.516C199.083 36.3339 199.412 36.0665 199.69 35.7293C199.967 35.392 200.187 34.9914 200.338 34.5504C200.488 34.1093 200.566 33.6365 200.567 33.1588C200.568 32.6811 200.491 32.208 200.342 31.7664C200.193 31.3248 199.974 30.9234 199.698 30.5851C199.422 30.2468 199.094 29.9782 198.732 29.7948C198.371 29.6113 197.984 29.5165 197.592 29.5158C197.201 29.5151 196.813 29.6084 196.451 29.7906C196.089 29.9727 195.76 30.24 195.483 30.5773C195.206 30.9145 194.985 31.3151 194.835 31.7562C194.684 32.1972 194.606 32.6701 194.606 33.1478C194.605 33.6254 194.681 34.0986 194.83 34.5402C194.979 34.9818 195.198 35.3832 195.474 35.7215C195.751 36.0598 196.079 36.3283 196.44 36.5118C196.801 36.6952 197.189 36.79 197.58 36.7908Z" fill="white"/>
        <path d="M86.6299 35.018V38.5188C86.6299 38.5581 86.6114 38.5777 86.5743 38.5777H84.6829C84.6459 38.5777 84.6273 38.5581 84.6273 38.5188V27.7712C84.6273 27.7312 84.6462 27.7112 84.6841 27.7112C86.0184 27.712 87.3494 27.7104 88.6771 27.7065C89.171 27.7049 89.5656 27.7544 89.8608 27.8549C92.5444 28.7666 93.015 32.3923 90.9345 34.277C90.4679 34.7003 89.8764 34.9178 89.1599 34.9296C88.3351 34.943 87.5092 34.954 86.6822 34.9626C86.6474 34.9626 86.6299 34.9811 86.6299 35.018ZM86.6299 29.6465V33.0225C86.6299 33.0372 86.6354 33.0513 86.6453 33.0617C86.6551 33.0721 86.6684 33.0779 86.6822 33.0779H88.8351C89.1939 33.0779 89.538 32.9132 89.7917 32.6201C90.0454 32.3269 90.1879 31.9293 90.1879 31.5148V31.1543C90.1879 30.7397 90.0454 30.3421 89.7917 30.049C89.538 29.7559 89.1939 29.5912 88.8351 29.5912H86.6822C86.6684 29.5912 86.6551 29.597 86.6453 29.6074C86.6354 29.6178 86.6299 29.6318 86.6299 29.6465Z" fill="white"/>
        <path d="M98.5043 35.8685H94.8295C94.8216 35.8683 94.8138 35.8709 94.8074 35.8758C94.801 35.8806 94.7962 35.8876 94.7938 35.8955L93.9583 38.5506C93.9559 38.5586 93.9512 38.5655 93.9447 38.5704C93.9383 38.5753 93.9306 38.5779 93.9227 38.5777H91.9145C91.9087 38.5777 91.9029 38.5762 91.8977 38.5733C91.8925 38.5705 91.888 38.5663 91.8846 38.5612C91.8813 38.5562 91.8791 38.5503 91.8783 38.5442C91.8775 38.538 91.8781 38.5317 91.88 38.5259L95.6405 27.7371C95.643 27.7295 95.6477 27.723 95.6539 27.7184C95.6601 27.7137 95.6674 27.7112 95.675 27.7112H97.6709C97.6785 27.7112 97.6859 27.7137 97.6921 27.7184C97.6982 27.723 97.7029 27.7295 97.7054 27.7371L101.451 38.5259C101.453 38.5317 101.454 38.538 101.453 38.5442C101.452 38.5503 101.45 38.5562 101.447 38.5612C101.443 38.5663 101.439 38.5705 101.434 38.5733C101.429 38.5762 101.423 38.5777 101.417 38.5777H99.4088C99.4009 38.5779 99.3932 38.5753 99.3867 38.5704C99.3803 38.5655 99.3756 38.5586 99.3732 38.5506L98.5399 35.8955C98.5375 35.8876 98.5327 35.8806 98.5263 35.8758C98.5199 35.8709 98.5122 35.8683 98.5043 35.8685ZM95.3001 34.3171C95.2983 34.3227 95.2978 34.3287 95.2987 34.3346C95.2995 34.3404 95.3017 34.346 95.3049 34.3508C95.3082 34.3556 95.3124 34.3595 95.3174 34.3623C95.3224 34.365 95.3278 34.3665 95.3334 34.3666H98.0081C98.0137 34.3665 98.0191 34.365 98.0241 34.3623C98.0291 34.3595 98.0333 34.3556 98.0366 34.3508C98.0398 34.346 98.042 34.3404 98.0428 34.3346C98.0437 34.3287 98.0432 34.3227 98.0414 34.3171L96.7041 30.0718C96.7016 30.0646 96.697 30.0583 96.6911 30.054C96.6851 30.0496 96.678 30.0472 96.6708 30.0472C96.6635 30.0472 96.6564 30.0496 96.6504 30.054C96.6445 30.0583 96.6399 30.0646 96.6374 30.0718L95.3001 34.3171Z" fill="white"/>
        <path d="M104.598 29.6253V32.0672C104.598 32.1073 104.617 32.1273 104.655 32.1273C105.622 32.1281 106.585 32.13 107.545 32.1332C108.777 32.1379 110.015 32.6044 110.581 33.9237C110.929 34.7353 110.899 35.8991 110.56 36.7283C110.068 37.9283 109.137 38.542 107.765 38.5695C106.801 38.5891 105.094 38.5891 102.645 38.5695C102.612 38.5687 102.595 38.5506 102.595 38.5153V27.7701C102.595 27.7308 102.614 27.7112 102.651 27.7112H109.938C109.975 27.7112 109.994 27.7308 109.994 27.7701V29.5075C109.994 29.5468 109.975 29.5664 109.938 29.5664H104.653C104.616 29.5664 104.598 29.5861 104.598 29.6253ZM104.599 33.8565L104.594 36.66C104.594 36.6763 104.601 36.6919 104.611 36.7033C104.622 36.7148 104.637 36.7213 104.652 36.7213L107.36 36.726C107.545 36.7263 107.728 36.6892 107.899 36.6167C108.069 36.5443 108.225 36.4379 108.355 36.3037C108.486 36.1695 108.59 36.01 108.661 35.8345C108.732 35.659 108.769 35.4708 108.769 35.2807V35.25C108.769 34.8661 108.622 34.4976 108.359 34.2257C108.095 33.9538 107.738 33.8006 107.365 33.8L104.657 33.7953C104.641 33.7953 104.627 33.8017 104.616 33.8132C104.605 33.8247 104.599 33.8403 104.599 33.8565Z" fill="white"/>
        <path d="M128.707 34.4113C127.522 34.8959 126.336 34.9972 125.15 34.7152C123.738 34.3799 122.993 33.4187 122.914 31.8316C122.885 31.245 122.884 29.8888 122.911 27.763C122.911 27.7285 122.927 27.7112 122.96 27.7112H124.789C124.827 27.7112 124.847 27.7312 124.847 27.7713C124.847 28.8817 124.848 29.9901 124.85 31.0966C124.853 32.2078 125.381 32.8105 126.433 32.9047C127.249 32.977 128.011 32.8604 128.721 32.5549C128.735 32.549 128.747 32.5388 128.755 32.5256C128.764 32.5123 128.768 32.4967 128.768 32.4807V27.7701C128.768 27.7308 128.787 27.7112 128.824 27.7112H130.688C130.725 27.7112 130.743 27.7308 130.743 27.7701V38.5188C130.743 38.5581 130.725 38.5777 130.688 38.5777L128.824 38.5765C128.809 38.5765 128.795 38.5703 128.785 38.5593C128.774 38.5483 128.768 38.5333 128.768 38.5176V34.4549C128.768 34.4094 128.748 34.3948 128.707 34.4113Z" fill="white"/>
        <path d="M134.86 29.6465V32.1073C134.86 32.1207 134.865 32.1336 134.874 32.1431C134.883 32.1526 134.895 32.1579 134.908 32.1579L139.126 32.1556C139.132 32.1556 139.138 32.1569 139.144 32.1594C139.15 32.162 139.155 32.1657 139.159 32.1704C139.164 32.1751 139.167 32.1807 139.17 32.1868C139.172 32.193 139.173 32.1996 139.173 32.2062L139.174 33.8436C139.174 33.857 139.169 33.8699 139.16 33.8794C139.151 33.8889 139.139 33.8942 139.127 33.8942H134.908C134.895 33.8942 134.883 33.8995 134.874 33.909C134.865 33.9185 134.86 33.9314 134.86 33.9449L134.859 36.6424C134.859 36.6558 134.864 36.6687 134.873 36.6782C134.882 36.6877 134.894 36.693 134.907 36.693H139.93C139.943 36.693 139.955 36.6983 139.964 36.7078C139.973 36.7173 139.978 36.7302 139.978 36.7437L139.979 38.5259C139.979 38.5393 139.974 38.5522 139.965 38.5617C139.956 38.5712 139.944 38.5765 139.931 38.5765H132.905C132.892 38.5765 132.88 38.5712 132.871 38.5617C132.862 38.5522 132.857 38.5393 132.857 38.5259V27.7618C132.857 27.7552 132.859 27.7486 132.861 27.7424C132.863 27.7363 132.867 27.7307 132.871 27.726C132.876 27.7213 132.881 27.7176 132.887 27.715C132.893 27.7125 132.899 27.7112 132.905 27.7112H139.819C139.825 27.7112 139.831 27.7125 139.837 27.715C139.843 27.7176 139.848 27.7213 139.852 27.726C139.857 27.7307 139.86 27.7363 139.863 27.7424C139.865 27.7486 139.866 27.7552 139.866 27.7618L139.868 29.5452C139.868 29.5587 139.863 29.5716 139.854 29.5811C139.845 29.5906 139.832 29.5959 139.82 29.5959H134.908C134.895 29.5959 134.883 29.6012 134.874 29.6107C134.865 29.6202 134.86 29.6331 134.86 29.6465Z" fill="white"/>
        <path d="M143.538 29.6465L143.537 32.1073C143.537 32.1207 143.542 32.1336 143.551 32.1431C143.56 32.1526 143.572 32.1579 143.585 32.1579L147.802 32.1567C147.815 32.1567 147.827 32.1621 147.836 32.1716C147.845 32.1811 147.85 32.194 147.85 32.2074V33.8436C147.85 33.857 147.845 33.8699 147.836 33.8794C147.827 33.8889 147.815 33.8942 147.802 33.8942H143.586C143.579 33.8942 143.573 33.8955 143.567 33.8981C143.562 33.9006 143.556 33.9043 143.552 33.909C143.547 33.9138 143.544 33.9193 143.542 33.9255C143.539 33.9316 143.538 33.9382 143.538 33.9449L143.537 36.6424C143.537 36.6558 143.542 36.6687 143.551 36.6782C143.56 36.6877 143.572 36.693 143.585 36.693H148.608C148.614 36.693 148.62 36.6943 148.626 36.6969C148.632 36.6994 148.637 36.7031 148.642 36.7078C148.646 36.7126 148.65 36.7181 148.652 36.7243C148.654 36.7304 148.656 36.737 148.656 36.7437V38.5259C148.656 38.5325 148.654 38.5391 148.652 38.5453C148.65 38.5514 148.646 38.557 148.642 38.5617C148.637 38.5664 148.632 38.5701 148.626 38.5727C148.62 38.5752 148.614 38.5765 148.608 38.5765L141.554 38.5777C141.542 38.5777 141.529 38.5724 141.52 38.5629C141.511 38.5534 141.506 38.5405 141.506 38.5271V27.7618C141.506 27.7552 141.508 27.7486 141.51 27.7424C141.512 27.7363 141.516 27.7307 141.52 27.726C141.525 27.7213 141.53 27.7176 141.536 27.715C141.542 27.7125 141.548 27.7112 141.554 27.7112H148.469C148.475 27.7112 148.481 27.7125 148.487 27.715C148.493 27.7176 148.498 27.7213 148.503 27.726C148.507 27.7307 148.511 27.7363 148.513 27.7424C148.515 27.7486 148.517 27.7552 148.517 27.7618V29.5452C148.517 29.5519 148.515 29.5585 148.513 29.5646C148.511 29.5708 148.507 29.5764 148.503 29.5811C148.498 29.5858 148.493 29.5895 148.487 29.592C148.481 29.5946 148.475 29.5959 148.469 29.5959H143.586C143.579 29.5959 143.573 29.5972 143.567 29.5997C143.562 29.6023 143.556 29.606 143.552 29.6107C143.547 29.6154 143.544 29.621 143.542 29.6272C143.539 29.6333 143.538 29.6399 143.538 29.6465Z" fill="white"/>
        <path d="M162.006 31.6479C162.006 31.5466 161.984 31.5411 161.94 31.6314L159.431 36.6942C159.412 36.7327 159.382 36.7519 159.341 36.7519H158.31C158.272 36.7519 158.243 36.7335 158.225 36.6965L155.713 31.6255C155.71 31.6204 155.706 31.6164 155.701 31.614C155.696 31.6116 155.69 31.6111 155.684 31.6124C155.679 31.6137 155.674 31.6169 155.671 31.6214C155.667 31.6258 155.665 31.6314 155.665 31.6373V38.5188C155.665 38.5581 155.646 38.5777 155.609 38.5777H153.718C153.662 38.5777 153.634 38.5483 153.634 38.4894V27.7701C153.634 27.7308 153.653 27.7112 153.69 27.7112H155.747C155.765 27.7112 155.783 27.7165 155.798 27.7264C155.814 27.7364 155.827 27.7507 155.835 27.7677L158.784 33.7776C158.788 33.7848 158.793 33.7908 158.8 33.795C158.806 33.7992 158.813 33.8015 158.821 33.8015C158.829 33.8015 158.836 33.7992 158.843 33.795C158.849 33.7908 158.854 33.7848 158.858 33.7776L161.836 27.7665C161.845 27.7498 161.857 27.7358 161.872 27.7261C161.888 27.7163 161.905 27.7112 161.923 27.7112H163.953C163.99 27.7112 164.009 27.7308 164.009 27.7701V38.5188C164.009 38.5581 163.99 38.5777 163.953 38.5777H162.075C162.029 38.5777 162.006 38.553 162.006 38.5035V31.6479Z" fill="white"/>
        <path d="M168.126 33.9378V36.6506C168.126 36.6619 168.13 36.6726 168.137 36.6806C168.145 36.6885 168.155 36.693 168.166 36.693H173.203C173.214 36.693 173.224 36.6975 173.232 36.7054C173.239 36.7134 173.243 36.7242 173.243 36.7354V38.5353C173.243 38.5466 173.239 38.5574 173.232 38.5653C173.224 38.5733 173.214 38.5777 173.203 38.5777H166.163C166.152 38.5777 166.142 38.5733 166.135 38.5653C166.127 38.5574 166.123 38.5466 166.123 38.5353V27.7536C166.123 27.748 166.124 27.7425 166.126 27.7374C166.128 27.7322 166.131 27.7275 166.135 27.7236C166.138 27.7197 166.143 27.7165 166.148 27.7144C166.153 27.7123 166.158 27.7112 166.163 27.7112H173.092C173.097 27.7112 173.103 27.7123 173.107 27.7144C173.112 27.7165 173.117 27.7197 173.12 27.7236C173.124 27.7275 173.127 27.7322 173.129 27.7374C173.131 27.7425 173.132 27.748 173.132 27.7536V29.5535C173.132 29.5647 173.128 29.5755 173.12 29.5835C173.113 29.5914 173.103 29.5959 173.092 29.5959H168.166C168.155 29.5959 168.145 29.6004 168.137 29.6083C168.13 29.6163 168.126 29.6271 168.126 29.6383L168.124 32.1155C168.124 32.1268 168.129 32.1376 168.136 32.1455C168.144 32.1535 168.154 32.1579 168.164 32.1579L172.398 32.1567C172.408 32.1567 172.419 32.1612 172.426 32.1692C172.434 32.1771 172.438 32.1879 172.438 32.1992V33.8518C172.438 33.8631 172.434 33.8738 172.426 33.8818C172.419 33.8897 172.408 33.8942 172.398 33.8942L168.166 33.8954C168.155 33.8954 168.145 33.8999 168.137 33.9078C168.13 33.9158 168.126 33.9265 168.126 33.9378Z" fill="white"/>
        <path d="M186.854 29.5959H183.664C183.652 29.5959 183.64 29.5908 183.631 29.5817C183.623 29.5727 183.618 29.5604 183.618 29.5476V27.7595C183.618 27.7467 183.623 27.7344 183.631 27.7253C183.64 27.7163 183.652 27.7112 183.664 27.7112H192.139C192.151 27.7112 192.163 27.7163 192.171 27.7253C192.18 27.7344 192.185 27.7467 192.185 27.7595V29.5476C192.185 29.5604 192.18 29.5727 192.171 29.5817C192.163 29.5908 192.151 29.5959 192.139 29.5959H188.948C188.936 29.5959 188.925 29.601 188.916 29.61C188.908 29.6191 188.903 29.6314 188.903 29.6442V38.5294C188.903 38.5422 188.898 38.5545 188.889 38.5636C188.881 38.5726 188.869 38.5777 188.857 38.5777H186.946C186.934 38.5777 186.922 38.5726 186.913 38.5636C186.905 38.5545 186.9 38.5422 186.9 38.5294V29.6442C186.9 29.6378 186.899 29.6316 186.897 29.6257C186.894 29.6198 186.891 29.6145 186.887 29.61C186.883 29.6056 186.877 29.602 186.872 29.5996C186.866 29.5971 186.86 29.5959 186.854 29.5959Z" fill="white"/>
        <path d="M113.607 33.1477C113.604 35.1566 114.936 36.7877 116.582 36.7907C118.228 36.7938 119.565 35.1677 119.569 33.1587C119.572 31.1498 118.24 29.5188 116.594 29.5157C114.948 29.5127 113.611 31.1388 113.607 33.1477Z" fill="#70B62B"/>
        <path d="M194.606 33.1477C194.603 35.1566 195.934 36.7877 197.58 36.7907C199.227 36.7938 200.564 35.1677 200.567 33.1587C200.57 31.1498 199.239 29.5188 197.592 29.5157C195.946 29.5127 194.609 31.1388 194.606 33.1477Z" fill="#70B62B"/>
        <path d="M86.6299 29.6465C86.6299 29.6319 86.6354 29.6178 86.6452 29.6074C86.655 29.597 86.6683 29.5912 86.6822 29.5912H88.835C89.1938 29.5912 89.5379 29.7559 89.7916 30.049C90.0453 30.3422 90.1879 30.7398 90.1879 31.1543V31.5148C90.1879 31.9293 90.0453 32.3269 89.7916 32.6201C89.5379 32.9132 89.1938 33.0779 88.835 33.0779H86.6822C86.6683 33.0779 86.655 33.0721 86.6452 33.0617C86.6354 33.0513 86.6299 33.0372 86.6299 33.0225V29.6465Z" fill="#70B62B"/>
        <path d="M95.3002 34.317L96.6376 30.0717C96.6401 30.0645 96.6446 30.0583 96.6506 30.0539C96.6566 30.0495 96.6637 30.0471 96.6709 30.0471C96.6782 30.0471 96.6853 30.0495 96.6913 30.0539C96.6972 30.0583 96.7018 30.0645 96.7043 30.0717L98.0416 34.317C98.0434 34.3226 98.0438 34.3286 98.043 34.3345C98.0422 34.3403 98.04 34.3459 98.0368 34.3507C98.0335 34.3555 98.0292 34.3595 98.0243 34.3622C98.0193 34.3649 98.0138 34.3664 98.0082 34.3665H95.3336C95.328 34.3664 95.3225 34.3649 95.3176 34.3622C95.3126 34.3595 95.3083 34.3555 95.3051 34.3507C95.3018 34.3459 95.2997 34.3403 95.2989 34.3345C95.298 34.3286 95.2985 34.3226 95.3002 34.317Z" fill="#70B62B"/>
        <path d="M104.599 33.8564C104.599 33.8402 104.605 33.8246 104.616 33.8131C104.627 33.8016 104.641 33.7952 104.657 33.7952L107.365 33.7999C107.738 33.8005 108.095 33.9537 108.358 34.2256C108.622 34.4975 108.769 34.866 108.769 35.2499V35.2806C108.769 35.4707 108.732 35.6589 108.661 35.8344C108.59 36.0099 108.486 36.1694 108.355 36.3036C108.225 36.4378 108.069 36.5442 107.899 36.6166C107.728 36.6891 107.545 36.7262 107.36 36.7259L104.652 36.7212C104.637 36.7212 104.622 36.7147 104.611 36.7032C104.601 36.6918 104.594 36.6762 104.594 36.6599L104.599 33.8564Z" fill="#70B62B"/>
    </g>
    <defs>
        <clipPath id="clip0_3280_284">
            <rect width="204.156" height="47" fill="white" transform="translate(0.65625)"/>
        </clipPath>
    </defs>
</svg>