<svg width="88" height="93" viewBox="0 0 88 93" fill="none" xmlns="http://www.w3.org/2000/svg">
<circle cx="44" cy="46.2" r="44" fill="#E6E6E6"/>
<path d="M13.2 27.1302V68.7988C13.2 70.1386 14.003 71.3479 15.2379 71.8676C15.6468 72.0398 16.086 72.1284 16.5297 72.1284H42.4319H57.9336H72.8203C73.2279 72.1284 73.6331 72.066 74.0218 71.9433L74.189 71.8905C75.8496 71.3663 76.9786 69.8259 76.9786 68.0846V27.1302C76.9786 24.926 75.1917 23.1392 72.9875 23.1392H45.0893H17.1911C14.9869 23.1392 13.2 24.926 13.2 27.1302Z" fill="#F5F5F5" stroke="black" stroke-width="1.99554"/>
<path d="M76.0727 65.0175L49.3936 37.7767C47.0396 35.3732 43.168 35.3806 40.8233 37.7931L14.8706 64.4971C13.7994 65.5993 13.2001 67.0758 13.2001 68.6129V69.6357C13.2001 70.4911 13.6387 71.2868 14.362 71.7435C14.7603 71.9949 15.2217 72.1284 15.6928 72.1284L18.515 72.1284H28.9583L58.8578 72.1284H73.4354C77.0595 72.1284 77.8847 67.4144 76.0727 65.0175Z" stroke="black" stroke-width="1.99554"/>
<path d="M14.6046 29.4768L43.7775 55.0206C44.5335 55.6825 45.6636 55.6792 46.4156 55.0128L75.988 28.8077C76.6316 28.2374 77 27.4186 77 26.5587C77 25.9074 76.7884 25.2738 76.3971 24.7532L76.0805 24.332C75.526 23.5943 74.7617 23.0412 73.8876 22.7451L72.6223 22.3165C72.0036 22.1069 71.3548 22 70.7015 22H61.2503H46.2773H38.3066H30.3359H16.6719C13.287 22 12.4545 26.1331 13.8378 28.597C14.0296 28.9387 14.3098 29.2187 14.6046 29.4768Z" fill="#F5F5F5" stroke="black" stroke-width="1.99554"/>
<path d="M44.0929 34.173C43.55 34.173 43.0497 34.3819 42.5905 34.803C42.1313 35.224 41.7836 35.8228 41.5507 36.5992C41.3194 37.3755 41.2013 38.0648 41.2013 38.6651C41.2013 39.4662 41.3637 40.0583 41.6868 40.4367C42.0115 40.815 42.4134 41.0058 42.8923 41.0058L43.2695 42.6342C42.9874 42.705 42.6955 42.7395 42.392 42.7395C41.3456 42.7395 40.478 42.3776 39.7875 41.6539C39.5726 41.4285 39.3906 41.1785 39.243 40.9055C38.9166 40.3051 38.7526 39.5928 38.7526 38.7671C38.7526 37.2818 39.1692 35.9264 40.0007 34.7026C41.0094 33.2107 42.3002 32.4656 43.8764 32.4656C43.9978 32.4656 44.1158 32.4705 44.229 32.482L44.0929 34.1713V34.173Z" fill="#70B62B"/>
<path d="M49.5447 31.9129C48.4229 30.8667 46.8565 30.3437 44.8473 30.3437C43.14 30.3437 41.6933 30.694 40.5059 31.3915C39.3184 32.0889 38.4229 33.0709 37.821 34.3391C37.219 35.6056 36.9189 36.9248 36.9189 38.295C36.9189 39.3774 37.1403 40.3824 37.5831 41.3084C37.6848 41.5223 37.7996 41.7312 37.9243 41.9368C38.5951 43.0306 39.5382 43.8268 40.7503 44.3285C41.9623 44.8301 43.3499 45.0818 44.913 45.0818C46.476 45.0818 47.7143 44.8713 48.7968 44.4518C49.881 44.0324 50.7535 43.4007 51.4161 42.5618H53.4286C52.7988 43.8449 51.8327 44.8482 50.5272 45.5769C49.033 46.4109 47.2124 46.8287 45.0638 46.8287C42.9153 46.8287 41.1882 46.4767 39.6776 45.7727C38.1654 45.067 37.0419 44.0291 36.3038 42.654C35.5674 41.2772 35.2 39.7804 35.2 38.1634C35.2 36.387 35.6182 34.7339 36.4564 33.2008C37.2945 31.6694 38.4426 30.518 39.8974 29.7499C41.3522 28.985 43.0153 28.6001 44.8867 28.6001C46.4744 28.6001 47.8849 28.911 49.1216 29.5295C50.3566 30.1479 51.2997 31.0296 51.9508 32.1695C52.6036 33.3094 52.93 34.5562 52.93 35.9083C52.93 37.5186 52.4347 38.976 51.4456 40.2771C50.2041 41.9203 48.6131 42.7411 46.6728 42.7411C46.1513 42.7411 45.756 42.6507 45.4903 42.4664C45.2262 42.2839 45.0491 42.0157 44.9622 41.6621C44.4504 42.1572 43.8846 42.4812 43.2679 42.6359L42.8907 41.0074C43.2498 41.0074 43.5861 40.9186 43.901 40.741C44.1404 40.616 44.3766 40.4169 44.6095 40.1439C44.9441 39.759 45.2311 39.1964 45.4755 38.4562C45.7183 37.7177 45.8396 37.0301 45.8396 36.3903C45.8396 35.678 45.674 35.1286 45.3443 34.747C45.013 34.3638 44.5964 34.173 44.0929 34.173L44.229 32.4837C45.1721 32.5659 45.8839 32.9903 46.3612 33.7568L46.5974 32.7041H49.092L47.6651 39.4991C47.5782 39.93 47.5323 40.208 47.5323 40.333C47.5323 40.4909 47.5683 40.6094 47.6422 40.6883C47.716 40.7673 47.8012 40.8068 47.9013 40.8068C48.2031 40.8068 48.5951 40.6242 49.0724 40.2574C49.7153 39.7771 50.2352 39.1339 50.6321 38.3246C51.0291 37.5154 51.2275 36.6781 51.2275 35.8129C51.2275 34.3555 50.7338 33.1235 49.7497 32.1119C49.6841 32.0445 49.6152 31.9787 49.5447 31.9129Z" fill="#70B62B"/>
</svg>
