<svg xmlns="http://www.w3.org/2000/svg" width="16" height="18" viewBox="0 0 16 18" fill="none">
    <path d="M1.82715 15.7584V2.61538C1.82715 1.70381 2.56612 0.964844 3.47768 0.964844H12.9667C13.8783 0.964844 14.6173 1.70381 14.6173 2.61538V15.7584C14.6173 16.6701 13.8781 17.4093 12.9663 17.4093H3.47809C2.5663 17.4093 1.82715 16.6701 1.82715 15.7584Z" stroke="white"/>
    <path d="M1.82715 16.2123V2.20446C1.82715 1.52338 2.3856 0.974621 3.06658 0.986543L5 1.02039V17.4648L3.02393 17.4302C2.35961 17.4186 1.82715 16.8768 1.82715 16.2123Z" stroke="white"/>
    <path d="M0.5 8.96484H3.04527" stroke="white" stroke-linecap="round"/>
    <path d="M0.5 11.9648H3.04527" stroke="white" stroke-linecap="round"/>
    <path d="M0.5 5.83789L3.04528 5.83789" stroke="white" stroke-linecap="round"/>
    <g clip-path="url(#clip0_5805_20070)">
        <circle cx="9.44026" cy="7.93195" r="1.25617" fill="white"/>
        <path d="M9.44008 9.60547C8.03718 9.60547 7.22181 10.7071 6.99399 11.3725C6.93406 11.5475 7.07771 11.6991 7.26271 11.6991H11.6174C11.8025 11.6991 11.9461 11.5475 11.8862 11.3725C11.6584 10.7071 10.843 9.60547 9.44008 9.60547Z" fill="white"/>
    </g>
    <defs>
        <clipPath id="clip0_5805_20070">
            <rect width="6.69959" height="6.69959" fill="white" transform="translate(6.09033 5.83789)"/>
        </clipPath>
    </defs>
</svg>