<svg width="23" height="20" viewBox="0 0 23 20" fill="none" xmlns="http://www.w3.org/2000/svg">
<path d="M3 16.1919V3.73616C3 2.75755 3.79332 1.96423 4.77192 1.96423H18.2281C19.2067 1.96423 20 2.75755 20 3.73616V16.1919C20 17.1707 19.2065 17.9642 18.2276 17.9642H4.77236C3.79351 17.9642 3 17.1707 3 16.1919Z" stroke="white"/>
<path d="M5 8.96423H11.5" stroke="white" stroke-linecap="square"/>
<path d="M5 11.9642H9.5" stroke="white" stroke-linecap="square"/>
<path d="M3 5.88731V3.73659C3 2.75775 3.79351 1.96423 4.77236 1.96423H18.2276C19.2065 1.96423 20 2.75775 20 3.73659V5.88731H3Z" stroke="white"/>
<path d="M15.464 8.61201L17.2662 10.0872M11.2619 15.2079L13.3917 14.941L17.5406 9.91018C17.6443 9.78434 17.7233 9.63815 17.7729 9.47996C17.8226 9.32176 17.8419 9.15466 17.8299 8.9882C17.8178 8.82174 17.7746 8.65917 17.7027 8.50978C17.6308 8.36038 17.5316 8.2271 17.4107 8.11752C17.2899 8.00795 17.1498 7.92423 16.9985 7.87115C16.8471 7.81808 16.6875 7.79668 16.5287 7.80818C16.3699 7.81968 16.215 7.86385 16.0729 7.93818C15.9307 8.01251 15.8042 8.11554 15.7004 8.24138L11.5516 13.2722L11.2619 15.2079Z" stroke="white" stroke-linecap="round" stroke-linejoin="round"/>
</svg>
