<svg xmlns="http://www.w3.org/2000/svg" width="20" height="20" viewBox="0 0 20 20" fill="none">
    <path d="M12.9167 6.11111H12.9264M1.25 4.16667C1.25 3.39312 1.55729 2.65125 2.10427 2.10427C2.65125 1.55729 3.39312 1.25 4.16667 1.25H15.8333C16.6069 1.25 17.3487 1.55729 17.8957 2.10427C18.4427 2.65125 18.75 3.39312 18.75 4.16667V15.8333C18.75 16.6069 18.4427 17.3487 17.8957 17.8957C17.3487 18.4427 16.6069 18.75 15.8333 18.75H4.16667C3.39312 18.75 2.65125 18.4427 2.10427 17.8957C1.55729 17.3487 1.25 16.6069 1.25 15.8333V4.16667Z" stroke="black" stroke-width="1.5" stroke-linecap="round" stroke-linejoin="round"/>
    <path d="M1.25 13.8892L6.11111 9.0281C7.01333 8.1599 8.12556 8.1599 9.02778 9.0281L13.8889 13.8892" stroke="black" stroke-width="1.5" stroke-linecap="round" stroke-linejoin="round"/>
    <path d="M11.9445 11.9437L12.9167 10.9715C13.8189 10.1033 14.9311 10.1033 15.8333 10.9715L18.75 13.8881" stroke="black" stroke-width="1.2" stroke-linecap="round" stroke-linejoin="round"/>
</svg>