<svg width="16" height="16" viewBox="0 0 16 16" fill="none" xmlns="http://www.w3.org/2000/svg">
<g clip-path="url(#clip0_4652_13195)">
<path d="M1.3628 13.8348L1.3628 13.0848L1.3628 13.0848L1.3628 13.8348ZM1.03032 13.2969L0.394322 12.8994L0.375432 12.9296L0.359494 12.9615L1.03032 13.2969ZM3.0112 11.5425C3.23074 11.1913 3.12396 10.7286 2.77271 10.509C2.42145 10.2895 1.95874 10.3963 1.73921 10.7476L3.0112 11.5425ZM8.29274 13.0848L1.3628 13.0848L1.3628 14.5848L8.29274 14.5848L8.29274 13.0848ZM1.66632 13.6944L3.0112 11.5425L1.73921 10.7476L0.394322 12.8994L1.66632 13.6944ZM1.3628 13.0848C1.644 13.0848 1.8269 13.3808 1.70115 13.6323L0.359494 12.9615C-0.0134007 13.7073 0.528946 14.5848 1.3628 14.5848L1.3628 13.0848Z" fill="black"/>
<path d="M8.27973 13.8351C12.1421 13.8351 14.9868 11.1857 14.9868 7.91754C14.9868 4.64937 11.8558 2 7.99342 2C4.13106 2 1 4.64937 1 7.91754C1 9.22829 2.09325 10.8763 2.36222 11.1453" stroke="black" stroke-width="1.5"/>
<path d="M4.98682 7L4.98682 10" stroke="black" stroke-width="1.5" stroke-linecap="round"/>
<path d="M7.98682 5.5L7.98682 10" stroke="black" stroke-width="1.5" stroke-linecap="round"/>
<path d="M11 8L11 10" stroke="black" stroke-width="1.5" stroke-linecap="round"/>
</g>
<defs>
<clipPath id="clip0_4652_13195">
<rect width="16" height="16" fill="white"/>
</clipPath>
</defs>
</svg>
