<svg width="16" height="16" viewBox="0 0 16 16" fill="none" xmlns="http://www.w3.org/2000/svg">
<g clip-path="url(#clip0_7702_23749)">
<path d="M5.78022 5.72422C5.9126 5.31452 6.15582 4.94947 6.48295 4.66952C6.81007 4.38957 7.20832 4.20566 7.63355 4.13817C8.05879 4.07068 8.49441 4.12225 8.89213 4.28715C9.28986 4.45206 9.63416 4.72386 9.88689 5.07244C10.1399 5.42052 10.2918 5.8318 10.3256 6.2608C10.3595 6.68979 10.2741 7.1198 10.0788 7.50328C9.88353 7.88675 9.586 8.20875 9.21913 8.43368C8.85226 8.65861 8.43033 8.77769 8 8.77778V9.55556M8.03889 11.8889V11.9667H7.96111V11.8889H8.03889ZM1 12.5111V3.48889C1 2.61778 1 2.18222 1.16956 1.84933C1.31889 1.55611 1.55611 1.31889 1.84933 1.16956C2.18222 1 2.61778 1 3.48889 1H12.5111C13.3822 1 13.8178 1 14.1499 1.16956C14.4431 1.31889 14.6811 1.55611 14.8304 1.84933C15 2.18144 15 2.617 15 3.48656V12.5142C15 13.3838 15 13.8186 14.8304 14.1507C14.6811 14.4435 14.4429 14.6814 14.1499 14.8304C13.8178 15 13.383 15 12.5134 15H3.48656C2.617 15 2.18144 15 1.84933 14.8304C1.55665 14.6813 1.31869 14.4434 1.16956 14.1507C1 13.8178 1 13.3822 1 12.5111Z" stroke="black" stroke-width="1.5" stroke-linecap="round" stroke-linejoin="round"/>
</g>
<defs>
<clipPath id="clip0_7702_23749">
<rect width="16" height="16" fill="white"/>
</clipPath>
</defs>
</svg>
