<svg width="16" height="16" viewBox="0 0 16 16" fill="none" xmlns="http://www.w3.org/2000/svg">
<g clip-path="url(#clip0_4386_1420)">
<path d="M9.47418 5.60812C9.47418 5.29418 9.21968 5.03967 8.90573 5.03967C8.59178 5.03967 8.33728 5.29418 8.33728 5.60812V8.50205C8.33728 8.70496 8.44425 8.89283 8.61874 8.99638L11.1228 10.4824C11.3761 10.6327 11.7032 10.5495 11.8539 10.2963C12.0047 10.0429 11.9214 9.71522 11.6679 9.56456L9.47418 8.26089V5.60812ZM9.09521 1.25C7.28606 1.25 5.55101 1.96868 4.27175 3.24794C2.99249 4.52721 2.2738 6.26226 2.2738 8.07141H0.476923C0.299586 8.07141 0.209975 8.2851 0.334268 8.41159L2.86019 10.9822C2.93802 11.0614 3.06547 11.062 3.14409 10.9836L5.72103 8.41301C5.84727 8.28709 5.75809 8.07141 5.57979 8.07141H3.78967C3.78967 6.66429 4.34865 5.31481 5.34363 4.31983C6.33861 3.32484 7.6881 2.76587 9.09521 2.76587C10.5023 2.76587 11.8518 3.32484 12.8468 4.31983C13.8418 5.31481 14.4008 6.66429 14.4008 8.07141C14.4008 9.47853 13.8418 10.828 12.8468 11.823C11.8518 12.818 10.5023 13.377 9.09521 13.377C7.6324 13.377 6.30602 12.7782 5.35102 11.8156L4.27475 12.8919C4.90506 13.5289 5.65596 14.0339 6.48362 14.3774C7.31128 14.721 8.19909 14.8962 9.09521 14.8928C10.9044 14.8928 12.6394 14.1741 13.9187 12.8949C15.1979 11.6156 15.9166 9.88056 15.9166 8.07141C15.9166 6.26226 15.1979 4.52721 13.9187 3.24794C12.6394 1.96868 10.9044 1.25 9.09521 1.25Z" fill="black"/>
</g>
<defs>
<clipPath id="clip0_4386_1420">
<rect width="16" height="16" fill="white"/>
</clipPath>
</defs>
</svg>
