<svg xmlns="http://www.w3.org/2000/svg" width="8" height="12" viewBox="0 0 8 12" fill="none">
    <path d="M1.05579 1.97437C0.736788 1.69676 0.736904 1.2012 1.05604 0.923736C1.31806 0.695932 1.70787 0.695989 1.96982 0.923872L7.29199 5.55384C7.38514 5.63439 7.45907 5.73019 7.50952 5.8357C7.55997 5.94122 7.58594 6.05438 7.58594 6.16866C7.58594 6.28295 7.55997 6.3961 7.50952 6.50162C7.45907 6.60714 7.38514 6.70293 7.29199 6.78349L1.96981 11.4159C1.70791 11.6438 1.31805 11.6438 1.05613 11.4159C0.737414 11.1385 0.737392 10.6435 1.05608 10.3661L5.87699 6.16997L1.05579 1.97437Z" fill="black"/>
</svg>