<svg xmlns="http://www.w3.org/2000/svg" width="16" height="16" viewBox="0 0 16 16" fill="none">
    <path d="M8 13.6324H2.55556C2.143 13.6324 1.74733 13.4573 1.45561 13.1457C1.16389 12.834 1 12.4114 1 11.9706V3.66177M1 3.66177C1 3.22104 1.16389 2.79836 1.45561 2.48672C1.74733 2.17508 2.143 2 2.55556 2H8H13.4444C13.857 2 14.2527 2.17508 14.5444 2.48672C14.8361 2.79836 15 3.22104 15 3.66177M1 3.66177L8 8.17623L15 3.66177M15 3.66177V9.89342M10.3333 13.2199H12.6667H15M15 13.2199L12.6667 11.475M15 13.2199L12.6667 15" stroke="#ffffff" stroke-width="1.5" stroke-linecap="round" stroke-linejoin="round"/>
</svg>