<svg xmlns="http://www.w3.org/2000/svg" width="20" height="20" viewBox="0 0 20 20" fill="none">
    <g clip-path="url(#clip0_6955_15545)">
        <path d="M15.8344 2.15604L17.9481 4.1579M10 10L12.6794 9.85958L18.3061 3.962C18.4468 3.81448 18.5585 3.63935 18.6346 3.44661C18.7108 3.25386 18.75 3.04728 18.75 2.83865C18.75 2.63003 18.7108 2.42345 18.6346 2.2307C18.5585 2.03796 18.4468 1.86283 18.3061 1.71531C18.1653 1.56779 17.9982 1.45077 17.8143 1.37093C17.6305 1.29109 17.4334 1.25 17.2343 1.25C17.0353 1.25 16.8382 1.29109 16.6543 1.37093C16.4704 1.45077 16.3033 1.56779 16.1626 1.71531L10.5359 7.61288L10 10Z" stroke="black" stroke-width="1.5" stroke-linecap="round" stroke-linejoin="round"/>
        <path d="M18.75 8.12444C18.75 9.21138 18.75 17.2726 18.5381 17.6878C18.3514 18.0538 18.0536 18.3512 17.6874 18.5375C17.2722 18.7494 16.7287 18.7494 15.6418 18.7494H4.35819C3.27125 18.7494 2.72681 18.7494 2.31167 18.5375C1.94581 18.3511 1.64836 18.0536 1.46194 17.6878C1.25 17.2717 1.25 16.7272 1.25 15.6383V6.87447M1.25 6.87447V4.36055C1.25 3.27166 1.25 2.72722 1.46194 2.31111C1.64861 1.94458 1.94514 1.64805 2.31167 1.46139C2.72778 1.24944 10.7861 1.46139 11.875 1.46139L7.5 6.87447H1.25Z" stroke="black" stroke-width="1.88" stroke-linecap="round" stroke-linejoin="round"/>
    </g>
    <defs>
        <clipPath id="clip0_6955_15545">
            <rect width="20" height="20" fill="white"/>
        </clipPath>
    </defs>
</svg>