<svg width="23" height="24" viewBox="0 0 23 24" fill="none" xmlns="http://www.w3.org/2000/svg">
<path d="M9.96877 18.2083C12.2503 18.2083 14.3261 17.3278 15.875 15.888C17.5795 14.3036 18.6459 12.042 18.6459 9.53121C18.6459 4.73891 14.7611 0.854126 9.96877 0.854126C5.17647 0.854126 1.29169 4.73891 1.29169 9.53121C1.29169 14.3235 5.17647 18.2083 9.96877 18.2083Z" fill="#F5F5F5" stroke="black" stroke-width="0.875" stroke-linecap="round" stroke-linejoin="round"/>
<path d="M19.5016 22.8862L14.5626 17.1874L16.3126 15.4374L21.5103 21.3776C21.9934 21.9297 21.8591 22.7844 21.2301 23.1619C20.6634 23.5019 19.9344 23.3856 19.5016 22.8862Z" fill="#F5F5F5" stroke="black" stroke-width="0.875"/>
<path d="M14.125 7.12488C13.551 6.29162 12.869 5.63079 12.1182 5.18032C11.3674 4.72985 10.5626 4.49862 9.75 4.49988C8.93737 4.49862 8.13257 4.72985 7.38179 5.18032C6.63101 5.63079 5.94903 6.29162 5.375 7.12488" stroke="#70B62B" stroke-width="1.3125" stroke-linecap="round" stroke-linejoin="round"/>
</svg>
