<svg width="16" height="16" viewBox="0 0 16 16" fill="none" xmlns="http://www.w3.org/2000/svg">
<g clip-path="url(#clip0_4563_8547)">
<mask id="path-1-inside-1_4563_8547" fill="white">
<path d="M0.875808 6.4906C0.729098 7.021 0.672478 7.57228 0.708308 8.12143C0.708308 8.83226 0.709974 9.9606 0.742474 10.9948C0.759141 11.5414 0.785808 12.0706 0.825808 12.5023C0.845808 12.7173 0.869974 12.9173 0.900808 13.0873C0.926327 13.2596 0.976273 13.4274 1.04914 13.5856C1.3489 14.1734 1.82701 14.6512 2.41497 14.9506C2.78497 15.1398 3.18497 15.2181 3.63997 15.2556C4.08247 15.2914 4.62914 15.2914 5.30664 15.2914H10.6933C11.3708 15.2914 11.9175 15.2914 12.36 15.2556C12.815 15.2181 13.215 15.1389 13.585 14.9506C14.1734 14.6511 14.6518 14.173 14.9516 13.5848C15.03 13.4298 15.0725 13.2389 15.0991 13.0873C15.13 12.9173 15.1541 12.7173 15.1741 12.5023C15.2141 12.0706 15.2408 11.5414 15.2575 10.9939C15.29 9.95643 15.2908 8.82226 15.2916 8.11143C15.3261 7.56555 15.2692 7.01775 15.1233 6.4906L14.43 4.06227L14.38 3.8881C14.0933 2.86893 13.7133 1.51893 12.2958 0.939766C11.7258 0.707266 11.0675 0.707266 10.1125 0.708099H5.88747C4.93247 0.708099 4.27497 0.707266 3.70414 0.939766C2.28664 1.51893 1.90664 2.86893 1.61997 3.8881L1.56997 4.0631L0.875808 6.4906ZM6.01747 1.9581H9.98247C11.12 1.9581 11.51 1.96977 11.8225 2.09727C12.6616 2.43977 12.8866 3.21143 13.2275 4.4056L13.9216 6.83393C14.0258 7.19893 14.0658 7.6031 14.0466 7.99977H14.0416V8.07143L14.0333 8.18143C13.9911 8.61392 13.8 9.01833 13.4927 9.32552C13.1853 9.63271 12.7808 9.82362 12.3483 9.8656C12.1832 9.8805 12.0174 9.88717 11.8516 9.8856H11.8133C11.6613 9.88022 11.5091 9.89027 11.3591 9.9156C10.9516 9.99893 10.5991 10.2531 10.39 10.6131C10.315 10.7439 10.2666 10.8881 10.2216 11.0231L10.2108 11.0564C10.1108 11.3548 10.035 11.4331 9.99664 11.4614C9.95997 11.4881 9.86081 11.5414 9.53831 11.5414H6.46081C6.14747 11.5414 6.04831 11.4931 6.00914 11.4664C5.97247 11.4406 5.89081 11.3631 5.78914 11.0573L5.77747 11.0239C5.73558 10.8816 5.67917 10.7439 5.60914 10.6131C5.50596 10.435 5.36626 10.2808 5.19922 10.1606C5.03218 10.0404 4.84159 9.95689 4.63997 9.9156C4.48999 9.89027 4.33782 9.88022 4.18581 9.8856H4.14831C3.98252 9.88717 3.81676 9.8805 3.65164 9.8656C3.20147 9.8222 2.78216 9.61755 2.47098 9.28937C2.1598 8.96119 1.97773 8.5316 1.95831 8.07976V7.99977H1.95331C1.93208 7.60669 1.97429 7.21276 2.07831 6.8331L2.77164 4.4056C3.11331 3.21143 3.33831 2.43977 4.17664 2.09727C4.48997 1.96977 4.87914 1.9581 6.01664 1.9581M1.99164 10.9556L1.97914 10.5164C2.43268 10.8507 2.96834 11.0557 3.52914 11.1098C3.74164 11.1306 3.94997 11.1364 4.14831 11.1356C4.22861 11.1353 4.3089 11.1367 4.38914 11.1398C4.4178 11.1458 4.44486 11.1579 4.46856 11.1751C4.49225 11.1923 4.51204 11.2144 4.52664 11.2398L4.54081 11.2748C4.55497 11.3131 4.57247 11.3631 4.60164 11.4523C4.73664 11.8564 4.92997 12.2356 5.28831 12.4873C5.64414 12.7389 6.05914 12.7914 6.45997 12.7914H9.53747C9.96414 12.7914 10.3841 12.7281 10.7375 12.4681C11.0875 12.2098 11.2691 11.8323 11.3958 11.4523C11.4258 11.3631 11.4425 11.3123 11.4566 11.2748C11.4691 11.2414 11.4733 11.2364 11.4708 11.2398C11.4854 11.2144 11.5052 11.1923 11.5289 11.1751C11.5526 11.1579 11.5796 11.1458 11.6083 11.1398L11.65 11.1373C11.6933 11.1356 11.7508 11.1356 11.85 11.1356C12.0475 11.1356 12.2558 11.1306 12.4683 11.1106C13.0293 11.0561 13.5649 10.8504 14.0183 10.5156C14.0155 10.6639 14.0116 10.8106 14.0066 10.9556C13.99 11.4923 13.965 11.9923 13.9283 12.3864C13.915 12.5475 13.895 12.7079 13.8683 12.8673C13.8591 12.9195 13.8474 12.9712 13.8333 13.0223C13.6535 13.373 13.3678 13.6582 13.0166 13.8373C12.8525 13.9206 12.635 13.9789 12.2566 14.0098C11.8716 14.0406 11.3758 14.0414 10.6658 14.0414H5.33331C4.62331 14.0414 4.12747 14.0414 3.74164 14.0098C3.36414 13.9781 3.14664 13.9206 2.98247 13.8373C2.62949 13.6577 2.34243 13.3709 2.16247 13.0181L2.16581 13.0239L2.16414 13.0173C2.15073 12.9678 2.13961 12.9178 2.13081 12.8673C2.10416 12.7079 2.08414 12.5475 2.07081 12.3864C2.03075 11.9103 2.00435 11.4332 1.99164 10.9556Z"/>
</mask>
<path d="M0.875808 6.4906L0.0745595 6.26147L0.0726323 6.26844L0.875808 6.4906ZM0.708308 8.12143H1.54164V8.09427L1.53987 8.06718L0.708308 8.12143ZM0.742474 10.9948L1.57542 10.9694L1.5754 10.9686L0.742474 10.9948ZM0.825808 12.5023L-0.00397074 12.5792L-0.00394326 12.5795L0.825808 12.5023ZM0.900808 13.0873L1.72515 12.9652L1.72317 12.9518L1.72076 12.9385L0.900808 13.0873ZM1.04914 13.5856L0.292223 13.9342L0.299198 13.9493L0.306774 13.9642L1.04914 13.5856ZM2.41497 14.9506L2.79432 14.2086L2.79312 14.208L2.41497 14.9506ZM3.63997 15.2556L3.57153 16.0861L3.57271 16.0862L3.63997 15.2556ZM12.36 15.2556L12.4272 16.0862L12.4284 16.0861L12.36 15.2556ZM13.585 14.9506L13.207 14.2079L13.207 14.2079L13.585 14.9506ZM14.9516 13.5848L15.6941 13.9632L15.6954 13.9606L14.9516 13.5848ZM15.0991 13.0873L14.2792 12.9385L14.2784 12.943L15.0991 13.0873ZM15.1741 12.5023L16.0039 12.5795L16.0039 12.5792L15.1741 12.5023ZM15.2575 10.9939L14.4245 10.9678L14.4245 10.9686L15.2575 10.9939ZM15.2916 8.11143L14.46 8.05897L14.4583 8.08468L14.4583 8.11045L15.2916 8.11143ZM15.1233 6.4906L15.9265 6.26834L15.9246 6.26181L15.1233 6.4906ZM14.43 4.06227L15.2313 3.83348L15.231 3.83232L14.43 4.06227ZM14.38 3.8881L13.5778 4.11374L13.579 4.11804L14.38 3.8881ZM12.2958 0.939766L12.611 0.16834L12.6105 0.168154L12.2958 0.939766ZM10.1125 0.708099V1.54143L10.1132 1.54143L10.1125 0.708099ZM3.70414 0.939766L3.3898 0.167993L3.38895 0.16834L3.70414 0.939766ZM1.61997 3.8881L2.42125 4.11703L2.42218 4.11374L1.61997 3.8881ZM1.56997 4.0631L2.37119 4.29221L2.37124 4.29203L1.56997 4.0631ZM11.8225 2.09727L12.1374 1.32572L12.1373 1.32568L11.8225 2.09727ZM13.2275 4.4056L12.4261 4.63431L12.4262 4.63464L13.2275 4.4056ZM13.9216 6.83393L14.723 6.60524L14.7229 6.60489L13.9216 6.83393ZM14.0466 7.99977V8.8331H14.8407L14.879 8.03998L14.0466 7.99977ZM14.0416 7.99977V7.16643H13.2083V7.99977H14.0416ZM14.0416 8.07143L14.8726 8.13438L14.875 8.10295V8.07143H14.0416ZM14.0333 8.18143L14.8627 8.26235L14.8636 8.25338L14.8643 8.24438L14.0333 8.18143ZM12.3483 9.8656L12.4232 10.6956L12.4288 10.695L12.3483 9.8656ZM11.8516 9.8856L11.8595 9.05226H11.8516V9.8856ZM11.8133 9.8856L11.7838 10.7184L11.7986 10.7189H11.8133V9.8856ZM11.3591 9.9156L11.2204 9.0939L11.2062 9.09629L11.1922 9.09916L11.3591 9.9156ZM10.39 10.6131L9.66942 10.1944L9.66701 10.1987L10.39 10.6131ZM10.2216 11.0231L9.43105 10.7596L9.42912 10.7655L10.2216 11.0231ZM10.2108 11.0564L11.001 11.3213L11.0033 11.314L10.2108 11.0564ZM9.99664 11.4614L10.4868 12.1354L10.492 12.1316L9.99664 11.4614ZM6.00914 11.4664L5.52912 12.1478L5.54015 12.1553L6.00914 11.4664ZM5.78914 11.0573L6.58002 10.7944L6.57569 10.782L5.78914 11.0573ZM5.77747 11.0239L4.97805 11.2592L4.98398 11.2794L4.99093 11.2992L5.77747 11.0239ZM5.60914 10.6131L6.34383 10.2198L6.3372 10.2074L6.33017 10.1953L5.60914 10.6131ZM4.63997 9.9156L4.80719 9.09921L4.793 9.09631L4.77872 9.0939L4.63997 9.9156ZM4.18581 9.8856V10.7189H4.20054L4.21527 10.7184L4.18581 9.8856ZM4.14831 9.8856V9.05223L4.14041 9.0523L4.14831 9.8856ZM3.65164 9.8656L3.57167 10.6951L3.57676 10.6956L3.65164 9.8656ZM1.95831 8.07976H1.12497V8.09766L1.12574 8.11555L1.95831 8.07976ZM1.95831 7.99977H2.79164V7.16643H1.95831V7.99977ZM1.95331 7.99977L1.12119 8.04471L1.16377 8.8331H1.95331V7.99977ZM2.07831 6.8331L1.27697 6.60422L1.2746 6.61289L2.07831 6.8331ZM2.77164 4.4056L1.97046 4.17637L1.97035 4.17674L2.77164 4.4056ZM4.17664 2.09727L3.86255 1.32539L3.86147 1.32583L4.17664 2.09727ZM1.99164 10.9556L2.82468 10.9334L2.82464 10.9319L1.99164 10.9556ZM1.97914 10.5164L2.47352 9.84559L1.09751 8.83154L1.14615 10.5401L1.97914 10.5164ZM3.52914 11.1098L3.61045 10.2804L3.60908 10.2803L3.52914 11.1098ZM4.14831 11.1356L4.14552 10.3023L4.14481 10.3023L4.14831 11.1356ZM4.38914 11.1398L4.56162 10.3245L4.49193 10.3097L4.42076 10.307L4.38914 11.1398ZM4.52664 11.2398L5.2991 10.9271L5.27763 10.8741L5.24912 10.8245L4.52664 11.2398ZM4.54081 11.2748L5.32247 10.9859L5.31805 10.9739L5.31326 10.9621L4.54081 11.2748ZM4.60164 11.4523L3.80959 11.7113L3.81123 11.7163L4.60164 11.4523ZM5.28831 12.4873L5.76951 11.8069L5.76726 11.8053L5.28831 12.4873ZM10.7375 12.4681L11.2314 13.1393L11.2324 13.1386L10.7375 12.4681ZM11.3958 11.4523L10.606 11.1865L10.6052 11.1887L11.3958 11.4523ZM11.4566 11.2748L12.2362 11.5693L12.2369 11.5674L11.4566 11.2748ZM11.4708 11.2398L10.7483 10.8245L12.1375 11.7398L11.4708 11.2398ZM11.6083 11.1398L11.5584 10.3079L11.4965 10.3116L11.4358 10.3245L11.6083 11.1398ZM11.65 11.1373L11.6179 10.3045L11.609 10.3049L11.6001 10.3054L11.65 11.1373ZM12.4683 11.1106L12.5464 11.9403L12.5489 11.94L12.4683 11.1106ZM14.0183 10.5156L14.8515 10.5312L14.8831 8.8409L13.5232 9.84527L14.0183 10.5156ZM14.0066 10.9556L13.1738 10.9269L13.1737 10.9297L14.0066 10.9556ZM13.9283 12.3864L13.0985 12.3092L13.0978 12.3177L13.9283 12.3864ZM13.8683 12.8673L14.689 13.0119L14.6902 13.0047L13.8683 12.8673ZM13.8333 13.0223L14.5749 13.4024L14.6138 13.3265L14.6365 13.2444L13.8333 13.0223ZM13.0166 13.8373L13.3938 14.5803L13.3953 14.5796L13.0166 13.8373ZM12.2566 14.0098L12.3232 14.8404L12.3243 14.8403L12.2566 14.0098ZM3.74164 14.0098L3.67198 14.8402L3.67348 14.8403L3.74164 14.0098ZM2.98247 13.8373L2.60458 14.58L2.60528 14.5803L2.98247 13.8373ZM2.16247 13.0181L2.886 12.6046L1.42013 13.3967L2.16247 13.0181ZM2.16581 13.0239L1.44228 13.4374L2.97426 12.8218L2.16581 13.0239ZM2.16414 13.0173L2.97259 12.8152L2.97059 12.8071L2.96843 12.7992L2.16414 13.0173ZM2.13081 12.8673L1.30887 13.0047L1.30985 13.0103L2.13081 12.8673ZM2.07081 12.3864L2.9013 12.3177L2.90121 12.3166L2.07081 12.3864ZM0.0726323 6.26844C-0.0989431 6.88875 -0.16516 7.53346 -0.123258 8.17569L1.53987 8.06718C1.51012 7.6111 1.55714 7.15326 1.67898 6.71276L0.0726323 6.26844ZM-0.125026 8.12143C-0.125026 8.83187 -0.123407 9.97216 -0.0904478 11.0209L1.5754 10.9686C1.54336 9.94903 1.54164 8.83266 1.54164 8.12143H-0.125026ZM-0.090472 11.0202C-0.0735652 11.5747 -0.0462326 12.1231 -0.00397074 12.5792L1.65559 12.4254C1.61785 12.0181 1.59185 11.5082 1.57542 10.9694L-0.090472 11.0202ZM-0.00394326 12.5795C0.0170835 12.8055 0.0439008 13.0323 0.0808519 13.236L1.72076 12.9385C1.69605 12.8023 1.67453 12.629 1.65556 12.4251L-0.00394326 12.5795ZM0.076465 13.2093C0.113583 13.46 0.186233 13.7041 0.292223 13.9342L1.80606 13.237C1.76631 13.1507 1.73907 13.0592 1.72515 12.9652L0.076465 13.2093ZM0.306774 13.9642C0.68647 14.7087 1.29208 15.314 2.03683 15.6932L2.79312 14.208C2.36195 13.9884 2.01133 13.638 1.79151 13.207L0.306774 13.9642ZM2.03563 15.6926C2.54328 15.9521 3.06572 16.0444 3.57153 16.0861L3.70842 14.4251C3.30423 14.3918 3.02667 14.3274 2.79432 14.2086L2.03563 15.6926ZM3.57271 16.0862C4.05639 16.1254 4.64168 16.1248 5.30664 16.1248V14.4581C4.6166 14.4581 4.10856 14.4575 3.70724 14.425L3.57271 16.0862ZM5.30664 16.1248H10.6933V14.4581H5.30664V16.1248ZM10.6933 16.1248C11.3583 16.1248 11.9436 16.1254 12.4272 16.0862L12.2927 14.425C11.8914 14.4575 11.3833 14.4581 10.6933 14.4581V16.1248ZM12.4284 16.0861C12.9356 16.0443 13.4568 15.9509 13.963 15.6933L13.207 14.2079C12.9732 14.3269 12.6943 14.3919 12.2915 14.4251L12.4284 16.0861ZM13.963 15.6933C14.7083 15.3139 15.3143 14.7083 15.6941 13.9632L14.2092 13.2063C13.9893 13.6377 13.6385 13.9883 13.207 14.2079L13.963 15.6933ZM15.6954 13.9606C15.8322 13.6899 15.8909 13.3967 15.9199 13.2316L14.2784 12.943C14.2676 13.0045 14.2556 13.0619 14.2415 13.113C14.2268 13.1661 14.2142 13.1964 14.2079 13.2089L15.6954 13.9606ZM15.9191 13.236C15.956 13.0323 15.9829 12.8055 16.0039 12.5795L14.3444 12.4251C14.3254 12.629 14.3039 12.8023 14.2792 12.9385L15.9191 13.236ZM16.0039 12.5792C16.0462 12.1231 16.0735 11.5747 16.0904 11.0193L14.4245 10.9686C14.4081 11.5082 14.3821 12.0181 14.3444 12.4254L16.0039 12.5792ZM16.0904 11.02C16.1234 9.96788 16.1241 8.82116 16.125 8.11241L14.4583 8.11045C14.4575 8.82337 14.4566 9.94498 14.4245 10.9678L16.0904 11.02ZM16.1233 8.1639C16.1636 7.5255 16.0971 6.88485 15.9265 6.26835L14.3202 6.71285C14.4413 7.15066 14.4886 7.60561 14.46 8.05897L16.1233 8.1639ZM15.9246 6.26181L15.2313 3.83348L13.6287 4.29105L14.322 6.71939L15.9246 6.26181ZM15.231 3.83232L15.181 3.65815L13.579 4.11804L13.629 4.29221L15.231 3.83232ZM15.1822 3.66246C14.9099 2.69439 14.4522 0.920604 12.611 0.16834L11.9806 1.71119C12.9745 2.11726 13.2767 3.04347 13.5778 4.11374L15.1822 3.66246ZM12.6105 0.168154C11.8567 -0.139341 11.0125 -0.12602 10.1117 -0.125234L10.1132 1.54143C11.1225 1.54055 11.5949 1.55387 11.9811 1.71138L12.6105 0.168154ZM10.1125 -0.125234H5.88747V1.54143H10.1125V-0.125234ZM5.88747 -0.125234C4.98802 -0.125234 4.14423 -0.139288 3.3898 0.167993L4.01848 1.71154C4.40572 1.55382 4.87693 1.54143 5.88747 1.54143V-0.125234ZM3.38895 0.16834C1.5478 0.920604 1.09006 2.69439 0.817771 3.66246L2.42218 4.11374C2.72322 3.04347 3.02549 2.11726 4.01933 1.71119L3.38895 0.16834ZM0.818704 3.65916L0.768704 3.83416L2.37124 4.29203L2.42124 4.11703L0.818704 3.65916ZM0.768756 3.83398L0.0745897 6.26148L1.67703 6.71971L2.37119 4.29221L0.768756 3.83398ZM6.01747 2.79143H9.98247V1.12477H6.01747V2.79143ZM9.98247 2.79143C10.5586 2.79143 10.9105 2.79472 11.1556 2.8113C11.3908 2.82721 11.4674 2.85242 11.5077 2.86885L12.1373 1.32568C11.8651 1.21462 11.5904 1.17024 11.2681 1.14844C10.9557 1.12731 10.5439 1.12477 9.98247 1.12477V2.79143ZM11.5076 2.86881C11.7136 2.95291 11.8451 3.07576 11.9753 3.32185C12.1296 3.61345 12.2482 4.01069 12.4261 4.63431L14.0288 4.17689C13.866 3.60634 13.7016 3.02067 13.4484 2.54226C13.1711 2.01835 12.7705 1.58412 12.1374 1.32572L11.5076 2.86881ZM12.4262 4.63464L13.1204 7.06297L14.7229 6.60489L14.0287 4.17656L12.4262 4.63464ZM13.1203 7.06262C13.1965 7.32963 13.2296 7.64184 13.2143 7.95955L14.879 8.03998C14.902 7.56435 14.8551 7.06824 14.723 6.60524L13.1203 7.06262ZM14.0466 7.16643H14.0416V8.8331H14.0466V7.16643ZM13.2083 7.99977V8.07143H14.875V7.99977H13.2083ZM13.2107 8.00848L13.2024 8.11848L14.8643 8.24438L14.8726 8.13438L13.2107 8.00848ZM13.2039 8.10052C13.1805 8.34079 13.0743 8.56546 12.9036 8.73612L14.0818 9.91492C14.5257 9.4712 14.8018 8.88706 14.8627 8.26235L13.2039 8.10052ZM12.9036 8.73612C12.7328 8.90678 12.5081 9.01284 12.2678 9.03616L12.4288 10.695C13.0536 10.6344 13.6378 10.3586 14.0818 9.91492L12.9036 8.73612ZM12.2734 9.03564C12.1358 9.04805 11.9977 9.05361 11.8595 9.0523L11.8437 10.7189C12.0372 10.7207 12.2305 10.7129 12.4232 10.6956L12.2734 9.03564ZM11.8516 9.05226H11.8133V10.7189H11.8516V9.05226ZM11.8428 9.05279C11.6345 9.04542 11.4259 9.05919 11.2204 9.0939L11.4979 10.7373C11.5923 10.7214 11.6881 10.715 11.7838 10.7184L11.8428 9.05279ZM11.1922 9.09916C10.5507 9.23034 9.99738 9.63002 9.66943 10.1945L11.1105 11.0317C11.2009 10.8762 11.3526 10.7675 11.5261 10.732L11.1922 9.09916ZM9.66701 10.1987C9.54417 10.4129 9.4723 10.6359 9.43107 10.7596L11.0122 11.2866C11.061 11.1403 11.0858 11.0749 11.1129 11.0275L9.66701 10.1987ZM9.42912 10.7655L9.41828 10.7989L11.0033 11.314L11.0142 11.2807L9.42912 10.7655ZM9.42068 10.7916C9.40212 10.847 9.38732 10.8842 9.37714 10.9074C9.36688 10.9309 9.36267 10.937 9.36602 10.9314C9.36955 10.9256 9.38229 10.9053 9.40646 10.8778C9.41867 10.8639 9.43315 10.8489 9.45001 10.8335C9.46711 10.8178 9.48444 10.8038 9.50132 10.7913L10.492 12.1316C10.739 11.949 10.8839 11.6705 11.0009 11.3213L9.42068 10.7916ZM9.5065 10.7875C9.52154 10.7765 9.53903 10.7648 9.55864 10.7534C9.57794 10.7421 9.59643 10.7327 9.61363 10.7249C9.64785 10.7096 9.67217 10.703 9.68082 10.701C9.68901 10.699 9.6835 10.701 9.65947 10.7033C9.63556 10.7057 9.59643 10.7081 9.53831 10.7081V12.3748C9.93258 12.3748 10.2417 12.3136 10.4868 12.1354L9.5065 10.7875ZM9.53831 10.7081H6.46081V12.3748H9.53831V10.7081ZM6.46081 10.7081C6.40344 10.7081 6.36425 10.7059 6.33963 10.7036C6.31488 10.7013 6.30794 10.6993 6.31424 10.7007C6.32096 10.7022 6.34308 10.7077 6.3751 10.7212C6.39123 10.728 6.40878 10.7363 6.42728 10.7464C6.44606 10.7567 6.46311 10.7674 6.47813 10.7776L5.54015 12.1553C5.78343 12.3209 6.08314 12.3748 6.46081 12.3748V10.7081ZM6.4891 10.7852C6.50595 10.7971 6.52371 10.8108 6.54152 10.8263C6.55906 10.8417 6.57429 10.8567 6.5873 10.8709C6.61312 10.899 6.62717 10.9203 6.63181 10.9278C6.63624 10.9349 6.6326 10.9303 6.62274 10.9081C6.61294 10.8861 6.59828 10.8496 6.57993 10.7944L4.99836 11.3201C5.12128 11.6899 5.27679 11.9698 5.52918 12.1477L6.4891 10.7852ZM6.57569 10.782L6.56402 10.7486L4.99093 11.2992L5.00259 11.3326L6.57569 10.782ZM6.5769 10.7886C6.51889 10.5915 6.44079 10.4009 6.34383 10.2198L4.87446 11.0064C4.91755 11.0869 4.95226 11.1716 4.97805 11.2592L6.5769 10.7886ZM6.33017 10.1953C6.16802 9.91547 5.94849 9.67314 5.686 9.48423L4.71243 10.837C4.78402 10.8885 4.84389 10.9546 4.88812 11.0309L6.33017 10.1953ZM5.686 9.48423C5.42351 9.29532 5.12401 9.16411 4.80719 9.09921L4.47276 10.732C4.55916 10.7497 4.64085 10.7855 4.71243 10.837L5.686 9.48423ZM4.77872 9.0939C4.57319 9.05919 4.36466 9.04542 4.15635 9.05279L4.21527 10.7184C4.31098 10.715 4.40679 10.7214 4.50122 10.7373L4.77872 9.0939ZM4.18581 9.05226H4.14831V10.7189H4.18581V9.05226ZM4.14041 9.0523C4.00225 9.05361 3.86412 9.04805 3.72652 9.03564L3.57676 10.6956C3.76941 10.7129 3.96279 10.7207 4.15621 10.7189L4.14041 9.0523ZM3.73161 9.03611C3.48152 9.012 3.24857 8.89831 3.07569 8.71599L1.86628 9.86276C2.31576 10.3368 2.92143 10.6324 3.57167 10.6951L3.73161 9.03611ZM3.07569 8.71599C2.90282 8.53366 2.80166 8.295 2.79087 8.04398L1.12574 8.11555C1.15379 8.7682 1.41679 9.38872 1.86628 9.86276L3.07569 8.71599ZM2.79164 8.07976V7.99977H1.12497V8.07976H2.79164ZM1.95831 7.16643H1.95331V8.8331H1.95831V7.16643ZM2.78543 7.95482C2.76902 7.65108 2.80164 7.34668 2.88202 7.05331L1.2746 6.61289C1.14693 7.07883 1.09513 7.56229 1.12119 8.04471L2.78543 7.95482ZM2.8796 7.06196L3.57293 4.63446L1.97035 4.17674L1.27702 6.60424L2.8796 7.06196ZM3.57283 4.63483C3.75129 4.01109 3.87 3.61369 4.02444 3.32185C4.15483 3.07547 4.28622 2.95269 4.49181 2.8687L3.86147 1.32583C3.22873 1.58434 2.82845 2.01865 2.55134 2.54226C2.29829 3.02043 2.13366 3.60594 1.97046 4.17637L3.57283 4.63483ZM4.49073 2.86914C4.53195 2.85237 4.60898 2.82719 4.84384 2.8113C5.08888 2.79472 5.44054 2.79143 6.01664 2.79143V1.12477C5.45524 1.12477 5.04357 1.12731 4.73132 1.14844C4.40889 1.17025 4.13467 1.21466 3.86255 1.32539L4.49073 2.86914ZM2.82464 10.9319L2.81214 10.4927L1.14615 10.5401L1.15865 10.9793L2.82464 10.9319ZM1.48476 11.1873C2.05957 11.6109 2.73846 11.8708 3.4492 11.9393L3.60908 10.2803C3.19823 10.2407 2.80579 10.0905 2.47352 9.84559L1.48476 11.1873ZM3.44783 11.9391C3.69716 11.9636 3.93542 11.9698 4.15181 11.9689L4.14481 10.3023C3.96453 10.303 3.78613 10.2976 3.61045 10.2804L3.44783 11.9391ZM4.1511 11.9689C4.21992 11.9687 4.28875 11.9699 4.35753 11.9725L4.42076 10.307C4.32905 10.3035 4.23729 10.302 4.14552 10.3023L4.1511 11.9689ZM4.21666 11.9551C4.13067 11.9369 4.04949 11.9007 3.97841 11.849L4.9587 10.5012C4.84023 10.415 4.70493 10.3548 4.56162 10.3245L4.21666 11.9551ZM3.97841 11.849C3.90733 11.7974 3.84796 11.7312 3.80416 11.6551L5.24912 10.8245C5.17613 10.6975 5.07716 10.5873 4.9587 10.5012L3.97841 11.849ZM3.75418 11.5524L3.76835 11.5874L5.31326 10.9621L5.2991 10.9271L3.75418 11.5524ZM3.75915 11.5636C3.76846 11.5888 3.7824 11.6282 3.8096 11.7113L5.39368 11.1932C5.36254 11.098 5.34149 11.0374 5.32247 10.9859L3.75915 11.5636ZM3.81123 11.7163C3.96772 12.1848 4.23526 12.766 4.80936 13.1692L5.76726 11.8053C5.62469 11.7052 5.50556 11.5281 5.39205 11.1883L3.81123 11.7163ZM4.80711 13.1676C5.37483 13.5692 6.00148 13.6248 6.45997 13.6248V11.9581C6.1168 11.9581 5.91345 11.9087 5.7695 11.8069L4.80711 13.1676ZM6.45997 13.6248H9.53747V11.9581H6.45997V13.6248ZM9.53747 13.6248C10.0328 13.6248 10.6668 13.5548 11.2314 13.1393L10.2436 11.7969C10.1015 11.9014 9.89549 11.9581 9.53747 11.9581V13.6248ZM11.2324 13.1386C11.79 12.727 12.0413 12.151 12.1864 11.7158L10.6052 11.1887C10.497 11.5135 10.385 11.6925 10.2426 11.7976L11.2324 13.1386ZM12.1856 11.718C12.2203 11.6149 12.2292 11.5879 12.2362 11.5693L10.6771 10.9803C10.6558 11.0366 10.6313 11.1113 10.606 11.1865L12.1856 11.718ZM12.2369 11.5674C12.2372 11.5666 12.2339 11.5755 12.2269 11.5907C12.2252 11.5944 12.2238 11.5975 12.2228 11.5995C12.2173 11.6111 12.2261 11.5927 12.2313 11.5811C12.2333 11.5767 12.24 11.5618 12.2476 11.5424C12.2513 11.5329 12.2585 11.5141 12.2661 11.4899C12.2709 11.4747 12.2897 11.4155 12.299 11.3369C12.3034 11.2999 12.3117 11.213 12.2939 11.1043C12.2778 11.0059 12.2188 10.7623 11.9793 10.5782C11.7165 10.3762 11.4338 10.3931 11.2879 10.426C11.1523 10.4567 11.0582 10.514 11.0221 10.5371C10.9438 10.5873 10.8923 10.6395 10.8813 10.6506C10.8616 10.6704 10.847 10.687 10.84 10.6951C10.8154 10.7237 10.782 10.7693 10.8041 10.7398L12.1375 11.7398C12.1603 11.7094 12.1272 11.7545 12.1029 11.7827C12.0959 11.7909 12.0814 11.8075 12.0617 11.8272C12.0507 11.8383 11.9992 11.8905 11.9209 11.9407C11.8848 11.9638 11.7907 12.0211 11.6551 12.0517C11.5092 12.0847 11.2264 12.1016 10.9637 11.8996C10.7242 11.7155 10.6652 11.4719 10.6491 11.3735C10.6313 11.2647 10.6396 11.1779 10.644 11.1409C10.6533 11.0623 10.6721 11.0031 10.6769 10.9879C10.6845 10.9638 10.6916 10.9451 10.6954 10.9355C10.7029 10.9162 10.7095 10.9015 10.7115 10.8972C10.7165 10.8861 10.7248 10.8687 10.7186 10.8817C10.717 10.8851 10.7146 10.8901 10.7118 10.8963C10.7002 10.9216 10.6886 10.9496 10.6764 10.9822L12.2369 11.5674ZM12.1933 11.6551C12.1495 11.7312 12.0901 11.7973 12.019 11.849L11.0387 10.5012C10.9203 10.5873 10.8213 10.6975 10.7483 10.8245L12.1933 11.6551ZM12.019 11.849C11.948 11.9007 11.8668 11.9369 11.7808 11.9551L11.4358 10.3245C11.2925 10.3548 11.1572 10.415 11.0387 10.5012L12.019 11.849ZM11.6582 11.9716L11.6999 11.9691L11.6001 10.3054L11.5584 10.3079L11.6582 11.9716ZM11.682 11.97C11.7052 11.9691 11.7426 11.9689 11.85 11.9689V10.3023C11.759 10.3023 11.6814 10.3021 11.6179 10.3045L11.682 11.97ZM11.85 11.9689C12.0604 11.9689 12.2975 11.9637 12.5464 11.9403L12.3902 10.2809C12.2141 10.2975 12.0346 10.3023 11.85 10.3023V11.9689ZM12.5489 11.94C13.2599 11.8709 13.9388 11.6103 14.5134 11.1859L13.5232 9.84527C13.1911 10.0906 12.7986 10.2412 12.3877 10.2812L12.5489 11.94ZM13.1851 10.5C13.1824 10.6441 13.1786 10.7863 13.1738 10.9269L14.8395 10.9843C14.8446 10.8348 14.8486 10.6838 14.8515 10.5312L13.1851 10.5ZM13.1737 10.9297C13.1572 11.4599 13.1329 11.9402 13.0986 12.3092L14.7581 12.4636C14.7971 12.0443 14.8227 11.5246 14.8396 10.9815L13.1737 10.9297ZM13.0978 12.3177C13.0864 12.4557 13.0692 12.5932 13.0464 12.7298L14.6902 13.0047C14.7207 12.8226 14.7436 12.6392 14.7588 12.4552L13.0978 12.3177ZM13.0476 12.7227C13.043 12.7488 13.0372 12.7746 13.0301 12.8002L14.6365 13.2444C14.6577 13.1677 14.6752 13.0901 14.689 13.0119L13.0476 12.7227ZM13.0917 12.6421C12.9918 12.837 12.8331 12.9954 12.638 13.0949L13.3953 14.5796C13.9024 14.321 14.3152 13.909 14.5749 13.4024L13.0917 12.6421ZM12.6394 13.0942C12.6109 13.1087 12.5141 13.1527 12.189 13.1792L12.3243 14.8403C12.7559 14.8052 13.094 14.7325 13.3938 14.5803L12.6394 13.0942ZM12.1901 13.1791C11.846 13.2066 11.389 13.2081 10.6658 13.2081V14.8748C11.3626 14.8748 11.8973 14.8745 12.3232 14.8404L12.1901 13.1791ZM10.6658 13.2081H5.33331V14.8748H10.6658V13.2081ZM5.33331 13.2081C4.60838 13.2081 4.15339 13.2074 3.80981 13.1792L3.67348 14.8403C4.10156 14.8754 4.63823 14.8748 5.33331 14.8748V13.2081ZM3.8113 13.1793C3.48381 13.1519 3.38741 13.1083 3.35967 13.0942L2.60528 14.5803C2.90587 14.7329 3.24447 14.8043 3.67198 14.8402L3.8113 13.1793ZM3.36037 13.0945C3.16426 12.9948 3.00479 12.8355 2.90481 12.6394L1.42013 13.3967C1.68007 13.9064 2.09471 14.3206 2.60458 14.58L3.36037 13.0945ZM1.43895 13.4316L1.44228 13.4374L2.88933 12.6105L2.886 12.6046L1.43895 13.4316ZM2.97426 12.8218L2.97259 12.8152L1.35569 13.2194L1.35736 13.226L2.97426 12.8218ZM2.96843 12.7992C2.96173 12.7744 2.95616 12.7494 2.95177 12.7242L1.30985 13.0103C1.32305 13.0861 1.33973 13.1612 1.35985 13.2353L2.96843 12.7992ZM2.95273 12.7298C2.92988 12.5932 2.91273 12.4557 2.9013 12.3177L1.24032 12.4552C1.25555 12.6392 1.27843 12.8226 1.30889 13.0047L2.95273 12.7298ZM2.90121 12.3166C2.86249 11.8563 2.83697 11.3951 2.82468 10.9334L1.1586 10.9778C1.17174 11.4713 1.19902 11.9643 1.24041 12.4563L2.90121 12.3166Z" fill="black" mask="url(#path-1-inside-1_4563_8547)"/>
<path d="M8.54177 4.60005C8.54177 4.44091 8.48469 4.28828 8.38309 4.17575C8.28149 4.06322 8.14369 4 8 4C7.85631 4 7.71851 4.06322 7.61691 4.17575C7.51531 4.28828 7.45823 4.44091 7.45823 4.60005V7.95235L6.93813 7.3763C6.88853 7.31734 6.82872 7.27006 6.76227 7.23726C6.69581 7.20446 6.62407 7.18683 6.55133 7.18541C6.47858 7.18399 6.40633 7.19881 6.33887 7.22899C6.27141 7.25917 6.21013 7.30409 6.15868 7.36107C6.10724 7.41805 6.06668 7.48592 6.03943 7.56064C6.01218 7.63535 5.9988 7.71538 6.00008 7.79595C6.00137 7.87652 6.01729 7.95598 6.0469 8.02959C6.07651 8.10319 6.11921 8.16944 6.17243 8.22437L7.61715 9.82451C7.71873 9.93688 7.85643 10 8 10C8.14357 10 8.28127 9.93688 8.38285 9.82451L9.82757 8.22437C9.8808 8.16944 9.92349 8.10319 9.9531 8.02959C9.98271 7.95598 9.99863 7.87652 9.99992 7.79595C10.0012 7.71538 9.98782 7.63535 9.96057 7.56064C9.93332 7.48592 9.89276 7.41805 9.84132 7.36107C9.78987 7.30409 9.72859 7.25917 9.66113 7.22899C9.59367 7.19881 9.52142 7.18399 9.44867 7.18541C9.37593 7.18683 9.30419 7.20446 9.23773 7.23726C9.17128 7.27006 9.11147 7.31734 9.06187 7.3763L8.54177 7.95235V4.60005Z" fill="black"/>
</g>
<defs>
<clipPath id="clip0_4563_8547">
<rect width="16" height="16" fill="white"/>
</clipPath>
</defs>
</svg>
