<svg width="16" height="17" viewBox="0 0 16 17" fill="none" xmlns="http://www.w3.org/2000/svg">
<g clip-path="url(#clip0_3651_4168)">
<path d="M12.2918 7.44437C12.19 8.85654 11.1424 9.94441 10.0001 9.94441C8.85769 9.94441 7.80837 8.85689 7.70837 7.44437C7.6042 5.97525 8.62401 4.94434 10.0001 4.94434C11.3761 4.94434 12.3959 6.00199 12.2918 7.44437Z" stroke="#70B62B" stroke-width="1.5" stroke-linecap="round" stroke-linejoin="round"/>
<path d="M10.0001 12.1667C7.73716 12.1667 5.56105 13.2907 5.01589 15.4796C4.94367 15.7692 5.20237 16.0001 5.49995 16.0001H14.6547C14.9523 16.0001 15.0558 15.7692 14.9846 15.4796C14.4394 13.2557 12.2633 12.1667 10.0001 12.1667Z" stroke="#70B62B" stroke-width="1.5" stroke-miterlimit="10"/>
<path d="M6.99408 3.56725C6.91059 4.72611 6.04073 5.63878 5.10309 5.63878C4.16544 5.63878 3.29415 4.72646 3.21209 3.56725C3.12682 2.36165 3.97348 1.5 5.10309 1.5C6.23269 1.5 7.07935 2.38377 6.99408 3.56725Z" stroke="#70B62B" stroke-width="1.5" stroke-linecap="round" stroke-linejoin="round"/>
<path d="M7 8.01202C6.37762 7.6422 5.69214 7.5 4.96563 7.5C3.17263 7.5 1.44514 8.65595 1.01241 10.9075C0.955512 11.2053 1.09964 11.5 1.33549 11.5H5.207" stroke="#70B62B" stroke-width="1.5" stroke-miterlimit="10" stroke-linecap="round"/>
</g>
<defs>
<clipPath id="clip0_3651_4168">
<rect width="16" height="16" fill="white" transform="translate(0 0.5)"/>
</clipPath>
</defs>
</svg>
