<svg xmlns="http://www.w3.org/2000/svg" width="16" height="16" viewBox="0 0 16 16" fill="none">
    <path d="M15.235 10.5087V4.989C15.235 4.55358 14.6953 4.35072 14.4085 4.67831L11.7952 7.66307C11.6298 7.85201 11.6414 8.13743 11.8217 8.31228L14.435 10.8472C14.7341 11.1374 15.235 10.9254 15.235 10.5087Z" stroke="black" stroke-width="1.5"/>
    <path d="M0.972168 4.02231C0.972168 3.6551 1.26985 3.35742 1.63705 3.35742H10.6406C11.0078 3.35742 11.3055 3.6551 11.3055 4.02231V8.80583V11.3354C11.3055 11.7026 11.0078 12.0003 10.6406 12.0003H1.63705C1.26985 12.0003 0.972168 11.7026 0.972168 11.3354V4.02231Z" stroke="black" stroke-width="1.5"/>
    <line x1="3" y1="9.4" x2="9" y2="9.4" stroke="black" stroke-width="1.2"/>
    <rect x="9" y="5" width="0.876543" height="1.15932" fill="black"/>
</svg>