<svg width="16" height="16" viewBox="0 0 16 16" fill="none" xmlns="http://www.w3.org/2000/svg">
<path d="M15.235 10.5082V4.98851C15.235 4.5531 14.6953 4.35023 14.4085 4.67783L11.7952 7.66258C11.6298 7.85152 11.6414 8.13694 11.8217 8.31179L14.435 10.8467C14.7341 11.1369 15.235 10.9249 15.235 10.5082Z" stroke="white"/>
<path d="M0.722229 4.02182C0.722229 3.51654 1.13184 3.10693 1.63712 3.10693H10.6407C11.146 3.10693 11.5556 3.51654 11.5556 4.02182V8.80535V11.3349C11.5556 11.8402 11.146 12.2498 10.6407 12.2498H1.63711C1.13184 12.2498 0.722229 11.8402 0.722229 11.3349V4.02182Z" stroke="white"/>
<line x1="3" y1="9.52837" x2="9" y2="9.52837" stroke="white" stroke-width="0.943258"/>
<rect x="9" y="5" width="0.876543" height="1.15932" fill="white"/>
</svg>
