<svg xmlns="http://www.w3.org/2000/svg" width="16" height="16" viewBox="0 0 16 16" fill="none">
    <g clip-path="url(#clip0_4946_5647)">
        <path d="M4 1.75C4.13807 1.75 4.25 1.86193 4.25 2V4C4.25 4.13807 4.13807 4.25 4 4.25H2C1.86193 4.25 1.75 4.13807 1.75 4L1.75 2C1.75 1.86193 1.86193 1.75 2 1.75L4 1.75Z" stroke="black" stroke-width="1.5"/>
        <path d="M4 6.75C4.13807 6.75 4.25 6.86193 4.25 7V9C4.25 9.13807 4.13807 9.25 4 9.25H2C1.86193 9.25 1.75 9.13807 1.75 9L1.75 7C1.75 6.86193 1.86193 6.75 2 6.75H4Z" stroke="black" stroke-width="1.5"/>
        <path d="M4 11.75C4.13807 11.75 4.25 11.8619 4.25 12V14C4.25 14.1381 4.13807 14.25 4 14.25H2C1.86193 14.25 1.75 14.1381 1.75 14L1.75 12C1.75 11.8619 1.86193 11.75 2 11.75H4Z" stroke="black" stroke-width="1.5"/>
        <path d="M9 1.75C9.13807 1.75 9.25 1.86193 9.25 2V4C9.25 4.13807 9.13807 4.25 9 4.25H7C6.86193 4.25 6.75 4.13807 6.75 4V2C6.75 1.86193 6.86193 1.75 7 1.75L9 1.75Z" stroke="black" stroke-width="1.5"/>
        <path d="M9 6.75C9.13807 6.75 9.25 6.86193 9.25 7V9C9.25 9.13807 9.13807 9.25 9 9.25H7C6.86193 9.25 6.75 9.13807 6.75 9V7C6.75 6.86193 6.86193 6.75 7 6.75H9Z" stroke="black" stroke-width="1.5"/>
        <path d="M9 11.75C9.13807 11.75 9.25 11.8619 9.25 12V14C9.25 14.1381 9.13807 14.25 9 14.25H7C6.86193 14.25 6.75 14.1381 6.75 14V12C6.75 11.8619 6.86193 11.75 7 11.75H9Z" stroke="black" stroke-width="1.5"/>
        <path d="M14 1.75C14.1381 1.75 14.25 1.86193 14.25 2V4C14.25 4.13807 14.1381 4.25 14 4.25H12C11.8619 4.25 11.75 4.13807 11.75 4V2C11.75 1.86193 11.8619 1.75 12 1.75L14 1.75Z" stroke="black" stroke-width="1.5"/>
        <path d="M14 6.75C14.1381 6.75 14.25 6.86193 14.25 7V9C14.25 9.13807 14.1381 9.25 14 9.25H12C11.8619 9.25 11.75 9.13807 11.75 9V7C11.75 6.86193 11.8619 6.75 12 6.75H14Z" stroke="black" stroke-width="1.5"/>
        <path d="M14 11.75C14.1381 11.75 14.25 11.8619 14.25 12V14C14.25 14.1381 14.1381 14.25 14 14.25H12C11.8619 14.25 11.75 14.1381 11.75 14V12C11.75 11.8619 11.8619 11.75 12 11.75H14Z" stroke="black" stroke-width="1.5"/>
    </g>
    <defs>
        <clipPath id="clip0_4946_5647">
            <rect width="16" height="16" fill="white"/>
        </clipPath>
    </defs>
</svg>