<svg xmlns="http://www.w3.org/2000/svg" width="16" height="16" viewBox="0 0 16 16" fill="none">
    <path fill-rule="evenodd" clip-rule="evenodd" d="M8.29228 5.58876C4.66718 5.58876 2.7891 7.06992 2.27763 7.54462C1.66009 8.11879 1.53847 9.21339 1.7737 9.97471C2.68539 10.0473 3.61359 9.88279 4.62569 9.69847C4.62617 8.99278 4.40602 7.90242 5.22014 7.55782C5.68211 7.36077 6.87052 6.9219 8.29275 6.92237C9.71498 6.92284 10.9029 7.36124 11.3654 7.55688C12.1804 7.90242 11.9593 8.9956 11.9593 9.70177C12.9813 9.89599 13.9171 10.0812 14.8066 9.98838C15.048 9.21905 14.9339 8.12633 14.3079 7.54462C13.7964 7.06992 11.9183 5.58876 8.29228 5.58876ZM1.37018 6.5674C2.07398 5.91356 4.26366 4.25563 8.29275 4.25516C12.3218 4.25563 14.5106 5.91356 15.2153 6.5674C16.2882 7.56489 16.5008 9.3633 15.9776 10.6719C15.9149 10.8298 15.8123 10.9688 15.6797 11.075C15.5471 11.1813 15.3892 11.2513 15.2215 11.2781C13.9105 11.4832 12.55 11.1683 11.4446 10.9614C11.2147 10.9184 11.007 10.7964 10.8576 10.6164C10.7081 10.4365 10.6263 10.21 10.6262 9.97613L10.6257 8.6972C10.1496 8.51807 9.2827 8.2555 8.29275 8.2555C7.3028 8.2555 6.43589 8.51807 5.9593 8.69768L5.95977 9.97565C5.95988 10.2103 5.87744 10.4376 5.72688 10.6176C5.57632 10.7977 5.36723 10.919 5.13623 10.9604C4.00297 11.1659 2.70142 11.437 1.39422 11.2763C1.22002 11.2544 1.05488 11.1862 0.916059 11.0788C0.777239 10.9713 0.66984 10.8285 0.605087 10.6653C0.0789988 9.3501 0.293488 7.56772 1.37018 6.5674Z" fill="white"/>
</svg>