<svg xmlns="http://www.w3.org/2000/svg" width="16" height="17" viewBox="0 0 16 17" fill="none">
    <g clip-path="url(#clip0_9536_36405)">
        <path d="M12.6675 1.76292L14.3585 3.36441M8 8.03809L10.1435 7.92575L14.6449 3.20769C14.7574 3.08967 14.8468 2.94957 14.9077 2.79537C14.9686 2.64117 15 2.47591 15 2.30901C15 2.14211 14.9686 1.97684 14.9077 1.82265C14.8468 1.66845 14.7574 1.52835 14.6449 1.41033C14.5323 1.29231 14.3986 1.1987 14.2515 1.13483C14.1044 1.07096 13.9467 1.03809 13.7875 1.03809C13.6282 1.03809 13.4705 1.07096 13.3234 1.13483C13.1763 1.1987 13.0426 1.29231 12.9301 1.41033L8.4287 6.12839L8 8.03809Z" stroke="black" stroke-width="1.5" stroke-linecap="round" stroke-linejoin="round"/>
        <path d="M15 6.53764C15 7.40719 15 13.8562 14.8304 14.1883C14.6811 14.4811 14.4429 14.7191 14.1499 14.8681C13.8178 15.0376 13.383 15.0376 12.5134 15.0376H3.48656C2.617 15.0376 2.18144 15.0376 1.84933 14.8681C1.55665 14.7189 1.31869 14.481 1.16956 14.1883C1 13.8554 1 13.4199 1 12.5487V5.53766M1 5.53766V3.52653C1 2.65542 1 2.21986 1.16956 1.88697C1.31889 1.59375 1.55611 1.35653 1.84933 1.20719C2.18222 1.03764 8.62889 1.2072 9.5 1.2072L6 5.53766H1Z" stroke="black" stroke-width="1.5" stroke-linecap="round" stroke-linejoin="round"/>
    </g>
    <defs>
        <clipPath id="clip0_9536_36405">
            <rect width="16" height="16" fill="white" transform="translate(0 0.0380859)"/>
        </clipPath>
    </defs>
</svg>