<svg xmlns="http://www.w3.org/2000/svg" width="16" height="17" viewBox="0 0 16 17" fill="none">
    <g clip-path="url(#clip0_9536_28192)">
        <path d="M5 2.03809H4C2.89543 2.03809 2 2.93352 2 4.03809V9.85627C2 10.9608 2.89543 11.8563 4 11.8563H4.54169C4.65215 11.8563 4.74169 11.9458 4.74169 12.0563V14.639C4.74169 14.8036 4.92951 14.8977 5.06141 14.7992L8.73377 12.0552C8.90661 11.926 9.11658 11.8563 9.33234 11.8563H12C13.1046 11.8563 14 10.9608 14 9.85627V7.03809" stroke="black" stroke-width="1.5" stroke-linecap="round"/>
        <g clip-path="url(#clip1_9536_28192)">
            <path d="M9.99935 5.37174C10.7357 5.37174 11.3327 4.77479 11.3327 4.03841C11.3327 3.30203 10.7357 2.70508 9.99935 2.70508C9.26297 2.70508 8.66602 3.30203 8.66602 4.03841C8.66602 4.77479 9.26297 5.37174 9.99935 5.37174Z" stroke="black"/>
            <path d="M13.3327 4.03841C13.3327 2.19741 11.8403 0.705078 9.99935 0.705078C8.15835 0.705078 6.66602 2.19741 6.66602 4.03841C6.66602 5.87941 8.15835 7.37174 9.99935 7.37174C10.75 7.37174 11.4427 7.12374 11.9997 6.70508" stroke="black" stroke-linecap="round" stroke-linejoin="round"/>
            <path d="M11.332 2.70508V4.03841C11.332 4.37174 11.532 5.03841 12.332 5.03841C13.132 5.03841 13.332 4.37174 13.332 4.03841" stroke="black" stroke-linecap="round"/>
        </g>
    </g>
    <defs>
        <clipPath id="clip0_9536_28192">
            <rect width="16" height="16" fill="white" transform="translate(0 0.0380859)"/>
        </clipPath>
        <clipPath id="clip1_9536_28192">
            <rect width="8" height="8" fill="white" transform="translate(6 0.0380859)"/>
        </clipPath>
    </defs>
</svg>