<svg xmlns="http://www.w3.org/2000/svg" width="16" height="17" viewBox="0 0 16 17" fill="none">
    <g clip-path="url(#clip0_9536_40714)">
        <path d="M4.06088 3.79455C4.27746 3.87078 4.50797 3.89925 4.73659 3.87801C4.9652 3.85677 5.18652 3.78631 5.38534 3.67148C5.58417 3.55664 5.75579 3.40015 5.88844 3.21274C6.02108 3.02533 6.11161 2.81144 6.1538 2.58574L6.40846 1.21699C7.45557 0.978453 8.54291 0.978453 9.59002 1.21699L9.84627 2.58574C9.88846 2.81144 9.97898 3.02533 10.1116 3.21274C10.2443 3.40015 10.4159 3.55664 10.6147 3.67148C10.8135 3.78631 11.0349 3.85677 11.2635 3.87801C11.4921 3.89925 11.7226 3.87078 11.9392 3.79455L13.2514 3.33299C13.9819 4.11984 14.5261 5.06086 14.8438 6.08642L13.7854 6.99362C13.6111 7.14303 13.4712 7.32839 13.3752 7.53698C13.2793 7.74556 13.2296 7.97243 13.2296 8.20202C13.2296 8.43161 13.2793 8.65848 13.3752 8.86707C13.4712 9.07565 13.6111 9.26101 13.7854 9.41043L14.8438 10.3168C14.5261 11.3424 13.9819 12.2834 13.2514 13.0703L11.9384 12.6087C11.7218 12.5325 11.4913 12.504 11.2627 12.5252C11.0341 12.5465 10.8128 12.6169 10.6139 12.7318C10.4151 12.8466 10.2435 13.0031 10.1108 13.1905C9.97819 13.3779 9.88766 13.5918 9.84547 13.8175L9.59161 15.1863C8.5445 15.4248 7.45716 15.4248 6.41005 15.1863L6.1538 13.8175C6.11161 13.5918 6.02108 13.3779 5.88844 13.1905C5.75579 13.0031 5.58417 12.8466 5.38534 12.7318C5.18652 12.6169 4.9652 12.5465 4.73659 12.5252C4.50797 12.504 4.27746 12.5325 4.06088 12.6087L2.74862 13.0703C2.01816 12.2834 1.47395 11.3424 1.15625 10.3168L2.21465 9.40963C2.38883 9.26022 2.52864 9.0749 2.62449 8.86639C2.72034 8.65788 2.76997 8.43111 2.76997 8.20163C2.76997 7.97214 2.72034 7.74537 2.62449 7.53686C2.52864 7.32835 2.38883 7.14303 2.21465 6.99362L1.15625 6.08642C1.47372 5.06093 2.01765 4.11992 2.74783 3.33299L4.06088 3.79455ZM8.00004 5.81426C8.6332 5.81426 9.24044 6.06578 9.68816 6.5135C10.1359 6.96122 10.3874 7.56846 10.3874 8.20163C10.3874 8.83479 10.1359 9.44203 9.68816 9.88975C9.24044 10.3375 8.6332 10.589 8.00004 10.589C7.36687 10.589 6.75963 10.3375 6.31191 9.88975C5.86419 9.44203 5.61267 8.83479 5.61267 8.20163C5.61267 7.56846 5.86419 6.96122 6.31191 6.5135C6.75963 6.06578 7.36687 5.81426 8.00004 5.81426Z" stroke="black" stroke-width="1.5" stroke-linecap="round" stroke-linejoin="round"/>
    </g>
    <defs>
        <clipPath id="clip0_9536_40714">
            <rect width="16" height="16" fill="white" transform="translate(0 0.0380859)"/>
        </clipPath>
    </defs>
</svg>