<svg xmlns="http://www.w3.org/2000/svg" width="21" height="21" viewBox="0 0 21 21" fill="none">
    <path d="M14.9442 8.98246C14.8425 10.3946 13.7949 11.4825 12.6525 11.4825C11.5102 11.4825 10.4608 10.395 10.3608 8.98246C10.2567 7.51334 11.2765 6.48242 12.6525 6.48242C14.0286 6.48242 15.0484 7.54008 14.9442 8.98246Z" stroke="black" stroke-width="1.5" stroke-linecap="round" stroke-linejoin="round"/>
    <path d="M12.6527 13.7048C10.3897 13.7048 8.21364 14.8288 7.66848 17.0177C7.59626 17.3073 7.85496 17.5381 8.15253 17.5381H17.3073C17.6049 17.5381 17.7084 17.3073 17.6372 17.0177C17.092 14.7937 14.9159 13.7048 12.6527 13.7048Z" stroke="black" stroke-width="1.5" stroke-miterlimit="10"/>
    <path d="M9.64728 5.10533C9.56379 6.26419 8.69393 7.17686 7.75628 7.17686C6.81864 7.17686 5.94735 6.26455 5.86529 5.10533C5.78002 3.89974 6.62668 3.03809 7.75628 3.03809C8.88588 3.03809 9.73255 3.92186 9.64728 5.10533Z" stroke="black" stroke-width="1.5" stroke-linecap="round" stroke-linejoin="round"/>
    <path d="M9.65234 9.5501C9.02997 9.18029 8.34449 9.03809 7.61798 9.03809C5.82497 9.03809 4.09748 10.194 3.66475 12.4456C3.60786 12.7434 3.75199 13.0381 3.98783 13.0381H7.85934" stroke="black" stroke-width="1.5" stroke-miterlimit="10" stroke-linecap="round"/>
</svg>