<svg xmlns="http://www.w3.org/2000/svg" width="16" height="17" viewBox="0 0 16 17" fill="none">
    <g clip-path="url(#clip0_9536_35703)">
        <path d="M12.0385 6.96116V1.03809M9.07692 3.99962H15M5.84615 1.03809H2.07692C1.79131 1.03809 1.51739 1.15155 1.31542 1.35351C1.11346 1.55547 1 1.82939 1 2.11501V5.88424C1 6.16986 1.11346 6.44378 1.31542 6.64574C1.51739 6.8477 1.79131 6.96116 2.07692 6.96116H5.84615C6.13177 6.96116 6.40569 6.8477 6.60765 6.64574C6.80962 6.44378 6.92308 6.16986 6.92308 5.88424V2.11501C6.92308 1.82939 6.80962 1.55547 6.60765 1.35351C6.40569 1.15155 6.13177 1.03809 5.84615 1.03809ZM13.9231 9.11501H10.1538C9.86823 9.11501 9.59431 9.22847 9.39235 9.43043C9.19038 9.6324 9.07692 9.90631 9.07692 10.1919V13.9612C9.07692 14.2468 9.19038 14.5207 9.39235 14.7227C9.59431 14.9246 9.86823 15.0381 10.1538 15.0381H13.9231C14.2087 15.0381 14.4826 14.9246 14.6846 14.7227C14.8865 14.5207 15 14.2468 15 13.9612V10.1919C15 9.90631 14.8865 9.6324 14.6846 9.43043C14.4826 9.22847 14.2087 9.11501 13.9231 9.11501ZM5.84615 9.11501H2.07692C1.79131 9.11501 1.51739 9.22847 1.31542 9.43043C1.11346 9.6324 1 9.90631 1 10.1919V13.9612C1 14.2468 1.11346 14.5207 1.31542 14.7227C1.51739 14.9246 1.79131 15.0381 2.07692 15.0381H5.84615C6.13177 15.0381 6.40569 14.9246 6.60765 14.7227C6.80962 14.5207 6.92308 14.2468 6.92308 13.9612V10.1919C6.92308 9.90631 6.80962 9.6324 6.60765 9.43043C6.40569 9.22847 6.13177 9.11501 5.84615 9.11501Z" stroke="black" stroke-width="1.5" stroke-linecap="round" stroke-linejoin="round"/>
    </g>
    <defs>
        <clipPath id="clip0_9536_35703">
            <rect width="16" height="16" fill="white" transform="translate(0 0.0380859)"/>
        </clipPath>
    </defs>
</svg>