<svg xmlns="http://www.w3.org/2000/svg" width="16" height="17" viewBox="0 0 16 17" fill="none">
    <path d="M15 4.76083V12.7C15 13.439 14.4009 14.0381 13.6619 14.0381H2.33813C1.5991 14.0381 1 13.439 1 12.7L1 3.37621C1 2.63718 1.5991 2.03809 2.33813 2.03809H8.17409C8.55792 2.03809 8.92327 2.20291 9.17728 2.49067L9.60049 2.97011C9.8545 3.25787 10.2199 3.4227 10.6037 3.4227H13.6619C14.4009 3.4227 15 4.0218 15 4.76083Z" stroke="black" stroke-width="1.5"/>
    <path d="M1 8.78797V12.7C1 13.439 1.5991 14.0381 2.33813 14.0381H13.6619C14.4009 14.0381 15 13.439 15 12.7V7.37621C15 6.63718 14.4009 6.03809 13.6619 6.03809H6.86607C6.52921 6.03809 6.20475 6.16514 5.95745 6.39387L5.20044 7.09407C4.95315 7.3228 4.62868 7.44985 4.29183 7.44985H2.33812C1.5991 7.44985 1 8.04895 1 8.78797Z" stroke="black" stroke-width="1.5"/>
</svg>