<svg xmlns="http://www.w3.org/2000/svg" width="16" height="17" viewBox="0 0 16 17" fill="none">
    <path d="M0.929688 4.60932V7.88691C0.929776 8.30359 1.09537 8.70318 1.39006 8.99777L5.87593 13.4836C6.23099 13.8386 6.71252 14.0381 7.21462 14.0381C7.71671 14.0381 8.19825 13.8386 8.55331 13.4836L11.3752 10.6617C11.7303 10.3066 11.9297 9.82511 11.9297 9.32302C11.9297 8.82092 11.7303 8.33939 11.3752 7.98433L6.88937 3.49846C6.59478 3.20377 6.19519 3.03817 5.77851 3.03809H2.50092C2.0842 3.03809 1.68455 3.20363 1.38989 3.49829C1.09523 3.79295 0.929688 4.1926 0.929688 4.60932Z" stroke="black" stroke-width="1.5" stroke-linecap="round" stroke-linejoin="round"/>
    <path d="M12.7141 13.2511L13.9648 12.0004C14.6748 11.2903 15.0737 10.3272 15.0737 9.32302C15.0737 8.31883 14.6748 7.35576 13.9648 6.64564L10.3572 3.03809M4.07231 6.18055H4.06445" stroke="black" stroke-width="1.5" stroke-linecap="round" stroke-linejoin="round"/>
</svg>