<svg width="307" height="71" viewBox="0 0 307 71" fill="none" xmlns="http://www.w3.org/2000/svg">
    <g clip-path="url(#clip0_5086_22332)">
        <path d="M174.23 58.1613C176.226 58.1871 178.149 57.3367 179.578 55.7971C181.007 54.2575 181.824 52.1548 181.849 49.9517C181.875 47.7486 181.107 45.6254 179.714 44.0493C178.321 42.4732 176.417 41.5733 174.422 41.5474C172.427 41.5216 170.503 42.3721 169.075 43.9117C167.646 45.4513 166.829 47.5539 166.803 49.7571C166.778 51.9602 167.546 54.0834 168.939 55.6595C170.332 57.2356 172.235 58.1355 174.23 58.1613Z" stroke="#B8DB95" stroke-width="4.41727"/>
        <path d="M271.962 52.8922C270.829 55.2286 267.963 56.0239 265.919 54.5448C261.887 51.6257 263.675 43.1693 269.248 44.5456C270.486 44.8521 271.344 45.5659 271.89 46.7545C271.919 46.8183 271.961 46.8301 272.015 46.7899L274.128 45.2506C274.266 45.1491 274.289 45.0245 274.195 44.8769C272.909 42.8694 271.17 41.7806 268.979 41.6105C266.345 41.4051 264.239 42.2388 262.66 44.1117C260.326 46.882 260.026 50.6337 261.724 53.9249C263.162 56.7129 265.805 58.4382 268.855 58.091C271.078 57.8377 273.569 56.6917 274.453 54.3943C274.462 54.3695 274.463 54.3422 274.455 54.3175C274.447 54.2927 274.43 54.2722 274.409 54.2597L272.092 52.8497C272.081 52.843 272.069 52.8389 272.056 52.8374C272.044 52.836 272.031 52.8373 272.019 52.8413C272.007 52.8452 271.995 52.8518 271.985 52.8606C271.976 52.8693 271.968 52.8801 271.962 52.8922Z" stroke="#B8DB95" stroke-width="4.41727"/>
        <path d="M296.047 58.1595C298.042 58.1817 299.965 57.3277 301.392 55.7854C302.818 54.2432 303.632 52.139 303.654 49.9359C303.675 47.7327 302.904 45.611 301.508 44.0374C300.112 42.4639 298.207 41.5675 296.211 41.5453C294.215 41.5232 292.293 42.3772 290.866 43.9194C289.439 45.4617 288.626 47.5658 288.604 49.769C288.582 51.9722 289.354 54.0939 290.75 55.6674C292.146 57.241 294.051 58.1374 296.047 58.1595Z" stroke="#B8DB95" stroke-width="4.41727"/>
        <path d="M129.362 52.5746C130.605 52.5616 131.847 52.545 133.087 52.525C134.165 52.5073 135.054 52.1801 135.756 51.5436C138.884 48.7095 138.177 43.2573 134.141 41.8863C133.697 41.7352 133.104 41.6608 132.361 41.6631C130.365 41.669 128.363 41.6714 126.357 41.6702C126.3 41.6702 126.271 41.7003 126.271 41.7606V57.9222C126.271 57.9813 126.299 58.0108 126.355 58.0108H129.199C129.255 58.0108 129.283 57.9813 129.283 57.9222V52.6578C129.283 52.6023 129.309 52.5746 129.362 52.5746Z" stroke="#B8DB95" stroke-width="4.41727"/>
        <path d="M147.138 53.9364C147.15 53.9362 147.162 53.9401 147.171 53.9474C147.181 53.9547 147.188 53.9652 147.192 53.9772L148.445 57.9697C148.448 57.9817 148.456 57.9922 148.465 57.9995C148.475 58.0068 148.486 58.0107 148.498 58.0105H151.518C151.527 58.0105 151.536 58.0082 151.543 58.0039C151.551 57.9996 151.558 57.9933 151.563 57.9857C151.568 57.9781 151.571 57.9693 151.573 57.96C151.574 57.9508 151.573 57.9414 151.57 57.9325L145.937 41.7089C145.933 41.6975 145.926 41.6877 145.917 41.6807C145.908 41.6737 145.896 41.67 145.885 41.6699H142.884C142.872 41.67 142.861 41.6737 142.852 41.6807C142.843 41.6877 142.836 41.6975 142.832 41.7089L137.177 57.9325C137.174 57.9414 137.173 57.9508 137.174 57.96C137.176 57.9693 137.179 57.9781 137.184 57.9857C137.189 57.9933 137.196 57.9996 137.204 58.0039C137.211 58.0082 137.22 58.0105 137.229 58.0105H140.249C140.261 58.0107 140.272 58.0068 140.282 57.9995C140.291 57.9922 140.299 57.9817 140.302 57.9697L141.559 53.9772C141.562 53.9652 141.569 53.9547 141.579 53.9474C141.589 53.9401 141.6 53.9362 141.612 53.9364H147.138Z" stroke="#B8DB95" stroke-width="4.41727"/>
        <path d="M156.386 44.4598H164.333C164.389 44.4598 164.417 44.4303 164.417 44.3712V41.7585C164.417 41.6994 164.389 41.6699 164.333 41.6699H153.375C153.319 41.6699 153.291 41.6994 153.291 41.7585V57.9166C153.291 57.9697 153.316 57.9969 153.366 57.9981C157.049 58.0276 159.616 58.0276 161.066 57.9981C163.128 57.9568 164.529 57.0339 165.268 55.2295C165.778 53.9825 165.824 52.2324 165.3 51.0119C164.448 49.028 162.586 48.3266 160.734 48.3195C159.291 48.3148 157.842 48.3118 156.388 48.3107C156.331 48.3107 156.302 48.2805 156.302 48.2203V44.5483C156.302 44.4893 156.33 44.4598 156.386 44.4598Z" stroke="#B8DB95" stroke-width="4.41727"/>
        <path d="M192.648 51.8108V57.9201C192.648 57.9436 192.657 57.9662 192.672 57.9828C192.688 57.9994 192.709 58.0087 192.732 58.0087L195.534 58.0105C195.59 58.0105 195.618 57.981 195.618 57.9219V41.7585C195.618 41.6994 195.59 41.6699 195.534 41.6699H192.732C192.676 41.6699 192.648 41.6994 192.648 41.7585V48.8421C192.648 48.8661 192.641 48.8896 192.628 48.9095C192.615 48.9294 192.597 48.9448 192.576 48.9536C191.51 49.413 190.363 49.5884 189.136 49.4797C187.554 49.338 186.76 48.4317 186.756 46.7607C186.752 45.0969 186.751 43.43 186.751 41.7603C186.751 41.7 186.722 41.6699 186.664 41.6699H183.913C183.864 41.6699 183.839 41.6959 183.839 41.7479C183.799 44.9445 183.801 46.9839 183.844 47.8661C183.963 50.2526 185.084 51.698 187.207 52.2023C188.991 52.6262 190.774 52.4739 192.556 51.7453C192.617 51.7205 192.648 51.7423 192.648 51.8108Z" stroke="#B8DB95" stroke-width="4.41727"/>
        <path d="M201.808 44.5802C201.808 44.56 201.816 44.5407 201.829 44.5264C201.843 44.5121 201.861 44.5041 201.88 44.5041H209.267C209.286 44.5041 209.304 44.496 209.318 44.4817C209.331 44.4675 209.339 44.4481 209.339 44.4279L209.337 41.7461C209.337 41.7361 209.335 41.7262 209.331 41.7169C209.328 41.7077 209.323 41.6993 209.316 41.6922C209.309 41.6852 209.301 41.6795 209.293 41.6757C209.284 41.6719 209.274 41.6699 209.265 41.6699H198.869C198.859 41.6699 198.85 41.6719 198.841 41.6757C198.833 41.6795 198.825 41.6852 198.818 41.6922C198.811 41.6993 198.806 41.7077 198.802 41.7169C198.799 41.7262 198.797 41.7361 198.797 41.7461V57.9325C198.797 57.9527 198.804 57.9721 198.818 57.9864C198.831 58.0007 198.85 58.0087 198.869 58.0087H209.434C209.453 58.0087 209.471 58.0007 209.485 57.9864C209.498 57.9721 209.506 57.9527 209.506 57.9325L209.504 55.2525C209.504 55.2323 209.497 55.2129 209.483 55.1987C209.47 55.1844 209.451 55.1763 209.432 55.1763H201.879C201.86 55.1763 201.841 55.1683 201.828 55.154C201.814 55.1398 201.807 55.1204 201.807 55.1002L201.808 51.0438C201.808 51.0236 201.816 51.0042 201.829 50.99C201.843 50.9757 201.861 50.9677 201.88 50.9677H208.224C208.243 50.9677 208.262 50.9596 208.275 50.9453C208.289 50.9311 208.296 50.9117 208.296 50.8915L208.295 48.4293C208.295 48.4193 208.293 48.4094 208.289 48.4002C208.286 48.3909 208.28 48.3826 208.274 48.3755C208.267 48.3684 208.259 48.3628 208.25 48.359C208.241 48.3551 208.232 48.3532 208.223 48.3532L201.88 48.3567C201.861 48.3567 201.843 48.3487 201.829 48.3344C201.816 48.3201 201.808 48.3007 201.808 48.2805V44.5802Z" stroke="#B8DB95" stroke-width="4.41727"/>
        <path d="M214.86 44.5802C214.86 44.5702 214.861 44.5603 214.865 44.5511C214.869 44.5418 214.874 44.5334 214.881 44.5264C214.887 44.5193 214.895 44.5137 214.904 44.5099C214.913 44.506 214.922 44.5041 214.932 44.5041H222.274C222.284 44.5041 222.293 44.5021 222.302 44.4983C222.311 44.4944 222.319 44.4888 222.325 44.4817C222.332 44.4747 222.337 44.4663 222.341 44.457C222.345 44.4478 222.346 44.4379 222.346 44.4279V41.7461C222.346 41.7361 222.345 41.7262 222.341 41.7169C222.337 41.7077 222.332 41.6993 222.325 41.6922C222.319 41.6852 222.311 41.6795 222.302 41.6757C222.293 41.6719 222.284 41.6699 222.274 41.6699H211.877C211.867 41.6699 211.858 41.6719 211.849 41.6757C211.84 41.6795 211.832 41.6852 211.826 41.6922C211.819 41.6993 211.814 41.7077 211.81 41.7169C211.807 41.7262 211.805 41.7361 211.805 41.7461V57.9343C211.805 57.9545 211.812 57.9739 211.826 57.9882C211.839 58.0025 211.858 58.0105 211.877 58.0105L222.484 58.0087C222.493 58.0087 222.502 58.0067 222.511 58.0029C222.52 57.9991 222.528 57.9935 222.534 57.9864C222.541 57.9793 222.546 57.9709 222.55 57.9617C222.554 57.9525 222.556 57.9425 222.556 57.9325V55.2525C222.556 55.2425 222.554 55.2326 222.55 55.2234C222.546 55.2141 222.541 55.2057 222.534 55.1987C222.528 55.1916 222.52 55.186 222.511 55.1821C222.502 55.1783 222.493 55.1763 222.484 55.1763H214.93C214.911 55.1763 214.893 55.1683 214.879 55.154C214.866 55.1398 214.858 55.1204 214.858 55.1002L214.86 51.0438C214.86 51.0338 214.861 51.0239 214.865 51.0147C214.869 51.0054 214.874 50.997 214.881 50.99C214.887 50.9829 214.895 50.9773 214.904 50.9735C214.913 50.9696 214.922 50.9677 214.932 50.9677H221.272C221.291 50.9677 221.31 50.9596 221.323 50.9453C221.337 50.9311 221.344 50.9117 221.344 50.8915V48.4311C221.344 48.4109 221.337 48.3915 221.323 48.3772C221.31 48.363 221.291 48.3549 221.272 48.3549L214.93 48.3567C214.911 48.3567 214.893 48.3487 214.879 48.3344C214.866 48.3201 214.858 48.3007 214.858 48.2805L214.86 44.5802Z" stroke="#B8DB95" stroke-width="4.41727"/>
        <path d="M242.631 47.5897V57.8989C242.631 57.9733 242.665 58.0105 242.734 58.0105H245.558C245.614 58.0105 245.642 57.981 245.642 57.9219V41.7585C245.642 41.6994 245.614 41.6699 245.558 41.6699H242.505C242.478 41.6699 242.452 41.6776 242.429 41.6923C242.406 41.7069 242.387 41.728 242.375 41.7532L237.896 50.7923C237.891 50.8031 237.883 50.8122 237.873 50.8185C237.863 50.8248 237.852 50.8282 237.841 50.8282C237.829 50.8282 237.818 50.8248 237.808 50.8185C237.799 50.8122 237.791 50.8031 237.785 50.7923L233.35 41.7549C233.338 41.7293 233.319 41.7078 233.295 41.6928C233.272 41.6778 233.245 41.6699 233.218 41.6699H230.125C230.069 41.6699 230.041 41.6994 230.041 41.7585V57.8776C230.041 57.9662 230.083 58.0105 230.166 58.0105H233.011C233.066 58.0105 233.094 57.981 233.094 57.9219V47.5738C233.095 47.565 233.098 47.5566 233.103 47.5498C233.109 47.5431 233.116 47.5384 233.124 47.5364C233.132 47.5344 233.141 47.5352 233.148 47.5388C233.156 47.5423 233.162 47.5484 233.166 47.5561L236.944 55.1817C236.972 55.2372 237.015 55.2649 237.073 55.2649H238.622C238.684 55.2649 238.73 55.236 238.757 55.1781L242.53 47.5649C242.597 47.4291 242.631 47.4374 242.631 47.5897Z" stroke="#B8DB95" stroke-width="4.41727"/>
        <path d="M251.832 51.0332C251.832 51.0163 251.838 51.0001 251.849 50.9881C251.861 50.9761 251.876 50.9694 251.892 50.9694L258.256 50.9677C258.272 50.9677 258.287 50.9609 258.299 50.949C258.31 50.937 258.316 50.9208 258.316 50.9039V48.4187C258.316 48.4018 258.31 48.3856 258.299 48.3736C258.287 48.3617 258.272 48.3549 258.256 48.3549L251.89 48.3567C251.874 48.3567 251.859 48.35 251.848 48.338C251.836 48.3261 251.83 48.3099 251.83 48.2929L251.832 44.5678C251.832 44.5509 251.838 44.5347 251.849 44.5227C251.861 44.5108 251.876 44.5041 251.892 44.5041H259.3C259.316 44.5041 259.331 44.4973 259.343 44.4854C259.354 44.4734 259.36 44.4572 259.36 44.4403V41.7337C259.36 41.7253 259.359 41.717 259.356 41.7093C259.353 41.7015 259.348 41.6945 259.343 41.6886C259.337 41.6827 259.33 41.678 259.323 41.6748C259.316 41.6716 259.308 41.6699 259.3 41.6699H248.881C248.873 41.6699 248.865 41.6716 248.858 41.6748C248.85 41.678 248.844 41.6827 248.838 41.6886C248.832 41.6945 248.828 41.7015 248.825 41.7093C248.822 41.717 248.82 41.7253 248.82 41.7337V57.9467C248.82 57.9636 248.827 57.9798 248.838 57.9918C248.849 58.0038 248.865 58.0105 248.881 58.0105H259.467C259.483 58.0105 259.499 58.0038 259.51 57.9918C259.521 57.9798 259.528 57.9636 259.528 57.9467V55.2401C259.528 55.2232 259.521 55.207 259.51 55.195C259.499 55.1831 259.483 55.1763 259.467 55.1763H251.892C251.876 55.1763 251.861 55.1696 251.849 55.1577C251.838 55.1457 251.832 55.1295 251.832 55.1126V51.0332Z" stroke="#B8DB95" stroke-width="4.41727"/>
        <path d="M279.996 44.5041C280.005 44.5041 280.014 44.5059 280.022 44.5096C280.03 44.5132 280.038 44.5186 280.044 44.5253C280.051 44.5321 280.056 44.5401 280.059 44.5489C280.063 44.5577 280.064 44.5671 280.064 44.5767V57.9379C280.064 57.9571 280.072 57.9756 280.084 57.9892C280.097 58.0028 280.115 58.0105 280.133 58.0105H283.007C283.025 58.0105 283.043 58.0028 283.056 57.9892C283.069 57.9756 283.076 57.9571 283.076 57.9379V44.5767C283.076 44.5574 283.083 44.5389 283.096 44.5253C283.109 44.5117 283.126 44.5041 283.144 44.5041H287.943C287.961 44.5041 287.978 44.4964 287.991 44.4828C288.004 44.4692 288.011 44.4507 288.011 44.4314V41.7425C288.011 41.7233 288.004 41.7048 287.991 41.6912C287.978 41.6776 287.961 41.6699 287.943 41.6699H275.198C275.179 41.6699 275.162 41.6776 275.149 41.6912C275.136 41.7048 275.129 41.7233 275.129 41.7425V44.4314C275.129 44.4507 275.136 44.4692 275.149 44.4828C275.162 44.4964 275.179 44.5041 275.198 44.5041H279.996Z" stroke="#B8DB95" stroke-width="4.41727"/>
        <path d="M174.325 55.3236C174.913 55.3246 175.496 55.1842 176.04 54.9104C176.585 54.6365 177.079 54.2345 177.497 53.7273C177.914 53.2202 178.245 52.6178 178.471 51.9546C178.697 51.2913 178.814 50.5803 178.816 49.862C178.817 49.1436 178.702 48.4322 178.478 47.7681C178.254 47.104 177.925 46.5004 177.509 45.9917C177.094 45.483 176.6 45.0792 176.057 44.8033C175.514 44.5274 174.931 44.3849 174.343 44.3838C173.754 44.3827 173.171 44.5231 172.627 44.797C172.083 45.0709 171.588 45.4729 171.171 45.98C170.754 46.4872 170.423 47.0896 170.196 47.7528C169.97 48.416 169.853 49.1271 169.852 49.8454C169.85 50.5637 169.965 51.2752 170.189 51.9393C170.413 52.6033 170.743 53.2069 171.158 53.7156C171.573 54.2243 172.067 54.6281 172.61 54.904C173.153 55.1799 173.736 55.3225 174.325 55.3236Z" stroke="#B8DB95" stroke-width="4.41727"/>
        <path d="M296.125 55.3236C296.714 55.3246 297.297 55.1842 297.841 54.9104C298.385 54.6365 298.88 54.2345 299.297 53.7273C299.714 53.2202 300.045 52.6178 300.272 51.9546C300.498 51.2913 300.615 50.5803 300.616 49.862C300.618 49.1436 300.503 48.4322 300.279 47.7681C300.055 47.104 299.725 46.5004 299.31 45.9917C298.895 45.483 298.401 45.0792 297.858 44.8033C297.315 44.5274 296.732 44.3849 296.143 44.3838C295.555 44.3827 294.972 44.5231 294.428 44.797C293.883 45.0709 293.389 45.4729 292.971 45.98C292.554 46.4872 292.223 47.0896 291.997 47.7528C291.771 48.416 291.654 49.1271 291.652 49.8454C291.651 50.5637 291.766 51.2752 291.99 51.9393C292.214 52.6033 292.543 53.2069 292.959 53.7156C293.374 54.2243 293.868 54.6281 294.411 54.904C294.954 55.1799 295.537 55.3225 296.125 55.3236Z" stroke="#B8DB95" stroke-width="4.41727"/>
        <path d="M129.283 44.5813V49.6579C129.283 49.68 129.291 49.7012 129.306 49.7168C129.321 49.7324 129.341 49.7412 129.362 49.7412H132.599C133.139 49.7412 133.656 49.4935 134.038 49.0527C134.419 48.6119 134.634 48.014 134.634 47.3906V46.8486C134.634 46.2252 134.419 45.6273 134.038 45.1865C133.656 44.7457 133.139 44.498 132.599 44.498H129.362C129.341 44.498 129.321 44.5068 129.306 44.5224C129.291 44.538 129.283 44.5592 129.283 44.5813Z" stroke="#B8DB95" stroke-width="4.41727"/>
        <path d="M142.321 51.6044C142.318 51.6129 142.318 51.6219 142.319 51.6307C142.32 51.6395 142.323 51.6479 142.328 51.6551C142.333 51.6624 142.34 51.6683 142.347 51.6724C142.355 51.6765 142.363 51.6787 142.371 51.6788H146.393C146.402 51.6787 146.41 51.6765 146.417 51.6724C146.425 51.6683 146.431 51.6624 146.436 51.6551C146.441 51.6479 146.444 51.6395 146.445 51.6307C146.447 51.6219 146.446 51.6129 146.443 51.6044L144.432 45.2205C144.429 45.2097 144.422 45.2003 144.413 45.1937C144.404 45.1871 144.393 45.1836 144.382 45.1836C144.371 45.1836 144.361 45.1871 144.352 45.1937C144.343 45.2003 144.336 45.2097 144.332 45.2205L142.321 51.6044Z" stroke="#B8DB95" stroke-width="4.41727"/>
        <path d="M156.304 50.9114L156.297 55.1272C156.297 55.1517 156.306 55.1751 156.322 55.1924C156.339 55.2096 156.361 55.2193 156.384 55.2193L160.456 55.2264C160.734 55.2269 161.009 55.1711 161.266 55.0621C161.522 54.9531 161.756 54.7932 161.952 54.5913C162.149 54.3895 162.305 54.1498 162.412 53.8858C162.519 53.6219 162.574 53.3389 162.574 53.053V53.0069C162.575 52.4296 162.353 51.8755 161.957 51.4666C161.561 51.0577 161.024 50.8274 160.463 50.8264L156.391 50.8193C156.368 50.8193 156.345 50.829 156.329 50.8463C156.313 50.8636 156.304 50.887 156.304 50.9114Z" stroke="#B8DB95" stroke-width="4.41727"/>
        <path d="M20.5359 47.0484V70.5239C20.5359 70.5408 20.5296 70.557 20.5183 70.569C20.507 70.5809 20.4916 70.5877 20.4757 70.5877H0.185229C0.17732 70.5877 0.169488 70.586 0.16218 70.5828C0.154873 70.5796 0.148233 70.5749 0.142641 70.569C0.131346 70.557 0.125 70.5408 0.125 70.5239V0.196581C0.125 0.188207 0.126558 0.179914 0.129585 0.172178C0.132611 0.164441 0.137048 0.157411 0.142641 0.15149C0.153936 0.139531 0.169255 0.132813 0.185229 0.132813H58.8348C58.8457 0.132791 58.8564 0.135911 58.8658 0.141839C58.8751 0.147767 58.8828 0.15628 58.888 0.166468C58.8931 0.176656 58.8956 0.188135 58.895 0.199679C58.8945 0.211223 58.891 0.222397 58.885 0.232007L47.152 19.4563C47.1464 19.4653 47.1386 19.4726 47.1296 19.4776C47.1205 19.4825 47.1104 19.485 47.1002 19.4846H20.5961C20.5802 19.4846 20.5648 19.4914 20.5535 19.5033C20.5422 19.5153 20.5359 19.5315 20.5359 19.5484V27.5247C20.5359 27.5416 20.5422 27.5579 20.5535 27.5698C20.5648 27.5818 20.5802 27.5885 20.5961 27.5885H42.6884C42.6966 27.5885 42.7047 27.5903 42.7123 27.5937C42.7198 27.5971 42.7266 27.6021 42.7322 27.6084C42.7379 27.6147 42.7422 27.6222 42.7451 27.6303C42.7479 27.6385 42.7491 27.6472 42.7486 27.6558L41.8937 46.9244C41.8929 46.9407 41.8862 46.956 41.8749 46.9672C41.8637 46.9784 41.8489 46.9846 41.8335 46.9846H20.5961C20.5802 46.9846 20.5648 46.9913 20.5535 47.0033C20.5422 47.0153 20.5359 47.0315 20.5359 47.0484Z" fill="#151515"/>
        <path d="M80.7679 19.5909C80.8359 19.5201 80.822 19.4846 80.7261 19.4846H52.3231C52.2517 19.4846 52.2356 19.4534 52.2746 19.3908L64.1598 0.210751C64.1921 0.158792 64.2378 0.132812 64.297 0.132812H105.109C105.12 0.132813 105.13 0.137478 105.138 0.145783C105.146 0.154088 105.151 0.165351 105.151 0.177096V19.4049C105.151 19.4652 105.13 19.5165 105.089 19.559C96.9427 28.1022 89.2819 37.8835 83.6204 48.5788C80.9419 53.6413 78.7536 59.3485 78.1345 65.1036C77.9539 66.7899 78.0041 68.6959 78.0057 70.4973C78.0057 70.5575 77.9778 70.5877 77.9221 70.5877H54.4596C54.4016 70.5877 54.3709 70.557 54.3676 70.4956C54.2025 67.1064 54.4523 63.8891 55.1171 60.8435C56.6144 53.9867 59.9103 47.2291 63.606 41.311C68.5347 33.418 74.4321 26.2263 80.7679 19.5909Z" fill="#70B62B"/>
        <path d="M132.761 30.6031C130.766 30.5773 128.862 29.6775 127.469 28.1017C126.076 26.526 125.307 24.4033 125.333 22.2006C125.345 21.1099 125.552 20.0325 125.942 19.0297C126.332 18.027 126.897 17.1186 127.604 16.3565C128.312 15.5943 129.149 14.9933 130.066 14.5877C130.984 14.1821 131.965 13.98 132.953 13.9928C134.949 14.0186 136.853 14.9183 138.246 16.4941C139.639 18.0699 140.407 20.1926 140.382 22.3953C140.369 23.4859 140.162 24.5634 139.773 25.5661C139.383 26.5688 138.818 27.4772 138.11 28.2394C137.403 29.0016 136.566 29.6026 135.648 30.0081C134.731 30.4137 133.75 30.6159 132.761 30.6031ZM132.853 27.7713C133.442 27.7724 134.025 27.632 134.569 27.358C135.113 27.084 135.608 26.6819 136.025 26.1746C136.442 25.6673 136.773 25.0647 137 24.4013C137.226 23.7378 137.343 23.0265 137.344 22.308C137.346 21.5894 137.231 20.8777 137.007 20.2134C136.783 19.5492 136.453 18.9454 136.038 18.4365C135.623 17.9276 135.129 17.5237 134.586 17.2477C134.043 16.9717 133.46 16.8291 132.871 16.828C132.283 16.827 131.7 16.9674 131.155 17.2414C130.611 17.5153 130.117 17.9175 129.699 18.4248C129.282 18.9321 128.951 19.5347 128.725 20.1981C128.499 20.8616 128.382 21.5729 128.38 22.2914C128.379 23.01 128.494 23.7217 128.718 24.386C128.942 25.0502 129.271 25.654 129.687 26.1629C130.102 26.6717 130.595 27.0757 131.139 27.3517C131.682 27.6277 132.265 27.7703 132.853 27.7713Z" fill="#151515"/>
        <path d="M223.773 30.6034C221.777 30.585 219.871 29.6923 218.472 28.1216C217.074 26.551 216.299 24.4312 216.317 22.2284C216.326 21.1377 216.529 20.0595 216.916 19.0553C217.302 18.0512 217.864 17.1407 218.569 16.3759C219.274 15.6112 220.109 15.007 221.025 14.5981C221.942 14.1891 222.922 13.9833 223.91 13.9925C225.906 14.0109 227.813 14.9036 229.211 16.4743C230.609 18.0449 231.385 20.1647 231.367 22.3675C231.358 23.4582 231.154 24.5364 230.768 25.5405C230.381 26.5447 229.819 27.4552 229.114 28.22C228.409 28.9847 227.575 29.5889 226.658 29.9978C225.742 30.4068 224.761 30.6125 223.773 30.6034ZM223.836 27.7714C224.424 27.7725 225.007 27.632 225.551 27.358C226.095 27.0841 226.59 26.6819 227.007 26.1746C227.424 25.6673 227.755 25.0647 227.981 24.4013C228.207 23.7378 228.324 23.0265 228.325 22.308C228.327 21.5894 228.212 20.8777 227.988 20.2134C227.764 19.5492 227.435 18.9454 227.02 18.4365C226.604 17.9277 226.111 17.5237 225.568 17.2477C225.025 16.9718 224.442 16.8292 223.854 16.8281C223.266 16.827 222.683 16.9674 222.139 17.2414C221.595 17.5154 221.1 17.9175 220.683 18.4248C220.266 18.9321 219.935 19.5347 219.709 20.1982C219.483 20.8616 219.366 21.5729 219.365 22.2914C219.363 23.01 219.478 23.7217 219.702 24.386C219.926 25.0503 220.255 25.6541 220.671 26.1629C221.086 26.6718 221.579 27.0757 222.122 27.3517C222.665 27.6277 223.248 27.7703 223.836 27.7714Z" fill="#151515"/>
        <path d="M145.802 20.7596C147.368 20.7679 148.933 20.7868 150.497 20.8163C153.448 20.8712 155.32 22.9277 155.048 26.0506C154.857 28.2376 153.828 29.6175 151.962 30.1902C151.356 30.3768 150.31 30.4701 148.824 30.4701C146.814 30.4701 144.804 30.4683 142.793 30.4648C142.737 30.4648 142.709 30.4352 142.709 30.3762V14.2145C142.709 14.1555 142.737 14.126 142.793 14.126H153.751C153.807 14.126 153.835 14.1555 153.835 14.2145V16.783C153.835 16.842 153.807 16.8715 153.751 16.8715H145.804C145.748 16.8715 145.72 16.9011 145.72 16.9601V20.6728C145.72 20.7295 145.748 20.7584 145.802 20.7596ZM145.717 23.3706L145.724 27.5899C145.724 27.6011 145.726 27.6121 145.73 27.6224C145.734 27.6327 145.74 27.6421 145.747 27.65C145.755 27.6579 145.764 27.6642 145.773 27.6684C145.783 27.6727 145.794 27.6749 145.804 27.6749L149.926 27.6678C150.474 27.6669 150.999 27.4396 151.385 27.036C151.772 26.6324 151.988 26.0855 151.988 25.5157V25.4235C151.987 25.1414 151.933 24.8621 151.829 24.6016C151.725 24.341 151.573 24.1044 151.381 23.9053C151.189 23.7061 150.961 23.5482 150.71 23.4406C150.459 23.3331 150.191 23.278 149.92 23.2785L145.797 23.2855C145.776 23.2855 145.756 23.2945 145.741 23.3105C145.726 23.3264 145.717 23.348 145.717 23.3706Z" fill="#151515"/>
        <path d="M162.458 17.0345C162.403 20.1981 162.356 23.5814 161.534 26.5714C160.768 29.3559 158.948 30.5728 156.263 30.5551C156.205 30.5551 156.176 30.5244 156.176 30.463V27.907C156.176 27.8479 156.203 27.816 156.258 27.8113C157.557 27.7003 158.385 26.9416 158.741 25.5351C159.048 24.3188 159.235 23.2755 159.301 22.4052C159.498 19.7824 159.615 17.0947 159.651 14.3421C159.653 14.198 159.722 14.126 159.858 14.126H169.853C169.909 14.126 169.936 14.1555 169.936 14.2145V30.378C169.936 30.437 169.909 30.4665 169.853 30.4665H167.009C166.953 30.4665 166.925 30.437 166.925 30.378V17.0044C166.925 16.9454 166.897 16.9158 166.841 16.9158H162.572C162.497 16.9158 162.459 16.9554 162.458 17.0345Z" fill="#151515"/>
        <path d="M181.629 26.3925H176.093C176.081 26.3922 176.069 26.3959 176.06 26.4033C176.05 26.4106 176.042 26.4211 176.038 26.4332L174.783 30.4258C174.78 30.4379 174.772 30.4484 174.762 30.4557C174.752 30.4631 174.74 30.4669 174.728 30.4665H171.713C171.704 30.4666 171.695 30.4643 171.687 30.4598C171.679 30.4553 171.672 30.4487 171.666 30.4407C171.661 30.4327 171.658 30.4234 171.657 30.4137C171.656 30.404 171.657 30.3942 171.66 30.3851L177.313 14.1649C177.317 14.1534 177.324 14.1435 177.334 14.1366C177.344 14.1296 177.355 14.1259 177.367 14.126H180.375C180.386 14.1259 180.398 14.1296 180.407 14.1366C180.417 14.1435 180.424 14.1534 180.428 14.1649L186.06 30.3851C186.063 30.3942 186.064 30.404 186.063 30.4137C186.062 30.4234 186.058 30.4327 186.053 30.4407C186.048 30.4487 186.041 30.4553 186.033 30.4598C186.024 30.4643 186.015 30.4666 186.006 30.4665H182.995C182.983 30.4669 182.971 30.4631 182.961 30.4557C182.951 30.4484 182.943 30.4379 182.939 30.4258L181.685 26.4332C181.681 26.4211 181.673 26.4106 181.663 26.4033C181.653 26.3959 181.642 26.3922 181.629 26.3925ZM176.799 24.0649C176.797 24.073 176.797 24.0815 176.798 24.0897C176.799 24.098 176.802 24.1059 176.807 24.1126C176.812 24.1193 176.818 24.1248 176.825 24.1285C176.832 24.1322 176.84 24.1341 176.848 24.134H180.89C180.898 24.1341 180.906 24.1322 180.913 24.1285C180.92 24.1248 180.926 24.1193 180.931 24.1126C180.936 24.1059 180.939 24.098 180.94 24.0897C180.941 24.0815 180.941 24.073 180.938 24.0649L178.916 17.6421C178.912 17.6321 178.906 17.6234 178.897 17.6174C178.889 17.6113 178.879 17.608 178.869 17.608C178.859 17.608 178.849 17.6113 178.841 17.6174C178.832 17.6234 178.826 17.6321 178.822 17.6421L176.799 24.0649Z" fill="#151515"/>
        <path d="M194.88 24.1818C191.689 25.5033 186.287 25.2836 186.152 20.3522C186.108 18.7663 186.104 16.7174 186.138 14.2057C186.139 14.1525 186.165 14.126 186.215 14.126H188.967C189.026 14.126 189.056 14.1579 189.056 14.2216C189.045 16.5551 189.05 18.3134 189.071 19.4967C189.128 22.6656 193.056 22.1962 194.866 21.392C194.922 21.3672 194.95 21.3229 194.95 21.2591V14.2145C194.95 14.1555 194.978 14.126 195.034 14.126H197.836C197.892 14.126 197.92 14.1555 197.92 14.2145V30.378C197.92 30.437 197.892 30.4665 197.836 30.4665H195.034C194.978 30.4665 194.95 30.437 194.95 30.378V24.2332C194.95 24.1801 194.927 24.163 194.88 24.1818Z" fill="#151515"/>
        <path d="M211.042 20.6559L211.069 14.1994C211.069 14.1811 211.076 14.1635 211.088 14.1505C211.1 14.1376 211.117 14.1303 211.134 14.1303L214 14.125C214.017 14.125 214.034 14.1323 214.046 14.1452C214.058 14.1582 214.065 14.1758 214.065 14.1941L214.064 30.3983C214.064 30.4073 214.062 30.4163 214.059 30.4247C214.055 30.4331 214.051 30.4407 214.044 30.4471C214.038 30.4535 214.031 30.4586 214.023 30.4621C214.015 30.4656 214.007 30.4673 213.998 30.4673H211.117C211.1 30.4673 211.084 30.4601 211.071 30.4471C211.059 30.4341 211.052 30.4166 211.052 30.3983L211.05 23.5839C211.05 23.5656 211.044 23.548 211.031 23.5351C211.019 23.5221 211.003 23.5148 210.985 23.5148H204.174C204.166 23.5148 204.157 23.5166 204.149 23.5201C204.141 23.5236 204.134 23.5287 204.128 23.5351C204.122 23.5415 204.117 23.5491 204.114 23.5575C204.111 23.5659 204.109 23.5749 204.109 23.5839V30.3983C204.109 30.4073 204.107 30.4163 204.104 30.4247C204.101 30.4331 204.096 30.4407 204.09 30.4471C204.084 30.4535 204.077 30.4586 204.069 30.4621C204.061 30.4656 204.052 30.4673 204.044 30.4673H201.163C201.146 30.4673 201.129 30.4601 201.117 30.4471C201.105 30.4341 201.098 30.4166 201.098 30.3983V14.1959C201.098 14.1775 201.105 14.16 201.117 14.147C201.129 14.134 201.146 14.1268 201.163 14.1268H204.044C204.052 14.1268 204.061 14.1286 204.069 14.132C204.077 14.1355 204.084 14.1406 204.09 14.147C204.096 14.1534 204.101 14.161 204.104 14.1694C204.107 14.1778 204.109 14.1868 204.109 14.1959V20.6559C204.109 20.665 204.111 20.674 204.114 20.6823C204.117 20.6907 204.122 20.6983 204.128 20.7048C204.134 20.7112 204.141 20.7163 204.149 20.7197C204.157 20.7232 204.166 20.725 204.174 20.725H210.977C210.994 20.725 211.011 20.7177 211.023 20.7048C211.035 20.6918 211.042 20.6742 211.042 20.6559Z" fill="#151515"/>
        <path d="M236.65 23.5016V27.5562C236.65 27.5662 236.652 27.5761 236.656 27.5854C236.659 27.5946 236.665 27.603 236.671 27.6101C236.678 27.6172 236.686 27.6228 236.695 27.6266C236.703 27.6304 236.713 27.6324 236.722 27.6324H244.316C244.335 27.6324 244.353 27.6404 244.367 27.6547C244.38 27.669 244.388 27.6884 244.388 27.7086V30.3904C244.388 30.4106 244.38 30.4299 244.367 30.4442C244.353 30.4585 244.335 30.4665 244.316 30.4665H233.711C233.692 30.4665 233.673 30.4585 233.66 30.4442C233.646 30.4299 233.639 30.4106 233.639 30.3904V14.2039C233.639 14.1837 233.646 14.1643 233.66 14.1501C233.673 14.1358 233.692 14.1277 233.711 14.1277L244.108 14.126C244.118 14.126 244.127 14.1279 244.136 14.1318C244.145 14.1356 244.153 14.1412 244.159 14.1483C244.166 14.1554 244.171 14.1638 244.175 14.173C244.179 14.1822 244.18 14.1921 244.18 14.2021L244.179 16.8397C244.179 16.8599 244.171 16.8792 244.158 16.8935C244.144 16.9078 244.126 16.9158 244.107 16.9158H236.722C236.713 16.9158 236.703 16.9178 236.695 16.9216C236.686 16.9255 236.678 16.9311 236.671 16.9381C236.665 16.9452 236.659 16.9536 236.656 16.9628C236.652 16.9721 236.65 16.982 236.65 16.992L236.652 20.7348C236.652 20.755 236.659 20.7744 236.673 20.7887C236.686 20.803 236.705 20.811 236.724 20.811L243.061 20.8128C243.08 20.8128 243.099 20.8208 243.112 20.8351C243.126 20.8494 243.133 20.8687 243.133 20.8889V23.3493C243.133 23.3695 243.126 23.3889 243.112 23.4032C243.099 23.4175 243.08 23.4255 243.061 23.4255H236.722C236.713 23.4255 236.703 23.4275 236.695 23.4313C236.686 23.4351 236.678 23.4407 236.671 23.4478C236.665 23.4549 236.659 23.4633 236.656 23.4725C236.652 23.4817 236.65 23.4916 236.65 23.5016Z" fill="#151515"/>
        <path d="M306.959 60.1718C306.96 60.184 306.955 60.1959 306.947 60.2047C306.939 60.2136 306.929 60.2188 306.917 60.2191L118.462 65.4439C118.45 65.4442 118.439 65.4397 118.431 65.4313C118.422 65.4229 118.418 65.4113 118.417 65.3991L117.736 37.8678C117.736 37.8556 117.74 37.8438 117.748 37.8349C117.756 37.826 117.767 37.8209 117.779 37.8206L306.234 32.5957C306.245 32.5954 306.257 32.5999 306.265 32.6084C306.273 32.6168 306.278 32.6283 306.278 32.6406L306.959 60.1718ZM174.229 58.1611C176.224 58.1869 178.148 57.3364 179.577 55.7968C181.006 54.2572 181.823 52.1546 181.848 49.9514C181.873 47.7483 181.105 45.6251 179.712 44.049C178.32 42.4729 176.416 41.573 174.421 41.5472C172.426 41.5214 170.502 42.3718 169.073 43.9114C167.644 45.451 166.827 47.5537 166.802 49.7568C166.777 51.9599 167.545 54.0831 168.938 55.6592C170.331 57.2353 172.234 58.1352 174.229 58.1611ZM271.959 52.892C270.827 55.2284 267.961 56.0237 265.916 54.5446C261.884 51.6255 263.673 43.1691 269.246 44.5454C270.484 44.8519 271.342 45.5657 271.887 46.7543C271.916 46.8181 271.958 46.8299 272.013 46.7897L274.126 45.2504C274.264 45.1489 274.287 45.0243 274.193 44.8767C272.907 42.8692 271.168 41.7804 268.976 41.6103C266.343 41.4049 264.237 42.2386 262.657 44.1115C260.324 46.8818 260.024 50.6335 261.722 53.9246C263.159 56.7127 265.803 58.438 268.853 58.0908C271.076 57.8375 273.567 56.6915 274.451 54.394C274.46 54.3693 274.46 54.342 274.452 54.3173C274.444 54.2925 274.428 54.272 274.407 54.2594L272.09 52.8494C272.079 52.8428 272.067 52.8387 272.054 52.8372C272.042 52.8358 272.029 52.8371 272.017 52.8411C272.004 52.845 271.993 52.8516 271.983 52.8603C271.973 52.8691 271.965 52.8798 271.959 52.892ZM296.046 58.1594C298.041 58.1816 299.964 57.3276 301.391 55.7853C302.817 54.2431 303.631 52.139 303.653 49.9358C303.675 47.7326 302.903 45.6109 301.507 44.0373C300.111 42.4638 298.206 41.5674 296.21 41.5452C294.214 41.5231 292.292 42.3771 290.865 43.9193C289.439 45.4616 288.625 47.5657 288.603 49.7689C288.581 51.9721 289.353 54.0938 290.749 55.6674C292.145 57.2409 294.05 58.1373 296.046 58.1594ZM129.361 52.5749C130.604 52.5619 131.846 52.5454 133.087 52.5253C134.164 52.5076 135.054 52.1805 135.755 51.544C138.884 48.7098 138.176 43.2577 134.141 41.8867C133.697 41.7355 133.103 41.6611 132.361 41.6635C130.364 41.6694 128.363 41.6717 126.356 41.6706C126.299 41.6706 126.271 41.7007 126.271 41.7609V57.9226C126.271 57.9816 126.299 58.0111 126.354 58.0111H129.199C129.254 58.0111 129.282 57.9816 129.282 57.9226V52.6581C129.282 52.6026 129.308 52.5749 129.361 52.5749ZM147.138 53.937C147.15 53.9368 147.162 53.9407 147.172 53.948C147.181 53.9554 147.188 53.9658 147.192 53.9778L148.445 57.9704C148.449 57.9824 148.456 57.9928 148.465 58.0001C148.475 58.0075 148.487 58.0113 148.499 58.0111H151.518C151.527 58.0111 151.536 58.0088 151.544 58.0045C151.551 58.0002 151.558 57.994 151.563 57.9863C151.568 57.9787 151.572 57.9699 151.573 57.9606C151.574 57.9514 151.573 57.942 151.57 57.9332L145.937 41.7095C145.933 41.6982 145.926 41.6883 145.917 41.6813C145.908 41.6744 145.897 41.6706 145.885 41.6706H142.884C142.872 41.6706 142.861 41.6744 142.852 41.6813C142.843 41.6883 142.836 41.6982 142.832 41.7095L137.177 57.9332C137.174 57.942 137.173 57.9514 137.175 57.9606C137.176 57.9699 137.179 57.9787 137.184 57.9863C137.189 57.994 137.196 58.0002 137.204 58.0045C137.212 58.0088 137.22 58.0111 137.229 58.0111H140.249C140.261 58.0113 140.272 58.0075 140.282 58.0001C140.292 57.9928 140.299 57.9824 140.302 57.9704L141.559 53.9778C141.562 53.9658 141.57 53.9554 141.579 53.948C141.589 53.9407 141.601 53.9368 141.612 53.937H147.138ZM156.385 44.4604H164.332C164.388 44.4604 164.416 44.4309 164.416 44.3718V41.7591C164.416 41.7001 164.388 41.6706 164.332 41.6706H153.374C153.318 41.6706 153.29 41.7001 153.29 41.7591V57.9172C153.29 57.9704 153.315 57.9975 153.365 57.9987C157.048 58.0282 159.615 58.0282 161.065 57.9987C163.127 57.9574 164.528 57.0345 165.267 55.2301C165.778 53.9831 165.823 52.233 165.299 51.0126C164.447 49.0287 162.585 48.3272 160.733 48.3201C159.29 48.3154 157.841 48.3125 156.387 48.3113C156.33 48.3113 156.302 48.2812 156.302 48.221V44.549C156.302 44.4899 156.329 44.4604 156.385 44.4604ZM192.648 51.8114V57.9208C192.648 57.9443 192.657 57.9668 192.673 57.9834C192.688 58 192.709 58.0093 192.732 58.0093L195.534 58.0111C195.59 58.0111 195.618 57.9816 195.618 57.9226V41.7591C195.618 41.7001 195.59 41.6706 195.534 41.6706H192.732C192.676 41.6706 192.648 41.7001 192.648 41.7591V48.8427C192.648 48.8668 192.641 48.8903 192.628 48.9102C192.615 48.9301 192.597 48.9454 192.576 48.9543C191.51 49.4136 190.363 49.589 189.136 49.4804C187.554 49.3387 186.76 48.4323 186.756 46.7614C186.752 45.0975 186.751 43.4307 186.751 41.7609C186.751 41.7007 186.722 41.6706 186.664 41.6706H183.913C183.864 41.6706 183.84 41.6965 183.84 41.7485C183.799 44.9452 183.801 46.9846 183.845 47.8667C183.963 50.2533 185.084 51.6987 187.207 52.2029C188.991 52.6268 190.774 52.4745 192.556 51.7459C192.617 51.7211 192.648 51.743 192.648 51.8114ZM201.808 44.5809C201.808 44.5607 201.815 44.5413 201.829 44.527C201.842 44.5127 201.861 44.5047 201.88 44.5047H209.266C209.285 44.5047 209.304 44.4967 209.317 44.4824C209.331 44.4681 209.338 44.4487 209.338 44.4285L209.336 41.7467C209.336 41.7367 209.335 41.7268 209.331 41.7176C209.327 41.7083 209.322 41.6999 209.315 41.6929C209.309 41.6858 209.301 41.6802 209.292 41.6763C209.283 41.6725 209.274 41.6706 209.264 41.6706H198.868C198.859 41.6706 198.85 41.6725 198.841 41.6763C198.832 41.6802 198.824 41.6858 198.817 41.6929C198.811 41.6999 198.805 41.7083 198.802 41.7176C198.798 41.7268 198.796 41.7367 198.796 41.7467V57.9332C198.796 57.9534 198.804 57.9727 198.817 57.987C198.831 58.0013 198.849 58.0093 198.868 58.0093H209.433C209.453 58.0093 209.471 58.0013 209.484 57.987C209.498 57.9727 209.505 57.9534 209.505 57.9332L209.504 55.2531C209.504 55.2329 209.496 55.2136 209.483 55.1993C209.469 55.185 209.451 55.177 209.432 55.177H201.878C201.859 55.177 201.841 55.169 201.827 55.1547C201.814 55.1404 201.806 55.121 201.806 55.1008L201.808 51.0445C201.808 51.0243 201.815 51.0049 201.829 50.9906C201.842 50.9763 201.861 50.9683 201.88 50.9683H208.224C208.243 50.9683 208.261 50.9603 208.275 50.946C208.288 50.9317 208.296 50.9123 208.296 50.8921L208.294 48.43C208.294 48.42 208.292 48.4101 208.289 48.4008C208.285 48.3916 208.28 48.3832 208.273 48.3761C208.266 48.369 208.258 48.3634 208.25 48.3596C208.241 48.3558 208.232 48.3538 208.222 48.3538L201.88 48.3573C201.861 48.3573 201.842 48.3493 201.829 48.335C201.815 48.3207 201.808 48.3014 201.808 48.2812V44.5809ZM214.857 44.5809C214.857 44.5709 214.859 44.5609 214.863 44.5517C214.866 44.5425 214.872 44.5341 214.878 44.527C214.885 44.5199 214.893 44.5143 214.902 44.5105C214.911 44.5067 214.92 44.5047 214.929 44.5047H222.272C222.282 44.5047 222.291 44.5027 222.3 44.4989C222.308 44.4951 222.316 44.4895 222.323 44.4824C222.33 44.4753 222.335 44.4669 222.339 44.4577C222.342 44.4484 222.344 44.4385 222.344 44.4285V41.7467C222.344 41.7367 222.342 41.7268 222.339 41.7176C222.335 41.7083 222.33 41.6999 222.323 41.6929C222.316 41.6858 222.308 41.6802 222.3 41.6763C222.291 41.6725 222.282 41.6706 222.272 41.6706H211.874C211.865 41.6706 211.856 41.6725 211.847 41.6763C211.838 41.6802 211.83 41.6858 211.824 41.6929C211.817 41.6999 211.812 41.7083 211.808 41.7176C211.804 41.7268 211.802 41.7367 211.802 41.7467V57.935C211.802 57.9552 211.81 57.9745 211.824 57.9888C211.837 58.0031 211.855 58.0111 211.874 58.0111L222.481 58.0093C222.491 58.0093 222.5 58.0074 222.509 58.0035C222.518 57.9997 222.526 57.9941 222.532 57.987C222.539 57.98 222.544 57.9716 222.548 57.9623C222.551 57.9531 222.553 57.9432 222.553 57.9332V55.2531C222.553 55.2431 222.551 55.2332 222.548 55.224C222.544 55.2148 222.539 55.2064 222.532 55.1993C222.526 55.1922 222.518 55.1866 222.509 55.1828C222.5 55.179 222.491 55.177 222.481 55.177H214.928C214.909 55.177 214.89 55.169 214.877 55.1547C214.863 55.1404 214.856 55.121 214.856 55.1008L214.857 51.0445C214.857 51.0345 214.859 51.0245 214.863 51.0153C214.866 51.0061 214.872 50.9977 214.878 50.9906C214.885 50.9835 214.893 50.9779 214.902 50.9741C214.911 50.9703 214.92 50.9683 214.929 50.9683H221.27C221.289 50.9683 221.307 50.9603 221.321 50.946C221.334 50.9317 221.342 50.9123 221.342 50.8921V48.4317C221.342 48.4115 221.334 48.3922 221.321 48.3779C221.307 48.3636 221.289 48.3556 221.27 48.3556L214.928 48.3573C214.909 48.3573 214.89 48.3493 214.877 48.335C214.863 48.3207 214.856 48.3014 214.856 48.2812L214.857 44.5809ZM242.63 47.5904V57.8995C242.63 57.9739 242.664 58.0111 242.733 58.0111H245.557C245.613 58.0111 245.641 57.9816 245.641 57.9226V41.7591C245.641 41.7001 245.613 41.6706 245.557 41.6706H242.504C242.477 41.6705 242.451 41.6782 242.428 41.6929C242.405 41.7076 242.386 41.7286 242.374 41.7538L237.895 50.7929C237.89 50.8037 237.882 50.8128 237.872 50.8191C237.862 50.8255 237.851 50.8288 237.84 50.8288C237.828 50.8288 237.817 50.8255 237.807 50.8191C237.798 50.8128 237.79 50.8037 237.785 50.7929L233.349 41.7556C233.337 41.7299 233.318 41.7085 233.294 41.6935C233.271 41.6785 233.244 41.6705 233.217 41.6706H230.124C230.068 41.6706 230.04 41.7001 230.04 41.7591V57.8783C230.04 57.9668 230.082 58.0111 230.166 58.0111H233.01C233.065 58.0111 233.093 57.9816 233.093 57.9226V47.5744C233.094 47.5656 233.097 47.5572 233.102 47.5505C233.108 47.5437 233.115 47.539 233.123 47.537C233.131 47.535 233.14 47.5359 233.147 47.5394C233.155 47.543 233.161 47.549 233.165 47.5567L236.943 55.1823C236.971 55.2378 237.014 55.2655 237.072 55.2655H238.621C238.684 55.2655 238.729 55.2366 238.757 55.1788L242.529 47.5656C242.596 47.4298 242.63 47.438 242.63 47.5904ZM251.831 51.0338C251.831 51.0169 251.838 51.0007 251.849 50.9887C251.86 50.9768 251.875 50.9701 251.891 50.9701L258.256 50.9683C258.272 50.9683 258.287 50.9616 258.298 50.9496C258.31 50.9377 258.316 50.9214 258.316 50.9045V48.4193C258.316 48.4024 258.31 48.3862 258.298 48.3742C258.287 48.3623 258.272 48.3556 258.256 48.3556L251.89 48.3573C251.874 48.3573 251.859 48.3506 251.847 48.3387C251.836 48.3267 251.83 48.3105 251.83 48.2936L251.831 44.5685C251.831 44.5515 251.838 44.5353 251.849 44.5234C251.86 44.5114 251.875 44.5047 251.891 44.5047H259.3C259.316 44.5047 259.331 44.498 259.342 44.486C259.354 44.4741 259.36 44.4578 259.36 44.4409V41.7343C259.36 41.7259 259.358 41.7177 259.355 41.7099C259.352 41.7022 259.348 41.6951 259.342 41.6892C259.337 41.6833 259.33 41.6786 259.323 41.6754C259.315 41.6722 259.308 41.6706 259.3 41.6706H248.88C248.872 41.6706 248.864 41.6722 248.857 41.6754C248.85 41.6786 248.843 41.6833 248.837 41.6892C248.832 41.6951 248.827 41.7022 248.824 41.7099C248.821 41.7177 248.82 41.7259 248.82 41.7343V57.9474C248.82 57.9643 248.826 57.9805 248.837 57.9924C248.849 58.0044 248.864 58.0111 248.88 58.0111H259.467C259.483 58.0111 259.498 58.0044 259.51 57.9924C259.521 57.9805 259.527 57.9643 259.527 57.9474V55.2407C259.527 55.2238 259.521 55.2076 259.51 55.1957C259.498 55.1837 259.483 55.177 259.467 55.177H251.891C251.875 55.177 251.86 55.1703 251.849 55.1583C251.838 55.1463 251.831 55.1301 251.831 55.1132V51.0338ZM279.995 44.5047C280.004 44.5047 280.013 44.5066 280.021 44.5102C280.03 44.5139 280.037 44.5192 280.043 44.526C280.05 44.5327 280.055 44.5407 280.058 44.5495C280.062 44.5583 280.064 44.5678 280.064 44.5773V57.9385C280.064 57.9578 280.071 57.9762 280.084 57.9898C280.096 58.0035 280.114 58.0111 280.132 58.0111H283.006C283.025 58.0111 283.042 58.0035 283.055 57.9898C283.068 57.9762 283.075 57.9578 283.075 57.9385V44.5773C283.075 44.5581 283.082 44.5396 283.095 44.526C283.108 44.5123 283.125 44.5047 283.144 44.5047H287.942C287.96 44.5047 287.977 44.497 287.99 44.4834C288.003 44.4698 288.01 44.4513 288.01 44.4321V41.7432C288.01 41.7239 288.003 41.7054 287.99 41.6918C287.977 41.6782 287.96 41.6706 287.942 41.6706H275.197C275.179 41.6706 275.161 41.6782 275.148 41.6918C275.135 41.7054 275.128 41.7239 275.128 41.7432V44.4321C275.128 44.4513 275.135 44.4698 275.148 44.4834C275.161 44.497 275.179 44.5047 275.197 44.5047H279.995Z" fill="#70B62B"/>
        <path d="M174.229 58.1613C172.233 58.1355 170.33 57.2356 168.937 55.6595C167.544 54.0834 166.776 51.9602 166.801 49.7571C166.827 47.5539 167.644 45.4513 169.073 43.9117C170.501 42.3721 172.425 41.5216 174.42 41.5474C176.416 41.5733 178.319 42.4732 179.712 44.0493C181.105 45.6254 181.873 47.7486 181.847 49.9517C181.822 52.1548 181.005 54.2575 179.576 55.7971C178.147 57.3367 176.224 58.1871 174.229 58.1613ZM174.322 55.3243C174.911 55.3254 175.494 55.185 176.038 54.9111C176.582 54.6372 177.077 54.2352 177.494 53.728C177.911 53.2209 178.242 52.6185 178.469 51.9553C178.695 51.2921 178.812 50.581 178.813 49.8627C178.814 49.1444 178.7 48.4329 178.475 47.7688C178.251 47.1048 177.922 46.5012 177.507 45.9925C177.091 45.4838 176.598 45.0799 176.055 44.804C175.511 44.5282 174.929 44.3856 174.34 44.3845C173.752 44.3834 173.168 44.5238 172.624 44.7977C172.08 45.0716 171.585 45.4736 171.168 45.9807C170.751 46.4879 170.42 47.0903 170.194 47.7535C169.967 48.4167 169.85 49.1278 169.849 49.8461C169.848 50.5644 169.963 51.2759 170.187 51.94C170.411 52.604 170.74 53.2076 171.155 53.7163C171.571 54.225 172.064 54.6288 172.608 54.9047C173.151 55.1806 173.733 55.3232 174.322 55.3243Z" fill="white"/>
        <path d="M271.962 52.8922C271.968 52.8801 271.976 52.8693 271.985 52.8606C271.995 52.8518 272.007 52.8452 272.019 52.8413C272.031 52.8373 272.044 52.836 272.056 52.8374C272.069 52.8389 272.081 52.843 272.092 52.8497L274.409 54.2597C274.43 54.2722 274.447 54.2927 274.455 54.3175C274.463 54.3422 274.462 54.3695 274.453 54.3943C273.569 56.6917 271.078 57.8377 268.855 58.091C265.805 58.4382 263.162 56.7129 261.724 53.9249C260.026 50.6337 260.326 46.882 262.66 44.1117C264.239 42.2388 266.345 41.4051 268.979 41.6105C271.17 41.7806 272.909 42.8694 274.195 44.8769C274.289 45.0245 274.266 45.1491 274.128 45.2506L272.015 46.7899C271.961 46.8301 271.919 46.8183 271.89 46.7545C271.344 45.5659 270.486 44.8521 269.248 44.5456C263.675 43.1693 261.887 51.6257 265.919 54.5448C267.963 56.0239 270.829 55.2286 271.962 52.8922Z" fill="white"/>
        <path d="M296.047 58.1595C294.051 58.1374 292.146 57.241 290.75 55.6674C289.354 54.0939 288.582 51.9722 288.604 49.769C288.626 47.5658 289.439 45.4617 290.866 43.9194C292.293 42.3772 294.215 41.5232 296.211 41.5453C298.207 41.5675 300.112 42.4639 301.508 44.0374C302.904 45.611 303.675 47.7327 303.654 49.9359C303.632 52.139 302.818 54.2432 301.392 55.7854C299.965 57.3277 298.042 58.1817 296.047 58.1595ZM296.125 55.3241C296.713 55.3252 297.296 55.1848 297.841 54.9109C298.385 54.637 298.88 54.235 299.297 53.7279C299.714 53.2207 300.045 52.6183 300.271 51.9551C300.498 51.2919 300.615 50.5808 300.616 49.8625C300.617 49.1442 300.502 48.4327 300.278 47.7686C300.054 47.1046 299.725 46.501 299.309 45.9923C298.894 45.4836 298.401 45.0798 297.857 44.8039C297.314 44.528 296.731 44.3854 296.143 44.3843C295.554 44.3832 294.971 44.5236 294.427 44.7975C293.883 45.0714 293.388 45.4734 292.971 45.9806C292.554 46.4877 292.223 47.0901 291.996 47.7533C291.77 48.4165 291.653 49.1276 291.652 49.8459C291.651 50.5642 291.765 51.2757 291.99 51.9398C292.214 52.6038 292.543 53.2074 292.958 53.7161C293.374 54.2248 293.867 54.6287 294.41 54.9046C294.954 55.1804 295.536 55.323 296.125 55.3241Z" fill="white"/>
        <path d="M129.283 52.6588V57.9232C129.283 57.9822 129.255 58.0118 129.199 58.0118H126.355C126.299 58.0118 126.271 57.9822 126.271 57.9232V41.7615C126.271 41.7013 126.3 41.6712 126.357 41.6712C128.363 41.6724 130.365 41.67 132.361 41.6641C133.104 41.6618 133.697 41.7362 134.141 41.8873C138.177 43.2583 138.884 48.7105 135.756 51.5446C135.054 52.1811 134.165 52.5082 133.087 52.5259C131.847 52.546 130.605 52.5626 129.362 52.5755C129.309 52.5755 129.283 52.6033 129.283 52.6588ZM129.283 44.5815V49.6582C129.283 49.6802 129.291 49.7014 129.306 49.717C129.321 49.7326 129.341 49.7414 129.362 49.7414H132.599C133.138 49.7414 133.656 49.4938 134.037 49.0529C134.419 48.6121 134.633 48.0143 134.633 47.3908V46.8488C134.633 46.2254 134.419 45.6275 134.037 45.1867C133.656 44.7459 133.138 44.4983 132.599 44.4983H129.362C129.341 44.4983 129.321 44.507 129.306 44.5226C129.291 44.5382 129.283 44.5594 129.283 44.5815Z" fill="white"/>
        <path d="M147.14 53.9374H141.614C141.602 53.9372 141.591 53.941 141.581 53.9484C141.571 53.9557 141.564 53.9662 141.561 53.9781L140.304 57.9707C140.301 57.9827 140.293 57.9931 140.284 58.0005C140.274 58.0078 140.262 58.0117 140.251 58.0115H137.231C137.222 58.0114 137.213 58.0092 137.205 58.0049C137.198 58.0005 137.191 57.9943 137.186 57.9867C137.181 57.979 137.178 57.9702 137.176 57.961C137.175 57.9517 137.176 57.9423 137.179 57.9335L142.834 41.7099C142.838 41.6985 142.845 41.6887 142.854 41.6817C142.863 41.6747 142.874 41.6709 142.886 41.6709H145.887C145.898 41.6709 145.91 41.6747 145.919 41.6817C145.928 41.6887 145.935 41.6985 145.939 41.7099L151.572 57.9335C151.575 57.9423 151.576 57.9517 151.575 57.961C151.573 57.9702 151.57 57.979 151.565 57.9867C151.56 57.9943 151.553 58.0005 151.545 58.0049C151.538 58.0092 151.529 58.0114 151.52 58.0115H148.5C148.488 58.0117 148.477 58.0078 148.467 58.0005C148.458 57.9931 148.45 57.9827 148.447 57.9707L147.194 53.9781C147.19 53.9662 147.183 53.9557 147.173 53.9484C147.164 53.941 147.152 53.9372 147.14 53.9374ZM142.322 51.6045C142.319 51.613 142.318 51.622 142.32 51.6308C142.321 51.6396 142.324 51.648 142.329 51.6552C142.334 51.6625 142.34 51.6684 142.348 51.6725C142.355 51.6766 142.364 51.6788 142.372 51.6789H146.394C146.402 51.6788 146.411 51.6766 146.418 51.6725C146.426 51.6684 146.432 51.6625 146.437 51.6552C146.442 51.648 146.445 51.6396 146.446 51.6308C146.447 51.622 146.447 51.613 146.444 51.6045L144.433 45.2207C144.429 45.2098 144.423 45.2005 144.414 45.1938C144.405 45.1872 144.394 45.1837 144.383 45.1837C144.372 45.1837 144.361 45.1872 144.352 45.1938C144.343 45.2005 144.337 45.2098 144.333 45.2207L142.322 51.6045Z" fill="white"/>
        <path d="M156.302 44.5493V48.2213C156.302 48.2815 156.331 48.3116 156.388 48.3116C157.842 48.3128 159.291 48.3158 160.734 48.3205C162.586 48.3276 164.448 49.029 165.3 51.0129C165.824 52.2334 165.778 53.9834 165.268 55.2305C164.529 57.0349 163.128 57.9577 161.066 57.9991C159.616 58.0286 157.049 58.0286 153.366 57.9991C153.316 57.9979 153.291 57.9707 153.291 57.9176V41.7595C153.291 41.7004 153.319 41.6709 153.375 41.6709H164.333C164.389 41.6709 164.417 41.7004 164.417 41.7595V44.3722C164.417 44.4312 164.389 44.4608 164.333 44.4608H156.386C156.33 44.4608 156.302 44.4903 156.302 44.5493ZM156.304 50.912L156.297 55.1277C156.297 55.1522 156.307 55.1756 156.323 55.1929C156.339 55.2101 156.361 55.2198 156.384 55.2198L160.457 55.2269C160.734 55.2274 161.009 55.1716 161.266 55.0626C161.523 54.9536 161.756 54.7937 161.953 54.5919C162.15 54.39 162.306 54.1503 162.412 53.8863C162.519 53.6224 162.574 53.3394 162.575 53.0535V53.0074C162.575 52.4301 162.354 51.876 161.958 51.4671C161.562 51.0582 161.024 50.8279 160.463 50.8269L156.391 50.8198C156.368 50.8198 156.346 50.8295 156.33 50.8468C156.313 50.8641 156.304 50.8875 156.304 50.912Z" fill="white"/>
        <path d="M192.558 51.7463C190.776 52.4749 188.993 52.6272 187.209 52.2033C185.086 51.699 183.965 50.2536 183.846 47.867C183.803 46.9849 183.801 44.9455 183.841 41.7488C183.841 41.6969 183.866 41.6709 183.915 41.6709H186.665C186.723 41.6709 186.752 41.701 186.752 41.7612C186.752 43.431 186.754 45.0978 186.757 46.7617C186.762 48.4327 187.556 49.339 189.138 49.4807C190.365 49.5894 191.512 49.414 192.578 48.9546C192.599 48.9458 192.617 48.9304 192.63 48.9105C192.643 48.8906 192.65 48.8671 192.65 48.843V41.7595C192.65 41.7004 192.678 41.6709 192.734 41.6709H195.536C195.592 41.6709 195.62 41.7004 195.62 41.7595V57.9229C195.62 57.9819 195.592 58.0115 195.536 58.0115L192.734 58.0097C192.711 58.0097 192.69 58.0004 192.674 57.9838C192.659 57.9671 192.65 57.9446 192.65 57.9211V51.8118C192.65 51.7433 192.619 51.7215 192.558 51.7463Z" fill="white"/>
        <path d="M201.808 44.5812V48.2815C201.808 48.3017 201.816 48.3211 201.829 48.3354C201.843 48.3497 201.861 48.3577 201.88 48.3577L208.223 48.3541C208.232 48.3541 208.241 48.3561 208.25 48.3599C208.259 48.3638 208.267 48.3694 208.274 48.3765C208.28 48.3835 208.286 48.3919 208.289 48.4012C208.293 48.4104 208.295 48.4203 208.295 48.4303L208.296 50.8925C208.296 50.9127 208.289 50.932 208.275 50.9463C208.262 50.9606 208.243 50.9686 208.224 50.9686H201.88C201.861 50.9686 201.843 50.9767 201.829 50.9909C201.816 51.0052 201.808 51.0246 201.808 51.0448L201.807 55.1012C201.807 55.1214 201.814 55.1407 201.828 55.155C201.841 55.1693 201.86 55.1773 201.879 55.1773H209.432C209.451 55.1773 209.47 55.1854 209.483 55.1996C209.497 55.2139 209.504 55.2333 209.504 55.2535L209.506 57.9335C209.506 57.9537 209.498 57.9731 209.485 57.9874C209.471 58.0017 209.453 58.0097 209.434 58.0097H198.869C198.85 58.0097 198.831 58.0017 198.818 57.9874C198.804 57.9731 198.797 57.9537 198.797 57.9335V41.7471C198.797 41.7371 198.799 41.7272 198.802 41.7179C198.806 41.7087 198.811 41.7003 198.818 41.6932C198.825 41.6861 198.833 41.6805 198.841 41.6767C198.85 41.6729 198.859 41.6709 198.869 41.6709H209.265C209.274 41.6709 209.284 41.6729 209.293 41.6767C209.301 41.6805 209.309 41.6861 209.316 41.6932C209.323 41.7003 209.328 41.7087 209.331 41.7179C209.335 41.7272 209.337 41.7371 209.337 41.7471L209.339 44.4289C209.339 44.4491 209.331 44.4684 209.318 44.4827C209.304 44.497 209.286 44.505 209.267 44.505H201.88C201.861 44.505 201.843 44.5131 201.829 44.5273C201.816 44.5416 201.808 44.561 201.808 44.5812Z" fill="white"/>
        <path d="M214.858 44.5812L214.856 48.2815C214.856 48.3017 214.864 48.3211 214.877 48.3354C214.891 48.3497 214.909 48.3577 214.928 48.3577L221.27 48.3559C221.289 48.3559 221.308 48.3639 221.321 48.3782C221.335 48.3925 221.342 48.4119 221.342 48.4321V50.8925C221.342 50.9127 221.335 50.932 221.321 50.9463C221.308 50.9606 221.289 50.9686 221.27 50.9686H214.93C214.92 50.9686 214.911 50.9706 214.902 50.9744C214.893 50.9783 214.885 50.9839 214.879 50.9909C214.872 50.998 214.867 51.0064 214.863 51.0157C214.86 51.0249 214.858 51.0348 214.858 51.0448L214.856 55.1012C214.856 55.1214 214.864 55.1407 214.877 55.155C214.891 55.1693 214.909 55.1773 214.928 55.1773H222.482C222.491 55.1773 222.5 55.1793 222.509 55.1831C222.518 55.187 222.526 55.1926 222.533 55.1996C222.539 55.2067 222.545 55.2151 222.548 55.2243C222.552 55.2336 222.554 55.2435 222.554 55.2535V57.9335C222.554 57.9435 222.552 57.9534 222.548 57.9627C222.545 57.9719 222.539 57.9803 222.533 57.9874C222.526 57.9945 222.518 58.0001 222.509 58.0039C222.5 58.0077 222.491 58.0097 222.482 58.0097L211.875 58.0115C211.856 58.0115 211.837 58.0034 211.824 57.9892C211.81 57.9749 211.803 57.9555 211.803 57.9353V41.7471C211.803 41.7371 211.805 41.7272 211.808 41.7179C211.812 41.7087 211.817 41.7003 211.824 41.6932C211.83 41.6861 211.838 41.6805 211.847 41.6767C211.856 41.6729 211.865 41.6709 211.875 41.6709H222.273C222.282 41.6709 222.291 41.6729 222.3 41.6767C222.309 41.6805 222.317 41.6861 222.323 41.6932C222.33 41.7003 222.335 41.7087 222.339 41.7179C222.343 41.7272 222.344 41.7371 222.344 41.7471V44.4289C222.344 44.4389 222.343 44.4488 222.339 44.458C222.335 44.4673 222.33 44.4757 222.323 44.4827C222.317 44.4898 222.309 44.4954 222.3 44.4992C222.291 44.5031 222.282 44.505 222.273 44.505H214.93C214.92 44.505 214.911 44.507 214.902 44.5108C214.893 44.5147 214.885 44.5203 214.879 44.5273C214.872 44.5344 214.867 44.5428 214.863 44.5521C214.86 44.5613 214.858 44.5712 214.858 44.5812Z" fill="white"/>
        <path d="M242.631 47.5907C242.631 47.4384 242.597 47.4301 242.53 47.5659L238.757 55.1791C238.73 55.237 238.684 55.2659 238.622 55.2659H237.073C237.015 55.2659 236.972 55.2381 236.944 55.1826L233.166 47.557C233.162 47.5494 233.156 47.5433 233.148 47.5398C233.141 47.5362 233.132 47.5354 233.124 47.5374C233.116 47.5394 233.109 47.5441 233.103 47.5508C233.098 47.5576 233.095 47.566 233.094 47.5748V57.9229C233.094 57.9819 233.066 58.0115 233.011 58.0115H230.166C230.083 58.0115 230.041 57.9672 230.041 57.8786V41.7595C230.041 41.7004 230.069 41.6709 230.125 41.6709H233.218C233.245 41.6709 233.272 41.6788 233.295 41.6938C233.319 41.7088 233.338 41.7303 233.35 41.7559L237.785 50.7933C237.791 50.8041 237.799 50.8131 237.808 50.8195C237.818 50.8258 237.829 50.8292 237.841 50.8292C237.852 50.8292 237.863 50.8258 237.873 50.8195C237.883 50.8131 237.891 50.8041 237.896 50.7933L242.375 41.7542C242.387 41.729 242.406 41.7079 242.429 41.6933C242.452 41.6786 242.478 41.6709 242.505 41.6709H245.558C245.614 41.6709 245.642 41.7004 245.642 41.7595V57.9229C245.642 57.9819 245.614 58.0115 245.558 58.0115H242.734C242.665 58.0115 242.631 57.9743 242.631 57.8999V47.5907Z" fill="white"/>
        <path d="M251.832 51.0342V55.1136C251.832 55.1305 251.838 55.1467 251.849 55.1586C251.861 55.1706 251.876 55.1773 251.892 55.1773H259.467C259.483 55.1773 259.499 55.184 259.51 55.196C259.521 55.208 259.528 55.2242 259.528 55.2411V57.9477C259.528 57.9646 259.521 57.9808 259.51 57.9928C259.499 58.0047 259.483 58.0115 259.467 58.0115H248.881C248.865 58.0115 248.849 58.0047 248.838 57.9928C248.827 57.9808 248.82 57.9646 248.82 57.9477V41.7347C248.82 41.7263 248.822 41.718 248.825 41.7103C248.828 41.7025 248.832 41.6955 248.838 41.6896C248.844 41.6837 248.85 41.679 248.858 41.6758C248.865 41.6725 248.873 41.6709 248.881 41.6709H259.3C259.308 41.6709 259.316 41.6725 259.323 41.6758C259.33 41.679 259.337 41.6837 259.343 41.6896C259.348 41.6955 259.353 41.7025 259.356 41.7103C259.359 41.718 259.36 41.7263 259.36 41.7347V44.4413C259.36 44.4582 259.354 44.4744 259.343 44.4864C259.331 44.4983 259.316 44.505 259.3 44.505H251.892C251.876 44.505 251.861 44.5118 251.849 44.5237C251.838 44.5357 251.832 44.5519 251.832 44.5688L251.83 48.2939C251.83 48.3108 251.836 48.3271 251.848 48.339C251.859 48.351 251.874 48.3577 251.89 48.3577L258.256 48.3559C258.272 48.3559 258.287 48.3626 258.299 48.3746C258.31 48.3865 258.316 48.4028 258.316 48.4197V50.9049C258.316 50.9218 258.31 50.938 258.299 50.95C258.287 50.9619 258.272 50.9686 258.256 50.9686L251.892 50.9704C251.876 50.9704 251.861 50.9771 251.849 50.9891C251.838 51.001 251.832 51.0173 251.832 51.0342Z" fill="white"/>
        <path d="M279.996 44.505H275.198C275.179 44.505 275.162 44.4974 275.149 44.4838C275.136 44.4701 275.129 44.4517 275.129 44.4324V41.7435C275.129 41.7243 275.136 41.7058 275.149 41.6922C275.162 41.6786 275.179 41.6709 275.198 41.6709H287.943C287.961 41.6709 287.978 41.6786 287.991 41.6922C288.004 41.7058 288.011 41.7243 288.011 41.7435V44.4324C288.011 44.4517 288.004 44.4701 287.991 44.4838C287.978 44.4974 287.961 44.505 287.943 44.505H283.144C283.126 44.505 283.109 44.5127 283.096 44.5263C283.083 44.5399 283.076 44.5584 283.076 44.5777V57.9388C283.076 57.9581 283.069 57.9766 283.056 57.9902C283.043 58.0038 283.025 58.0115 283.007 58.0115H280.133C280.115 58.0115 280.097 58.0038 280.084 57.9902C280.072 57.9766 280.064 57.9581 280.064 57.9388V44.5777C280.064 44.5681 280.063 44.5587 280.059 44.5499C280.056 44.5411 280.051 44.533 280.044 44.5263C280.038 44.5196 280.03 44.5142 280.022 44.5106C280.014 44.5069 280.005 44.505 279.996 44.505Z" fill="white"/>
        <path d="M169.851 49.8459C169.846 52.8668 171.849 55.3195 174.324 55.324C176.8 55.3286 178.81 52.8834 178.815 49.8625C178.82 46.8415 176.818 44.3889 174.342 44.3843C171.867 44.3797 169.856 46.825 169.851 49.8459Z" fill="#70B62B"/>
        <path d="M291.652 49.8459C291.647 52.8668 293.65 55.3195 296.125 55.324C298.6 55.3286 300.611 52.8834 300.616 49.8625C300.621 46.8415 298.618 44.3889 296.143 44.3843C293.668 44.3797 291.657 46.825 291.652 49.8459Z" fill="#70B62B"/>
        <path d="M129.283 44.5813C129.283 44.5592 129.291 44.538 129.306 44.5224C129.321 44.5068 129.341 44.498 129.362 44.498H132.599C133.139 44.498 133.656 44.7457 134.038 45.1865C134.419 45.6273 134.634 46.2252 134.634 46.8486V47.3906C134.634 48.014 134.419 48.6119 134.038 49.0527C133.656 49.4935 133.139 49.7412 132.599 49.7412H129.362C129.341 49.7412 129.321 49.7324 129.306 49.7168C129.291 49.7012 129.283 49.68 129.283 49.6579V44.5813Z" fill="#70B62B"/>
        <path d="M142.321 51.6044L144.332 45.2205C144.336 45.2097 144.343 45.2003 144.352 45.1937C144.361 45.1871 144.371 45.1836 144.382 45.1836C144.393 45.1836 144.404 45.1871 144.413 45.1937C144.422 45.2003 144.429 45.2097 144.432 45.2205L146.443 51.6044C146.446 51.6129 146.447 51.6219 146.445 51.6307C146.444 51.6395 146.441 51.6479 146.436 51.6551C146.431 51.6624 146.425 51.6683 146.417 51.6724C146.41 51.6765 146.402 51.6787 146.393 51.6788H142.371C142.363 51.6787 142.355 51.6765 142.347 51.6724C142.34 51.6683 142.333 51.6624 142.328 51.6551C142.323 51.6479 142.32 51.6395 142.319 51.6307C142.318 51.6219 142.318 51.6129 142.321 51.6044Z" fill="#70B62B"/>
        <path d="M156.304 50.9114C156.304 50.887 156.313 50.8636 156.329 50.8463C156.345 50.829 156.368 50.8193 156.391 50.8193L160.463 50.8264C161.024 50.8274 161.561 51.0577 161.957 51.4666C162.353 51.8755 162.575 52.4296 162.574 53.0069V53.053C162.574 53.3389 162.519 53.6219 162.412 53.8858C162.305 54.1498 162.149 54.3895 161.952 54.5913C161.756 54.7932 161.522 54.9531 161.266 55.0621C161.009 55.1711 160.734 55.2269 160.456 55.2264L156.384 55.2193C156.361 55.2193 156.339 55.2096 156.322 55.1924C156.306 55.1751 156.297 55.1517 156.297 55.1272L156.304 50.9114Z" fill="#70B62B"/>
    </g>
    <defs>
        <clipPath id="clip0_5086_22332">
            <rect width="307" height="70.6763" fill="white"/>
        </clipPath>
    </defs>
</svg>
