<svg xmlns="http://www.w3.org/2000/svg" width="34" height="24" viewBox="0 0 34 24" fill="none">
    <g clip-path="url(#clip0_10701_45513)">
        <g clip-path="url(#clip1_10701_45513)">
            <path d="M1.16602 15.9581C1.16602 16.8938 1.35031 17.8203 1.70837 18.6847C2.06644 19.5492 2.59126 20.3346 3.25288 20.9962C4.58908 22.3324 6.40135 23.0831 8.29102 23.0831H27.291C28.6938 23.0856 30.0453 22.5561 31.073 21.6013C32.1007 20.6464 32.728 19.3374 32.8284 17.9382C32.9289 16.5391 32.495 15.1539 31.6142 14.062C30.7335 12.9702 29.4714 12.2531 28.0827 12.0552C28.0981 9.36156 27.1321 6.75449 25.3652 4.72133C23.5982 2.68816 21.1513 1.36807 18.4819 1.0078C15.8124 0.647542 13.1031 1.27178 10.8604 2.76382C8.61771 4.25586 6.99515 6.51357 6.29602 9.11493C4.81552 9.54674 3.5151 10.4472 2.59007 11.6812C1.66503 12.9151 1.16533 14.4159 1.16602 15.9581Z" fill="#F5F5F5" stroke="black" stroke-linejoin="round"/>
            <path d="M12.438 19V9L9 11.5" stroke="#70B62B" stroke-linecap="round" stroke-linejoin="round"/>
            <path d="M21.3996 14.1996C20.9996 13.3996 20.1996 12.5996 18.9996 12.5996C17.7996 12.5996 16.5996 13.5464 16.5996 14.9996C16.5996 16.5996 17.7996 17.3996 18.5996 17.3996H22.5996H26.9996" stroke="#70B62B" stroke-linecap="round"/>
            <path d="M23 13.6667C22.3333 12.3333 21 11 19 11C17 11 15 12.578 15 15C15 17.6667 17.2667 19 18.6 19H25H27" stroke="#70B62B" stroke-linecap="round"/>
        </g>
    </g>
    <defs>
        <clipPath id="clip0_10701_45513">
            <rect width="34" height="24" fill="white"/>
        </clipPath>
        <clipPath id="clip1_10701_45513">
            <rect width="40" height="40" fill="white" transform="translate(-3 -8)"/>
        </clipPath>
    </defs>
</svg>