<svg xmlns="http://www.w3.org/2000/svg" width="30" height="30" viewBox="0 0 30 30" fill="none">
    <path d="M1 26.2893V9H29V26.2893C29 27.7864 27.7864 29 26.2893 29H3.71067C2.21361 29 1 27.7864 1 26.2893Z" fill="#F5F5F5" stroke="black" stroke-width="0.903555" />
    <path d="M1 9V5.71067C1 4.21361 2.21361 3 3.71067 3H26.2893C27.7864 3 29 4.21361 29 5.71067V9H1Z" fill="#F5F5F5" stroke="black" stroke-width="0.903555" />
    <path d="M6.32233 1H5.67767C5.3034 1 5 1.3034 5 1.67767V5.32233C5 5.6966 5.3034 6 5.67767 6H6.32233C6.6966 6 7 5.6966 7 5.32233V1.67767C7 1.3034 6.6966 1 6.32233 1Z" fill="#F5F5F5" stroke="black" stroke-width="0.903555" />
    <path d="M12.3223 1H11.6777C11.3034 1 11 1.3034 11 1.67767V5.32233C11 5.6966 11.3034 6 11.6777 6H12.3223C12.6966 6 13 5.6966 13 5.32233V1.67767C13 1.3034 12.6966 1 12.3223 1Z" fill="#F5F5F5" stroke="black" stroke-width="0.903555" />
    <path d="M18.3223 1H17.6777C17.3034 1 17 1.3034 17 1.67767V5.32233C17 5.6966 17.3034 6 17.6777 6H18.3223C18.6966 6 19 5.6966 19 5.32233V1.67767C19 1.3034 18.6966 1 18.3223 1Z" fill="#F5F5F5" stroke="black" stroke-width="0.903555" />
    <path d="M24.3223 1H23.6777C23.3034 1 23 1.3034 23 1.67767V5.32233C23 5.6966 23.3034 6 23.6777 6H24.3223C24.6966 6 25 5.6966 25 5.32233V1.67767C25 1.3034 24.6966 1 24.3223 1Z" fill="#F5F5F5" stroke="black" stroke-width="0.903555" />
    <path
            d="M14.5436 21.844V23H10.1415V21.844H11.7412V15.9356C11.679 16.029 11.5739 16.1341 11.426 16.2509C11.2858 16.3598 11.1263 16.4688 10.9472 16.5778C10.7682 16.679 10.5813 16.7646 10.3867 16.8347C10.1999 16.9048 10.0287 16.9398 9.87296 16.9398V15.7488C10.0831 15.7488 10.2933 15.6943 10.5035 15.5853C10.7215 15.4763 10.9239 15.3517 11.1107 15.2116C11.2975 15.0637 11.4454 14.9314 11.5544 14.8146C11.6712 14.6979 11.7335 14.6356 11.7412 14.6278H13.0607V21.844H14.5436ZM18.0332 23.0934C17.5739 23.0934 17.1535 23.0272 16.7721 22.8949C16.3984 22.7626 16.0832 22.5719 15.8263 22.3228C15.5694 22.0736 15.3825 21.7856 15.2658 21.4587L15.9664 20.6179C16.0209 20.8203 16.1338 21.0227 16.305 21.2251C16.4841 21.4275 16.7137 21.591 16.9939 21.7156C17.282 21.8401 17.6167 21.9024 17.9981 21.9024C18.3329 21.9024 18.6287 21.8518 18.8856 21.7506C19.1502 21.6416 19.3604 21.4898 19.5161 21.2952C19.6718 21.1006 19.7496 20.8709 19.7496 20.6063C19.7496 20.3105 19.6562 20.0614 19.4694 19.859C19.2826 19.6566 19.014 19.5048 18.6637 19.4036C18.3134 19.3024 17.893 19.2518 17.4026 19.2518H17.0056V18.2242H17.4026C18.0487 18.2242 18.5625 18.1191 18.9439 17.909C19.3332 17.6988 19.5278 17.3874 19.5278 16.9748C19.5278 16.7179 19.4577 16.4961 19.3176 16.3092C19.1775 16.1146 18.9945 15.9706 18.7688 15.8772C18.543 15.776 18.2939 15.7254 18.0215 15.7254C17.5778 15.7254 17.1924 15.8266 16.8655 16.029C16.5385 16.2314 16.3011 16.4805 16.1532 16.7763L15.3125 15.8538C15.476 15.597 15.7017 15.3751 15.9897 15.1883C16.2778 15.0014 16.6008 14.8574 16.9589 14.7562C17.3248 14.655 17.6945 14.6044 18.0682 14.6044C18.6131 14.6044 19.0996 14.7017 19.5278 14.8964C19.9559 15.091 20.2907 15.3595 20.532 15.7021C20.7733 16.0368 20.894 16.4182 20.894 16.8464C20.894 17.1577 20.8278 17.438 20.6955 17.6871C20.5709 17.9362 20.388 18.1464 20.1466 18.3176C19.9131 18.4811 19.6329 18.6018 19.3059 18.6796C19.6562 18.7419 19.9637 18.8742 20.2284 19.0766C20.5008 19.279 20.7071 19.5281 20.8473 19.8239C20.9952 20.1197 21.0691 20.4428 21.0691 20.7931C21.0691 21.2757 20.929 21.6883 20.6487 22.0308C20.3763 22.3733 20.0104 22.638 19.5511 22.8248C19.0919 23.0039 18.5859 23.0934 18.0332 23.0934Z"
            fill="#70B62B"
    />
</svg>