<svg xmlns="http://www.w3.org/2000/svg" width="28" height="27" viewBox="0 0 28 27"
     fill="none">
    <g clip-path="url(#clip0_4701_11222)">
        <rect width="28" height="27" fill="white"/>
        <path d="M1 23.2893V3.71C1 2.21331 2.21331 1 3.71 1H24.29C25.7867 1 27 2.21331 27 3.71V23.2893C27 24.7864 25.7864 26 24.2893 26H3.71067C2.21361 26 1 24.7864 1 23.2893Z"
              fill="#F5F5F5" stroke="black" stroke-width="0.903555"/>
        <path d="M3.5 6L8.5 6" stroke="#70B62B" stroke-width="0.9" stroke-linecap="round"/>
        <path d="M19.5 6L24.5756 6" stroke="#70B62B" stroke-width="0.9" stroke-linecap="round"/>
        <path d="M11.5 6L16.681 6" stroke="#70B62B" stroke-width="0.9" stroke-linecap="round"/>
        <rect x="3.45" y="20.55" width="12.1" height="5.1" rx="0.55" transform="rotate(-90 3.45 20.55)" stroke="black"
              stroke-width="0.9"/>
        <rect x="19.45" y="20.55" width="12.1" height="5.1" rx="0.55" transform="rotate(-90 19.45 20.55)" stroke="black"
              stroke-width="0.9"/>
        <rect x="11.45" y="13.55" width="5.1" height="5.1" rx="0.55" transform="rotate(-90 11.45 13.55)" stroke="black"
              stroke-width="0.9"/>
    </g>
    <defs>
        <clipPath id="clip0_4701_11222">
            <rect width="28" height="27" fill="white"/>
        </clipPath>
    </defs>
</svg>