<svg width="460" height="308" viewBox="0 0 460 308" fill="none" xmlns="http://www.w3.org/2000/svg">
    <path d="M89.9062 205.008V307.456C89.9062 307.53 89.8785 307.6 89.8292 307.653C89.7799 307.705 89.7131 307.734 89.6434 307.734H1.09487C1.06036 307.734 1.02618 307.727 0.994288 307.713C0.962398 307.699 0.933423 307.678 0.909016 307.653C0.859723 307.6 0.832031 307.53 0.832031 307.456V0.543913C0.832031 0.507367 0.83883 0.47118 0.852039 0.437417C0.865248 0.403653 0.884609 0.372975 0.909016 0.347134C0.958308 0.294945 1.02516 0.265625 1.09487 0.265625H257.044C257.092 0.265532 257.139 0.279148 257.18 0.305018C257.221 0.330888 257.254 0.368039 257.277 0.412499C257.299 0.456959 257.31 0.507056 257.307 0.557435C257.305 0.607813 257.29 0.656578 257.263 0.698516L206.06 84.5943C206.036 84.6336 206.002 84.6655 205.962 84.6871C205.923 84.7088 205.879 84.7194 205.834 84.718H90.1691C90.0993 84.718 90.0325 84.7473 89.9832 84.7995C89.9339 84.8517 89.9062 84.9225 89.9062 84.9963V119.805C89.9062 119.879 89.9339 119.95 89.9832 120.002C90.0325 120.054 90.0993 120.084 90.1691 120.084H186.581C186.617 120.084 186.652 120.091 186.685 120.106C186.718 120.121 186.748 120.143 186.772 120.171C186.797 120.198 186.816 120.231 186.828 120.266C186.84 120.302 186.846 120.34 186.844 120.377L183.113 204.466C183.109 204.538 183.08 204.604 183.031 204.653C182.982 204.702 182.917 204.729 182.85 204.729H90.1691C90.0993 204.729 90.0325 204.759 89.9832 204.811C89.9339 204.863 89.9062 204.934 89.9062 205.008Z" fill="#151515"/>
    <path d="M352.763 85.1818C353.06 84.8726 352.999 84.718 352.58 84.718H228.628C228.317 84.718 228.246 84.5814 228.417 84.3083L280.284 0.605754C280.425 0.379001 280.625 0.265625 280.883 0.265625H458.987C459.036 0.265625 459.082 0.285986 459.116 0.322228C459.151 0.35847 459.17 0.407625 459.17 0.45888V84.3701C459.17 84.633 459.08 84.8571 458.9 85.0427C423.35 122.325 389.918 165.012 365.211 211.686C353.522 233.779 343.972 258.686 341.271 283.801C340.482 291.161 340.701 299.478 340.708 307.34C340.708 307.603 340.587 307.734 340.343 307.734H237.952C237.699 307.734 237.565 307.6 237.55 307.332C236.83 292.542 237.92 278.501 240.821 265.21C247.356 235.287 261.739 205.796 277.867 179.969C299.377 145.524 325.113 114.139 352.763 85.1818Z" fill="#70B62B"/>
</svg>
