<svg xmlns="http://www.w3.org/2000/svg" width="17" height="16" viewBox="0 0 17 16" fill="none">
    <g clip-path="url(#clip0_3509_5539)">
        <path d="M16.2057 10.5087V4.989C16.2057 4.55358 15.666 4.35072 15.3792 4.67831L12.7659 7.66307C12.6005 7.85201 12.6121 8.13743 12.7924 8.31228L15.4057 10.8472C15.7048 11.1374 16.2057 10.9254 16.2057 10.5087Z" stroke="white"/>
        <path d="M2.6084 3.10742H11.6113C12.1166 3.10742 12.5264 3.51718 12.5264 4.02246V11.335C12.5264 11.8402 12.1166 12.25 11.6113 12.25H2.6084C2.10312 12.25 1.69336 11.8402 1.69336 11.335V4.02246L1.69824 3.92871C1.74513 3.46741 2.13473 3.10742 2.6084 3.10742Z" stroke="white"/>
        <line x1="3.9707" y1="9.52837" x2="9.9707" y2="9.52837" stroke="white" stroke-width="0.943258"/>
        <rect x="9.9707" y="5" width="0.876543" height="1.15932" fill="white"/>
    </g>
    <defs>
        <clipPath id="clip0_3509_5539">
            <rect width="16" height="16" fill="white" transform="translate(0.970703)"/>
        </clipPath>
    </defs>
</svg>