<svg width="23" height="25" viewBox="0 0 23 25" fill="none" xmlns="http://www.w3.org/2000/svg">
<g clip-path="url(#clip0_8908_17831)">
<path d="M13.6836 20.8252C13.6646 21.8217 13.3966 22.7027 12.9893 23.3291C12.5641 23.983 12.0278 24.3124 11.5 24.3125C10.9722 24.3125 10.4359 23.983 10.0107 23.3291C9.60351 22.7027 9.33445 21.8217 9.31543 20.8252C9.57724 20.8337 9.84662 20.8443 10.124 20.8496L11.5 20.8623C12.2818 20.8623 13.0084 20.847 13.6836 20.8252Z" fill="#F5F5F5" stroke="black" stroke-width="0.875"/>
<circle cx="11.4305" cy="2.12585" r="1.43585" fill="white" stroke="black" stroke-width="0.88"/>
<path d="M11.4365 3.55859C12.0445 3.55875 12.3657 3.55063 12.9023 3.64062C13.3433 3.71459 13.6413 3.83803 14.0312 4.00293C16.431 5.01812 18.1133 7.39452 18.1133 10.1621V14.6309C18.1133 15.6353 18.5833 16.5811 19.3818 17.1895C19.6497 17.3935 19.9667 17.6215 20.334 17.8672C20.4665 17.9557 20.5459 18.1059 20.5459 18.2666V20.1406C20.5459 20.3371 20.4268 20.5132 20.2461 20.5859C19.4358 20.912 17.2284 21.3974 11.4297 21.3975C5.6306 21.3975 3.4226 20.912 2.6123 20.5859C2.43163 20.5132 2.3125 20.3371 2.3125 20.1406V18.2666C2.3125 18.106 2.39197 17.9557 2.52441 17.8672H2.52539C2.8924 17.6216 3.20883 17.3934 3.47656 17.1895C4.27508 16.5811 4.74512 15.6354 4.74512 14.6309V10.2031C4.74512 6.95528 6.74681 4.04261 9.93848 3.64355C10.5309 3.5695 10.8422 3.55844 11.4365 3.55859Z" fill="#F5F5F5" stroke="black" stroke-width="0.875"/>
<path d="M1.39204 8.97985C1.44664 8.99382 1.50124 9.00017 1.55521 9.00017C1.85106 9.00017 2.12057 8.8005 2.19644 8.50052C2.20469 8.46782 3.06559 5.19881 6.28921 3.49256C6.61237 3.32146 6.73585 2.92085 6.56475 2.5977C6.39365 2.27454 5.99304 2.15106 5.66988 2.32216C4.80549 2.77959 4.0176 3.3713 3.32812 4.08046C2.77863 4.64551 2.2904 5.28611 1.87709 5.98384C1.17047 7.1771 0.923183 8.13483 0.913025 8.17514C0.823189 8.52972 1.03778 8.89002 1.39204 8.97985Z" fill="#70B62B"/>
<path d="M16.4991 3.49262C17.2327 3.88087 17.9029 4.38245 18.4911 4.98308C18.9654 5.46783 19.3889 6.01862 19.7489 6.61988C20.3666 7.65162 20.5886 8.48653 20.5924 8.50208C20.6689 8.80113 20.9381 9.00017 21.2333 9.00017C21.2873 9.00017 21.3419 8.99351 21.3965 8.97985C21.7511 8.89001 21.9654 8.53002 21.8755 8.17542C21.8654 8.1351 21.6181 7.17734 20.9114 5.98402C20.4981 5.28593 20.0098 4.64562 19.4603 4.08055C18.7708 3.37135 17.9829 2.77961 17.1184 2.32216C16.7953 2.15105 16.3946 2.27454 16.2235 2.59771C16.0524 2.92088 16.1759 3.32151 16.4991 3.49262Z" fill="#70B62B"/>
</g>
<defs>
<clipPath id="clip0_8908_17831">
<rect width="22.75" height="24.5" fill="white" transform="translate(0.125 0.25)"/>
</clipPath>
</defs>
</svg>
