<svg xmlns="http://www.w3.org/2000/svg" width="7" height="8" viewBox="0 0 7 8" fill="none">
    <mask id="mask0_2004_107" style="mask-type:luminance" maskUnits="userSpaceOnUse" x="0" y="0" width="8" height="8">
        <path d="M7.00537 0.0859375H0.00537109V7.19705H7.00537V0.0859375Z" fill="white"/>
    </mask>
    <g mask="url(#mask0_2004_107)">
        <path d="M3.50586 7.19705C5.43886 7.19705 7.00586 5.60517 7.00586 3.64149C7.00586 1.67781 5.43886 0.0859375 3.50586 0.0859375C1.57286 0.0859375 0.00585938 1.67781 0.00585938 3.64149C0.00585938 5.60517 1.57286 7.19705 3.50586 7.19705Z" fill="#6FAF2E"/>
        <path d="M3.55664 1.78516V4.03495" stroke="white" stroke-width="0.86956" stroke-linecap="round"/>
        <path d="M3.55639 5.81062C3.80359 5.81062 4.00389 5.60707 4.00389 5.35599C4.00389 5.10491 3.80359 4.90137 3.55639 4.90137C3.30919 4.90137 3.10889 5.10491 3.10889 5.35599C3.10889 5.60707 3.30919 5.81062 3.55639 5.81062Z" fill="white"/>
    </g>
</svg>