<svg xmlns="http://www.w3.org/2000/svg" width="14" height="8" viewBox="0 0 14 8" fill="none">
    <path d="M7.18487 6.96327L7.18381 6.96432C7.13779 7.00978 7.08324 7.04569 7.02329 7.06998C6.96334 7.09427 6.89917 7.10647 6.83449 7.10587C6.76981 7.10527 6.70589 7.09188 6.6464 7.06648C6.58691 7.04108 6.53303 7.00416 6.48787 6.95785L6.48673 6.9567L1.31412 1.68795C1.21914 1.59121 1.22058 1.43579 1.31733 1.34082C1.41407 1.24587 1.56946 1.2473 1.66443 1.34403L2.02122 0.993747L1.66443 1.34403L6.48736 6.25654L6.83761 6.6133L7.1944 6.26308L12.1073 1.44069C12.2042 1.34554 12.3599 1.34702 12.455 1.44401C12.5501 1.54091 12.5486 1.6965 12.4518 1.79159L7.18487 6.96327Z" fill="black" stroke="black"/>
</svg>