<svg xmlns="http://www.w3.org/2000/svg" width="19" height="25" viewBox="0 0 19 25" fill="none">
    <g clip-path="url(#clip0_2004_3)">
        <mask id="mask0_2004_3" style="mask-type:luminance" maskUnits="userSpaceOnUse" x="0" y="0" width="19" height="25">
            <path d="M19 0H0V25H19V0Z" fill="white"/>
        </mask>
        <g mask="url(#mask0_2004_3)">
            <mask id="mask1_2004_3" style="mask-type:luminance" maskUnits="userSpaceOnUse" x="-8" y="-5" width="35" height="35">
                <path d="M27 -5H-8V30H27V-5Z" fill="white"/>
            </mask>
            <g mask="url(#mask1_2004_3)">
                <mask id="mask2_2004_3" style="mask-type:luminance" maskUnits="userSpaceOnUse" x="-8" y="-5" width="35" height="35">
                    <path d="M27 -5H-8V30H27V-5Z" fill="white"/>
                </mask>
                <g mask="url(#mask2_2004_3)">
                    <mask id="mask3_2004_3" style="mask-type:luminance" maskUnits="userSpaceOnUse" x="-2" y="0" width="23" height="25">
                        <path d="M20.875 0.25H-1.875V24.75H20.875V0.25Z" fill="white"/>
                    </mask>
                    <g mask="url(#mask3_2004_3)">
                        <path d="M11.6836 20.8252C11.6646 21.8217 11.3966 22.7027 10.9893 23.3291C10.5641 23.983 10.0278 24.3124 9.50003 24.3125C8.97223 24.3125 8.43593 23.983 8.01073 23.3291C7.60353 22.7027 7.33453 21.8217 7.31543 20.8252C7.57723 20.8337 7.84663 20.8443 8.12403 20.8496L9.50003 20.8623C10.2818 20.8623 11.0084 20.847 11.6836 20.8252Z" fill="#F5F5F5" stroke="black" stroke-width="0.875"/>
                        <path d="M9.4295 3.56164C10.2225 3.56164 10.8654 2.91879 10.8654 2.12579C10.8654 1.33279 10.2225 0.689941 9.4295 0.689941C8.6365 0.689941 7.99365 1.33279 7.99365 2.12579C7.99365 2.91879 8.6365 3.56164 9.4295 3.56164Z" fill="white" stroke="black" stroke-width="0.88"/>
                        <path d="M9.4365 3.55873C10.0445 3.55888 10.3657 3.55076 10.9023 3.64076C11.3433 3.71472 11.6413 3.83817 12.0312 4.00306C14.431 5.01829 16.1133 7.39469 16.1133 10.1623V14.631C16.1133 15.6355 16.5833 16.5813 17.3818 17.1896C17.6497 17.3936 17.9667 17.6216 18.334 17.8673C18.4665 17.9559 18.5459 18.1061 18.5459 18.2667V20.1408C18.5459 20.3373 18.4268 20.5134 18.2461 20.5861C17.4358 20.9121 15.2284 21.3976 9.4297 21.3976C3.6306 21.3976 1.4226 20.9122 0.6123 20.5861C0.43163 20.5134 0.3125 20.3372 0.3125 20.1408V18.2667C0.3125 18.1061 0.39197 17.9559 0.52441 17.8673C0.89142 17.6217 1.20883 17.3935 1.47656 17.1896C2.2751 16.5813 2.7451 15.6356 2.7451 14.631V10.2033C2.7451 6.95539 4.7468 4.04275 7.9385 3.64369C8.5309 3.56964 8.8422 3.55857 9.4365 3.55873Z" fill="#F5F5F5" stroke="black" stroke-width="0.875"/>
                    </g>
                </g>
            </g>
        </g>
    </g>
    <defs>
        <clipPath id="clip0_2004_3">
            <rect width="19" height="25" fill="white"/>
        </clipPath>
    </defs>
</svg>