<svg xmlns="http://www.w3.org/2000/svg" width="307" height="71" viewBox="0 0 307 71" fill="none">
    <g clip-path="url(#clip0_5086_22332)">
        <path d="M174.23 58.1611C176.225 58.1869 178.149 57.3365 179.578 55.7968C181.006 54.2572 181.823 52.1546 181.849 49.9515C181.874 47.7483 181.106 45.6252 179.713 44.0491C178.32 42.473 176.417 41.573 174.422 41.5472C172.427 41.5214 170.503 42.3718 169.074 43.9114C167.645 45.451 166.828 47.5537 166.803 49.7568C166.777 51.96 167.546 54.0831 168.939 55.6592C170.331 57.2353 172.235 58.1353 174.23 58.1611Z" stroke="#B8DB95" stroke-width="4.41727"/>
        <path d="M271.96 52.8919C270.828 55.2283 267.962 56.0237 265.917 54.5446C261.885 51.6254 263.674 43.1691 269.247 44.5454C270.485 44.8518 271.343 45.5657 271.888 46.7543C271.917 46.818 271.959 46.8298 272.014 46.7897L274.127 45.2504C274.265 45.1488 274.287 45.0243 274.194 44.8766C272.908 42.8691 271.169 41.7804 268.977 41.6103C266.344 41.4048 264.237 42.2385 262.658 44.1114C260.324 46.8818 260.025 50.6335 261.723 53.9246C263.16 56.7127 265.803 58.438 268.853 58.0908C271.077 57.8375 273.568 56.6914 274.451 54.394C274.46 54.3693 274.461 54.342 274.453 54.3172C274.445 54.2925 274.429 54.2719 274.408 54.2594L272.091 52.8494C272.08 52.8428 272.068 52.8386 272.055 52.8372C272.042 52.8358 272.03 52.8371 272.017 52.841C272.005 52.845 271.994 52.8516 271.984 52.8603C271.974 52.8691 271.966 52.8798 271.96 52.8919Z" stroke="#B8DB95" stroke-width="4.41727"/>
        <path d="M296.046 58.1595C298.042 58.1817 299.964 57.3277 301.391 55.7854C302.817 54.2432 303.631 52.139 303.653 49.9359C303.675 47.7327 302.903 45.611 301.507 44.0374C300.111 42.4639 298.206 41.5675 296.21 41.5453C294.215 41.5232 292.292 42.3772 290.865 43.9194C289.439 45.4617 288.625 47.5658 288.603 49.769C288.581 51.9722 289.353 54.0939 290.749 55.6674C292.145 57.241 294.05 58.1374 296.046 58.1595Z" stroke="#B8DB95" stroke-width="4.41727"/>
        <path d="M129.361 52.5748C130.605 52.5618 131.847 52.5453 133.087 52.5252C134.165 52.5075 135.054 52.1804 135.756 51.5439C138.884 48.7098 138.176 43.2576 134.141 41.8866C133.697 41.7354 133.104 41.661 132.361 41.6634C130.365 41.6693 128.363 41.6716 126.357 41.6705C126.3 41.6705 126.271 41.7006 126.271 41.7608V57.9225C126.271 57.9815 126.299 58.011 126.355 58.011H129.199C129.255 58.011 129.283 57.9815 129.283 57.9225V52.6581C129.283 52.6026 129.309 52.5748 129.361 52.5748Z" stroke="#B8DB95" stroke-width="4.41727"/>
        <path d="M147.139 53.9369C147.151 53.9367 147.162 53.9405 147.172 53.9479C147.182 53.9552 147.189 53.9657 147.192 53.9776L148.446 57.9702C148.449 57.9822 148.456 57.9927 148.466 58C148.476 58.0073 148.487 58.0112 148.499 58.011H151.519C151.528 58.0109 151.536 58.0087 151.544 58.0044C151.552 58.0001 151.559 57.9938 151.564 57.9862C151.569 57.9786 151.572 57.9698 151.573 57.9605C151.575 57.9513 151.574 57.9418 151.571 57.933L145.938 41.7094C145.934 41.698 145.927 41.6882 145.918 41.6812C145.908 41.6742 145.897 41.6705 145.886 41.6704H142.884C142.873 41.6705 142.862 41.6742 142.853 41.6812C142.843 41.6882 142.836 41.698 142.833 41.7094L137.178 57.933C137.175 57.9418 137.174 57.9513 137.175 57.9605C137.176 57.9698 137.18 57.9786 137.185 57.9862C137.19 57.9938 137.196 58.0001 137.204 58.0044C137.212 58.0087 137.221 58.0109 137.23 58.011H140.249C140.261 58.0112 140.273 58.0073 140.283 58C140.292 57.9927 140.299 57.9822 140.303 57.9702L141.559 53.9776C141.563 53.9657 141.57 53.9552 141.58 53.9479C141.589 53.9405 141.601 53.9367 141.613 53.9369H147.139Z" stroke="#B8DB95" stroke-width="4.41727"/>
        <path d="M156.386 44.4603H164.332C164.388 44.4603 164.416 44.4307 164.416 44.3717V41.759C164.416 41.6999 164.388 41.6704 164.332 41.6704H153.374C153.318 41.6704 153.291 41.6999 153.291 41.759V57.9171C153.291 57.9702 153.316 57.9974 153.366 57.9986C157.049 58.0281 159.615 58.0281 161.065 57.9986C163.127 57.9572 164.528 57.0344 165.268 55.23C165.778 53.983 165.823 52.2329 165.3 51.0124C164.448 49.0285 162.586 48.3271 160.734 48.32C159.291 48.3153 157.842 48.3123 156.387 48.3111C156.33 48.3111 156.302 48.281 156.302 48.2208V44.5488C156.302 44.4898 156.33 44.4603 156.386 44.4603Z" stroke="#B8DB95" stroke-width="4.41727"/>
        <path d="M192.648 51.8113V57.9206C192.648 57.9441 192.657 57.9667 192.673 57.9833C192.689 57.9999 192.71 58.0092 192.732 58.0092L195.534 58.011C195.59 58.011 195.618 57.9815 195.618 57.9224V41.759C195.618 41.6999 195.59 41.6704 195.534 41.6704H192.732C192.676 41.6704 192.648 41.6999 192.648 41.759V48.8425C192.648 48.8666 192.641 48.8901 192.629 48.91C192.616 48.9299 192.598 48.9453 192.576 48.9541C191.51 49.4135 190.364 49.5889 189.137 49.4802C187.554 49.3385 186.76 48.4322 186.756 46.7612C186.753 45.0974 186.751 43.4305 186.751 41.7607C186.751 41.7005 186.722 41.6704 186.664 41.6704H183.914C183.864 41.6704 183.84 41.6964 183.84 41.7483C183.8 44.945 183.801 46.9844 183.845 47.8665C183.963 50.2531 185.084 51.6985 187.208 52.2028C188.991 52.6267 190.774 52.4744 192.556 51.7458C192.618 51.721 192.648 51.7428 192.648 51.8113Z" stroke="#B8DB95" stroke-width="4.41727"/>
        <path d="M201.808 44.5807C201.808 44.5605 201.816 44.5411 201.829 44.5269C201.843 44.5126 201.861 44.5045 201.88 44.5045H209.267C209.286 44.5045 209.304 44.4965 209.318 44.4822C209.331 44.468 209.339 44.4486 209.339 44.4284L209.337 41.7466C209.337 41.7366 209.335 41.7267 209.331 41.7174C209.328 41.7082 209.323 41.6998 209.316 41.6927C209.309 41.6856 209.301 41.68 209.293 41.6762C209.284 41.6724 209.274 41.6704 209.265 41.6704H198.869C198.859 41.6704 198.85 41.6724 198.841 41.6762C198.833 41.68 198.825 41.6856 198.818 41.6927C198.811 41.6998 198.806 41.7082 198.802 41.7174C198.799 41.7267 198.797 41.7366 198.797 41.7466V57.933C198.797 57.9532 198.804 57.9726 198.818 57.9869C198.831 58.0012 198.85 58.0092 198.869 58.0092H209.434C209.453 58.0092 209.471 58.0012 209.485 57.9869C209.498 57.9726 209.506 57.9532 209.506 57.933L209.504 55.253C209.504 55.2328 209.497 55.2134 209.483 55.1991C209.47 55.1849 209.451 55.1768 209.432 55.1768H201.879C201.86 55.1768 201.841 55.1688 201.828 55.1545C201.814 55.1402 201.807 55.1209 201.807 55.1007L201.808 51.0443C201.808 51.0241 201.816 51.0047 201.829 50.9905C201.843 50.9762 201.861 50.9681 201.88 50.9681H208.224C208.243 50.9681 208.262 50.9601 208.275 50.9458C208.289 50.9316 208.296 50.9122 208.296 50.892L208.295 48.4298C208.295 48.4198 208.293 48.4099 208.289 48.4007C208.286 48.3914 208.28 48.383 208.274 48.376C208.267 48.3689 208.259 48.3633 208.25 48.3595C208.241 48.3556 208.232 48.3537 208.223 48.3537L201.88 48.3572C201.861 48.3572 201.843 48.3492 201.829 48.3349C201.816 48.3206 201.808 48.3012 201.808 48.281V44.5807Z" stroke="#B8DB95" stroke-width="4.41727"/>
        <path d="M214.858 44.5807C214.858 44.5707 214.86 44.5608 214.863 44.5516C214.867 44.5423 214.872 44.5339 214.879 44.5269C214.886 44.5198 214.894 44.5142 214.902 44.5103C214.911 44.5065 214.92 44.5045 214.93 44.5045H222.273C222.282 44.5045 222.292 44.5026 222.3 44.4987C222.309 44.4949 222.317 44.4893 222.324 44.4822C222.33 44.4752 222.336 44.4668 222.339 44.4575C222.343 44.4483 222.345 44.4384 222.345 44.4284V41.7466C222.345 41.7366 222.343 41.7267 222.339 41.7174C222.336 41.7082 222.33 41.6998 222.324 41.6927C222.317 41.6856 222.309 41.68 222.3 41.6762C222.292 41.6724 222.282 41.6704 222.273 41.6704H211.875C211.865 41.6704 211.856 41.6724 211.847 41.6762C211.839 41.68 211.831 41.6856 211.824 41.6927C211.817 41.6998 211.812 41.7082 211.808 41.7174C211.805 41.7267 211.803 41.7366 211.803 41.7466V57.9348C211.803 57.955 211.811 57.9744 211.824 57.9887C211.838 58.0029 211.856 58.011 211.875 58.011L222.482 58.0092C222.491 58.0092 222.501 58.0072 222.509 58.0034C222.518 57.9996 222.526 57.994 222.533 57.9869C222.539 57.9798 222.545 57.9714 222.548 57.9622C222.552 57.9529 222.554 57.943 222.554 57.933V55.253C222.554 55.243 222.552 55.2331 222.548 55.2239C222.545 55.2146 222.539 55.2062 222.533 55.1991C222.526 55.1921 222.518 55.1865 222.509 55.1826C222.501 55.1788 222.491 55.1768 222.482 55.1768H214.928C214.909 55.1768 214.891 55.1688 214.877 55.1545C214.864 55.1402 214.856 55.1209 214.856 55.1007L214.858 51.0443C214.858 51.0343 214.86 51.0244 214.863 51.0152C214.867 51.0059 214.872 50.9975 214.879 50.9905C214.886 50.9834 214.894 50.9778 214.902 50.9739C214.911 50.9701 214.92 50.9681 214.93 50.9681H221.271C221.29 50.9681 221.308 50.9601 221.321 50.9458C221.335 50.9316 221.343 50.9122 221.343 50.892V48.4316C221.343 48.4114 221.335 48.392 221.321 48.3777C221.308 48.3635 221.29 48.3554 221.271 48.3554L214.928 48.3572C214.909 48.3572 214.891 48.3492 214.877 48.3349C214.864 48.3206 214.856 48.3012 214.856 48.281L214.858 44.5807Z" stroke="#B8DB95" stroke-width="4.41727"/>
        <path d="M242.63 47.5902V57.8994C242.63 57.9738 242.665 58.011 242.734 58.011H245.558C245.614 58.011 245.641 57.9815 245.641 57.9224V41.759C245.641 41.6999 245.614 41.6704 245.558 41.6704H242.505C242.478 41.6704 242.452 41.6781 242.429 41.6928C242.406 41.7074 242.387 41.7285 242.374 41.7537L237.895 50.7928C237.89 50.8036 237.882 50.8127 237.873 50.819C237.863 50.8253 237.852 50.8287 237.84 50.8287C237.829 50.8287 237.818 50.8253 237.808 50.819C237.798 50.8127 237.79 50.8036 237.785 50.7928L233.35 41.7554C233.337 41.7298 233.318 41.7083 233.295 41.6933C233.272 41.6783 233.245 41.6704 233.218 41.6704H230.124C230.068 41.6704 230.041 41.6999 230.041 41.759V57.8781C230.041 57.9667 230.082 58.011 230.166 58.011H233.01C233.066 58.011 233.094 57.9815 233.094 57.9224V47.5743C233.094 47.5655 233.097 47.5571 233.103 47.5503C233.108 47.5436 233.115 47.5389 233.123 47.5369C233.132 47.5349 233.14 47.5357 233.148 47.5393C233.155 47.5428 233.162 47.5489 233.166 47.5566L236.943 55.1822C236.971 55.2377 237.014 55.2654 237.072 55.2654H238.621C238.684 55.2654 238.729 55.2365 238.757 55.1786L242.53 47.5654C242.597 47.4296 242.63 47.4379 242.63 47.5902Z" stroke="#B8DB95" stroke-width="4.41727"/>
        <path d="M251.832 51.0337C251.832 51.0168 251.838 51.0006 251.849 50.9886C251.86 50.9766 251.876 50.9699 251.892 50.9699L258.256 50.9681C258.272 50.9681 258.287 50.9614 258.299 50.9495C258.31 50.9375 258.316 50.9213 258.316 50.9044V48.4192C258.316 48.4023 258.31 48.3861 258.299 48.3741C258.287 48.3621 258.272 48.3554 258.256 48.3554L251.89 48.3572C251.874 48.3572 251.859 48.3505 251.847 48.3385C251.836 48.3266 251.83 48.3103 251.83 48.2934L251.832 44.5683C251.832 44.5514 251.838 44.5352 251.849 44.5232C251.86 44.5113 251.876 44.5045 251.892 44.5045H259.3C259.316 44.5045 259.331 44.4978 259.342 44.4859C259.354 44.4739 259.36 44.4577 259.36 44.4408V41.7342C259.36 41.7258 259.359 41.7175 259.356 41.7098C259.353 41.702 259.348 41.695 259.342 41.6891C259.337 41.6832 259.33 41.6785 259.323 41.6753C259.316 41.6721 259.308 41.6704 259.3 41.6704H248.88C248.872 41.6704 248.865 41.6721 248.857 41.6753C248.85 41.6785 248.843 41.6832 248.838 41.6891C248.832 41.695 248.828 41.702 248.825 41.7098C248.822 41.7175 248.82 41.7258 248.82 41.7342V57.9472C248.82 57.9641 248.826 57.9803 248.838 57.9923C248.849 58.0043 248.864 58.011 248.88 58.011H259.467C259.483 58.011 259.498 58.0043 259.51 57.9923C259.521 57.9803 259.527 57.9641 259.527 57.9472V55.2406C259.527 55.2237 259.521 55.2075 259.51 55.1955C259.498 55.1836 259.483 55.1768 259.467 55.1768H251.892C251.876 55.1768 251.86 55.1701 251.849 55.1582C251.838 55.1462 251.832 55.13 251.832 55.1131V51.0337Z" stroke="#B8DB95" stroke-width="4.41727"/>
        <path d="M279.995 44.5045C280.004 44.5045 280.013 44.5064 280.022 44.5101C280.03 44.5137 280.038 44.5191 280.044 44.5258C280.05 44.5326 280.055 44.5406 280.059 44.5494C280.062 44.5582 280.064 44.5676 280.064 44.5772V57.9383C280.064 57.9576 280.071 57.9761 280.084 57.9897C280.097 58.0033 280.114 58.011 280.133 58.011H283.007C283.025 58.011 283.043 58.0033 283.055 57.9897C283.068 57.9761 283.076 57.9576 283.076 57.9383V44.5772C283.076 44.5579 283.083 44.5394 283.096 44.5258C283.108 44.5122 283.126 44.5045 283.144 44.5045H287.942C287.961 44.5045 287.978 44.4969 287.991 44.4833C288.004 44.4697 288.011 44.4512 288.011 44.4319V41.743C288.011 41.7238 288.004 41.7053 287.991 41.6917C287.978 41.6781 287.961 41.6704 287.942 41.6704H275.197C275.179 41.6704 275.162 41.6781 275.149 41.6917C275.136 41.7053 275.129 41.7238 275.129 41.743V44.4319C275.129 44.4512 275.136 44.4697 275.149 44.4833C275.162 44.4969 275.179 44.5045 275.197 44.5045H279.995Z" stroke="#B8DB95" stroke-width="4.41727"/>
        <path d="M174.323 55.3238C174.912 55.3249 175.495 55.1845 176.039 54.9106C176.583 54.6367 177.078 54.2347 177.495 53.7276C177.912 53.2204 178.243 52.618 178.47 51.9548C178.696 51.2916 178.813 50.5805 178.814 49.8622C178.816 49.1439 178.701 48.4324 178.477 47.7683C178.253 47.1043 177.923 46.5007 177.508 45.992C177.093 45.4833 176.599 45.0795 176.056 44.8036C175.513 44.5277 174.93 44.3851 174.341 44.384C173.753 44.383 173.17 44.5234 172.626 44.7972C172.081 45.0711 171.587 45.4731 171.169 45.9803C170.752 46.4874 170.421 47.0898 170.195 47.753C169.969 48.4163 169.852 49.1273 169.85 49.8456C169.849 50.5639 169.964 51.2754 170.188 51.9395C170.412 52.6035 170.741 53.2072 171.157 53.7159C171.572 54.2245 172.066 54.6284 172.609 54.9043C173.152 55.1802 173.735 55.3227 174.323 55.3238Z" stroke="#B8DB95" stroke-width="4.41727"/>
        <path d="M296.124 55.3238C296.713 55.3249 297.296 55.1845 297.84 54.9106C298.384 54.6367 298.879 54.2347 299.296 53.7276C299.713 53.2204 300.044 52.618 300.271 51.9548C300.497 51.2916 300.614 50.5805 300.615 49.8622C300.616 49.1439 300.502 48.4324 300.277 47.7683C300.053 47.1043 299.724 46.5007 299.309 45.992C298.893 45.4833 298.4 45.0795 297.857 44.8036C297.313 44.5277 296.731 44.3851 296.142 44.384C295.554 44.383 294.971 44.5234 294.426 44.7972C293.882 45.0711 293.387 45.4731 292.97 45.9803C292.553 46.4874 292.222 47.0898 291.996 47.753C291.769 48.4163 291.652 49.1273 291.651 49.8456C291.65 50.5639 291.765 51.2754 291.989 51.9395C292.213 52.6035 292.542 53.2072 292.958 53.7159C293.373 54.2245 293.866 54.6284 294.41 54.9043C294.953 55.1802 295.536 55.3227 296.124 55.3238Z" stroke="#B8DB95" stroke-width="4.41727"/>
        <path d="M129.283 44.5808V49.6575C129.283 49.6795 129.291 49.7007 129.306 49.7163C129.321 49.7319 129.341 49.7407 129.362 49.7407H132.599C133.138 49.7407 133.656 49.4931 134.037 49.0522C134.419 48.6114 134.633 48.0136 134.633 47.3901V46.8481C134.633 46.2247 134.419 45.6268 134.037 45.186C133.656 44.7452 133.138 44.4976 132.599 44.4976H129.362C129.341 44.4976 129.321 44.5063 129.306 44.5219C129.291 44.5376 129.283 44.5587 129.283 44.5808Z" stroke="#B8DB95" stroke-width="4.41727"/>
        <path d="M142.321 51.6042C142.318 51.6127 142.317 51.6216 142.318 51.6304C142.32 51.6393 142.323 51.6476 142.328 51.6549C142.333 51.6621 142.339 51.668 142.347 51.6722C142.354 51.6763 142.362 51.6785 142.371 51.6786H146.393C146.401 51.6785 146.409 51.6763 146.417 51.6722C146.424 51.668 146.431 51.6621 146.436 51.6549C146.44 51.6476 146.444 51.6393 146.445 51.6304C146.446 51.6216 146.446 51.6127 146.443 51.6042L144.432 45.2203C144.428 45.2095 144.421 45.2001 144.412 45.1935C144.403 45.1869 144.393 45.1833 144.382 45.1833C144.371 45.1833 144.36 45.1869 144.351 45.1935C144.342 45.2001 144.335 45.2095 144.332 45.2203L142.321 51.6042Z" stroke="#B8DB95" stroke-width="4.41727"/>
        <path d="M156.304 50.9117L156.297 55.1275C156.297 55.1519 156.307 55.1753 156.323 55.1926C156.339 55.2099 156.361 55.2196 156.384 55.2196L160.457 55.2267C160.734 55.2271 161.009 55.1713 161.266 55.0623C161.523 54.9534 161.756 54.7934 161.953 54.5916C162.15 54.3898 162.306 54.15 162.412 53.8861C162.519 53.6221 162.574 53.3391 162.575 53.0532V53.0072C162.575 52.4298 162.353 51.8758 161.958 51.4668C161.562 51.0579 161.024 50.8276 160.463 50.8267L156.391 50.8196C156.368 50.8196 156.346 50.8293 156.33 50.8466C156.313 50.8638 156.304 50.8873 156.304 50.9117Z" stroke="#B8DB95" stroke-width="4.41727"/>
        <path d="M20.5364 47.0486V70.5241C20.5364 70.5411 20.53 70.5573 20.5187 70.5692C20.5075 70.5812 20.4921 70.5879 20.4762 70.5879H0.185717C0.177808 70.5879 0.169976 70.5863 0.162669 70.5831C0.155361 70.5798 0.148722 70.5751 0.143129 70.5692C0.131834 70.5573 0.125488 70.5411 0.125488 70.5241V0.196825C0.125488 0.188451 0.127046 0.180159 0.130073 0.172422C0.1331 0.164685 0.137536 0.157655 0.143129 0.151734C0.154424 0.139775 0.169743 0.133057 0.185717 0.133057H58.8353C58.8462 0.133035 58.8569 0.136155 58.8663 0.142083C58.8756 0.148011 58.8833 0.156524 58.8885 0.166712C58.8936 0.1769 58.8961 0.188379 58.8955 0.199923C58.895 0.211467 58.8915 0.222642 58.8855 0.232251L47.1525 19.4565C47.1469 19.4655 47.1391 19.4729 47.1301 19.4778C47.121 19.4828 47.1109 19.4852 47.1007 19.4849H20.5966C20.5806 19.4849 20.5653 19.4916 20.554 19.5036C20.5427 19.5155 20.5364 19.5317 20.5364 19.5487V27.525C20.5364 27.5419 20.5427 27.5581 20.554 27.5701C20.5653 27.582 20.5806 27.5887 20.5966 27.5887H42.6889C42.6971 27.5887 42.7052 27.5905 42.7128 27.5939C42.7203 27.5973 42.7271 27.6024 42.7327 27.6087C42.7384 27.615 42.7427 27.6224 42.7455 27.6306C42.7484 27.6387 42.7496 27.6474 42.7491 27.6561L41.8942 46.9246C41.8934 46.9409 41.8866 46.9563 41.8754 46.9675C41.8642 46.9787 41.8494 46.9849 41.834 46.9849H20.5966C20.5806 46.9849 20.5653 46.9916 20.554 47.0035C20.5427 47.0155 20.5364 47.0317 20.5364 47.0486Z" fill="#151515"/>
        <path d="M80.7667 19.5912C80.8347 19.5203 80.8208 19.4849 80.7248 19.4849H52.3219C52.2505 19.4849 52.2344 19.4536 52.2734 19.391L64.1585 0.210995C64.1909 0.159036 64.2366 0.133057 64.2957 0.133057H105.107C105.119 0.133057 105.129 0.137722 105.137 0.146027C105.145 0.154332 105.149 0.165595 105.149 0.17734V19.4052C105.149 19.4654 105.129 19.5168 105.087 19.5593C96.9415 28.1024 89.2807 37.8837 83.6192 48.5791C80.9407 53.6415 78.7523 59.3488 78.1333 65.1039C77.9526 66.7902 78.0028 68.6961 78.0045 70.4976C78.0045 70.5578 77.9766 70.5879 77.9209 70.5879H54.4584C54.4004 70.5879 54.3697 70.5572 54.3663 70.4958C54.2013 67.1066 54.4511 63.8893 55.1159 60.8438C56.6132 53.987 59.9091 47.2293 63.6048 41.3113C68.5335 33.4182 74.4309 26.2266 80.7667 19.5912Z" fill="#70B62B"/>
        <path d="M132.762 30.6026C130.767 30.5768 128.863 29.677 127.47 28.1012C126.076 26.5255 125.308 24.4028 125.333 22.2001C125.346 21.1095 125.553 20.032 125.943 19.0293C126.333 18.0265 126.897 17.1181 127.605 16.356C128.313 15.5938 129.149 14.9928 130.067 14.5872C130.985 14.1816 131.966 13.9795 132.954 13.9923C134.95 14.0181 136.853 14.9179 138.247 16.4936C139.64 18.0694 140.408 20.1921 140.383 22.3948C140.37 23.4854 140.163 24.5629 139.773 25.5656C139.384 26.5684 138.819 27.4767 138.111 28.2389C137.403 29.0011 136.567 29.6021 135.649 30.0077C134.731 30.4132 133.75 30.6154 132.762 30.6026ZM132.854 27.7709C133.443 27.7719 134.026 27.6315 134.57 27.3575C135.114 27.0836 135.609 26.6814 136.026 26.1741C136.443 25.6668 136.774 25.0642 137.001 24.4008C137.227 23.7373 137.344 23.026 137.345 22.3075C137.346 21.5889 137.232 20.8772 137.007 20.213C136.783 19.5487 136.454 18.9449 136.039 18.436C135.623 17.9272 135.13 17.5232 134.587 17.2472C134.043 16.9712 133.461 16.8286 132.872 16.8276C132.284 16.8265 131.7 16.9669 131.156 17.2409C130.612 17.5149 130.117 17.917 129.7 18.4243C129.283 18.9316 128.952 19.5342 128.726 20.1976C128.499 20.8611 128.382 21.5724 128.381 22.2909C128.38 23.0095 128.495 23.7212 128.719 24.3855C128.943 25.0497 129.272 25.6535 129.687 26.1624C130.103 26.6713 130.596 27.0752 131.14 27.3512C131.683 27.6272 132.265 27.7698 132.854 27.7709Z" fill="#151515"/>
        <path d="M223.773 30.6029C221.778 30.5845 219.871 29.6918 218.473 28.1211C217.074 26.5505 216.299 24.4307 216.317 22.2279C216.326 21.1372 216.529 20.059 216.916 19.0549C217.302 18.0507 217.864 17.1402 218.569 16.3754C219.275 15.6107 220.109 15.0066 221.026 14.5976C221.942 14.1886 222.922 13.9829 223.91 13.992C225.906 14.0104 227.813 14.9032 229.211 16.4738C230.61 18.0444 231.385 20.1642 231.367 22.367C231.358 23.4577 231.154 24.5359 230.768 25.5401C230.381 26.5442 229.82 27.4547 229.114 28.2195C228.409 28.9843 227.575 29.5884 226.658 29.9973C225.742 30.4063 224.762 30.6121 223.773 30.6029ZM223.836 27.7709C224.425 27.772 225.007 27.6315 225.552 27.3575C226.096 27.0836 226.59 26.6814 227.007 26.1741C227.424 25.6668 227.755 25.0642 227.981 24.4008C228.207 23.7373 228.324 23.026 228.326 22.3075C228.327 21.589 228.212 20.8772 227.988 20.213C227.764 19.5487 227.435 18.9449 227.02 18.436C226.605 17.9272 226.111 17.5232 225.568 17.2472C225.025 16.9713 224.443 16.8287 223.854 16.8276C223.266 16.8265 222.683 16.9669 222.139 17.2409C221.595 17.5149 221.1 17.917 220.684 18.4243C220.267 18.9317 219.936 19.5342 219.709 20.1977C219.483 20.8611 219.366 21.5724 219.365 22.291C219.364 23.0095 219.478 23.7212 219.703 24.3855C219.927 25.0498 220.256 25.6536 220.671 26.1624C221.086 26.6713 221.579 27.0752 222.122 27.3512C222.666 27.6272 223.248 27.7698 223.836 27.7709Z" fill="#151515"/>
        <path d="M145.802 20.7599C147.368 20.7681 148.933 20.787 150.497 20.8166C153.448 20.8715 155.32 22.928 155.048 26.0508C154.857 28.2379 153.828 29.6177 151.962 30.1905C151.356 30.377 150.31 30.4703 148.824 30.4703C146.814 30.4703 144.804 30.4686 142.793 30.465C142.737 30.465 142.709 30.4355 142.709 30.3764V14.2148C142.709 14.1557 142.737 14.1262 142.793 14.1262H153.751C153.807 14.1262 153.835 14.1557 153.835 14.2148V16.7832C153.835 16.8423 153.807 16.8718 153.751 16.8718H145.804C145.748 16.8718 145.72 16.9013 145.72 16.9604V20.6731C145.72 20.7298 145.748 20.7587 145.802 20.7599ZM145.717 23.3708L145.724 27.5901C145.724 27.6013 145.726 27.6124 145.73 27.6227C145.734 27.633 145.74 27.6424 145.747 27.6503C145.755 27.6582 145.764 27.6644 145.773 27.6687C145.783 27.673 145.794 27.6752 145.804 27.6752L149.926 27.6681C150.474 27.6671 150.999 27.4398 151.385 27.0362C151.772 26.6326 151.988 26.0857 151.988 25.5159V25.4238C151.987 25.1416 151.933 24.8623 151.829 24.6018C151.725 24.3413 151.573 24.1047 151.381 23.9055C151.189 23.7063 150.961 23.5484 150.71 23.4409C150.459 23.3333 150.191 23.2782 149.92 23.2787L145.797 23.2858C145.776 23.2858 145.756 23.2948 145.741 23.3107C145.726 23.3266 145.717 23.3483 145.717 23.3708Z" fill="#151515"/>
        <path d="M162.459 17.0348C162.404 20.1984 162.357 23.5816 161.536 26.5716C160.769 29.3562 158.949 30.5731 156.264 30.5554C156.206 30.5554 156.177 30.5246 156.177 30.4632V27.9072C156.177 27.8482 156.204 27.8163 156.259 27.8116C157.558 27.7005 158.386 26.9418 158.742 25.5354C159.05 24.3191 159.236 23.2758 159.302 22.4054C159.5 19.7827 159.616 17.095 159.652 14.3423C159.654 14.1983 159.723 14.1262 159.859 14.1262H169.854C169.91 14.1262 169.938 14.1557 169.938 14.2148V30.3782C169.938 30.4373 169.91 30.4668 169.854 30.4668H167.01C166.954 30.4668 166.926 30.4373 166.926 30.3782V17.0046C166.926 16.9456 166.898 16.9161 166.843 16.9161H162.573C162.498 16.9161 162.46 16.9556 162.459 17.0348Z" fill="#151515"/>
        <path d="M181.629 26.3927H176.093C176.081 26.3924 176.069 26.3962 176.059 26.4035C176.049 26.4108 176.041 26.4213 176.037 26.4335L174.783 30.426C174.779 30.4382 174.771 30.4487 174.761 30.456C174.751 30.4633 174.74 30.4671 174.727 30.4668H171.713C171.703 30.4668 171.694 30.4645 171.686 30.46C171.678 30.4555 171.671 30.449 171.666 30.441C171.66 30.4329 171.657 30.4237 171.656 30.414C171.655 30.4043 171.656 30.3944 171.659 30.3853L177.312 14.1652C177.316 14.1537 177.324 14.1438 177.333 14.1368C177.343 14.1299 177.354 14.1262 177.366 14.1262H180.374C180.386 14.1262 180.397 14.1299 180.406 14.1368C180.416 14.1438 180.423 14.1537 180.427 14.1652L186.059 30.3853C186.062 30.3944 186.063 30.4043 186.062 30.414C186.061 30.4237 186.058 30.4329 186.052 30.441C186.047 30.449 186.04 30.4555 186.032 30.46C186.024 30.4645 186.015 30.4668 186.005 30.4668H182.994C182.982 30.4671 182.97 30.4633 182.96 30.456C182.95 30.4487 182.943 30.4382 182.939 30.426L181.684 26.4335C181.68 26.4213 181.673 26.4108 181.663 26.4035C181.653 26.3962 181.641 26.3924 181.629 26.3927ZM176.799 24.0652C176.796 24.0732 176.796 24.0817 176.797 24.09C176.798 24.0983 176.802 24.1061 176.806 24.1128C176.811 24.1196 176.817 24.125 176.824 24.1288C176.831 24.1325 176.839 24.1344 176.847 24.1343H180.889C180.897 24.1344 180.905 24.1325 180.912 24.1288C180.919 24.125 180.925 24.1196 180.93 24.1128C180.935 24.1061 180.938 24.0983 180.939 24.09C180.941 24.0817 180.94 24.0732 180.938 24.0652L178.915 17.6423C178.911 17.6323 178.905 17.6237 178.897 17.6176C178.888 17.6115 178.878 17.6083 178.868 17.6083C178.858 17.6083 178.848 17.6115 178.84 17.6176C178.831 17.6237 178.825 17.6323 178.821 17.6423L176.799 24.0652Z" fill="#151515"/>
        <path d="M194.879 24.1821C191.689 25.5035 186.286 25.2839 186.151 20.3525C186.107 18.7665 186.103 16.7177 186.137 14.2059C186.139 14.1528 186.164 14.1262 186.214 14.1262H188.967C189.026 14.1262 189.055 14.1581 189.055 14.2219C189.044 16.5553 189.049 18.3137 189.07 19.4969C189.127 22.6658 193.055 22.1964 194.866 21.3922C194.921 21.3674 194.949 21.3232 194.949 21.2594V14.2148C194.949 14.1557 194.977 14.1262 195.033 14.1262H197.835C197.891 14.1262 197.919 14.1557 197.919 14.2148V30.3782C197.919 30.4373 197.891 30.4668 197.835 30.4668H195.033C194.977 30.4668 194.949 30.4373 194.949 30.3782V24.2335C194.949 24.1803 194.926 24.1632 194.879 24.1821Z" fill="#151515"/>
        <path d="M211.042 20.6557L211.069 14.1992C211.069 14.1808 211.076 14.1633 211.088 14.1503C211.1 14.1373 211.117 14.1301 211.134 14.1301L214 14.1248C214.017 14.1248 214.034 14.132 214.046 14.145C214.058 14.1579 214.065 14.1755 214.065 14.1938L214.064 30.398C214.064 30.4071 214.062 30.4161 214.059 30.4244C214.055 30.4328 214.051 30.4404 214.044 30.4469C214.038 30.4533 214.031 30.4584 214.023 30.4618C214.015 30.4653 214.007 30.4671 213.998 30.4671H211.117C211.1 30.4671 211.084 30.4598 211.071 30.4469C211.059 30.4339 211.052 30.4163 211.052 30.398L211.05 23.5837C211.05 23.5654 211.044 23.5478 211.031 23.5348C211.019 23.5219 211.003 23.5146 210.985 23.5146H204.174C204.166 23.5146 204.157 23.5164 204.149 23.5199C204.141 23.5233 204.134 23.5284 204.128 23.5348C204.122 23.5413 204.117 23.5489 204.114 23.5572C204.111 23.5656 204.109 23.5746 204.109 23.5837V30.398C204.109 30.4071 204.107 30.4161 204.104 30.4244C204.101 30.4328 204.096 30.4404 204.09 30.4469C204.084 30.4533 204.077 30.4584 204.069 30.4618C204.061 30.4653 204.052 30.4671 204.044 30.4671H201.163C201.146 30.4671 201.129 30.4598 201.117 30.4469C201.105 30.4339 201.098 30.4163 201.098 30.398V14.1956C201.098 14.1773 201.105 14.1597 201.117 14.1468C201.129 14.1338 201.146 14.1265 201.163 14.1265H204.044C204.052 14.1265 204.061 14.1283 204.069 14.1318C204.077 14.1353 204.084 14.1403 204.09 14.1468C204.096 14.1532 204.101 14.1608 204.104 14.1692C204.107 14.1776 204.109 14.1865 204.109 14.1956V20.6557C204.109 20.6647 204.111 20.6737 204.114 20.6821C204.117 20.6905 204.122 20.6981 204.128 20.7045C204.134 20.7109 204.141 20.716 204.149 20.7195C204.157 20.723 204.166 20.7248 204.174 20.7248H210.977C210.994 20.7248 211.011 20.7175 211.023 20.7045C211.035 20.6916 211.042 20.674 211.042 20.6557Z" fill="#151515"/>
        <path d="M236.649 23.5019V27.5565C236.649 27.5665 236.651 27.5764 236.655 27.5856C236.658 27.5949 236.664 27.6033 236.67 27.6103C236.677 27.6174 236.685 27.623 236.694 27.6269C236.703 27.6307 236.712 27.6326 236.721 27.6326H244.315C244.334 27.6326 244.353 27.6407 244.366 27.655C244.38 27.6692 244.387 27.6886 244.387 27.7088V30.3906C244.387 30.4108 244.38 30.4302 244.366 30.4445C244.353 30.4588 244.334 30.4668 244.315 30.4668H233.71C233.691 30.4668 233.673 30.4588 233.659 30.4445C233.646 30.4302 233.638 30.4108 233.638 30.3906V14.2042C233.638 14.184 233.646 14.1646 233.659 14.1503C233.673 14.136 233.691 14.128 233.71 14.128L244.108 14.1262C244.117 14.1262 244.127 14.1282 244.135 14.132C244.144 14.1358 244.152 14.1415 244.159 14.1485C244.165 14.1556 244.171 14.164 244.174 14.1732C244.178 14.1825 244.18 14.1924 244.18 14.2024L244.178 16.8399C244.178 16.8601 244.17 16.8795 244.157 16.8938C244.143 16.908 244.125 16.9161 244.106 16.9161H236.721C236.712 16.9161 236.703 16.918 236.694 16.9219C236.685 16.9257 236.677 16.9313 236.67 16.9384C236.664 16.9455 236.658 16.9539 236.655 16.9631C236.651 16.9723 236.649 16.9822 236.649 16.9922L236.651 20.7351C236.651 20.7553 236.659 20.7746 236.672 20.7889C236.686 20.8032 236.704 20.8112 236.723 20.8112L243.06 20.813C243.079 20.813 243.098 20.821 243.111 20.8353C243.125 20.8496 243.132 20.869 243.132 20.8892V23.3496C243.132 23.3698 243.125 23.3891 243.111 23.4034C243.098 23.4177 243.079 23.4257 243.06 23.4257H236.721C236.712 23.4257 236.703 23.4277 236.694 23.4315C236.685 23.4354 236.677 23.441 236.67 23.448C236.664 23.4551 236.658 23.4635 236.655 23.4727C236.651 23.482 236.649 23.4919 236.649 23.5019Z" fill="#151515"/>
        <path d="M306.96 60.1716C306.96 60.1838 306.956 60.1956 306.948 60.2045C306.94 60.2133 306.929 60.2185 306.918 60.2188L118.463 65.4437C118.451 65.444 118.44 65.4395 118.432 65.431C118.423 65.4226 118.418 65.4111 118.418 65.3988L117.737 37.8676C117.737 37.8554 117.741 37.8435 117.749 37.8347C117.757 37.8258 117.768 37.8206 117.779 37.8203L306.235 32.5955C306.246 32.5952 306.257 32.5997 306.266 32.6081C306.274 32.6165 306.279 32.6281 306.279 32.6403L306.96 60.1716ZM174.23 58.1608C176.225 58.1866 178.149 57.3362 179.578 55.7966C181.006 54.257 181.823 52.1543 181.849 49.9512C181.874 47.7481 181.106 45.6249 179.713 44.0488C178.32 42.4727 176.417 41.5727 174.422 41.5469C172.426 41.5211 170.503 42.3716 169.074 43.9112C167.645 45.4508 166.828 47.5534 166.803 49.7566C166.777 51.9597 167.546 54.0828 168.938 55.659C170.331 57.2351 172.235 58.135 174.23 58.1608ZM271.96 52.8917C270.828 55.2281 267.962 56.0234 265.917 54.5444C261.885 51.6252 263.674 43.1689 269.246 44.5452C270.485 44.8516 271.343 45.5655 271.888 46.754C271.917 46.8178 271.959 46.8296 272.014 46.7895L274.127 45.2502C274.265 45.1486 274.287 45.024 274.194 44.8764C272.908 42.8689 271.169 41.7801 268.977 41.6101C266.344 41.4046 264.237 42.2383 262.658 44.1112C260.324 46.8816 260.025 50.6333 261.723 53.9244C263.16 56.7125 265.803 58.4378 268.853 58.0906C271.077 57.8373 273.568 56.6912 274.451 54.3938C274.46 54.3691 274.461 54.3418 274.453 54.317C274.445 54.2923 274.429 54.2717 274.408 54.2592L272.091 52.8492C272.08 52.8426 272.067 52.8384 272.055 52.837C272.042 52.8355 272.029 52.8368 272.017 52.8408C272.005 52.8448 271.994 52.8513 271.984 52.8601C271.974 52.8688 271.966 52.8796 271.96 52.8917ZM296.046 58.1592C298.042 58.1813 299.965 57.3273 301.391 55.7851C302.818 54.2429 303.632 52.1387 303.654 49.9355C303.675 47.7324 302.903 45.6106 301.508 44.0371C300.112 42.4636 298.207 41.5671 296.211 41.545C294.215 41.5229 292.292 42.3769 290.866 43.9191C289.439 45.4613 288.626 47.5655 288.604 49.7687C288.582 51.9719 289.354 54.0936 290.75 55.6671C292.145 57.2406 294.051 58.1371 296.046 58.1592ZM129.362 52.5746C130.605 52.5617 131.847 52.5451 133.087 52.525C134.165 52.5073 135.054 52.1802 135.756 51.5437C138.884 48.7096 138.177 43.2574 134.141 41.8864C133.697 41.7353 133.104 41.6609 132.361 41.6632C130.365 41.6691 128.363 41.6715 126.357 41.6703C126.3 41.6703 126.271 41.7004 126.271 41.7606V57.9223C126.271 57.9813 126.299 58.0109 126.355 58.0109H129.199C129.255 58.0109 129.283 57.9813 129.283 57.9223V52.6579C129.283 52.6024 129.309 52.5746 129.362 52.5746ZM147.139 53.9368C147.151 53.9366 147.163 53.9404 147.172 53.9478C147.182 53.9551 147.189 53.9656 147.193 53.9775L148.446 57.9701C148.449 57.9821 148.456 57.9926 148.466 57.9999C148.476 58.0072 148.487 58.0111 148.499 58.0109H151.519C151.528 58.0108 151.537 58.0086 151.544 58.0043C151.552 57.9999 151.559 57.9937 151.564 57.9861C151.569 57.9785 151.572 57.9696 151.574 57.9604C151.575 57.9512 151.574 57.9417 151.571 57.9329L145.938 41.7093C145.934 41.6979 145.927 41.6881 145.918 41.6811C145.908 41.6741 145.897 41.6703 145.886 41.6703H142.885C142.873 41.6703 142.862 41.6741 142.853 41.6811C142.844 41.6881 142.837 41.6979 142.833 41.7093L137.178 57.9329C137.175 57.9417 137.174 57.9512 137.175 57.9604C137.176 57.9696 137.18 57.9785 137.185 57.9861C137.19 57.9937 137.197 57.9999 137.204 58.0043C137.212 58.0086 137.221 58.0108 137.23 58.0109H140.25C140.261 58.0111 140.273 58.0072 140.283 57.9999C140.292 57.9926 140.3 57.9821 140.303 57.9701L141.56 53.9775C141.563 53.9656 141.57 53.9551 141.58 53.9478C141.59 53.9404 141.601 53.9366 141.613 53.9368H147.139ZM156.386 44.4602H164.333C164.389 44.4602 164.416 44.4306 164.416 44.3716V41.7589C164.416 41.6998 164.389 41.6703 164.333 41.6703H153.374C153.319 41.6703 153.291 41.6998 153.291 41.7589V57.917C153.291 57.9701 153.316 57.9973 153.366 57.9985C157.049 58.028 159.615 58.028 161.065 57.9985C163.128 57.9571 164.529 57.0343 165.268 55.2299C165.778 53.9829 165.823 52.2328 165.3 51.0123C164.448 49.0284 162.586 48.327 160.734 48.3199C159.291 48.3152 157.842 48.3122 156.388 48.311C156.331 48.311 156.302 48.2809 156.302 48.2207V44.5487C156.302 44.4897 156.33 44.4602 156.386 44.4602ZM192.649 51.8112V57.9205C192.649 57.944 192.658 57.9666 192.673 57.9832C192.689 57.9998 192.71 58.0091 192.732 58.0091L195.535 58.0109C195.59 58.0109 195.618 57.9813 195.618 57.9223V41.7589C195.618 41.6998 195.59 41.6703 195.535 41.6703H192.732C192.677 41.6703 192.649 41.6998 192.649 41.7589V48.8424C192.649 48.8665 192.642 48.89 192.629 48.9099C192.616 48.9298 192.598 48.9452 192.577 48.954C191.511 49.4134 190.364 49.5888 189.137 49.4801C187.554 49.3384 186.761 48.4321 186.756 46.7611C186.753 45.0972 186.751 43.4304 186.751 41.7606C186.751 41.7004 186.722 41.6703 186.664 41.6703H183.914C183.865 41.6703 183.84 41.6963 183.84 41.7482C183.8 44.9449 183.802 46.9843 183.845 47.8664C183.964 50.253 185.084 51.6984 187.208 52.2027C188.991 52.6266 190.774 52.4743 192.557 51.7457C192.618 51.7209 192.649 51.7427 192.649 51.8112ZM201.809 44.5806C201.809 44.5604 201.816 44.541 201.83 44.5268C201.843 44.5125 201.861 44.5044 201.88 44.5044H209.267C209.286 44.5044 209.304 44.4964 209.318 44.4821C209.331 44.4678 209.339 44.4485 209.339 44.4283L209.337 41.7465C209.337 41.7365 209.335 41.7266 209.332 41.7173C209.328 41.7081 209.323 41.6997 209.316 41.6926C209.309 41.6855 209.301 41.6799 209.293 41.6761C209.284 41.6723 209.275 41.6703 209.265 41.6703H198.869C198.86 41.6703 198.85 41.6723 198.842 41.6761C198.833 41.6799 198.825 41.6855 198.818 41.6926C198.811 41.6997 198.806 41.7081 198.803 41.7173C198.799 41.7266 198.797 41.7365 198.797 41.7465V57.9329C198.797 57.9531 198.805 57.9725 198.818 57.9868C198.832 58.0011 198.85 58.0091 198.869 58.0091H209.434C209.453 58.0091 209.472 58.0011 209.485 57.9868C209.499 57.9725 209.506 57.9531 209.506 57.9329L209.504 55.2529C209.504 55.2327 209.497 55.2133 209.483 55.199C209.47 55.1848 209.452 55.1767 209.433 55.1767H201.879C201.86 55.1767 201.841 55.1687 201.828 55.1544C201.814 55.1401 201.807 55.1208 201.807 55.1006L201.809 51.0442C201.809 51.024 201.816 51.0046 201.83 50.9904C201.843 50.9761 201.861 50.968 201.88 50.968H208.225C208.244 50.968 208.262 50.96 208.275 50.9457C208.289 50.9314 208.297 50.9121 208.297 50.8919L208.295 48.4297C208.295 48.4197 208.293 48.4098 208.289 48.4006C208.286 48.3913 208.28 48.3829 208.274 48.3759C208.267 48.3688 208.259 48.3632 208.25 48.3594C208.242 48.3555 208.232 48.3536 208.223 48.3536L201.88 48.3571C201.861 48.3571 201.843 48.3491 201.83 48.3348C201.816 48.3205 201.809 48.3011 201.809 48.2809V44.5806ZM214.858 44.5806C214.858 44.5706 214.86 44.5607 214.864 44.5515C214.867 44.5422 214.873 44.5338 214.879 44.5268C214.886 44.5197 214.894 44.5141 214.903 44.5102C214.911 44.5064 214.921 44.5044 214.93 44.5044H222.273C222.282 44.5044 222.292 44.5025 222.3 44.4986C222.309 44.4948 222.317 44.4892 222.324 44.4821C222.331 44.4751 222.336 44.4667 222.339 44.4574C222.343 44.4482 222.345 44.4383 222.345 44.4283V41.7465C222.345 41.7365 222.343 41.7266 222.339 41.7173C222.336 41.7081 222.331 41.6997 222.324 41.6926C222.317 41.6855 222.309 41.6799 222.3 41.6761C222.292 41.6723 222.282 41.6703 222.273 41.6703H211.875C211.866 41.6703 211.856 41.6723 211.848 41.6761C211.839 41.6799 211.831 41.6855 211.824 41.6926C211.818 41.6997 211.812 41.7081 211.809 41.7173C211.805 41.7266 211.803 41.7365 211.803 41.7465V57.9347C211.803 57.9549 211.811 57.9743 211.824 57.9886C211.838 58.0028 211.856 58.0109 211.875 58.0109L222.482 58.0091C222.492 58.0091 222.501 58.0071 222.51 58.0033C222.518 57.9995 222.526 57.9939 222.533 57.9868C222.54 57.9797 222.545 57.9713 222.549 57.9621C222.552 57.9528 222.554 57.9429 222.554 57.9329V55.2529C222.554 55.2429 222.552 55.233 222.549 55.2238C222.545 55.2145 222.54 55.2061 222.533 55.199C222.526 55.192 222.518 55.1864 222.51 55.1825C222.501 55.1787 222.492 55.1767 222.482 55.1767H214.928C214.909 55.1767 214.891 55.1687 214.878 55.1544C214.864 55.1401 214.856 55.1208 214.856 55.1006L214.858 51.0442C214.858 51.0342 214.86 51.0243 214.864 51.0151C214.867 51.0058 214.873 50.9974 214.879 50.9904C214.886 50.9833 214.894 50.9777 214.903 50.9738C214.911 50.97 214.921 50.968 214.93 50.968H221.271C221.29 50.968 221.308 50.96 221.322 50.9457C221.335 50.9314 221.343 50.9121 221.343 50.8919V48.4315C221.343 48.4113 221.335 48.3919 221.322 48.3776C221.308 48.3633 221.29 48.3553 221.271 48.3553L214.928 48.3571C214.909 48.3571 214.891 48.3491 214.878 48.3348C214.864 48.3205 214.856 48.3011 214.856 48.2809L214.858 44.5806ZM242.63 47.5901V57.8993C242.63 57.9737 242.665 58.0109 242.734 58.0109H245.558C245.614 58.0109 245.642 57.9813 245.642 57.9223V41.7589C245.642 41.6998 245.614 41.6703 245.558 41.6703H242.505C242.478 41.6703 242.452 41.678 242.429 41.6927C242.406 41.7073 242.387 41.7284 242.374 41.7536L237.896 50.7927C237.89 50.8035 237.883 50.8126 237.873 50.8189C237.863 50.8252 237.852 50.8286 237.84 50.8286C237.829 50.8286 237.818 50.8252 237.808 50.8189C237.798 50.8126 237.79 50.8035 237.785 50.7927L233.35 41.7553C233.338 41.7297 233.319 41.7082 233.295 41.6932C233.272 41.6782 233.245 41.6703 233.218 41.6703H230.124C230.069 41.6703 230.041 41.6998 230.041 41.7589V57.878C230.041 57.9666 230.083 58.0109 230.166 58.0109H233.01C233.066 58.0109 233.094 57.9813 233.094 57.9223V47.5742C233.095 47.5654 233.098 47.557 233.103 47.5502C233.108 47.5435 233.116 47.5388 233.124 47.5368C233.132 47.5348 233.14 47.5356 233.148 47.5392C233.156 47.5427 233.162 47.5488 233.166 47.5565L236.944 55.1821C236.972 55.2376 237.015 55.2653 237.073 55.2653H238.622C238.684 55.2653 238.729 55.2364 238.757 55.1785L242.53 47.5653C242.597 47.4295 242.63 47.4378 242.63 47.5901ZM251.832 51.0336C251.832 51.0167 251.838 51.0005 251.85 50.9885C251.861 50.9765 251.876 50.9698 251.892 50.9698L258.256 50.968C258.272 50.968 258.288 50.9613 258.299 50.9494C258.31 50.9374 258.317 50.9212 258.317 50.9043V48.4191C258.317 48.4022 258.31 48.386 258.299 48.374C258.288 48.362 258.272 48.3553 258.256 48.3553L251.891 48.3571C251.875 48.3571 251.859 48.3504 251.848 48.3384C251.837 48.3265 251.83 48.3102 251.83 48.2933L251.832 44.5682C251.832 44.5513 251.838 44.5351 251.85 44.5231C251.861 44.5112 251.876 44.5044 251.892 44.5044H259.3C259.316 44.5044 259.332 44.4977 259.343 44.4858C259.354 44.4738 259.361 44.4576 259.361 44.4407V41.7341C259.361 41.7257 259.359 41.7174 259.356 41.7097C259.353 41.7019 259.349 41.6949 259.343 41.689C259.337 41.6831 259.331 41.6784 259.323 41.6752C259.316 41.672 259.308 41.6703 259.3 41.6703H248.881C248.873 41.6703 248.865 41.672 248.858 41.6752C248.85 41.6784 248.844 41.6831 248.838 41.689C248.833 41.6949 248.828 41.7019 248.825 41.7097C248.822 41.7174 248.821 41.7257 248.821 41.7341V57.9471C248.821 57.964 248.827 57.9802 248.838 57.9922C248.849 58.0042 248.865 58.0109 248.881 58.0109H259.468C259.484 58.0109 259.499 58.0042 259.51 57.9922C259.522 57.9802 259.528 57.964 259.528 57.9471V55.2405C259.528 55.2236 259.522 55.2074 259.51 55.1954C259.499 55.1835 259.484 55.1767 259.468 55.1767H251.892C251.876 55.1767 251.861 55.17 251.85 55.1581C251.838 55.1461 251.832 55.1299 251.832 55.113V51.0336ZM279.996 44.5044C280.005 44.5044 280.014 44.5063 280.022 44.51C280.03 44.5136 280.038 44.519 280.044 44.5257C280.051 44.5325 280.056 44.5405 280.059 44.5493C280.062 44.5581 280.064 44.5675 280.064 44.5771V57.9382C280.064 57.9575 280.072 57.976 280.084 57.9896C280.097 58.0032 280.115 58.0109 280.133 58.0109H283.007C283.025 58.0109 283.043 58.0032 283.056 57.9896C283.068 57.976 283.076 57.9575 283.076 57.9382V44.5771C283.076 44.5578 283.083 44.5393 283.096 44.5257C283.109 44.5121 283.126 44.5044 283.144 44.5044H287.943C287.961 44.5044 287.978 44.4968 287.991 44.4832C288.004 44.4696 288.011 44.4511 288.011 44.4318V41.7429C288.011 41.7237 288.004 41.7052 287.991 41.6916C287.978 41.678 287.961 41.6703 287.943 41.6703H275.197C275.179 41.6703 275.162 41.678 275.149 41.6916C275.136 41.7052 275.129 41.7237 275.129 41.7429V44.4318C275.129 44.4511 275.136 44.4696 275.149 44.4832C275.162 44.4968 275.179 44.5044 275.197 44.5044H279.996Z" fill="#70B62B"/>
        <path d="M174.23 58.1611C172.235 58.1353 170.331 57.2353 168.939 55.6592C167.546 54.0831 166.777 51.96 166.803 49.7568C166.828 47.5537 167.645 45.451 169.074 43.9114C170.503 42.3718 172.427 41.5214 174.422 41.5472C176.417 41.573 178.32 42.473 179.713 44.0491C181.106 45.6252 181.874 47.7483 181.849 49.9515C181.823 52.1546 181.006 54.2572 179.578 55.7968C178.149 57.3365 176.225 58.1869 174.23 58.1611ZM174.324 55.324C174.912 55.3251 175.495 55.1847 176.039 54.9108C176.584 54.6369 177.078 54.235 177.495 53.7278C177.913 53.2206 178.244 52.6183 178.47 51.955C178.696 51.2918 178.813 50.5807 178.815 49.8624C178.816 49.1441 178.701 48.4326 178.477 47.7686C178.253 47.1045 177.924 46.5009 177.508 45.9922C177.093 45.4835 176.599 45.0797 176.056 44.8038C175.513 44.5279 174.93 44.3853 174.342 44.3843C173.753 44.3832 173.17 44.5236 172.626 44.7975C172.081 45.0713 171.587 45.4733 171.17 45.9805C170.753 46.4876 170.422 47.09 170.195 47.7533C169.969 48.4165 169.852 49.1275 169.851 49.8459C169.849 50.5642 169.964 51.2757 170.188 51.9397C170.412 52.6038 170.742 53.2074 171.157 53.7161C171.572 54.2248 172.066 54.6286 172.609 54.9045C173.152 55.1804 173.735 55.3229 174.324 55.324Z" fill="white"/>
        <path d="M271.96 52.8922C271.966 52.8801 271.974 52.8693 271.984 52.8606C271.994 52.8518 272.005 52.8452 272.018 52.8413C272.03 52.8373 272.043 52.836 272.055 52.8374C272.068 52.8389 272.08 52.843 272.091 52.8497L274.408 54.2597C274.429 54.2722 274.445 54.2927 274.453 54.3175C274.461 54.3422 274.461 54.3695 274.452 54.3943C273.568 56.6917 271.077 57.8377 268.854 58.091C265.804 58.4382 263.16 56.7129 261.723 53.9249C260.025 50.6337 260.325 46.882 262.658 44.1117C264.238 42.2388 266.344 41.4051 268.977 41.6105C271.169 41.7806 272.908 42.8694 274.194 44.8769C274.288 45.0245 274.265 45.1491 274.127 45.2506L272.014 46.7899C271.959 46.8301 271.917 46.8183 271.888 46.7545C271.343 45.5659 270.485 44.8521 269.247 44.5456C263.674 43.1693 261.885 51.6257 265.917 54.5448C267.962 56.0239 270.828 55.2286 271.96 52.8922Z" fill="white"/>
        <path d="M296.046 58.1595C294.051 58.1374 292.145 57.241 290.75 55.6674C289.354 54.0939 288.582 51.9722 288.604 49.769C288.626 47.5658 289.439 45.4617 290.866 43.9194C292.292 42.3772 294.215 41.5232 296.211 41.5453C298.206 41.5675 300.112 42.4639 301.508 44.0374C302.903 45.611 303.675 47.7327 303.653 49.9359C303.632 52.139 302.818 54.2432 301.391 55.7854C299.965 57.3277 298.042 58.1817 296.046 58.1595ZM296.125 55.3241C296.713 55.3252 297.296 55.1848 297.84 54.9109C298.385 54.637 298.879 54.235 299.296 53.7279C299.714 53.2207 300.045 52.6183 300.271 51.9551C300.497 51.2919 300.614 50.5808 300.616 49.8625C300.617 49.1442 300.502 48.4327 300.278 47.7686C300.054 47.1046 299.725 46.501 299.309 45.9923C298.894 45.4836 298.4 45.0798 297.857 44.8039C297.314 44.528 296.731 44.3854 296.143 44.3843C295.554 44.3832 294.971 44.5236 294.427 44.7975C293.882 45.0714 293.388 45.4734 292.971 45.9806C292.554 46.4877 292.223 47.0901 291.996 47.7533C291.77 48.4165 291.653 49.1276 291.652 49.8459C291.65 50.5642 291.765 51.2757 291.989 51.9398C292.213 52.6038 292.543 53.2074 292.958 53.7161C293.373 54.2248 293.867 54.6287 294.41 54.9046C294.953 55.1804 295.536 55.323 296.125 55.3241Z" fill="white"/>
        <path d="M129.283 52.6583V57.9227C129.283 57.9818 129.255 58.0113 129.199 58.0113H126.355C126.299 58.0113 126.271 57.9818 126.271 57.9227V41.7611C126.271 41.7008 126.3 41.6707 126.357 41.6707C128.363 41.6719 130.365 41.6695 132.361 41.6636C133.104 41.6613 133.697 41.7357 134.141 41.8868C138.176 43.2578 138.884 48.71 135.756 51.5441C135.054 52.1806 134.165 52.5077 133.087 52.5255C131.847 52.5455 130.605 52.5621 129.361 52.5751C129.309 52.5751 129.283 52.6028 129.283 52.6583ZM129.283 44.581V49.6577C129.283 49.6797 129.291 49.7009 129.306 49.7165C129.32 49.7321 129.34 49.7409 129.361 49.7409H132.599C133.138 49.7409 133.656 49.4933 134.037 49.0525C134.419 48.6116 134.633 48.0138 134.633 47.3904V46.8483C134.633 46.2249 134.419 45.627 134.037 45.1862C133.656 44.7454 133.138 44.4978 132.599 44.4978H129.361C129.34 44.4978 129.32 44.5065 129.306 44.5221C129.291 44.5378 129.283 44.5589 129.283 44.581Z" fill="white"/>
        <path d="M147.139 53.9372H141.613C141.601 53.9369 141.589 53.9408 141.58 53.9481C141.57 53.9555 141.563 53.9659 141.559 53.9779L140.303 57.9705C140.299 57.9825 140.292 57.9929 140.283 58.0002C140.273 58.0076 140.261 58.0114 140.249 58.0112H137.23C137.221 58.0112 137.212 58.0089 137.204 58.0046C137.196 58.0003 137.19 57.9941 137.185 57.9864C137.18 57.9788 137.176 57.97 137.175 57.9607C137.174 57.9515 137.175 57.9421 137.178 57.9333L142.833 41.7096C142.836 41.6983 142.843 41.6884 142.853 41.6814C142.862 41.6745 142.873 41.6707 142.884 41.6707H145.886C145.897 41.6707 145.908 41.6745 145.918 41.6814C145.927 41.6884 145.934 41.6983 145.938 41.7096L151.571 57.9333C151.574 57.9421 151.575 57.9515 151.573 57.9607C151.572 57.97 151.569 57.9788 151.564 57.9864C151.559 57.9941 151.552 58.0003 151.544 58.0046C151.536 58.0089 151.528 58.0112 151.519 58.0112H148.499C148.487 58.0114 148.476 58.0076 148.466 58.0002C148.456 57.9929 148.449 57.9825 148.446 57.9705L147.192 53.9779C147.189 53.9659 147.182 53.9555 147.172 53.9481C147.162 53.9408 147.151 53.9369 147.139 53.9372ZM142.321 51.6043C142.318 51.6128 142.317 51.6218 142.319 51.6306C142.32 51.6394 142.323 51.6477 142.328 51.655C142.333 51.6622 142.339 51.6681 142.347 51.6723C142.354 51.6764 142.362 51.6786 142.371 51.6787H146.393C146.401 51.6786 146.409 51.6764 146.417 51.6723C146.424 51.6681 146.431 51.6622 146.436 51.655C146.441 51.6477 146.444 51.6394 146.445 51.6306C146.446 51.6218 146.446 51.6128 146.443 51.6043L144.432 45.2204C144.428 45.2096 144.421 45.2002 144.412 45.1936C144.403 45.187 144.393 45.1835 144.382 45.1835C144.371 45.1835 144.36 45.187 144.351 45.1936C144.342 45.2002 144.335 45.2096 144.332 45.2204L142.321 51.6043Z" fill="white"/>
        <path d="M156.302 44.5491V48.2211C156.302 48.2813 156.33 48.3114 156.387 48.3114C157.842 48.3126 159.291 48.3155 160.734 48.3202C162.586 48.3273 164.448 49.0288 165.3 51.0127C165.823 52.2331 165.778 53.9832 165.268 55.2302C164.528 57.0346 163.127 57.9575 161.065 57.9988C159.615 58.0283 157.049 58.0283 153.366 57.9988C153.316 57.9976 153.291 57.9705 153.291 57.9173V41.7592C153.291 41.7002 153.318 41.6707 153.374 41.6707H164.332C164.388 41.6707 164.416 41.7002 164.416 41.7592V44.3719C164.416 44.431 164.388 44.4605 164.332 44.4605H156.386C156.33 44.4605 156.302 44.49 156.302 44.5491ZM156.304 50.9117L156.297 55.1275C156.297 55.1519 156.306 55.1753 156.322 55.1926C156.339 55.2099 156.361 55.2196 156.384 55.2196L160.456 55.2267C160.734 55.2272 161.009 55.1713 161.266 55.0624C161.522 54.9534 161.756 54.7934 161.952 54.5916C162.149 54.3898 162.305 54.1501 162.412 53.8861C162.519 53.6221 162.574 53.3391 162.574 53.0533V53.0072C162.575 52.4298 162.353 51.8758 161.957 51.4668C161.561 51.0579 161.024 50.8277 160.463 50.8267L156.391 50.8196C156.368 50.8196 156.345 50.8293 156.329 50.8466C156.313 50.8639 156.304 50.8873 156.304 50.9117Z" fill="white"/>
        <path d="M192.556 51.746C190.774 52.4746 188.991 52.6269 187.208 52.203C185.084 51.6988 183.963 50.2534 183.845 47.8668C183.801 46.9847 183.8 44.9453 183.84 41.7486C183.84 41.6966 183.864 41.6707 183.914 41.6707H186.664C186.722 41.6707 186.751 41.7008 186.751 41.761C186.751 43.4308 186.753 45.0976 186.756 46.7615C186.76 48.4324 187.554 49.3388 189.137 49.4805C190.364 49.5891 191.51 49.4137 192.576 48.9544C192.598 48.9455 192.616 48.9302 192.629 48.9103C192.641 48.8904 192.648 48.8669 192.648 48.8428V41.7592C192.648 41.7002 192.676 41.6707 192.732 41.6707H195.534C195.59 41.6707 195.618 41.7002 195.618 41.7592V57.9226C195.618 57.9817 195.59 58.0112 195.534 58.0112L192.732 58.0094C192.71 58.0094 192.689 58.0001 192.673 57.9835C192.657 57.9669 192.648 57.9444 192.648 57.9209V51.8115C192.648 51.7431 192.618 51.7212 192.556 51.746Z" fill="white"/>
        <path d="M201.809 44.581V48.2813C201.809 48.3015 201.816 48.3208 201.83 48.3351C201.843 48.3494 201.861 48.3574 201.881 48.3574L208.223 48.3539C208.232 48.3539 208.242 48.3559 208.25 48.3597C208.259 48.3635 208.267 48.3691 208.274 48.3762C208.28 48.3833 208.286 48.3917 208.289 48.4009C208.293 48.4102 208.295 48.4201 208.295 48.4301L208.297 50.8922C208.297 50.9124 208.289 50.9318 208.275 50.9461C208.262 50.9604 208.244 50.9684 208.225 50.9684H201.881C201.861 50.9684 201.843 50.9764 201.83 50.9907C201.816 51.005 201.809 51.0244 201.809 51.0446L201.807 55.1009C201.807 55.1211 201.814 55.1405 201.828 55.1548C201.841 55.1691 201.86 55.1771 201.879 55.1771H209.433C209.452 55.1771 209.47 55.1851 209.483 55.1994C209.497 55.2137 209.504 55.233 209.504 55.2532L209.506 57.9333C209.506 57.9535 209.499 57.9729 209.485 57.9871C209.472 58.0014 209.453 58.0094 209.434 58.0094H198.869C198.85 58.0094 198.832 58.0014 198.818 57.9871C198.805 57.9729 198.797 57.9535 198.797 57.9333V41.7468C198.797 41.7368 198.799 41.7269 198.803 41.7177C198.806 41.7084 198.812 41.7 198.818 41.693C198.825 41.6859 198.833 41.6803 198.842 41.6765C198.85 41.6726 198.86 41.6707 198.869 41.6707H209.265C209.275 41.6707 209.284 41.6726 209.293 41.6765C209.301 41.6803 209.309 41.6859 209.316 41.693C209.323 41.7 209.328 41.7084 209.332 41.7177C209.335 41.7269 209.337 41.7368 209.337 41.7468L209.339 44.4286C209.339 44.4488 209.331 44.4682 209.318 44.4825C209.304 44.4968 209.286 44.5048 209.267 44.5048H201.881C201.861 44.5048 201.843 44.5128 201.83 44.5271C201.816 44.5414 201.809 44.5608 201.809 44.581Z" fill="white"/>
        <path d="M214.858 44.581L214.857 48.2813C214.857 48.3015 214.864 48.3208 214.878 48.3351C214.891 48.3494 214.91 48.3574 214.929 48.3574L221.271 48.3557C221.29 48.3557 221.308 48.3637 221.322 48.378C221.335 48.3923 221.343 48.4116 221.343 48.4318V50.8922C221.343 50.9124 221.335 50.9318 221.322 50.9461C221.308 50.9604 221.29 50.9684 221.271 50.9684H214.93C214.921 50.9684 214.912 50.9704 214.903 50.9742C214.894 50.978 214.886 50.9836 214.879 50.9907C214.873 50.9978 214.867 51.0062 214.864 51.0154C214.86 51.0246 214.858 51.0346 214.858 51.0446L214.857 55.1009C214.857 55.1211 214.864 55.1405 214.878 55.1548C214.891 55.1691 214.91 55.1771 214.929 55.1771H222.482C222.492 55.1771 222.501 55.1791 222.51 55.1829C222.519 55.1867 222.527 55.1923 222.533 55.1994C222.54 55.2065 222.545 55.2149 222.549 55.2241C222.552 55.2333 222.554 55.2432 222.554 55.2532V57.9333C222.554 57.9433 222.552 57.9532 222.549 57.9624C222.545 57.9717 222.54 57.9801 222.533 57.9871C222.527 57.9942 222.519 57.9998 222.51 58.0036C222.501 58.0075 222.492 58.0094 222.482 58.0094L211.875 58.0112C211.856 58.0112 211.838 58.0032 211.825 57.9889C211.811 57.9746 211.803 57.9553 211.803 57.9351V41.7468C211.803 41.7368 211.805 41.7269 211.809 41.7177C211.813 41.7084 211.818 41.7 211.825 41.693C211.831 41.6859 211.839 41.6803 211.848 41.6765C211.857 41.6726 211.866 41.6707 211.875 41.6707H222.273C222.283 41.6707 222.292 41.6726 222.301 41.6765C222.31 41.6803 222.317 41.6859 222.324 41.693C222.331 41.7 222.336 41.7084 222.34 41.7177C222.343 41.7269 222.345 41.7368 222.345 41.7468V44.4286C222.345 44.4386 222.343 44.4485 222.34 44.4578C222.336 44.467 222.331 44.4754 222.324 44.4825C222.317 44.4896 222.31 44.4952 222.301 44.499C222.292 44.5028 222.283 44.5048 222.273 44.5048H214.93C214.921 44.5048 214.912 44.5068 214.903 44.5106C214.894 44.5144 214.886 44.52 214.879 44.5271C214.873 44.5342 214.867 44.5426 214.864 44.5518C214.86 44.561 214.858 44.571 214.858 44.581Z" fill="white"/>
        <path d="M242.63 47.5905C242.63 47.4381 242.597 47.4299 242.53 47.5657L238.757 55.1789C238.729 55.2367 238.684 55.2656 238.621 55.2656H237.072C237.014 55.2656 236.971 55.2379 236.943 55.1824L233.166 47.5568C233.162 47.5491 233.155 47.5431 233.148 47.5395C233.14 47.536 233.132 47.5351 233.123 47.5371C233.115 47.5391 233.108 47.5438 233.103 47.5506C233.097 47.5573 233.094 47.5657 233.094 47.5745V57.9226C233.094 57.9817 233.066 58.0112 233.01 58.0112H230.166C230.082 58.0112 230.041 57.9669 230.041 57.8784V41.7592C230.041 41.7002 230.068 41.6707 230.124 41.6707H233.218C233.245 41.6707 233.272 41.6786 233.295 41.6936C233.318 41.7086 233.337 41.73 233.35 41.7557L237.785 50.793C237.79 50.8038 237.798 50.8129 237.808 50.8192C237.818 50.8256 237.829 50.8289 237.84 50.8289C237.852 50.8289 237.863 50.8256 237.873 50.8192C237.882 50.8129 237.89 50.8038 237.895 50.793L242.374 41.7539C242.387 41.7287 242.406 41.7077 242.429 41.693C242.452 41.6784 242.478 41.6706 242.505 41.6707H245.558C245.614 41.6707 245.641 41.7002 245.641 41.7592V57.9226C245.641 57.9817 245.614 58.0112 245.558 58.0112H242.734C242.665 58.0112 242.63 57.974 242.63 57.8996V47.5905Z" fill="white"/>
        <path d="M251.832 51.0339V55.1133C251.832 55.1302 251.838 55.1464 251.85 55.1584C251.861 55.1704 251.876 55.1771 251.892 55.1771H259.468C259.484 55.1771 259.499 55.1838 259.51 55.1958C259.522 55.2077 259.528 55.2239 259.528 55.2408V57.9475C259.528 57.9644 259.522 57.9806 259.51 57.9925C259.499 58.0045 259.484 58.0112 259.468 58.0112H248.881C248.865 58.0112 248.849 58.0045 248.838 57.9925C248.827 57.9806 248.821 57.9644 248.821 57.9475V41.7344C248.821 41.726 248.822 41.7178 248.825 41.71C248.828 41.7023 248.833 41.6953 248.838 41.6893C248.844 41.6834 248.85 41.6787 248.858 41.6755C248.865 41.6723 248.873 41.6707 248.881 41.6707H259.3C259.308 41.6707 259.316 41.6723 259.323 41.6755C259.331 41.6787 259.337 41.6834 259.343 41.6893C259.349 41.6953 259.353 41.7023 259.356 41.71C259.359 41.7178 259.361 41.726 259.361 41.7344V44.441C259.361 44.4579 259.354 44.4742 259.343 44.4861C259.332 44.4981 259.316 44.5048 259.3 44.5048H251.892C251.876 44.5048 251.861 44.5115 251.85 44.5235C251.838 44.5354 251.832 44.5516 251.832 44.5686L251.83 48.2937C251.83 48.3106 251.837 48.3268 251.848 48.3388C251.859 48.3507 251.875 48.3574 251.891 48.3574L258.256 48.3557C258.272 48.3557 258.288 48.3624 258.299 48.3743C258.31 48.3863 258.317 48.4025 258.317 48.4194V50.9046C258.317 50.9215 258.31 50.9378 258.299 50.9497C258.288 50.9617 258.272 50.9684 258.256 50.9684L251.892 50.9702C251.876 50.9702 251.861 50.9769 251.85 50.9888C251.838 51.0008 251.832 51.017 251.832 51.0339Z" fill="white"/>
        <path d="M279.995 44.5048H275.197C275.179 44.5048 275.162 44.4971 275.149 44.4835C275.136 44.4699 275.129 44.4514 275.129 44.4322V41.7433C275.129 41.724 275.136 41.7055 275.149 41.6919C275.162 41.6783 275.179 41.6707 275.197 41.6707H287.942C287.961 41.6707 287.978 41.6783 287.991 41.6919C288.004 41.7055 288.011 41.724 288.011 41.7433V44.4322C288.011 44.4514 288.004 44.4699 287.991 44.4835C287.978 44.4971 287.961 44.5048 287.942 44.5048H283.144C283.126 44.5048 283.108 44.5124 283.096 44.5261C283.083 44.5397 283.076 44.5582 283.076 44.5774V57.9386C283.076 57.9579 283.068 57.9763 283.055 57.9899C283.043 58.0036 283.025 58.0112 283.007 58.0112H280.133C280.114 58.0112 280.097 58.0036 280.084 57.9899C280.071 57.9763 280.064 57.9579 280.064 57.9386V44.5774C280.064 44.5679 280.062 44.5584 280.059 44.5496C280.055 44.5408 280.05 44.5328 280.044 44.5261C280.038 44.5193 280.03 44.514 280.022 44.5103C280.013 44.5067 280.004 44.5048 279.995 44.5048Z" fill="white"/>
        <path d="M169.85 49.8459C169.845 52.8668 171.848 55.3195 174.323 55.324C176.799 55.3286 178.809 52.8834 178.814 49.8625C178.819 46.8415 176.817 44.3889 174.341 44.3843C171.866 44.3797 169.855 46.825 169.85 49.8459Z" fill="#70B62B"/>
        <path d="M291.652 49.8459C291.647 52.8668 293.65 55.3195 296.125 55.324C298.6 55.3286 300.611 52.8834 300.616 49.8625C300.621 46.8415 298.618 44.3889 296.143 44.3843C293.668 44.3797 291.657 46.825 291.652 49.8459Z" fill="#70B62B"/>
        <path d="M129.283 44.5808C129.283 44.5587 129.291 44.5376 129.306 44.5219C129.321 44.5063 129.341 44.4976 129.362 44.4976H132.599C133.138 44.4976 133.656 44.7452 134.037 45.186C134.419 45.6268 134.633 46.2247 134.633 46.8481V47.3901C134.633 48.0136 134.419 48.6114 134.037 49.0522C133.656 49.4931 133.138 49.7407 132.599 49.7407H129.362C129.341 49.7407 129.321 49.7319 129.306 49.7163C129.291 49.7007 129.283 49.6795 129.283 49.6575V44.5808Z" fill="#70B62B"/>
        <path d="M142.321 51.6042L144.332 45.2203C144.336 45.2095 144.342 45.2001 144.351 45.1935C144.36 45.1869 144.371 45.1833 144.382 45.1833C144.393 45.1833 144.404 45.1869 144.413 45.1935C144.422 45.2001 144.428 45.2095 144.432 45.2203L146.443 51.6042C146.446 51.6127 146.446 51.6216 146.445 51.6304C146.444 51.6393 146.441 51.6476 146.436 51.6549C146.431 51.6621 146.425 51.668 146.417 51.6722C146.41 51.6763 146.401 51.6785 146.393 51.6786H142.371C142.363 51.6785 142.354 51.6763 142.347 51.6722C142.339 51.668 142.333 51.6621 142.328 51.6549C142.323 51.6476 142.32 51.6393 142.319 51.6304C142.317 51.6216 142.318 51.6127 142.321 51.6042Z" fill="#70B62B"/>
        <path d="M156.304 50.9117C156.304 50.8873 156.313 50.8638 156.33 50.8466C156.346 50.8293 156.368 50.8196 156.391 50.8196L160.463 50.8267C161.024 50.8276 161.562 51.0579 161.958 51.4668C162.353 51.8758 162.575 52.4298 162.575 53.0072V53.0532C162.574 53.3391 162.519 53.6221 162.412 53.8861C162.306 54.15 162.15 54.3898 161.953 54.5916C161.756 54.7934 161.523 54.9534 161.266 55.0623C161.009 55.1713 160.734 55.2271 160.457 55.2267L156.384 55.2196C156.361 55.2196 156.339 55.2099 156.323 55.1926C156.307 55.1753 156.297 55.1519 156.297 55.1275L156.304 50.9117Z" fill="#70B62B"/>
    </g>
    <defs>
        <clipPath id="clip0_5086_22332">
            <rect width="307" height="70.6763" fill="white"/>
        </clipPath>
    </defs>
</svg>