<svg width="75" height="68" viewBox="0 0 75 68" fill="none" xmlns="http://www.w3.org/2000/svg">
<path d="M65.5936 33.5721L55.7338 17.5503L47.4569 35.1484L64.7566 35.0771C65.5273 35.0739 65.9975 34.2285 65.5936 33.5721Z" fill="#F5F5F5" stroke="black" stroke-width="1.975"/>
<path d="M27.6125 18.5191C27.6125 27.6004 36.3231 35.2255 47.4842 35.2255C58.6521 35.2255 67.4594 27.5947 67.4594 18.5191C67.4594 9.4406 58.7004 1.8127 47.536 1.8127C36.3715 1.8127 27.6125 9.4406 27.6125 18.5191Z" fill="#F5F5F5" stroke="black" stroke-width="1.975"/>
<circle cx="2.4128" cy="2.4128" r="2.4128" transform="matrix(-1 0 0 1 40.2458 15.3018)" fill="#70B62B"/>
<path d="M61.1567 27.3662L61.9609 28.9747L65.1375 34.1921H48.35L45.3875 33.2046L53.9184 32.9961L56.3312 32.1918L61.1567 27.3662Z" fill="#F5F5F5"/>
<path d="M10.6906 53.4478L23.4348 32.739L33.9261 55.0451L11.5276 54.9529C10.7569 54.9497 10.2867 54.1042 10.6906 53.4478Z" fill="#F5F5F5" stroke="black" stroke-width="1.975"/>
<path d="M58.1613 34.3998C58.1613 45.7075 47.3296 55.1373 33.5374 55.1373C19.7384 55.1373 8.78633 45.7017 8.78633 34.3998C8.78633 23.095 19.6782 13.6623 33.4738 13.6623C47.2694 13.6623 58.1613 23.095 58.1613 34.3998Z" fill="#F5F5F5" stroke="black" stroke-width="1.975"/>
<circle cx="21.6875" cy="33.4127" r="2.9625" fill="#70B62B"/>
<circle cx="33.5375" cy="33.4127" r="2.9625" fill="#70B62B"/>
<circle cx="45.3876" cy="33.4127" r="2.9625" fill="#70B62B"/>
<path d="M16.75 45.2627L15.7625 47.2377L11.3508 54.1502H32.5499L25.6374 52.1752L22.6749 51.1877L16.75 45.2627Z" fill="#F5F5F5"/>
</svg>
