<svg width="16" height="16" viewBox="0 0 16 16" fill="none" xmlns="http://www.w3.org/2000/svg">
<g clip-path="url(#clip0_3591_4193)">
<path d="M1.36292 12.8351L1.36292 12.0851L1.36292 12.0851L1.36292 12.8351ZM1.03044 12.2971L0.394445 11.8996L0.375554 11.9299L0.359616 11.9617L1.03044 12.2971ZM3.01133 10.5428C3.23086 10.1915 3.12408 9.72882 2.77283 9.50929C2.42158 9.28976 1.95886 9.39654 1.73933 9.74779L3.01133 10.5428ZM8.29286 12.085L1.36292 12.0851L1.36292 13.5851L8.29286 13.5851L8.29286 12.085ZM1.66644 12.6946L3.01133 10.5428L1.73933 9.74779L0.394445 11.8996L1.66644 12.6946ZM1.36292 12.0851C1.64412 12.0851 1.82702 12.381 1.70127 12.6325L0.359616 11.9617C-0.0132786 12.7076 0.529068 13.5851 1.36292 13.5851L1.36292 12.0851Z" fill="#000"/>
<path d="M8.29291 12.8351C12.1553 12.8351 15 10.1857 15 6.91754C15 3.64937 11.869 1 8.0066 1C4.14424 1 1.01318 3.64937 1.01318 6.91754C1.01318 8.22829 2.10643 9.87631 2.37541 10.1453" stroke="#000" stroke-width="1.5"/>
<path d="M5.00012 7H5.0079" stroke="#000" stroke-width="1.5" stroke-linecap="round" stroke-linejoin="round"/>
<path d="M8.00793 7H8.01571" stroke="#000" stroke-width="1.5" stroke-linecap="round" stroke-linejoin="round"/>
<path d="M11.0156 7H11.0234" stroke="#000" stroke-width="1.5" stroke-linecap="round" stroke-linejoin="round"/>
</g>
<defs>
<clipPath id="clip0_3591_4193">
<rect width="16" height="16" fill="white"/>
</clipPath>
</defs>
</svg>
