<svg xmlns="http://www.w3.org/2000/svg" width="16" height="16" viewBox="0 0 16 16" fill="none">
    <g clip-path="url(#clip0_4360_12002)">
        <g clip-path="url(#clip1_4360_12002)">
            <g clip-path="url(#clip2_4360_12002)">
                <path d="M7.21903 14.6014C7.00735 14.5387 6.81632 14.4206 6.6658 14.2591C6.51528 14.0977 6.41076 13.8988 6.36312 13.6833C6.31583 13.4882 6.22314 13.3069 6.09258 13.1544C5.96202 13.0018 5.79728 12.8822 5.61177 12.8054C5.42627 12.7285 5.22524 12.6966 5.02504 12.7121C4.82485 12.7276 4.63114 12.7902 4.4597 12.8947C3.31824 13.5901 2.01108 12.2837 2.70646 11.1415C2.81084 10.9701 2.87331 10.7765 2.8888 10.5765C2.90428 10.3764 2.87234 10.1755 2.79558 9.99011C2.71881 9.80472 2.59938 9.64006 2.447 9.50951C2.29462 9.37896 2.11358 9.28621 1.91861 9.23879C0.619579 8.92365 0.619579 7.07572 1.91861 6.76058C2.11376 6.71329 2.29498 6.6206 2.44754 6.49004C2.60009 6.35948 2.71967 6.19474 2.79652 6.00923C2.87338 5.82373 2.90534 5.6227 2.88982 5.4225C2.8743 5.22231 2.81173 5.0286 2.7072 4.85716C2.01182 3.7157 3.31824 2.40854 4.46044 3.10392C5.20021 3.5537 6.15894 3.1557 6.36312 2.31607C6.67826 1.01704 8.52619 1.01704 8.84133 2.31607C8.88862 2.51122 8.98131 2.69244 9.11187 2.845C9.24243 2.99755 9.40717 3.11713 9.59268 3.19398C9.77818 3.27084 9.97921 3.3028 10.1794 3.28728C10.3796 3.27176 10.5733 3.20919 10.7447 3.10466C11.8862 2.40928 13.1934 3.7157 12.498 4.8579C12.3936 5.02927 12.3311 5.22286 12.3157 5.42291C12.3002 5.62297 12.3321 5.82386 12.4089 6.00926C12.4856 6.19465 12.6051 6.35931 12.7574 6.48986C12.9098 6.62041 13.0909 6.71316 13.2858 6.76058C14.2564 6.99582 14.502 8.08772 14.0219 8.75573" stroke="#808080" stroke-width="1.5" stroke-linecap="round" stroke-linejoin="round"/>
                <path d="M13.5202 14.6575L14.9998 13.1779L13.5202 11.6984M11.3009 11.6984L9.8214 13.1779L11.3009 14.6575M5.38281 7.99957C5.38281 8.58816 5.61663 9.15265 6.03283 9.56885C6.44903 9.98505 7.01351 10.2189 7.60211 10.2189C8.1907 10.2189 8.75519 9.98505 9.17139 9.56885C9.58759 9.15265 9.8214 8.58816 9.8214 7.99957C9.8214 7.41098 9.58759 6.84649 9.17139 6.43029C8.75519 6.01409 8.1907 5.78027 7.60211 5.78027C7.01351 5.78027 6.44903 6.01409 6.03283 6.43029C5.61663 6.84649 5.38281 7.41098 5.38281 7.99957Z" stroke="#808080" stroke-width="1.5" stroke-linecap="round" stroke-linejoin="round"/>
            </g>
        </g>
    </g>
    <defs>
        <clipPath id="clip0_4360_12002">
            <rect width="16" height="16" fill="white"/>
        </clipPath>
        <clipPath id="clip1_4360_12002">
            <rect width="16" height="16" fill="white"/>
        </clipPath>
        <clipPath id="clip2_4360_12002">
            <rect width="16" height="16" fill="white"/>
        </clipPath>
    </defs>
</svg>