<svg width="23" height="25" viewBox="0 0 23 25" fill="none" xmlns="http://www.w3.org/2000/svg">
<g clip-path="url(#clip0_5701_11865)">
<ellipse cx="11.5" cy="2.4375" rx="1.75" ry="1.3125" fill="#F5F5F5"/>
<path d="M13.6864 20.8284C13.6668 21.8235 13.3962 22.7032 12.9893 23.329C12.564 23.983 12.0277 24.3125 11.4999 24.3125C10.972 24.3125 10.4358 23.983 10.0106 23.329C9.60378 22.7033 9.33316 21.8236 9.31363 20.8284C9.98978 20.8502 10.7172 20.8621 11.4999 20.8621H11.5001C12.283 20.8621 13.0104 20.8502 13.6864 20.8284Z" fill="#F5F5F5" stroke="black" stroke-width="0.875"/>
<path d="M20.3336 17.8678L20.3338 17.868C20.4663 17.9565 20.5462 18.106 20.5462 18.2667V20.1411C20.5462 20.3376 20.4271 20.5138 20.2463 20.5864L20.2463 20.5865C19.436 20.9125 17.2284 21.3982 11.4293 21.3982C5.63025 21.3982 3.4227 20.9125 2.6124 20.5865L2.61233 20.5864C2.43161 20.5138 2.3125 20.3376 2.3125 20.1411V18.2667C2.3125 18.106 2.39238 17.9565 2.52487 17.868L2.52509 17.8678C2.89239 17.6221 3.20902 17.3937 3.4769 17.1896L3.47692 17.1896C4.27544 16.5813 4.74536 15.6358 4.74536 14.6312V10.203C4.74536 7.00217 6.98216 4.30492 9.9796 3.63717L10.6174 3.49509L10.3721 3.14409C10.491 3.26842 10.6314 3.37175 10.7871 3.44801L10.891 3.49888L11.0065 3.49178C11.1386 3.48364 11.2718 3.47912 11.4059 3.47844C11.5557 3.478 11.7044 3.48251 11.852 3.49175L11.9678 3.499L12.072 3.4479C12.2276 3.37156 12.368 3.26822 12.4869 3.14391L12.2415 3.49535L12.8802 3.6366C13.2784 3.72466 13.6631 3.84804 14.0309 4.00357C16.4307 5.01872 18.1133 7.39476 18.1133 10.1624V14.6309C18.1133 15.6355 18.5832 16.5812 19.3818 17.1896L19.3818 17.1896C19.6497 17.3937 19.9663 17.6221 20.3336 17.8678Z" fill="#F5F5F5" stroke="black" stroke-width="0.875"/>
<path d="M1.39284 8.97961C1.44744 8.99358 1.50204 8.99993 1.556 8.99993C1.85186 8.99993 2.12137 8.80026 2.19723 8.50027C2.20549 8.46758 3.06639 5.19857 6.29001 3.49232C6.61316 3.32122 6.73665 2.92061 6.56554 2.59745C6.39444 2.2743 5.99383 2.15081 5.67068 2.32191C4.80628 2.77935 4.01839 3.37106 3.32891 4.08022C2.77942 4.64527 2.2912 5.28586 1.87789 5.9836C1.17126 7.17686 0.923976 8.13458 0.913818 8.1749C0.823982 8.52948 1.03857 8.88977 1.39284 8.97961Z" fill="#70B62B"/>
<path d="M16.4991 3.49238C17.2327 3.88063 17.9029 4.38221 18.4911 4.98283C18.9654 5.46759 19.3889 6.01838 19.7489 6.61964C20.3666 7.65137 20.5886 8.48628 20.5924 8.50184C20.6689 8.80088 20.9381 8.99993 21.2333 8.99993C21.2873 8.99993 21.3419 8.99326 21.3965 8.97961C21.7511 8.88977 21.9654 8.52977 21.8755 8.17518C21.8654 8.13486 21.6181 7.17709 20.9114 5.98377C20.4981 5.28569 20.0098 4.64538 19.4603 4.08031C18.7708 3.37111 17.9829 2.77937 17.1184 2.32192C16.7953 2.15081 16.3946 2.2743 16.2235 2.59747C16.0524 2.92064 16.1759 3.32127 16.4991 3.49238Z" fill="#70B62B"/>
</g>
<defs>
<clipPath id="clip0_5701_11865">
<rect width="22.75" height="24.5" fill="white" transform="translate(0.125 0.25)"/>
</clipPath>
</defs>
</svg>
