<svg xmlns="http://www.w3.org/2000/svg" width="16" height="16" viewBox="0 0 16 16" fill="none">
    <path d="M5.2 7.8H10.8M5.9 5H3.8C3.05739 5 2.3452 5.295 1.8201 5.8201C1.295 6.3452 1 7.05739 1 7.8C1 8.54261 1.295 9.2548 1.8201 9.7799C2.3452 10.305 3.05739 10.6 3.8 10.6H5.9M10.1 5H12.2C12.9426 5 13.6548 5.295 14.1799 5.8201C14.705 6.3452 15 7.05739 15 7.8C15 8.54261 14.705 9.2548 14.1799 9.7799C13.6548 10.305 12.9426 10.6 12.2 10.6H10.1" stroke="black" stroke-width="1.5" stroke-linecap="round" stroke-linejoin="round"/>
</svg>