<svg width="16" height="16" viewBox="0 0 16 16" fill="none" xmlns="http://www.w3.org/2000/svg">
<path d="M7.57063 14.3324C5.84002 14.3324 4.97472 14.3324 4.29324 14.0492C3.84253 13.8628 3.43295 13.5894 3.0879 13.2447C2.74285 12.8999 2.46909 12.4906 2.28225 12.0401C2 11.3577 2 10.4924 2 8.76176V7.83332C2 5.22534 2 3.92181 2.62577 2.98502C2.89679 2.57934 3.24509 2.23104 3.65076 1.96002C4.58756 1.33425 5.89016 1.33425 8.49907 1.33425H9.89173C11.1878 1.33425 11.835 1.33425 12.3623 1.49394C12.9468 1.67121 13.4786 1.98993 13.9105 2.42184C14.3425 2.85376 14.6612 3.38555 14.8384 3.97009C14.9981 4.49744 14.9981 5.14456 14.9981 6.44066" stroke="#000" stroke-width="1.5" stroke-linecap="round" stroke-linejoin="round"/>
<path d="M12.2129 8.76173V11.547M12.2129 11.547V14.3324M12.2129 11.547H14.9982M12.2129 11.547H9.42761" stroke="#000" stroke-width="1.5" stroke-linecap="round"/>
<path d="M3.39266 12.9397L13.6055 2.72691M14.9907 6.44066H15M7.5632 14.3324H7.57249M2 8.76176L9.42751 1.33425" stroke="#000" stroke-width="1.5" stroke-linecap="round" stroke-linejoin="round"/>
</svg>
