<svg xmlns="http://www.w3.org/2000/svg" width="16" height="14" viewBox="0 0 16 14" fill="none">
    <path d="M0.929199 3.07123V6.34882C0.929288 6.76551 1.09489 7.16509 1.38957 7.45969L5.87544 11.9456C6.2305 12.3006 6.71204 12.5 7.21413 12.5C7.71622 12.5 8.19776 12.3006 8.55282 11.9456L11.3748 9.12362C11.7298 8.76856 11.9292 8.28703 11.9292 7.78493C11.9292 7.28284 11.7298 6.8013 11.3748 6.44624L6.88889 1.96037C6.59429 1.66569 6.19471 1.50009 5.77802 1.5H2.50043C2.08372 1.5 1.68407 1.66554 1.3894 1.9602C1.09474 2.25487 0.929199 2.65452 0.929199 3.07123Z" stroke="#808080" stroke-width="1.5" stroke-linecap="round" stroke-linejoin="round"/>
    <path d="M12.7135 11.713L13.9642 10.4623C14.6743 9.75219 15.0731 8.78912 15.0731 7.78493C15.0731 6.78074 14.6743 5.81767 13.9642 5.10755L10.3567 1.5M4.07176 4.64247H4.0639" stroke="#808080" stroke-width="1.5" stroke-linecap="round" stroke-linejoin="round"/>
</svg>