<svg width="16" height="16" viewBox="0 0 16 16" fill="none" xmlns="http://www.w3.org/2000/svg">
<g clip-path="url(#clip0_4563_8398)">
<path d="M12.6675 1.72483L14.3585 3.32632M8 8L10.1435 7.88766L14.6449 3.1696C14.7574 3.05159 14.8468 2.91148 14.9077 2.75728C14.9686 2.60309 15 2.43782 15 2.27092C15 2.10402 14.9686 1.93876 14.9077 1.78456C14.8468 1.63037 14.7574 1.49026 14.6449 1.37224C14.5323 1.25423 14.3986 1.16061 14.2515 1.09674C14.1044 1.03287 13.9467 1 13.7875 1C13.6282 1 13.4705 1.03287 13.3234 1.09674C13.1763 1.16061 13.0426 1.25423 12.9301 1.37224L8.4287 6.09031L8 8Z" stroke="black" stroke-linecap="round" stroke-linejoin="round"/>
<path d="M15 6.50004C15 7.3696 15 13.8186 14.8304 14.1507C14.6811 14.4435 14.4429 14.6815 14.1499 14.8305C13.8178 15 13.383 15 12.5134 15H3.48656C2.617 15 2.18144 15 1.84933 14.8305C1.55665 14.6814 1.31869 14.4434 1.16956 14.1507C1 13.8178 1 13.3823 1 12.5112V5.50006M1 5.50006V3.48893C1 2.61782 1 2.18226 1.16956 1.84937C1.31889 1.55615 1.55611 1.31893 1.84933 1.1696C2.18222 1.00004 8.62889 1.1696 9.5 1.1696L6 5.50006H1Z" stroke="black" stroke-width="1.5" stroke-linecap="round" stroke-linejoin="round"/>
</g>
<defs>
<clipPath id="clip0_4563_8398">
<rect width="16" height="16" fill="white"/>
</clipPath>
</defs>
</svg>
