<svg xmlns="http://www.w3.org/2000/svg" width="16" height="16" viewBox="0 0 16 16" fill="none">
    <mask id="path-1-inside-1_4673_4425" fill="white">
        <path d="M14.9928 14.4599L14.0354 9.03046H14.3587C14.6189 9.03046 14.8284 8.82437 14.8284 8.56853V5.15736C14.8284 4.90152 14.6189 4.69543 14.3587 4.69543H9.91485V1.46193C9.91485 1.20609 9.7053 1 9.44517 1H6.55484C6.29471 1 6.08517 1.20609 6.08517 1.46193V4.69543H1.64129C1.38116 4.69543 1.17161 4.90152 1.17161 5.15736V8.56853C1.17161 8.82437 1.38116 9.03046 1.64129 9.03046H1.96465L1.00723 14.4599C1.00181 14.4865 1 14.5132 1 14.5381C1 14.7939 1.20955 15 1.46968 15H14.5303C14.5574 15 14.5845 14.9982 14.6098 14.9929C14.8663 14.9503 15.0379 14.7104 14.9928 14.4599ZM2.43613 5.93909H7.34968V2.24365H8.65033V5.93909H13.5639V7.7868H2.43613V5.93909ZM10.8903 13.7563V10.9848C10.8903 10.9066 10.8253 10.8426 10.7458 10.8426H9.87872C9.79923 10.8426 9.7342 10.9066 9.7342 10.9848V13.7563H6.26581V10.9848C6.26581 10.9066 6.20078 10.8426 6.12129 10.8426H5.2542C5.17471 10.8426 5.10968 10.9066 5.10968 10.9848V13.7563H2.41445L3.22916 9.13706H12.769L13.5838 13.7563H10.8903Z"/>
    </mask>
    <path d="M14.9928 14.4599L13.5156 14.7204L13.5166 14.726L14.9928 14.4599ZM14.0354 9.03046V7.53046H12.2477L12.5582 9.29095L14.0354 9.03046ZM9.91485 4.69543H8.41485V6.19543H9.91485V4.69543ZM6.08517 4.69543V6.19543H7.58517V4.69543H6.08517ZM1.96465 9.03046L3.44185 9.29095L3.7523 7.53046H1.96465V9.03046ZM1.00723 14.4599L2.47714 14.7588L2.48104 14.7396L2.48443 14.7204L1.00723 14.4599ZM14.6098 14.9929L14.3639 13.5132L14.332 13.5185L14.3005 13.5251L14.6098 14.9929ZM2.43613 5.93909V4.43909H0.93613V5.93909H2.43613ZM7.34968 5.93909V7.43909H8.84968V5.93909H7.34968ZM7.34968 2.24365V0.743655H5.84968V2.24365H7.34968ZM8.65033 2.24365H10.1503V0.743655H8.65033V2.24365ZM8.65033 5.93909H7.15033V7.43909H8.65033V5.93909ZM13.5639 5.93909H15.0639V4.43909H13.5639V5.93909ZM13.5639 7.7868V9.2868H15.0639V7.7868H13.5639ZM2.43613 7.7868H0.93613V9.2868H2.43613V7.7868ZM10.8903 13.7563H9.39033V15.2563H10.8903V13.7563ZM9.7342 13.7563V15.2563H11.2342V13.7563H9.7342ZM6.26581 13.7563H4.76581V15.2563H6.26581V13.7563ZM5.10968 13.7563V15.2563H6.60968V13.7563H5.10968ZM2.41445 13.7563L0.937253 13.4958L0.626744 15.2563H2.41445V13.7563ZM3.22916 9.13706V7.63706H1.97057L1.75196 8.87652L3.22916 9.13706ZM12.769 9.13706L14.2462 8.87652L14.0276 7.63706H12.769V9.13706ZM13.5838 13.7563V15.2563H15.3715L15.061 13.4958L13.5838 13.7563ZM16.47 14.1994L15.5126 8.76997L12.5582 9.29095L13.5156 14.7204L16.47 14.1994ZM14.0354 10.5305H14.3587V7.53046H14.0354V10.5305ZM14.3587 10.5305C15.4237 10.5305 16.3284 9.67622 16.3284 8.56853H13.3284C13.3284 7.97251 13.814 7.53046 14.3587 7.53046V10.5305ZM16.3284 8.56853V5.15736H13.3284V8.56853H16.3284ZM16.3284 5.15736C16.3284 4.04967 15.4237 3.19543 14.3587 3.19543V6.19543C13.814 6.19543 13.3284 5.75338 13.3284 5.15736H16.3284ZM14.3587 3.19543H9.91485V6.19543H14.3587V3.19543ZM11.4148 4.69543V1.46193H8.41485V4.69543H11.4148ZM11.4148 1.46193C11.4148 0.354237 10.5101 -0.5 9.44517 -0.5V2.5C8.90049 2.5 8.41485 2.05795 8.41485 1.46193H11.4148ZM9.44517 -0.5H6.55484V2.5H9.44517V-0.5ZM6.55484 -0.5C5.48991 -0.5 4.58517 0.354237 4.58517 1.46193H7.58517C7.58517 2.05795 7.09952 2.5 6.55484 2.5V-0.5ZM4.58517 1.46193V4.69543H7.58517V1.46193H4.58517ZM6.08517 3.19543H1.64129V6.19543H6.08517V3.19543ZM1.64129 3.19543C0.576358 3.19543 -0.328387 4.04967 -0.328387 5.15736H2.67161C2.67161 5.75338 2.18597 6.19543 1.64129 6.19543V3.19543ZM-0.328387 5.15736V8.56853H2.67161V5.15736H-0.328387ZM-0.328387 8.56853C-0.328387 9.67622 0.576358 10.5305 1.64129 10.5305V7.53046C2.18597 7.53046 2.67161 7.97251 2.67161 8.56853H-0.328387ZM1.64129 10.5305H1.96465V7.53046H1.64129V10.5305ZM0.487437 8.76997L-0.469983 14.1994L2.48443 14.7204L3.44185 9.29095L0.487437 8.76997ZM-0.462689 14.161C-0.493454 14.3123 -0.5 14.4437 -0.5 14.5381H2.5C2.5 14.5827 2.49707 14.6608 2.47714 14.7588L-0.462689 14.161ZM-0.5 14.5381C-0.5 15.6458 0.404745 16.5 1.46968 16.5V13.5C2.01435 13.5 2.5 13.9421 2.5 14.5381H-0.5ZM1.46968 16.5H14.5303V13.5H1.46968V16.5ZM14.5303 16.5C14.6156 16.5 14.7555 16.4951 14.9191 16.4607L14.3005 13.5251C14.4136 13.5013 14.4992 13.5 14.5303 13.5V16.5ZM14.8558 16.4726C15.9132 16.2968 16.6669 15.2914 16.469 14.1938L13.5166 14.726C13.409 14.1294 13.8194 13.6037 14.3639 13.5132L14.8558 16.4726ZM2.43613 7.43909H7.34968V4.43909H2.43613V7.43909ZM8.84968 5.93909V2.24365H5.84968V5.93909H8.84968ZM7.34968 3.74365H8.65033V0.743655H7.34968V3.74365ZM7.15033 2.24365V5.93909H10.1503V2.24365H7.15033ZM8.65033 7.43909H13.5639V4.43909H8.65033V7.43909ZM12.0639 5.93909V7.7868H15.0639V5.93909H12.0639ZM13.5639 6.2868H2.43613V9.2868H13.5639V6.2868ZM3.93613 7.7868V5.93909H0.93613V7.7868H3.93613ZM12.3903 13.7563V10.9848H9.39033V13.7563H12.3903ZM12.3903 10.9848C12.3903 10.0547 11.6301 9.34264 10.7458 9.34264V12.3426C10.0205 12.3426 9.39033 11.7585 9.39033 10.9848H12.3903ZM10.7458 9.34264H9.87872V12.3426H10.7458V9.34264ZM9.87872 9.34264C8.99443 9.34264 8.2342 10.0547 8.2342 10.9848H11.2342C11.2342 11.7585 10.604 12.3426 9.87872 12.3426V9.34264ZM8.2342 10.9848V13.7563H11.2342V10.9848H8.2342ZM9.7342 12.2563H6.26581V15.2563H9.7342V12.2563ZM7.76581 13.7563V10.9848H4.76581V13.7563H7.76581ZM7.76581 10.9848C7.76581 10.0547 7.00558 9.34264 6.12129 9.34264V12.3426C5.39598 12.3426 4.76581 11.7585 4.76581 10.9848H7.76581ZM6.12129 9.34264H5.2542V12.3426H6.12129V9.34264ZM5.2542 9.34264C4.36991 9.34264 3.60968 10.0547 3.60968 10.9848H6.60968C6.60968 11.7585 5.97952 12.3426 5.2542 12.3426V9.34264ZM3.60968 10.9848V13.7563H6.60968V10.9848H3.60968ZM5.10968 12.2563H2.41445V15.2563H5.10968V12.2563ZM3.89165 14.0169L4.70636 9.39759L1.75196 8.87652L0.937253 13.4958L3.89165 14.0169ZM3.22916 10.6371H12.769V7.63706H3.22916V10.6371ZM11.2918 9.39759L12.1066 14.0169L15.061 13.4958L14.2462 8.87652L11.2918 9.39759ZM13.5838 12.2563H10.8903V15.2563H13.5838V12.2563Z" fill="black" mask="url(#path-1-inside-1_4673_4425)"/>
</svg>