<svg width="64" height="64" viewBox="0 0 64 64" fill="none" xmlns="http://www.w3.org/2000/svg">
<path d="M60.6001 26.8876V41.5122C60.6001 44.7639 57.9641 47.3999 54.7124 47.3999H7.08784C3.83613 47.3999 1.2001 44.7639 1.2001 41.5122V20.2877C1.2001 17.0359 3.83613 14.3999 7.08784 14.3999H31.7613C33.3228 14.3999 34.8204 15.0202 35.9246 16.1244L39.0756 19.2754C40.1798 20.3796 41.6774 20.9999 43.2389 20.9999H54.7123C57.9641 20.9999 60.6001 23.6359 60.6001 26.8876Z" fill="#F5F5F5" stroke="black" stroke-width="1.96258"/>
<path d="M10 1.19971V47.3997H54V1.19971H10Z" fill="#F5F5F5" stroke="black" stroke-width="1.96258"/>
<path d="M7.7998 5.59961V53.9996H49.5998V5.59961H7.7998Z" fill="#FCFEFC" stroke="black" stroke-width="1.96258"/>
<path d="M1.2002 37.8877V56.9122C1.2002 60.1639 3.83623 62.7999 7.08795 62.7999H56.9124C60.1642 62.7999 62.8002 60.1639 62.8002 56.9122V31.2877C62.8002 28.0359 60.1642 25.3999 56.9124 25.3999H27.1143C25.5705 25.3999 24.0885 26.0062 22.9874 27.0883L19.7077 30.3115C18.6067 31.3936 17.1246 31.9999 15.5808 31.9999H7.08794C3.83623 31.9999 1.2002 34.6359 1.2002 37.8877Z" fill="#F5F5F5" stroke="black" stroke-width="1.96258"/>
<path d="M12.2002 12.1997H45.2002" stroke="#70B62B" stroke-width="1.96258" stroke-linecap="square"/>
<path d="M12.2002 16.5996H45.2002" stroke="#70B62B" stroke-width="1.96258" stroke-linecap="square"/>
<path d="M12.2002 21H45.2002" stroke="#70B62B" stroke-width="1.96258" stroke-linecap="square"/>
</svg>
