<svg width="29" height="29" viewBox="0 0 29 29" fill="none" xmlns="http://www.w3.org/2000/svg">
<path d="M27.1875 8.55997V22.9496C27.1875 24.2891 26.1016 25.375 24.7622 25.375H4.23786C2.89837 25.375 1.81251 24.2891 1.81251 22.9496L1.8125 6.05035C1.8125 4.71087 2.89837 3.625 4.23785 3.625H14.8155C15.5112 3.625 16.1734 3.92375 16.6338 4.44531L17.4009 5.3143C17.8613 5.83587 18.5235 6.13462 19.2192 6.13462H24.7622C26.1016 6.13462 27.1875 7.22049 27.1875 8.55997Z" fill="" stroke="black" stroke-width="0.836538"/>
<path d="M1.8125 15.8592V22.9496C1.8125 24.2891 2.89837 25.375 4.23785 25.375H24.7621C26.1016 25.375 27.1875 24.2891 27.1875 22.9496V13.3004C27.1875 11.9609 26.1016 10.875 24.7622 10.875H12.4448C11.8342 10.875 11.2461 11.1053 10.7979 11.5199L9.4258 12.789C8.97758 13.2035 8.38949 13.4338 7.77893 13.4338H4.23785C2.89837 13.4338 1.8125 14.5197 1.8125 15.8592Z" fill="" stroke="black" stroke-width="0.836538"/>
</svg>
