<svg width="20" height="20" viewBox="0 0 20 20" fill="none" xmlns="http://www.w3.org/2000/svg">
<path d="M18.75 5.90343V15.8273C18.75 16.7511 18.0011 17.5 17.0773 17.5H2.92266C1.99887 17.5 1.25 16.7511 1.25 15.8273L1.25 4.17265C1.25 3.24887 1.99887 2.5 2.92265 2.5H10.2176C10.6974 2.5 11.1541 2.70603 11.4716 3.06573L12.0006 3.66504C12.3181 4.02474 12.7748 4.23077 13.2546 4.23077H17.0773C18.0011 4.23077 18.75 4.97964 18.75 5.90343Z" stroke="black" stroke-width="1.88"/>
<path d="M1.25 10.9374V15.8273C1.25 16.7511 1.99887 17.5 2.92265 17.5H17.0773C18.0011 17.5 18.75 16.7511 18.75 15.8273V9.17265C18.75 8.24887 18.0011 7.5 17.0773 7.5H8.58259C8.16152 7.5 7.75593 7.65881 7.44682 7.94473L6.50055 8.81998C6.19144 9.10589 5.78586 9.26471 5.36478 9.26471H2.92265C1.99887 9.26471 1.25 10.0136 1.25 10.9374Z" stroke="black" stroke-width="1.88"/>
</svg>
