<svg width="16" height="16" viewBox="0 0 16 16" fill="none" xmlns="http://www.w3.org/2000/svg">
<g clip-path="url(#clip0_3651_4144)">
<path d="M2 3C2 2.73478 2.10536 2.48043 2.29289 2.29289C2.48043 2.10536 2.73478 2 3 2H10.112C10.2434 1.99998 10.3735 2.02585 10.4948 2.07613C10.6162 2.1264 10.7265 2.2001 10.8193 2.293L12.1053 3.579L13.707 5.18067C13.7999 5.27354 13.8736 5.38382 13.9239 5.50518C13.9741 5.62655 14 5.75663 14 5.888V13C14 13.2652 13.8946 13.5196 13.7071 13.7071C13.5196 13.8946 13.2652 14 13 14H3C2.73478 14 2.48043 13.8946 2.29289 13.7071C2.10536 13.5196 2 13.2652 2 13V3Z" stroke="#808080" stroke-width="1.5" stroke-linejoin="round"/>
<path d="M10.3334 8.66675H5.66675C5.40153 8.66675 5.14718 8.7721 4.95964 8.95964C4.7721 9.14718 4.66675 9.40153 4.66675 9.66675V14.0001H11.3334V9.66675C11.3334 9.40153 11.2281 9.14718 11.0405 8.95964C10.853 8.7721 10.5986 8.66675 10.3334 8.66675Z" stroke="#808080" stroke-width="1.5" stroke-linejoin="round"/>
<path d="M9.66675 5.33333H5.66675C5.40153 5.33333 5.14718 5.22798 4.95964 5.04044C4.7721 4.8529 4.66675 4.59855 4.66675 4.33333V2" stroke="#808080" stroke-width="1.5" stroke-linecap="round" stroke-linejoin="round"/>
</g>
<defs>
<clipPath id="clip0_3651_4144">
<rect width="16" height="16" fill="white"/>
</clipPath>
</defs>
</svg>
