<svg xmlns="http://www.w3.org/2000/svg" width="16" height="16" viewBox="0 0 16 16" fill="none">
    <g clip-path="url(#clip0_7744_18319)">
        <path d="M8.16668 13.4584H2H8.16668ZM14.3334 2.66669H12.0209H14.3334ZM14.3334 13.4584H11.25H14.3334ZM8.93751 2.66669H2H8.93751ZM4.3125 8.06253H2H4.3125ZM14.3334 8.06253H7.39584H14.3334Z" fill="#70B62B"/>
        <path d="M8.16668 13.4584H2M14.3334 2.66669H12.0209M14.3334 13.4584H11.25M8.93751 2.66669H2M4.3125 8.06253H2M14.3334 8.06253H7.39584" stroke="#70B62B" stroke-width="1.5" stroke-linecap="round"/>
        <path d="M11.2494 13.4583C11.2494 12.6069 10.5591 11.9167 9.70768 11.9167C8.85624 11.9167 8.16602 12.6069 8.16602 13.4583C8.16602 14.3098 8.85624 15 9.70768 15C10.5591 15 11.2494 14.3098 11.2494 13.4583Z" stroke="#70B62B" stroke-width="1.5" stroke-linecap="round"/>
        <path d="M7.39584 8.06246C7.39584 7.21102 6.70561 6.52079 5.85417 6.52079C5.00273 6.52079 4.3125 7.21102 4.3125 8.06246C4.3125 8.9139 5.00273 9.60413 5.85417 9.60413C6.70561 9.60413 7.39584 8.9139 7.39584 8.06246Z" stroke="#70B62B" stroke-width="1.5" stroke-linecap="round"/>
        <path d="M12.0208 2.6667C12.0208 1.81526 11.3306 1.12504 10.4792 1.12504C9.62773 1.12504 8.9375 1.81526 8.9375 2.6667C8.9375 3.51815 9.62773 4.20837 10.4792 4.20837C11.3306 4.20837 12.0208 3.51815 12.0208 2.6667Z" stroke="#70B62B" stroke-width="1.5" stroke-linecap="round"/>
    </g>
    <defs>
        <clipPath id="clip0_7744_18319">
            <rect width="16" height="16" fill="white" transform="matrix(0 -1 1 0 0 16)"/>
        </clipPath>
    </defs>
</svg>