<svg xmlns="http://www.w3.org/2000/svg" width="16" height="14" viewBox="0 0 16 14" fill="none">
    <path d="M15 3.72274V11.6619C15 12.4009 14.4009 13 13.6619 13H2.33813C1.5991 13 1 12.4009 1 11.6619L1 2.33812C1 1.5991 1.5991 1 2.33813 1H8.17409C8.55792 1 8.92327 1.16483 9.17728 1.45259L9.60049 1.93203C9.8545 2.21979 10.2199 2.38462 10.6037 2.38462H13.6619C14.4009 2.38462 15 2.98371 15 3.72274Z" stroke="black" stroke-width="1.5"/>
    <path d="M1 7.74989V11.6619C1 12.4009 1.5991 13 2.33813 13H13.6619C14.4009 13 15 12.4009 15 11.6619V6.33812C15 5.5991 14.4009 5 13.6619 5H6.86607C6.52921 5 6.20475 5.12705 5.95745 5.35578L5.20044 6.05598C4.95315 6.28472 4.62868 6.41176 4.29183 6.41176H2.33812C1.5991 6.41176 1 7.01086 1 7.74989Z" stroke="black" stroke-width="1.5"/>
</svg>