<svg xmlns="http://www.w3.org/2000/svg" width="16" height="16" viewBox="0 0 16 16" fill="none">
    <path d="M15 4.72274V12.6619C15 13.4009 14.4009 14 13.6619 14H2.33813C1.5991 14 1 13.4009 1 12.6619L1 3.33812C1 2.5991 1.5991 2 2.33813 2H8.17409C8.55792 2 8.92327 2.16483 9.17728 2.45259L9.60049 2.93203C9.8545 3.21979 10.2199 3.38462 10.6037 3.38462H13.6619C14.4009 3.38462 15 3.98371 15 4.72274Z" stroke="white" stroke-width="1.5"/>
    <path d="M1 8.74989V12.6619C1 13.4009 1.5991 14 2.33813 14H13.6619C14.4009 14 15 13.4009 15 12.6619V7.33812C15 6.5991 14.4009 6 13.6619 6H6.86607C6.52921 6 6.20475 6.12705 5.95745 6.35578L5.20044 7.05598C4.95315 7.28472 4.62868 7.41176 4.29183 7.41176H2.33812C1.5991 7.41176 1 8.01086 1 8.74989Z" stroke="white" stroke-width="1.5"/>
</svg>