<svg width="16" height="16" viewBox="0 0 16 16" fill="none" xmlns="http://www.w3.org/2000/svg">
<g clip-path="url(#clip0_3651_4148)">
<g clip-path="url(#clip1_3651_4148)">
<g clip-path="url(#clip2_3651_4148)">
<path d="M7.21915 14.6016C7.00748 14.539 6.81644 14.4208 6.66592 14.2594C6.5154 14.0979 6.41088 13.8991 6.36324 13.6835C6.31596 13.4884 6.22326 13.3072 6.0927 13.1546C5.96214 13.0021 5.7974 12.8825 5.6119 12.8056C5.42639 12.7288 5.22536 12.6968 5.02516 12.7123C4.82497 12.7279 4.63127 12.7904 4.45982 12.895C3.31837 13.5903 2.0112 12.2839 2.70658 11.1417C2.81096 10.9703 2.87343 10.7768 2.88892 10.5767C2.90441 10.3766 2.87247 10.1758 2.7957 9.99036C2.71893 9.80496 2.59951 9.6403 2.44712 9.50975C2.29474 9.3792 2.1137 9.28645 1.91873 9.23904C0.619701 8.9239 0.619701 7.07596 1.91873 6.76082C2.11388 6.71354 2.29511 6.62084 2.44766 6.49028C2.60022 6.35972 2.71979 6.19498 2.79664 6.00948C2.8735 5.82397 2.90547 5.62294 2.88994 5.42275C2.87442 5.22255 2.81185 5.02885 2.70732 4.85741C2.01194 3.71595 3.31837 2.40878 4.46056 3.10416C5.20033 3.55394 6.15906 3.15595 6.36324 2.31631C6.67838 1.01728 8.52631 1.01728 8.84145 2.31631C8.88874 2.51146 8.98143 2.69269 9.11199 2.84524C9.24255 2.9978 9.40729 3.11737 9.5928 3.19423C9.7783 3.27108 9.97934 3.30305 10.1795 3.28753C10.3797 3.27201 10.5734 3.20943 10.7449 3.1049C11.8863 2.40952 13.1935 3.71595 12.4981 4.85815C12.3937 5.02952 12.3313 5.2231 12.3158 5.42316C12.3003 5.62322 12.3322 5.82411 12.409 6.0095C12.4858 6.19489 12.6052 6.35956 12.7576 6.49011C12.91 6.62066 13.091 6.71341 13.286 6.76082C14.2565 6.99607 14.5021 8.08796 14.022 8.75597" stroke="#808080" stroke-width="1.5" stroke-linecap="round" stroke-linejoin="round"/>
<path d="M13.5205 14.6577L15 13.1782L13.5205 11.6986M11.3012 11.6986L9.82165 13.1782L11.3012 14.6577M5.38306 7.99981C5.38306 8.58841 5.61687 9.15289 6.03307 9.56909C6.44927 9.98529 7.01376 10.2191 7.60235 10.2191C8.19095 10.2191 8.75543 9.98529 9.17163 9.56909C9.58783 9.15289 9.82165 8.58841 9.82165 7.99981C9.82165 7.41122 9.58783 6.84673 9.17163 6.43053C8.75543 6.01434 8.19095 5.78052 7.60235 5.78052C7.01376 5.78052 6.44927 6.01434 6.03307 6.43053C5.61687 6.84673 5.38306 7.41122 5.38306 7.99981Z" stroke="#808080" stroke-width="1.5" stroke-linecap="round" stroke-linejoin="round"/>
</g>
</g>
</g>
<defs>
<clipPath id="clip0_3651_4148">
<rect width="16" height="16" fill="white"/>
</clipPath>
<clipPath id="clip1_3651_4148">
<rect width="16" height="16" fill="white"/>
</clipPath>
<clipPath id="clip2_3651_4148">
<rect width="16" height="16" fill="white"/>
</clipPath>
</defs>
</svg>
