<svg xmlns="http://www.w3.org/2000/svg" width="16" height="16" viewBox="0 0 16 16" fill="none">
    <g clip-path="url(#clip0_6702_3136)">
        <path d="M10.2107 14.9999V9.10503C10.2107 8.9096 10.1331 8.72217 9.9949 8.58399C9.85671 8.4458 9.66929 8.36816 9.47386 8.36816H6.52641C6.33098 8.36816 6.14356 8.4458 6.00537 8.58399C5.86718 8.72217 5.78955 8.9096 5.78955 9.10503V14.9999" stroke="#808080" stroke-width="1.5" stroke-linecap="round" stroke-linejoin="round"/>
        <path d="M1.36816 6.89451C1.36811 6.68014 1.41483 6.46833 1.50506 6.27387C1.5953 6.07941 1.72687 5.90697 1.8906 5.76859L7.04864 1.34815C7.31463 1.12334 7.65165 1 7.99992 1C8.3482 1 8.68522 1.12334 8.95121 1.34815L14.1093 5.76859C14.273 5.90697 14.4046 6.07941 14.4948 6.27387C14.585 6.46833 14.6317 6.68014 14.6317 6.89451V13.5263C14.6317 13.9171 14.4764 14.292 14.2 14.5684C13.9237 14.8447 13.5488 15 13.158 15H2.84189C2.45103 15 2.07618 14.8447 1.79981 14.5684C1.52343 14.292 1.36816 13.9171 1.36816 13.5263V6.89451Z" stroke="#808080" stroke-width="1.5" stroke-linecap="round" stroke-linejoin="round"/>
    </g>
    <defs>
        <clipPath id="clip0_6702_3136">
            <rect width="16" height="16" fill="white"/>
        </clipPath>
    </defs>
</svg>