<svg xmlns="http://www.w3.org/2000/svg" width="30" height="30" viewBox="0 0 30 30" fill="none">
    <g clip-path="url(#clip0_10708_45047)">
        <g clip-path="url(#clip1_10708_45047)">
            <path d="M18.7881 17.3101L18.5732 17.1821C18.3282 17.0366 18.102 16.8851 17.8877 16.7358L17.2705 16.3042C16.6821 15.9072 16.2847 15.2845 16.167 14.5815L15.9531 13.3003L15.8916 12.9321H15.5186C15.091 12.932 14.7461 12.5873 14.7461 12.1597C14.7462 11.8419 14.9366 11.5701 15.21 11.4517L15.6113 11.2778L15.4395 10.8755C15.078 10.028 14.8129 9.12864 14.6533 8.20654V8.20557C14.5505 7.61244 14.5084 7.06083 14.6543 6.58154C14.8027 6.09346 15.1537 5.79899 15.4355 5.78857L15.4775 5.7915L15.7383 5.81006L15.8789 5.59033C16.1633 5.14615 16.6197 4.83584 17.1299 4.65088C17.6476 4.46296 18.2021 4.39579 18.8105 4.32568C19.046 4.2987 19.2778 4.27175 19.5098 4.24854L19.5107 4.24951C20.5844 4.14621 21.7075 4.12698 22.7441 4.41553C23.7111 4.68489 24.6145 5.25866 25.1338 6.13135L25.2324 6.31006C25.5812 6.9912 25.6954 7.81716 25.6465 8.65186L25.6162 9.01025C25.5452 9.64139 25.3926 10.2635 25.208 10.894L25.0918 11.2925L25.4824 11.4321C25.7802 11.539 25.9921 11.8241 25.9922 12.1597C25.9922 12.5874 25.6478 12.932 25.2197 12.9321H24.8467L24.7852 13.3003L24.5713 14.5815C24.4536 15.2844 24.0568 15.9073 23.4688 16.3042C23.0677 16.5746 22.6566 16.8907 22.166 17.1821L21.9502 17.3101V18.5454L22.2578 18.6421L26.2734 19.9106C27.6931 20.3589 28.7887 21.4249 29.3047 22.7563C29.1698 22.8818 29.0337 23.0058 28.8936 23.1255L28.8926 23.1265C28.7063 23.2863 28.6621 23.5024 28.6621 23.6626C28.6622 23.8183 28.702 23.9743 28.7461 24.1069C28.8347 24.3732 28.9888 24.6807 29.1201 24.9448C29.2615 25.2292 29.3788 25.4685 29.4375 25.6528C29.444 25.6732 29.4469 25.6922 29.4512 25.7085C28.3795 26.4179 26.9335 27.4212 25.4131 28.2651C23.8192 29.1498 22.2305 29.8081 20.9775 29.8081C20.4029 29.808 19.77 29.5789 19.0859 29.1685C18.4048 28.7598 17.7079 28.1936 17.0137 27.5679C16.3168 26.9396 15.6484 26.276 14.9971 25.6597C14.3573 25.0542 13.7327 24.4933 13.1621 24.1177C12.7021 23.815 12.2626 23.4836 11.8457 23.1265L11.8447 23.1255C11.7044 23.0057 11.5677 22.882 11.4326 22.7563C11.9483 21.4246 13.0453 20.3587 14.4648 19.9106L18.4805 18.6421L18.7881 18.5454V17.3101Z" fill="#F5F5F5" stroke="black" stroke-width="0.88"/>
            <path d="M9.2002 17.9478L8.98633 17.8208C8.35013 17.4429 7.80669 17.0274 7.2998 16.6851V16.6841C6.5107 16.1517 5.97777 15.3162 5.82031 14.3745L5.54492 12.7222L5.4834 12.3569H5.11328C4.48975 12.3569 3.98633 11.8535 3.98633 11.23C3.98641 10.7667 4.26352 10.3695 4.66211 10.1968L5.06152 10.0239L4.89062 9.62354C4.42049 8.52114 4.07567 7.35197 3.86816 6.15283V6.15186C3.73486 5.38309 3.6754 4.64575 3.87305 3.99658C4.07273 3.33979 4.55939 2.89576 5.00195 2.88037L5.06934 2.88623L5.32812 2.90381L5.46777 2.68506C5.85408 2.08187 6.46948 1.66781 7.14648 1.42236C7.83112 1.17382 8.56205 1.08676 9.34473 0.996582C9.64899 0.96171 9.94971 0.926122 10.251 0.895996L10.25 0.89502C11.64 0.761295 13.1083 0.736034 14.4688 1.11475C15.824 1.49234 17.0959 2.32861 17.7588 3.62451C18.2886 4.65919 18.4082 5.93647 18.2676 7.18213H18.2666C18.1738 8.00703 17.9754 8.81764 17.7363 9.63428L17.6211 10.0298L18.0088 10.1694C18.4435 10.3251 18.7528 10.7405 18.7529 11.23C18.7529 11.8535 18.2509 12.3567 17.627 12.3569H17.2559L17.1953 12.7222L16.9189 14.3745C16.7615 15.3162 16.2293 16.1517 15.4404 16.6841C14.9319 17.027 14.3905 17.4426 13.7539 17.8208L13.5391 17.9478V19.3716L13.8457 19.4683L19.0244 21.104C21.0142 21.7322 22.5222 23.2813 23.1396 25.1929C23.2979 25.6829 23.3015 26.2099 23.2588 26.6294C23.2377 26.8361 23.2067 27.0103 23.1807 27.1313C23.1677 27.1918 23.1554 27.2394 23.1475 27.27C23.1436 27.2851 23.1406 27.2964 23.1387 27.3032L23.1367 27.3101L23.1279 27.3413L23.123 27.3745L22.6602 30.6743L10.6592 31.1323L1.83789 29.606L1.27539 23.481C1.29351 23.4319 1.32284 23.361 1.3623 23.2729C1.44501 23.0885 1.57572 22.8336 1.76758 22.5601C2.15166 22.0126 2.76814 21.4028 3.71484 21.104L8.89453 19.4683L9.2002 19.3716V17.9478Z" fill="#F5F5F5" stroke="black" stroke-width="0.875"/>
            <path d="M28.7637 21.0312C28.9737 21.2704 29.1609 21.5286 29.3242 21.8018C28.5915 22.9669 27.7264 24.0403 26.748 24.999C26.7278 25.0189 26.7071 25.0388 26.6865 25.0586C26.4207 25.3164 26.1465 25.5666 25.8643 25.8076C25.3082 26.284 24.7217 26.7254 24.1084 27.1289L23.585 27.46C20.9367 29.0718 17.8267 30 14.5 30L13.8379 29.9873C10.7609 29.8729 7.88684 28.9644 5.41504 27.46L4.8916 27.1289C4.27832 26.7254 3.69182 26.284 3.13574 25.8076C2.85349 25.5666 2.57933 25.3164 2.31348 25.0586C2.29288 25.0388 2.27217 25.0189 2.25195 24.999C1.74784 24.5049 1.27371 23.9804 0.832031 23.4287V23.4268C0.83624 23.413 0.954532 23.0281 1.25586 22.541C1.66684 23.0822 2.11008 23.5975 2.58301 24.084L2.86816 24.3701V24.3711L2.92383 24.4248L2.92578 24.4268C3.05225 24.5494 3.18045 24.6705 3.31055 24.7891L3.70703 25.1377L3.70801 25.1387C4.2358 25.5908 4.79256 26.0103 5.375 26.3936H5.37598C7.99461 28.1171 11.1289 29.1201 14.5 29.1201C17.8711 29.1201 21.0054 28.1171 23.624 26.3936H23.625C24.2074 26.0103 24.7642 25.5908 25.292 25.1387L25.293 25.1377C25.5606 24.9091 25.8213 24.6721 26.0742 24.4268L26.0762 24.4248C26.0973 24.4045 26.1151 24.3875 26.1318 24.3711V24.3701C27.1451 23.3771 28.0301 22.2547 28.7637 21.0312Z" fill="black"/>
            <path d="M11.9741 19.5H10.6427C10.5271 19.5 10.4461 19.6141 10.4843 19.7232L10.818 20.6776C10.8415 20.7449 10.9051 20.79 10.9764 20.79H11.6403C11.7117 20.79 11.7752 20.7449 11.7987 20.6776L12.1324 19.7232C12.1706 19.6141 12.0896 19.5 11.9741 19.5Z" fill="#70B62B"/>
            <path d="M9.70289 26.8605L10.8346 20.8278C10.8495 20.7484 10.9188 20.6909 10.9995 20.6909H11.6211C11.7028 20.6909 11.7725 20.7497 11.7865 20.8301L12.8314 26.8646C12.84 26.914 12.826 26.9646 12.7934 27.0026L11.435 28.5847C11.3693 28.6612 11.2514 28.6629 11.1836 28.5882L9.74365 27.0043C9.70828 26.9654 9.6932 26.9122 9.70289 26.8605Z" fill="#70B62B"/>
        </g>
    </g>
    <defs>
        <clipPath id="clip0_10708_45047">
            <rect width="30" height="30" fill="white"/>
        </clipPath>
        <clipPath id="clip1_10708_45047">
            <rect x="-3" y="-5" width="35" height="35" rx="17.5" fill="white"/>
        </clipPath>
    </defs>
</svg>