<svg width="16" height="16" viewBox="0 0 16 16" fill="none" xmlns="http://www.w3.org/2000/svg">
<g clip-path="url(#clip0_7702_2006)">
<path d="M10.3333 4.88889H10.3411M1 3.33333C1 2.7145 1.24583 2.121 1.68342 1.68342C2.121 1.24583 2.7145 1 3.33333 1H12.6667C13.2855 1 13.879 1.24583 14.3166 1.68342C14.7542 2.121 15 2.7145 15 3.33333V12.6667C15 13.2855 14.7542 13.879 14.3166 14.3166C13.879 14.7542 13.2855 15 12.6667 15H3.33333C2.7145 15 2.121 14.7542 1.68342 14.3166C1.24583 13.879 1 13.2855 1 12.6667V3.33333Z" stroke="black" stroke-width="1.5" stroke-linecap="round" stroke-linejoin="round"/>
<path d="M1 11.111L4.88889 7.22209C5.61067 6.52753 6.50044 6.52753 7.22222 7.22209L11.1111 11.111" stroke="black" stroke-width="1.5" stroke-linecap="round" stroke-linejoin="round"/>
<path d="M9.55566 9.55553L10.3334 8.77775C11.0552 8.0832 11.945 8.0832 12.6668 8.77775L15.0001 11.1111" stroke="black" stroke-width="1.5" stroke-linecap="round" stroke-linejoin="round"/>
</g>
<defs>
<clipPath id="clip0_7702_2006">
<rect width="16" height="16" fill="white"/>
</clipPath>
</defs>
</svg>
