<svg xmlns="http://www.w3.org/2000/svg" width="14" height="16" viewBox="0 0 14 16" fill="none">
    <path d="M12.6822 11.2682C12.22 12.3741 11.4408 13.3186 10.443 13.9826C9.4451 14.6467 8.27307 15.0006 7.07444 15C3.71989 15 1 12.284 1 8.93333C1 5.58267 2.27556 4.21222 4.27056 1C8.00855 2.63333 8.00855 7.53333 8.00855 7.53333C8.00855 7.53333 9.23667 5.17044 11.7473 4.03333C12.5516 6.39933 13.6373 8.98389 12.6822 11.2682Z" stroke="black" stroke-width="1.5" stroke-linecap="round" stroke-linejoin="round"/>
    <path d="M7.0278 12.6667C5.99641 12.6667 5.00725 12.257 4.27795 11.5277C3.54864 10.7984 3.13892 9.80923 3.13892 8.77783" stroke="black" stroke-width="1.5" stroke-linecap="round" stroke-linejoin="round"/>
</svg>