<svg xmlns="http://www.w3.org/2000/svg" width="20" height="20" viewBox="0 0 20 20" fill="none">
    <g clip-path="url(#clip0_4673_9130)">
        <circle cx="10" cy="10" r="9.25" stroke="black" stroke-width="1.5"/>
        <path d="M9.19968 5.23755H9.19973L9.19962 5.23191C9.19448 4.96484 9.46039 4.66781 10 4.66781C10.2349 4.66781 10.4478 4.7613 10.6018 4.8918C10.7655 5.03046 10.8207 5.1717 10.8207 5.23755V7.9297V9.99998V11.0459C10.8188 11.1212 10.792 11.2355 10.7322 11.376C10.6734 11.5141 10.5899 11.6602 10.493 11.7929C10.3954 11.9265 10.2907 12.0376 10.193 12.1124C10.0898 12.1914 10.0246 12.2072 10 12.2072C9.96952 12.2072 9.90318 12.1899 9.80346 12.1124C9.70791 12.0381 9.60669 11.9274 9.51284 11.7937C9.31837 11.5167 9.20394 11.213 9.19968 11.0459V5.23755ZM10.5746 15.2402C10.5746 15.6312 10.2221 15.9668 9.80915 15.9668C9.38917 15.9668 9.04281 15.6248 9.04281 15.2402C9.04281 14.8455 9.37955 14.5132 9.80915 14.5132C10.2321 14.5132 10.5746 14.8391 10.5746 15.2402Z" fill="black" stroke="black" stroke-width="0.585627"/>
    </g>
    <defs>
        <clipPath id="clip0_4673_9130">
            <rect width="20" height="20" fill="white"/>
        </clipPath>
    </defs>
</svg>