<svg xmlns="http://www.w3.org/2000/svg" width="16" height="16" viewBox="0 0 16 16" fill="none">
    <g clip-path="url(#clip0_4702_1806)">
        <path d="M1.70001 8.93725C1.51868 8.68859 1.42801 8.56392 1.36535 8.32392C1.32304 8.11021 1.32304 7.89029 1.36535 7.67659C1.42801 7.43592 1.51868 7.31125 1.70001 7.06325C2.69268 5.69992 4.86868 3.33325 8.00001 3.33325C11.1313 3.33325 13.3073 5.69992 14.3 7.06259C14.4813 7.31125 14.572 7.43592 14.6347 7.67592C14.677 7.88962 14.677 8.10955 14.6347 8.32325C14.572 8.56392 14.4813 8.68859 14.3 8.93659C13.3073 10.2999 11.1313 12.6666 8.00001 12.6666C4.86868 12.6666 2.69268 10.2999 1.70001 8.93725Z" stroke="black" stroke-width="1.5" stroke-linecap="round" stroke-linejoin="round"/>
        <path d="M7.99996 9.33317C8.35358 9.33317 8.69272 9.19269 8.94277 8.94265C9.19282 8.6926 9.33329 8.35346 9.33329 7.99984C9.33329 7.64622 9.19282 7.30708 8.94277 7.05703C8.69272 6.80698 8.35358 6.6665 7.99996 6.6665C7.64634 6.6665 7.3072 6.80698 7.05715 7.05703C6.8071 7.30708 6.66663 7.64622 6.66663 7.99984C6.66663 8.35346 6.8071 8.6926 7.05715 8.94265C7.3072 9.19269 7.64634 9.33317 7.99996 9.33317Z" stroke="black" stroke-width="1.5" stroke-linecap="round" stroke-linejoin="round"/>
    </g>
    <defs>
        <clipPath id="clip0_4702_1806">
            <rect width="16" height="16" fill="white"/>
        </clipPath>
    </defs>
</svg>