<svg width="16" height="16" viewBox="0 0 16 16" fill="none" xmlns="http://www.w3.org/2000/svg">
<g clip-path="url(#clip0_4563_11776)">
<circle cx="8" cy="8" r="7.25" stroke="black" stroke-width="1.5"/>
<path d="M8.89081 8.83927C8.88312 9.24687 8.37614 9.99998 8 9.99998C7.6078 9.99998 7.13319 9.23917 7.12549 8.83927V4.19004C7.11779 3.79014 7.5 3.5 8 3.5C8.5 3.5 8.89081 3.89591 8.89081 4.19004V6.34376V7.99998V8.83927Z" fill="black"/>
<path d="M8.69397 12.1922C8.69397 12.6469 8.29407 13.0077 7.84732 13.0077C7.3922 13.0077 7 12.6392 7 12.1922C7 11.737 7.38451 11.3763 7.84732 11.3763C8.3021 11.3763 8.69397 11.7293 8.69397 12.1922Z" fill="black"/>
</g>
<defs>
<clipPath id="clip0_4563_11776">
<rect width="16" height="16" fill="white"/>
</clipPath>
</defs>
</svg>
