<svg xmlns="http://www.w3.org/2000/svg" width="8" height="12" viewBox="0 0 8 12" fill="none">
    <path d="M6.94421 10.0256C7.26321 10.3032 7.2631 10.7988 6.94396 11.0763C6.68194 11.3041 6.29213 11.304 6.03018 11.0761L0.708013 6.44616C0.614858 6.36561 0.54093 6.26981 0.490482 6.1643C0.440034 6.05878 0.414063 5.94562 0.414063 5.83134C0.414063 5.71705 0.440034 5.6039 0.490482 5.49838C0.54093 5.39286 0.614858 5.29707 0.708013 5.21651L6.03019 0.584136C6.29209 0.356182 6.68195 0.356165 6.94387 0.584097C7.26259 0.861458 7.26261 1.35653 6.94392 1.63392L2.12301 5.83003L6.94421 10.0256Z" fill="black"/>
</svg>