<svg width="23" height="20" viewBox="0 0 23 20" fill="none" xmlns="http://www.w3.org/2000/svg">
<path d="M1 4.40303V16.8857C1 17.3296 1.27203 17.7282 1.68544 17.89C1.81071 17.9391 1.94404 17.9642 2.07857 17.9642H10.625H15.7292H20.6375C20.7674 17.9642 20.8966 17.9457 21.0213 17.9091C21.6015 17.7387 22 17.2064 22 16.6017V4.40303C22 3.6084 21.3558 2.96423 20.5612 2.96423H11.5H2.43879C1.64417 2.96423 1 3.6084 1 4.40303Z" stroke="white"/>
<path d="M21.6948 15.5778L13.0625 6.59088C12.2109 5.70434 10.7919 5.70707 9.94379 6.59687L1.55502 15.3977C1.19875 15.7715 1 16.268 1 16.7844V17.1382C1 17.4191 1.14273 17.6807 1.37891 17.8328C1.51224 17.9186 1.66746 17.9642 1.82603 17.9642H2.74942H6.18689L16.0284 17.9642L20.8267 17.9642C22.0196 17.9642 22.2912 16.3822 21.6948 15.5778Z" stroke="white"/>
<path d="M1.48416 5.16881L11.0555 12.6183C11.3166 12.8215 11.6826 12.8204 11.9425 12.6157L21.6914 4.93673C21.8863 4.78324 22 4.54888 22 4.30082C22 4.10944 21.9322 3.92426 21.8086 3.77813L21.6779 3.62358C21.5078 3.42234 21.2829 3.27478 21.0305 3.19879L20.5559 3.05589C20.3541 2.99511 20.1444 2.96423 19.9337 2.96423H16.8159H11.8875H9.26393H6.64034H2.14277C1.04318 2.96423 0.761915 4.14214 1.19247 4.86592C1.26474 4.9874 1.37261 5.08198 1.48416 5.16881Z" fill="#70B62B" stroke="white"/>
</svg>
