<svg width="16" height="16" viewBox="0 0 16 16" fill="none" xmlns="http://www.w3.org/2000/svg">
<path d="M10 4C10 2.89543 9.10457 2 8 2C6.89543 2 6 2.89543 6 4V7.33333C6 8.4379 6.89543 9.33333 8 9.33333C9.10457 9.33333 10 8.4379 10 7.33333V4Z" stroke="black" stroke-width="1.5" stroke-linecap="round" stroke-linejoin="round"/>
<path d="M12.6666 7.33301C12.6666 7.94584 12.5459 8.55268 12.3114 9.11886C12.0768 9.68505 11.7331 10.1995 11.2997 10.6328C10.8664 11.0662 10.352 11.4099 9.78577 11.6444C9.21959 11.879 8.61275 11.9997 7.99992 11.9997M7.99992 11.9997C7.38708 11.9997 6.78025 11.879 6.21406 11.6444C5.64788 11.4099 5.13343 11.0662 4.70009 10.6328C4.26675 10.1995 3.923 9.68505 3.68848 9.11886C3.45396 8.55268 3.33325 7.94584 3.33325 7.33301M7.99992 11.9997V13.9997" stroke="black" stroke-width="1.5" stroke-linecap="round" stroke-linejoin="round"/>
</svg>
