<svg width="23" height="19" viewBox="0 0 23 19" fill="none" xmlns="http://www.w3.org/2000/svg">
<path d="M20 5.85174V15.184C20 16.1869 19.1869 17 18.184 17H3.81602C2.81306 17 2 16.1869 2 15.184V3.81603C2 2.81306 2.81306 2 3.81603 2H11.4263C11.908 2 12.3699 2.19133 12.7105 2.5319L13.6824 3.50381C14.023 3.84438 14.4849 4.03571 14.9665 4.03571H18.184C19.1869 4.03571 20 4.84878 20 5.85174Z" stroke="#fff"/>
<path d="M2 9.24462V15.1126C2 16.1155 2.81306 16.9286 3.81603 16.9286H18.184C19.1869 16.9286 20 16.1155 20 15.1126V7.20891C20 6.20595 19.1869 5.39288 18.184 5.39288H9.99299C9.51682 5.39288 9.0597 5.5799 8.72008 5.91367L7.70849 6.90781C7.36887 7.24158 6.91175 7.4286 6.43558 7.4286H3.81603C2.81306 7.4286 2 8.24166 2 9.24462Z" stroke="#fff"/>
<circle cx="18.5" cy="11.5" r="3.1" fill="none" stroke="#fff" stroke-width="0.8"/>
<path d="M20.1768 11.6768C20.2744 11.5792 20.2744 11.4209 20.1768 11.3232L18.5858 9.73225C18.4882 9.63462 18.3299 9.63462 18.2322 9.73225C18.1346 9.82988 18.1346 9.98817 18.2322 10.0858L19.6464 11.5L18.2322 12.9142C18.1346 13.0119 18.1346 13.1702 18.2322 13.2678C18.3299 13.3654 18.4882 13.3654 18.5858 13.2678L20.1768 11.6768ZM15.5 11.75H20V11.25H15.5V11.75Z" fill="#FFF"/>
</svg>
