<svg xmlns="http://www.w3.org/2000/svg" width="16" height="16" viewBox="0 0 16 16" fill="none">
    <g clip-path="url(#clip0_6538_37325)">
        <path d="M4.01681 6.39344C4.0091 6.52156 4.00525 6.65448 4.00525 6.79219C4.00525 9.5 3.43837 10 2.63619 10.9822C2.30369 11.3891 2.59462 12 3.1765 12H10.0009V12.5C10.0009 13.0304 9.79016 13.5391 9.41509 13.9142C9.04001 14.2893 8.53131 14.5 8.00087 14.5C7.47044 14.5 6.96173 14.2893 6.58666 13.9142C6.21159 13.5391 6.00087 13.0304 6.00087 12.5V12M12.954 10.4781C12.3765 9.74531 11.9971 9.00781 11.9971 6.79063C11.9971 4.3125 10.7309 3.42906 9.68837 3C9.54994 2.94312 9.41962 2.8125 9.37744 2.67031C9.19494 2.04812 8.68275 1.5 8.00087 1.5C7.319 1.5 6.80712 2.04844 6.62587 2.67094C6.58369 2.81469 6.45337 2.94312 6.31337 3C6.11996 3.07893 5.93204 3.17069 5.75087 3.27469" stroke="black" stroke-width="1.5" stroke-linecap="round" stroke-linejoin="round"/>
        <path d="M14 14L2 2" stroke="black" stroke-width="1.5" stroke-miterlimit="10" stroke-linecap="round"/>
    </g>
    <defs>
        <clipPath id="clip0_6538_37325">
            <rect width="16" height="16" fill="white"/>
        </clipPath>
    </defs>
</svg>