<svg xmlns="http://www.w3.org/2000/svg" width="16" height="16" viewBox="0 0 16 16" fill="none">
    <path d="M10 12H3.17564C2.59377 12 2.30283 11.3891 2.63533 10.9822C3.43752 10 4.00439 9.5 4.00439 6.79219C3.83628 6.04458 3.95004 4.29444 5.75002 3.27469C5.93119 3.17069 6.11911 3.07893 6.31252 3C6.45252 2.94312 6.58283 2.81469 6.62502 2.67094C6.80627 2.04844 7.31814 1.5 8.00002 1.5C8.68189 1.5 9.19408 2.04812 9.37658 2.67031C9.41877 2.8125 9.54908 2.94312 9.68752 3C10.73 3.42906 11.9963 4.3125 11.9963 6.79063C11.9963 9.00781 12.3756 9.74531 12.9531 10.4781M10 12V12.5C10 13.0304 9.78931 13.5391 9.41423 13.9142C9.03916 14.2893 8.53045 14.5 8.00002 14.5C7.46959 14.5 6.96088 14.2893 6.58581 13.9142C6.21073 13.5391 6.00002 13.0304 6.00002 12.5V12M10 12H11.9963C12.5957 12 13.6358 11.7 13 10.5" stroke="black" stroke-width="1.5" stroke-linecap="round" stroke-linejoin="round"/>
</svg>