<svg width="16" height="15" viewBox="0 0 16 15" fill="none" xmlns="http://www.w3.org/2000/svg">
<path d="M2.54163 7.16668V1M13.3333 13.3334V11.0209M2.54163 13.3334V10.25M13.3333 7.93751V1M7.93747 3.3125V1M7.93747 13.3334V6.39584" stroke="#808080" stroke-width="1.5" stroke-linecap="round"/>
<path d="M2.54167 10.25C3.39311 10.25 4.08334 9.55976 4.08334 8.70832C4.08334 7.85688 3.39311 7.16665 2.54167 7.16665C1.69023 7.16665 1 7.85688 1 8.70832C1 9.55976 1.69023 10.25 2.54167 10.25Z" stroke="#808080" stroke-width="1.5" stroke-linecap="round"/>
<path d="M7.93754 6.39584C8.78898 6.39584 9.47921 5.70561 9.47921 4.85417C9.47921 4.00273 8.78898 3.3125 7.93754 3.3125C7.0861 3.3125 6.39587 4.00273 6.39587 4.85417C6.39587 5.70561 7.0861 6.39584 7.93754 6.39584Z" stroke="#808080" stroke-width="1.5" stroke-linecap="round"/>
<path d="M13.3333 11.0208C14.1847 11.0208 14.875 10.3306 14.875 9.47918C14.875 8.62774 14.1847 7.93751 13.3333 7.93751C12.4819 7.93751 11.7916 8.62774 11.7916 9.47918C11.7916 10.3306 12.4819 11.0208 13.3333 11.0208Z" stroke="#808080" stroke-width="1.5" stroke-linecap="round"/>
</svg>
