<svg width="16" height="16" viewBox="0 0 16 16" fill="none" xmlns="http://www.w3.org/2000/svg">
<g clip-path="url(#clip0_3651_4126)">
<path d="M4 1.75C4.13807 1.75 4.25 1.86193 4.25 2L4.25 6C4.25 6.13807 4.13807 6.25 4 6.25L2 6.25C1.86193 6.25 1.75 6.13807 1.75 6L1.75 2C1.75 1.86193 1.86193 1.75 2 1.75L4 1.75Z" stroke="#808080" stroke-width="1.5"/>
<path d="M4 9.75C4.13807 9.75 4.25 9.86193 4.25 10L4.25 14C4.25 14.1381 4.13807 14.25 4 14.25H2C1.86193 14.25 1.75 14.1381 1.75 14L1.75 10C1.75 9.86193 1.86193 9.75 2 9.75H4Z" stroke="#808080" stroke-width="1.5"/>
<path d="M9 1.75C9.13807 1.75 9.25 1.86193 9.25 2V6C9.25 6.13807 9.13807 6.25 9 6.25L7 6.25C6.86193 6.25 6.75 6.13807 6.75 6L6.75 2C6.75 1.86193 6.86193 1.75 7 1.75L9 1.75Z" stroke="#808080" stroke-width="1.5"/>
<path d="M9 9.75C9.13807 9.75 9.25 9.86193 9.25 10V14C9.25 14.1381 9.13807 14.25 9 14.25H7C6.86193 14.25 6.75 14.1381 6.75 14L6.75 10C6.75 9.86193 6.86193 9.75 7 9.75H9Z" stroke="#808080" stroke-width="1.5"/>
<path d="M14 1.75C14.1381 1.75 14.25 1.86193 14.25 2V6C14.25 6.13807 14.1381 6.25 14 6.25L12 6.25C11.8619 6.25 11.75 6.13807 11.75 6V2C11.75 1.86193 11.8619 1.75 12 1.75L14 1.75Z" stroke="#808080" stroke-width="1.5"/>
<path d="M14 9.75C14.1381 9.75 14.25 9.86193 14.25 10V14C14.25 14.1381 14.1381 14.25 14 14.25H12C11.8619 14.25 11.75 14.1381 11.75 14V10C11.75 9.86193 11.8619 9.75 12 9.75H14Z" stroke="#808080" stroke-width="1.5"/>
</g>
<defs>
<clipPath id="clip0_3651_4126">
<rect width="16" height="16" fill="white"/>
</clipPath>
</defs>
</svg>
