<svg xmlns="http://www.w3.org/2000/svg" width="16" height="16" viewBox="0 0 16 16" fill="none">
    <g clip-path="url(#clip0_4538_2237)">
        <path d="M1.69989 8.93725C1.51856 8.68859 1.42789 8.56392 1.36523 8.32392C1.32292 8.11021 1.32292 7.89029 1.36523 7.67659C1.42789 7.43592 1.51856 7.31125 1.69989 7.06325C2.69256 5.69992 4.86856 3.33325 7.99989 3.33325C11.1312 3.33325 13.3072 5.69992 14.2999 7.06259C14.4812 7.31125 14.5719 7.43592 14.6346 7.67592C14.6769 7.88962 14.6769 8.10955 14.6346 8.32325C14.5719 8.56392 14.4812 8.68859 14.2999 8.93659C13.3072 10.2999 11.1312 12.6666 7.99989 12.6666C4.86856 12.6666 2.69256 10.2999 1.69989 8.93725Z" stroke="black" stroke-width="1.5" stroke-linecap="round" stroke-linejoin="round"/>
        <path d="M7.99984 9.33317C8.35346 9.33317 8.6926 9.19269 8.94265 8.94265C9.19269 8.6926 9.33317 8.35346 9.33317 7.99984C9.33317 7.64622 9.19269 7.30708 8.94265 7.05703C8.6926 6.80698 8.35346 6.6665 7.99984 6.6665C7.64622 6.6665 7.30708 6.80698 7.05703 7.05703C6.80698 7.30708 6.6665 7.64622 6.6665 7.99984C6.6665 8.35346 6.80698 8.6926 7.05703 8.94265C7.30708 9.19269 7.64622 9.33317 7.99984 9.33317Z" stroke="black" stroke-width="1.5" stroke-linecap="round" stroke-linejoin="round"/>
    </g>
    <defs>
        <clipPath id="clip0_4538_2237">
            <rect width="16" height="16" fill="white"/>
        </clipPath>
    </defs>
</svg>