<svg xmlns="http://www.w3.org/2000/svg" width="16" height="14" viewBox="0 0 16 14" fill="none">
    <path d="M9.09521 0.25C7.28606 0.25 5.55101 0.968682 4.27175 2.24794C2.99249 3.52721 2.2738 5.26226 2.2738 7.07141H0.476923C0.299586 7.07141 0.209975 7.2851 0.334268 7.41159L2.86019 9.98215C2.93802 10.0614 3.06547 10.062 3.14409 9.98357L5.72103 7.41301C5.84727 7.28709 5.75809 7.07141 5.57979 7.07141H3.78967C3.78967 5.66429 4.34865 4.31481 5.34363 3.31983C6.33861 2.32484 7.6881 1.76587 9.09521 1.76587C10.5023 1.76587 11.8518 2.32484 12.8468 3.31983C13.8418 4.31481 14.4008 5.66429 14.4008 7.07141C14.4008 8.47853 13.8418 9.82801 12.8468 10.823C11.8518 11.818 10.5023 12.377 9.09521 12.377C7.6324 12.377 6.30602 11.7782 5.35102 10.8156L4.27475 11.8919C4.90506 12.5289 5.65596 13.0339 6.48362 13.3774C7.31128 13.721 8.19909 13.8962 9.09521 13.8928C10.9044 13.8928 12.6394 13.1741 13.9187 11.8949C15.1979 10.6156 15.9166 8.88056 15.9166 7.07141C15.9166 5.26226 15.1979 3.52721 13.9187 2.24794C12.6394 0.968682 10.9044 0.25 9.09521 0.25Z" fill="#808080"/>
</svg>