<svg width="16" height="17" viewBox="0 0 16 17" fill="none" xmlns="http://www.w3.org/2000/svg">
<g clip-path="url(#clip0_4592_4658)">
<path d="M4.01583 6.89344C4.00813 7.02156 4.00427 7.15448 4.00427 7.29219C4.00427 10 3.4374 10.5 2.63521 11.4822C2.30271 11.8891 2.59365 12.5 3.17552 12.5H9.9999V13C9.9999 13.5304 9.78918 14.0391 9.41411 14.4142C9.03904 14.7893 8.53033 15 7.9999 15C7.46946 15 6.96076 14.7893 6.58568 14.4142C6.21061 14.0391 5.9999 13.5304 5.9999 13V12.5M12.953 10.9781C12.3755 10.2453 11.9961 9.50781 11.9961 7.29063C11.9961 4.8125 10.7299 3.92906 9.6874 3.5C9.54896 3.44312 9.41865 3.3125 9.37646 3.17031C9.19396 2.54812 8.68177 2 7.9999 2C7.31802 2 6.80615 2.54844 6.6249 3.17094C6.58271 3.31469 6.4524 3.44312 6.3124 3.5C6.11899 3.57893 5.93107 3.67069 5.7499 3.77469" stroke="black" stroke-width="1.5" stroke-linecap="round" stroke-linejoin="round"/>
<path d="M14 14.5L2 2.5" stroke="black" stroke-width="1.5" stroke-miterlimit="10" stroke-linecap="round"/>
</g>
<defs>
<clipPath id="clip0_4592_4658">
<rect width="16" height="16" fill="white" transform="translate(0 0.5)"/>
</clipPath>
</defs>
</svg>
