<svg xmlns="http://www.w3.org/2000/svg" width="60" height="62" viewBox="0 0 60 62" fill="none">
    <path d="M26.4323 46.2669C31.9732 46.2669 37.0145 44.1286 40.7761 40.632C44.9156 36.7842 47.5052 31.2916 47.5052 25.194C47.5052 13.5556 38.0707 4.12109 26.4323 4.12109C14.7938 4.12109 5.35938 13.5556 5.35938 25.194C5.35938 36.8325 14.7938 46.2669 26.4323 46.2669Z" fill="#F5F5F5" stroke="black" stroke-width="2.125" stroke-linecap="round" stroke-linejoin="round"/>
    <path d="M49.5845 57.6276L37.5898 43.7876L41.8398 39.5376L54.4629 53.9639C55.6361 55.3047 55.3101 57.3804 53.7824 58.2971C52.4062 59.1228 50.6357 58.8405 49.5845 57.6276Z" fill="#F5F5F5" stroke="black" stroke-width="2.125"/>
    <path d="M36.5273 19.3501C35.1333 17.3265 33.477 15.7216 31.6537 14.6276C29.8304 13.5336 27.8759 12.972 25.9023 12.9751C23.9288 12.972 21.9743 13.5336 20.151 14.6276C18.3277 15.7216 16.6714 17.3265 15.2773 19.3501" stroke="#70B62B" stroke-width="3.1875" stroke-linecap="round" stroke-linejoin="round"/>
</svg>