<svg xmlns="http://www.w3.org/2000/svg" width="16" height="16" viewBox="0 0 16 16" fill="none">
    <g clip-path="url(#clip0_4702_8547)">
        <path d="M9.09521 8.26089V8.47652L9.28058 8.58667L11.4742 9.89034C11.5478 9.93403 11.5719 10.0291 11.5282 10.1026C11.4845 10.176 11.3896 10.2001 11.3162 10.1565L8.81215 8.67048C8.7527 8.6352 8.71625 8.57119 8.71625 8.50205V5.60812C8.71625 5.50347 8.80108 5.41864 8.90573 5.41864C9.01038 5.41864 9.09521 5.50347 9.09521 5.60812V8.26089ZM2.2738 8.45038H2.65277V8.07141C2.65277 6.36277 3.33153 4.72411 4.53972 3.51592C5.74791 2.30772 7.38657 1.62897 9.09521 1.62897C10.8039 1.62897 12.4425 2.30772 13.6507 3.51592C14.8589 4.72411 15.5377 6.36277 15.5377 8.07141C15.5377 9.78005 14.8589 11.4187 13.6507 12.6269C12.4425 13.8351 10.8039 14.5139 9.09521 14.5139L9.09378 14.5139C8.24801 14.5171 7.41007 14.3517 6.62891 14.0274C5.96401 13.7514 5.35159 13.365 4.81718 12.8854L5.35897 12.3436C6.35449 13.2209 7.66396 13.7559 9.09521 13.7559C10.6028 13.7559 12.0487 13.157 13.1148 12.091C14.1808 11.0249 14.7797 9.57904 14.7797 8.07141C14.7797 6.56378 14.1808 5.11791 13.1148 4.05186C12.0487 2.9858 10.6028 2.3869 9.09521 2.3869C7.58759 2.3869 6.14171 2.9858 5.07566 4.05186C4.00961 5.11791 3.41071 6.56379 3.41071 8.07141V8.45038H3.78967H5.14696L3.00411 10.5879L0.903691 8.45038H2.2738Z" fill="white" stroke="white" stroke-width="0.757935"/>
    </g>
    <defs>
        <clipPath id="clip0_4702_8547">
            <rect width="16" height="16" fill="white"/>
        </clipPath>
    </defs>
</svg>