<svg xmlns="http://www.w3.org/2000/svg" width="16" height="16" viewBox="0 0 16 16" fill="none">
    <g clip-path="url(#clip0_9508_29008)">
        <g clip-path="url(#clip1_9508_29008)">
            <path d="M7.22 14.6014C7.00833 14.5387 6.8173 14.4206 6.66678 14.2591C6.51625 14.0977 6.41173 13.8988 6.36409 13.6833C6.31681 13.4882 6.22412 13.3069 6.09355 13.1544C5.96299 13.0018 5.79826 12.8822 5.61275 12.8054C5.42724 12.7285 5.22621 12.6966 5.02602 12.7121C4.82582 12.7276 4.63212 12.7902 4.46068 12.8947C3.31922 13.5901 2.01205 12.2837 2.70743 11.1415C2.81182 10.9701 2.87429 10.7765 2.88977 10.5765C2.90526 10.3764 2.87332 10.1755 2.79655 9.99011C2.71979 9.80472 2.60036 9.64006 2.44798 9.50951C2.2956 9.37896 2.11456 9.28621 1.91958 9.23879C0.620555 8.92365 0.620555 7.07572 1.91958 6.76058C2.11473 6.71329 2.29596 6.6206 2.44852 6.49004C2.60107 6.35948 2.72064 6.19474 2.7975 6.00923C2.87435 5.82373 2.90632 5.6227 2.8908 5.4225C2.87528 5.22231 2.8127 5.0286 2.70817 4.85716C2.01279 3.7157 3.31922 2.40854 4.46142 3.10392C5.20118 3.5537 6.15992 3.1557 6.36409 2.31607C6.67923 1.01704 8.52717 1.01704 8.84231 2.31607C8.88959 2.51122 8.98229 2.69244 9.11285 2.845C9.24341 2.99755 9.40815 3.11713 9.59365 3.19398C9.77916 3.27084 9.98019 3.3028 10.1804 3.28728C10.3806 3.27176 10.5743 3.20919 10.7457 3.10466C11.8872 2.40928 13.1943 3.7157 12.499 4.8579C12.3946 5.02927 12.3321 5.22286 12.3166 5.42291C12.3011 5.62297 12.3331 5.82386 12.4098 6.00926C12.4866 6.19465 12.606 6.35931 12.7584 6.48986C12.9108 6.62041 13.0918 6.71316 13.2868 6.76058C14.2574 6.99582 14.503 8.08772 14.0229 8.75573" stroke="#808080" stroke-width="1.5" stroke-linecap="round" stroke-linejoin="round"/>
            <path d="M13.5222 14.6575L15.0017 13.1779L13.5222 11.6984M11.3029 11.6984L9.82336 13.1779L11.3029 14.6575M5.38477 7.99957C5.38477 8.58816 5.61858 9.15265 6.03478 9.56885C6.45098 9.98505 7.01547 10.2189 7.60406 10.2189C8.19266 10.2189 8.75714 9.98505 9.17334 9.56885C9.58954 9.15265 9.82336 8.58816 9.82336 7.99957C9.82336 7.41098 9.58954 6.84649 9.17334 6.43029C8.75714 6.01409 8.19266 5.78027 7.60406 5.78027C7.01547 5.78027 6.45098 6.01409 6.03478 6.43029C5.61858 6.84649 5.38477 7.41098 5.38477 7.99957Z" stroke="#808080" stroke-width="1.5" stroke-linecap="round" stroke-linejoin="round"/>
        </g>
    </g>
    <defs>
        <clipPath id="clip0_9508_29008">
            <rect width="16" height="16" fill="white"/>
        </clipPath>
        <clipPath id="clip1_9508_29008">
            <rect width="16" height="16" fill="white"/>
        </clipPath>
    </defs>
</svg>