<svg width="16" height="16" viewBox="0 0 16 16" fill="none" xmlns="http://www.w3.org/2000/svg">
<g clip-path="url(#clip0_4002_8532)">
<g clip-path="url(#clip1_4002_8532)">
<path d="M11.0176 6.95348C11.5602 6.95348 12.0001 6.51618 12.0001 5.97674C12.0001 5.4373 11.5602 5 11.0176 5C10.475 5 10.0352 5.4373 10.0352 5.97674C10.0352 6.51618 10.475 6.95348 11.0176 6.95348Z" fill="#808080"/>
<path d="M4.98246 6.95348C5.52505 6.95348 5.96491 6.51618 5.96491 5.97674C5.96491 5.4373 5.52505 5 4.98246 5C4.43986 5 4 5.4373 4 5.97674C4 6.51618 4.43986 6.95348 4.98246 6.95348Z" fill="#808080"/>
<circle cx="8" cy="8" r="7.25" stroke="#808080" stroke-width="1.5"/>
<path d="M4 10C4 10 5.6 12 8 12C10.4 12 12 10 12 10" stroke="#808080" stroke-width="1.5" stroke-linecap="round"/>
</g>
</g>
<defs>
<clipPath id="clip0_4002_8532">
<rect width="16" height="16" fill="white"/>
</clipPath>
<clipPath id="clip1_4002_8532">
<rect width="16" height="16" fill="white"/>
</clipPath>
</defs>
</svg>
