<svg xmlns="http://www.w3.org/2000/svg" width="19" height="20" viewBox="0 0 19 20" fill="none">
    <path d="M7.12753 4.50663C8.18337 2.61329 8.71087 1.66663 9.50003 1.66663C10.2892 1.66663 10.8167 2.61329 11.8725 4.50663L12.1459 4.99663C12.4459 5.53496 12.5959 5.80413 12.8292 5.98163C13.0625 6.15913 13.3542 6.22496 13.9375 6.35663L14.4675 6.47663C16.5175 6.94079 17.5417 7.17246 17.7859 7.95663C18.0292 8.73996 17.3309 9.55746 15.9334 11.1916L15.5717 11.6141C15.175 12.0783 14.9759 12.3108 14.8867 12.5975C14.7975 12.885 14.8275 13.195 14.8875 13.8141L14.9425 14.3783C15.1534 16.5591 15.2592 17.6491 14.6209 18.1333C13.9825 18.6175 13.0225 18.1758 11.1042 17.2925L10.6067 17.0641C10.0617 16.8125 9.7892 16.6875 9.50003 16.6875C9.21087 16.6875 8.93837 16.8125 8.39337 17.0641L7.8967 17.2925C5.97753 18.1758 5.01753 18.6175 4.38003 18.1341C3.74087 17.6491 3.8467 16.5591 4.05753 14.3783L4.11253 13.815C4.17253 13.195 4.20253 12.885 4.11253 12.5983C4.0242 12.3108 3.82503 12.0783 3.42837 11.615L3.0667 11.1916C1.6692 9.55829 0.970866 8.74079 1.2142 7.95663C1.45753 7.17246 2.48337 6.93996 4.53337 6.47663L5.06337 6.35663C5.64587 6.22496 5.9367 6.15913 6.17087 5.98163C6.40503 5.80413 6.5542 5.53496 6.8542 4.99663L7.12753 4.50663Z" stroke="black" stroke-width="1.875"/>
</svg>