<svg width="16" height="16" viewBox="0 0 16 16" fill="none" xmlns="http://www.w3.org/2000/svg">
<g clip-path="url(#clip0_7286_23032)">
<g clip-path="url(#clip1_7286_23032)">
<path d="M6.10183 3.6055C6.9465 2.09083 7.3685 1.3335 7.99983 1.3335C8.63116 1.3335 9.05316 2.09083 9.89783 3.6055L10.1165 3.9975C10.3565 4.42816 10.4765 4.6435 10.6632 4.7855C10.8498 4.9275 11.0832 4.98016 11.5498 5.0855L11.9738 5.1815C13.6138 5.55283 14.4332 5.73816 14.6285 6.3655C14.8232 6.99216 14.2645 7.64616 13.1465 8.9535L12.8572 9.2915C12.5398 9.66283 12.3805 9.84883 12.3092 10.0782C12.2378 10.3082 12.2618 10.5562 12.3098 11.0515L12.3538 11.5028C12.5225 13.2475 12.6072 14.1195 12.0965 14.5068C11.5858 14.8942 10.8178 14.5408 9.28316 13.8342L8.88516 13.6515C8.44916 13.4502 8.23116 13.3502 7.99983 13.3502C7.7685 13.3502 7.5505 13.4502 7.1145 13.6515L6.71716 13.8342C5.18183 14.5408 4.41383 14.8942 3.90383 14.5075C3.3925 14.1195 3.47716 13.2475 3.64583 11.5028L3.68983 11.0522C3.73783 10.5562 3.76183 10.3082 3.68983 10.0788C3.61916 9.84883 3.45983 9.66283 3.1425 9.29216L2.85316 8.9535C1.73516 7.64683 1.1765 6.99283 1.37116 6.3655C1.56583 5.73816 2.3865 5.55216 4.0265 5.1815L4.4505 5.0855C4.9165 4.98016 5.14916 4.9275 5.3365 4.7855C5.52383 4.6435 5.64316 4.42816 5.88316 3.9975L6.10183 3.6055Z" stroke="#70B62B" stroke-width="1.5"/>
</g>
</g>
<defs>
<clipPath id="clip0_7286_23032">
<rect width="16" height="16" fill="white"/>
</clipPath>
<clipPath id="clip1_7286_23032">
<rect width="16" height="16" fill="white"/>
</clipPath>
</defs>
</svg>
