<svg width="16" height="17" viewBox="0 0 16 17" fill="none" xmlns="http://www.w3.org/2000/svg">
<g clip-path="url(#clip0_5170_20472)">
<path d="M1 3.98889V13.0111C1 13.8822 1 14.3178 1.16956 14.6507C1.31869 14.9434 1.55665 15.1813 1.84933 15.3304C2.18144 15.5 2.617 15.5 3.48656 15.5H12.5134C13.383 15.5 13.8178 15.5 14.1499 15.3304C14.4429 15.1814 14.6811 14.9435 14.8304 14.6507C15 14.3186 15 13.8838 15 13.0142V3.98656C15 3.117 15 2.68144 14.8304 2.34933C14.6811 2.05611 14.4431 1.81889 14.1499 1.66956C13.8178 1.5 13.3822 1.5 12.5111 1.5H3.48889C2.61778 1.5 2.18222 1.5 1.84933 1.66956C1.55611 1.81889 1.31889 2.05611 1.16956 2.34933C1 2.68222 1 3.11778 1 3.98889Z" stroke="#70B62B" stroke-width="1.5" stroke-linecap="round" stroke-linejoin="round"/>
<path d="M4.5 9.5L7.80954 11.864C7.90955 11.9354 8.04971 11.9006 8.10467 11.7907L11.5 5" stroke="#70B62B" stroke-width="1.5" stroke-linecap="round"/>
</g>
<defs>
<clipPath id="clip0_5170_20472">
<rect width="16" height="16" fill="white" transform="translate(0 0.5)"/>
</clipPath>
</defs>
</svg>
