<svg xmlns="http://www.w3.org/2000/svg" width="16" height="16" viewBox="0 0 16 16" fill="none">
    <g clip-path="url(#clip0_5532_23714)">
        <path d="M0.929199 4.57123V7.84882C0.929288 8.26551 1.09489 8.66509 1.38957 8.95969L5.87544 13.4456C6.2305 13.8006 6.71204 14 7.21413 14C7.71622 14 8.19776 13.8006 8.55282 13.4456L11.3748 10.6236C11.7298 10.2686 11.9292 9.78703 11.9292 9.28493C11.9292 8.78284 11.7298 8.3013 11.3748 7.94624L6.88889 3.46037C6.59429 3.16569 6.19471 3.00009 5.77802 3H2.50043C2.08372 3 1.68407 3.16554 1.3894 3.4602C1.09474 3.75487 0.929199 4.15452 0.929199 4.57123Z" stroke="black" stroke-width="1.5" stroke-linecap="round" stroke-linejoin="round"/>
        <path d="M12.7135 13.213L13.9642 11.9623C14.6743 11.2522 15.0731 10.2891 15.0731 9.28493C15.0731 8.28074 14.6743 7.31767 13.9642 6.60755L10.3567 3M4.07176 6.14247H4.0639" stroke="black" stroke-width="1.5" stroke-linecap="round" stroke-linejoin="round"/>
    </g>
    <defs>
        <clipPath id="clip0_5532_23714">
            <rect width="16" height="16" fill="white"/>
        </clipPath>
    </defs>
</svg>