<svg xmlns="http://www.w3.org/2000/svg" width="20" height="20" viewBox="0 0 20 20" fill="none">
    <g clip-path="url(#clip0_6821_13538)">
        <path d="M7.84603 2.31857L5.11863 5.0691C4.77197 5.41885 4.57843 5.89198 4.58058 6.38442L4.61225 13.8818C4.6148 14.4752 4.85294 15.0432 5.27429 15.461C5.69565 15.8788 6.26571 16.1122 6.85909 16.1097L11.5755 16.0898C12.1688 16.0873 12.7369 15.8491 13.1547 15.4278C13.5725 15.0064 13.8059 14.4363 13.8034 13.843L13.7717 6.3456C13.7697 5.85316 13.5722 5.38169 13.2226 5.03488L10.4721 2.30748C10.1224 1.96071 9.64923 1.76707 9.15675 1.76915C8.66427 1.77123 8.19279 1.96886 7.84603 2.31857Z" stroke="black" stroke-width="1.5" stroke-linecap="round" stroke-linejoin="round"/>
        <path d="M10.4999 19.0008L12.4999 19.0008C13.6866 18.9957 14.9574 18.8875 15.793 18.0448C16.6286 17.2021 17.0953 16.062 17.0904 14.8752L17.0649 8.84582M9.1757 6.25305L9.1691 6.24651" stroke="black" stroke-width="1.5" stroke-linecap="round" stroke-linejoin="round"/>
    </g>
    <defs>
        <clipPath id="clip0_6821_13538">
            <rect width="20" height="20" fill="white"/>
        </clipPath>
    </defs>
</svg>