<svg width="25" height="26" viewBox="0 0 25 26" fill="none" xmlns="http://www.w3.org/2000/svg">
<g clip-path="url(#clip0_7286_36985)">
<circle cx="12.5" cy="13" r="12.5" fill="#E6E6E6"/>
<path d="M25 13C25 16.4975 23.5635 19.6593 21.2486 21.9279C21.2341 21.942 21.2194 21.9562 21.2047 21.9704C21.0148 22.1546 20.8192 22.333 20.6175 22.5052C20.2203 22.8456 19.8012 23.1608 19.3631 23.4491C17.3931 24.7458 15.0345 25.5 12.5 25.5C9.96545 25.5 7.60692 24.7458 5.63693 23.4491C5.1988 23.1608 4.77973 22.8456 4.38247 22.5052C4.18084 22.333 3.9852 22.1546 3.79529 21.9704C3.78057 21.9562 3.76586 21.942 3.75142 21.9279C1.43675 19.6593 0 16.4975 0 13C0 6.09634 5.59634 0.5 12.5 0.5C19.4037 0.5 25 6.09634 25 13Z" fill="#E0E0E0"/>
<path d="M10.9507 16.8914L10.7974 16.8005C10.5702 16.6656 10.3596 16.524 10.1606 16.3855L9.59326 15.989C9.10006 15.6563 8.74717 15.1577 8.59131 14.5876L8.53662 14.3396L8.33936 13.1589L8.29541 12.8982H8.03076C7.5855 12.8981 7.22607 12.5378 7.22607 12.0925C7.22625 11.7617 7.42476 11.4786 7.70947 11.3552L7.99463 11.2312L7.87256 10.946C7.57859 10.2568 7.35275 9.5306 7.20166 8.78589L7.14209 8.46558L7.08252 8.05835C7.04467 7.72393 7.04028 7.40239 7.10107 7.10327L7.14502 6.92651C7.28807 6.45589 7.63768 6.13781 7.95459 6.12866L7.99951 6.13257L8.18408 6.14526L8.28467 5.98901C8.52606 5.61227 8.89257 5.33887 9.3042 5.15894L9.48389 5.08765V5.08667C9.85051 4.95362 10.2357 4.88576 10.6411 4.83276L11.0542 4.78296C11.2713 4.75808 11.4858 4.73317 11.7007 4.71167L11.6997 4.71069C12.5688 4.62706 13.4806 4.60266 14.3462 4.77905L14.7134 4.86792C15.6211 5.12079 16.4767 5.66135 16.9702 6.49097L17.064 6.66089C17.395 7.3075 17.5014 8.08636 17.4556 8.86694L17.4272 9.20093C17.3609 9.79017 17.2181 10.3695 17.0474 10.9529L16.9653 11.2361L17.2427 11.3347C17.553 11.4459 17.7737 11.7431 17.7739 12.0925C17.7739 12.538 17.4151 12.8982 16.9692 12.8982H16.7046L16.6606 13.1589L16.4634 14.3396C16.3648 14.9282 16.0618 15.4586 15.6099 15.8367L15.4077 15.989C15.0444 16.234 14.6574 16.5304 14.2026 16.8005L14.0503 16.8914V17.908L14.2681 17.9773L17.9683 19.1453C19.3247 19.5735 20.3666 20.6017 20.8423 21.8816C20.7965 21.9246 20.752 21.9691 20.7056 22.0115L20.4146 22.2673V22.2683C20.1242 22.5171 19.8215 22.7519 19.5083 22.9724L19.1919 23.1882H19.1909C17.2706 24.4522 14.9718 25.1872 12.5005 25.1873C10.1833 25.1873 8.01745 24.5411 6.17334 23.4187L5.80908 23.1882C5.48877 22.9775 5.17858 22.7519 4.88037 22.5125L4.58545 22.2683V22.2673C4.43953 22.1427 4.29747 22.0139 4.15771 21.8826C4.60191 20.6858 5.54143 19.7091 6.77002 19.2371L7.03174 19.1453L10.7319 17.9773L10.9507 17.908V16.8914Z" fill="#F5F5F5" stroke="black" stroke-width="0.625"/>
<path d="M12.9556 18H11.9637C11.8776 18 11.8173 18.085 11.8457 18.1663L12.0943 18.8773C12.1119 18.9274 12.1592 18.961 12.2123 18.961H12.7069C12.7601 18.961 12.8074 18.9274 12.8249 18.8773L13.0736 18.1663C13.102 18.085 13.0416 18 12.9556 18Z" fill="#70B62B"/>
<path d="M11.2615 23.4832L12.1045 18.989C12.1156 18.9299 12.1672 18.8871 12.2274 18.8871H12.6905C12.7513 18.8871 12.8033 18.9308 12.8137 18.9908L13.5921 23.4863C13.5985 23.523 13.5881 23.5607 13.5638 23.589L12.5518 24.7676C12.5029 24.8247 12.4151 24.8259 12.3645 24.7703L11.2918 23.5903C11.2655 23.5614 11.2542 23.5217 11.2615 23.4832Z" fill="#70B62B"/>
</g>
<defs>
<clipPath id="clip0_7286_36985">
<rect width="25" height="25" fill="white" transform="translate(0 0.5)"/>
</clipPath>
</defs>
</svg>
