<svg width="35" height="35" viewBox="0 0 35 35" fill="none" xmlns="http://www.w3.org/2000/svg">
<g clip-path="url(#clip0_2798_11186)">
<circle cx="17.5" cy="17.5" r="17.5" fill="#E6E6E6"/>
<path d="M35 17.5C35 22.3965 32.9889 26.823 29.748 29.999C29.7278 30.0189 29.7072 30.0387 29.6866 30.0585C29.4207 30.3164 29.1468 30.5662 28.8645 30.8073C28.3084 31.2838 27.7217 31.7251 27.1083 32.1287C24.3503 33.9441 21.0484 35 17.5 35C13.9516 35 10.6497 33.9441 7.89171 32.1287C7.27832 31.7251 6.69162 31.2838 6.13545 30.8073C5.85317 30.5662 5.57928 30.3164 5.3134 30.0585C5.2928 30.0387 5.2722 30.0189 5.25198 29.999C2.01145 26.823 0 22.3965 0 17.5C0 7.83487 7.83487 0 17.5 0C27.1651 0 35 7.83487 35 17.5Z" fill="#E0E0E0"/>
<path d="M27.1087 32.1287C27.7221 31.7251 28.3088 31.2838 28.865 30.8073C29.1473 30.5662 29.4212 30.3164 29.687 30.0585M27.1087 32.1287L29.687 30.0585M27.1087 32.1287C24.3508 33.9441 21.0488 35 17.5004 35C13.9521 35 10.6501 33.9441 7.89215 32.1287H27.1087ZM29.687 30.0585L29.3824 29.7444C29.316 29.8089 29.2491 29.8728 29.1816 29.9362C29.2131 30.021 29.2428 30.1066 29.2707 30.1929L29.687 30.0585ZM11.9514 19.3748C11.9514 19.3748 11.9514 19.3748 11.9514 19.3748L11.5199 19.447L11.9514 19.3748ZM11.1361 7.4427L11.1059 7.87916L11.1273 7.88064C11.1329 7.8804 11.1385 7.88023 11.144 7.88013L11.1361 7.4427ZM15.4757 5.99595C15.5073 5.99233 15.5388 5.98872 15.5703 5.9851C15.842 5.95391 16.1112 5.923 16.3808 5.89603C17.7708 5.76231 19.2387 5.7357 20.5992 6.11438L15.4757 5.99595ZM15.4257 5.56133L15.4755 5.99598L15.4257 5.56133ZM5.7302 30.1929C5.75806 30.1065 5.78774 30.0209 5.8192 29.9361C5.75178 29.8728 5.68486 29.8089 5.61844 29.7444L5.31384 30.0585L5.7302 30.1929ZM23.0495 19.3748C22.892 20.3166 22.36 21.1519 21.5709 21.6843L20.5992 6.11441C21.9546 6.49198 23.2267 7.3285 23.8895 8.62457L23.8896 8.62476C24.4195 9.65944 24.5384 10.9361 24.3978 12.1817L24.3978 12.1819C24.3049 13.0069 24.1063 13.8176 23.8672 14.6343L23.7513 15.0301L24.1395 15.1691C24.5743 15.3248 24.8841 15.7405 24.8841 16.2301C24.8841 16.8538 24.3814 17.357 23.7572 17.357H23.3867L23.3257 17.7223L23.0495 19.3748C23.0495 19.3748 23.0495 19.3748 23.0495 19.3748Z" fill="#F5F5F5" stroke="black" stroke-width="0.875"/>
<path d="M18.1378 24.5H16.7493C16.6287 24.5 16.5443 24.619 16.5841 24.7327L16.9321 25.7282C16.9567 25.7984 17.0229 25.8454 17.0973 25.8454H17.7898C17.8642 25.8454 17.9304 25.7984 17.955 25.7282L18.303 24.7327C18.3428 24.619 18.2584 24.5 18.1378 24.5Z" fill="#70B62B"/>
<path d="M15.7661 32.1765L16.9463 25.8847C16.9619 25.8019 17.0341 25.7419 17.1183 25.7419H17.7667C17.8518 25.7419 17.9246 25.8032 17.9391 25.8871L19.0289 32.1808C19.0379 32.2323 19.0233 32.285 18.9893 32.3247L17.5726 33.9747C17.504 34.0545 17.3811 34.0563 17.3103 33.9784L15.8086 32.3265C15.7717 32.2859 15.7559 32.2304 15.7661 32.1765Z" fill="#70B62B"/>
</g>
<defs>
<clipPath id="clip0_2798_11186">
<rect width="35" height="35" fill="white"/>
</clipPath>
</defs>
</svg>
