<svg width="21" height="20" viewBox="0 0 21 20" fill="none" xmlns="http://www.w3.org/2000/svg">
<g clip-path="url(#clip0_4753_9001)">
<path d="M11.7427 10.6675L12.0362 10.8419L14.7783 12.4715C14.8102 12.4905 14.8207 12.5317 14.8017 12.5636C14.7827 12.5955 14.7416 12.606 14.7097 12.587L11.5796 10.7295C11.5437 10.7081 11.5216 10.6694 11.5216 10.6276V7.01015C11.5216 6.94909 11.5711 6.89959 11.6322 6.89959C11.6932 6.89959 11.7427 6.94909 11.7427 7.01015V10.3261V10.6675ZM3.34225 10.6893H3.94225V10.0893C3.94225 7.98695 4.77739 5.97075 6.26395 4.48419C7.75051 2.99764 9.76671 2.1625 11.869 2.1625C13.9713 2.1625 15.9875 2.99764 17.4741 4.48419C18.9606 5.97075 19.7958 7.98695 19.7958 10.0893C19.7958 12.1916 18.9606 14.2078 17.4741 15.6943C15.9875 17.1809 13.9713 18.016 11.869 18.016L11.8668 18.016C10.8263 18.02 9.7955 17.8165 8.83455 17.4177C8.05779 17.0952 7.33925 16.6503 6.70583 16.101L7.20486 15.6019C8.45986 16.6719 10.0906 17.3212 11.869 17.3212C13.787 17.3212 15.6265 16.5593 16.9828 15.203C18.339 13.8468 19.1009 12.0073 19.1009 10.0893C19.1009 8.17124 18.339 6.33177 16.9828 4.97552C15.6265 3.61927 13.787 2.85734 11.869 2.85734C9.95099 2.85734 8.11152 3.61927 6.75527 4.97552C5.39902 6.33177 4.63709 8.17124 4.63709 10.0893V10.6893H5.23709H6.62827L4.25604 13.0556L1.93077 10.6893H3.34225Z" fill="black" stroke="black" stroke-width="1.2"/>
</g>
<defs>
<clipPath id="clip0_4753_9001">
<rect width="20" height="20" fill="white" transform="translate(0.5)"/>
</clipPath>
</defs>
</svg>
