<svg xmlns="http://www.w3.org/2000/svg" width="16" height="16" viewBox="0 0 16 16" fill="none">
    <g clip-path="url(#clip0_4946_11987)">
        <path d="M5 1.75C5.69036 1.75 6.25 2.30964 6.25 3L6.25 13C6.25 13.6904 5.69036 14.25 5 14.25H3C2.30964 14.25 1.75 13.6904 1.75 13L1.75 3C1.75 2.30964 2.30964 1.75 3 1.75L5 1.75Z" stroke="black" stroke-width="1.5"/>
        <path d="M13 1.75C13.6904 1.75 14.25 2.30964 14.25 3L14.25 13C14.25 13.6904 13.6904 14.25 13 14.25H11C10.3096 14.25 9.75 13.6904 9.75 13L9.75 3C9.75 2.30964 10.3096 1.75 11 1.75L13 1.75Z" stroke="black" stroke-width="1.5"/>
    </g>
    <defs>
        <clipPath id="clip0_4946_11987">
            <rect width="16" height="16" fill="white"/>
        </clipPath>
    </defs>
</svg>