<svg width="20" height="21" viewBox="0 0 20 21" fill="none" xmlns="http://www.w3.org/2000/svg">
<path d="M9.993 13.6825H10.0009M9.993 10.9742V6.46032M10.2712 1.94643H9.72875C7.59725 1.94643 6.5315 1.94643 5.66 2.44566C4.78762 2.944 4.2705 3.84948 3.23537 5.66136L2.71912 6.56413C1.74 8.27851 1.25 9.13525 1.25 10.0714C1.25 11.0076 1.74 11.8643 2.72 13.5787L3.23537 14.4815C4.2705 16.2934 4.78762 17.1989 5.65912 17.6981C6.5315 18.1964 7.59725 18.1964 9.72787 18.1964H10.2721C12.4027 18.1964 13.4685 18.1964 14.3409 17.6981C15.2124 17.1989 15.7295 16.2934 16.7646 14.4815L17.2809 13.5787C18.26 11.8643 18.75 11.0076 18.75 10.0714C18.75 9.13525 18.26 8.27851 17.28 6.56413L16.7646 5.66136C15.7295 3.84948 15.2124 2.944 14.3409 2.44566C13.4685 1.94643 12.4027 1.94643 10.2712 1.94643Z" stroke="black" stroke-width="1.5" stroke-linecap="round" stroke-linejoin="round"/>
</svg>
