<svg xmlns="http://www.w3.org/2000/svg" width="16" height="16" viewBox="0 0 16 16" fill="none">
    <g clip-path="url(#clip0_4673_12088)">
        <path d="M4.04337 1.73218L6.18813 4.39384C6.22185 4.43552 6.24701 4.48344 6.26215 4.53485C6.2773 4.58626 6.28214 4.64016 6.27639 4.69344C6.27064 4.74672 6.25442 4.79834 6.22865 4.84534C6.20289 4.89234 6.16809 4.93379 6.12625 4.96731L5.41865 5.5367C5.37695 5.57039 5.329 5.59553 5.27756 5.61065C5.22611 5.62578 5.17219 5.63061 5.11887 5.62486C5.06555 5.6191 5.01389 5.60289 4.96686 5.57713C4.91982 5.55138 4.87834 5.5166 4.84479 5.47478L2.70702 2.82179C2.19999 3.47781 1.92818 4.28504 1.9352 5.11398C1.94221 5.94292 2.22764 6.74552 2.7457 7.39303C3.183 7.93412 3.76407 8.34108 4.42223 8.56721C5.08039 8.79334 5.78898 8.82948 6.46671 8.67149L10.863 14.1273C11.4299 14.8309 12.4441 14.9488 13.1374 14.3914C13.8296 13.8339 13.9307 12.8185 13.3633 12.1144L8.968 6.65981C9.26726 6.03171 9.38321 5.33199 9.30254 4.64097C9.22186 3.94995 8.94782 3.29564 8.51189 2.75316C7.99007 2.10608 7.26544 1.6534 6.45481 1.46808C5.64417 1.28276 4.79475 1.37559 4.04343 1.73162" stroke="black" stroke-width="1.5" stroke-linecap="round" stroke-linejoin="round"/>
    </g>
    <defs>
        <clipPath id="clip0_4673_12088">
            <rect width="16" height="16" fill="white"/>
        </clipPath>
    </defs>
</svg>