<svg xmlns="http://www.w3.org/2000/svg" width="30" height="30" viewBox="0 0 30 30" fill="none">
    <g clip-path="url(#clip0_7553_37078)">
        <path d="M13.1406 19.6699L12.957 19.5605C12.6846 19.3987 12.4321 19.2287 12.1934 19.0625L11.5117 18.5869C10.8775 18.159 10.4372 17.5024 10.2734 16.7568L10.2441 16.6074L10.0068 15.1904L9.95508 14.877H9.6377C9.10324 14.877 8.67188 14.4456 8.67188 13.9111C8.672 13.514 8.90929 13.1734 9.25098 13.0254L9.59375 12.8779L9.44727 12.5342C9.09462 11.7073 8.82387 10.8367 8.64258 9.94336L8.57031 9.55859L8.49902 9.07031C8.45357 8.66894 8.44757 8.28283 8.52051 7.92383L8.57422 7.71191V7.71094C8.74463 7.15059 9.15918 6.7713 9.53711 6.75488L9.59961 6.75879L9.82129 6.77441L9.94141 6.58691C10.2313 6.13437 10.6716 5.80581 11.166 5.58984L11.3809 5.50488C11.8209 5.34515 12.283 5.26283 12.7695 5.19922L13.2646 5.13965C13.5253 5.10977 13.7829 5.07953 14.041 5.05371L14.04 5.05273C15.1571 4.94525 16.333 4.91909 17.4365 5.18359L17.6562 5.24121C18.7454 5.5446 19.772 6.19323 20.3643 7.18848L20.4766 7.39258C20.8739 8.16852 21.0023 9.10327 20.9473 10.04L20.9121 10.4414C20.8524 10.9719 20.7416 11.4955 20.6035 12.0195L20.458 12.5439L20.3584 12.8828L20.6914 13.002C21.0638 13.1355 21.329 13.4918 21.3291 13.9111C21.3291 14.4457 20.8983 14.877 20.3633 14.877H20.0459L19.9932 15.1904L19.7568 16.6074C19.6302 17.3642 19.2212 18.0405 18.6133 18.498L18.4893 18.5869C18.0534 18.8808 17.5895 19.2365 17.0439 19.5605L16.8604 19.6699V20.8896L17.1221 20.9727L21.5615 22.375C23.1893 22.8889 24.439 24.1224 25.0098 25.6582C24.9551 25.7096 24.9022 25.7629 24.8467 25.8135L24.498 26.1211H24.4971C24.1486 26.4196 23.7861 26.7021 23.4102 26.9668L23.0303 27.2256C20.7257 28.7426 17.966 29.625 15 29.625C12.2196 29.6249 9.62099 28.8497 7.4082 27.5029L6.9707 27.2256C6.58617 26.9726 6.21444 26.7016 5.85645 26.4141L5.50293 26.1211C5.32757 25.9713 5.1572 25.816 4.98926 25.6582C5.52237 24.2224 6.65001 23.0508 8.12402 22.4844L8.43848 22.375L12.8789 20.9727L13.1406 20.8896V19.6699Z" fill="#F5F5F5" stroke="black" stroke-width="0.75"/>
        <path d="M15.5461 21H14.3559C14.2526 21 14.1802 21.102 14.2143 21.1995L14.5126 22.0527C14.5337 22.1129 14.5905 22.1532 14.6542 22.1532H15.2478C15.3115 22.1532 15.3683 22.1129 15.3893 22.0527L15.6877 21.1995C15.7218 21.102 15.6494 21 15.5461 21Z" fill="#70B62B"/>
        <path d="M13.5138 27.5798L14.5254 22.1868C14.5387 22.1159 14.6007 22.0645 14.6729 22.0645H15.2286C15.3016 22.0645 15.3639 22.117 15.3764 22.1889L16.3105 27.5835C16.3182 27.6276 16.3057 27.6728 16.2765 27.7068L15.0622 29.1211C15.0035 29.1895 14.8981 29.191 14.8374 29.1243L13.5502 27.7084C13.5186 27.6736 13.5051 27.626 13.5138 27.5798Z" fill="#70B62B"/>
    </g>
    <defs>
        <clipPath id="clip0_7553_37078">
            <rect width="30" height="30" fill="white"/>
        </clipPath>
    </defs>
</svg>