<svg xmlns="http://www.w3.org/2000/svg" width="18" height="20" viewBox="0 0 18 20" fill="none">
    <g clip-path="url(#clip0_10701_44424)">
        <path d="M16.5 11.8366V6.91421C16.5 6.649 16.3946 6.39464 16.2071 6.20711L11.2929 1.29289C11.1054 1.10536 10.851 1 10.5858 1H2.5C1.94772 1 1.5 1.44772 1.5 2V10V11.8366" stroke="black" stroke-linecap="round"/>
        <path d="M11.2441 1.4504V6.04035C11.2441 6.09558 11.2889 6.14035 11.3441 6.14035H15.9341C16.0232 6.14035 16.0678 6.03263 16.0048 5.96964L11.4149 1.37969C11.3519 1.3167 11.2441 1.36131 11.2441 1.4504Z" stroke="black" stroke-linecap="square"/>
        <path d="M11.1708 14.4091L9.64377 16.5475L11.1708 18.6849C11.2109 18.7408 11.2395 18.804 11.2552 18.871C11.2708 18.938 11.2731 19.0074 11.262 19.0753C11.2508 19.1431 11.2264 19.2081 11.1901 19.2665C11.1538 19.3249 11.1063 19.3756 11.0504 19.4157C10.9945 19.4558 10.9313 19.4845 10.8643 19.5001C10.7974 19.5158 10.728 19.5181 10.6601 19.5069C10.5922 19.4957 10.5272 19.4713 10.4688 19.435C10.4104 19.3987 10.3597 19.3513 10.3196 19.2954L9.00105 17.4474L7.68247 19.2936C7.60151 19.4065 7.47904 19.4826 7.34199 19.5052C7.20494 19.5277 7.06453 19.4949 6.95166 19.414C6.8388 19.333 6.76271 19.2106 6.74014 19.0735C6.71757 18.9365 6.75037 18.7961 6.83132 18.6832L8.35833 16.5475L6.83132 14.41C6.79123 14.3541 6.76255 14.2909 6.74691 14.2239C6.73126 14.1569 6.72896 14.0875 6.74014 14.0197C6.75131 13.9518 6.77574 13.8868 6.81204 13.8284C6.84833 13.77 6.89578 13.7193 6.95166 13.6792C7.00755 13.6391 7.07079 13.6104 7.13776 13.5948C7.20473 13.5791 7.27413 13.5768 7.34199 13.588C7.40985 13.5992 7.47485 13.6236 7.53327 13.6599C7.59168 13.6962 7.64238 13.7437 7.68247 13.7995L9.00105 15.6475L10.3196 13.8013C10.4006 13.6884 10.5231 13.6123 10.6601 13.5898C10.7972 13.5672 10.9376 13.6 11.0504 13.6809C11.1633 13.7619 11.2394 13.8844 11.262 14.0214C11.2845 14.1585 11.2517 14.2989 11.1708 14.4117V14.4091ZM5.68715 14.1056C5.68715 14.2444 5.63202 14.3775 5.5339 14.4756C5.43577 14.5738 5.30268 14.6289 5.1639 14.6289H3.94299V18.9893C3.94299 19.1281 3.88787 19.2611 3.78974 19.3593C3.69161 19.4574 3.55852 19.5125 3.41975 19.5125C3.28097 19.5125 3.14788 19.4574 3.04976 19.3593C2.95163 19.2611 2.8965 19.1281 2.8965 18.9893V14.6289H1.67559C1.53682 14.6289 1.40373 14.5738 1.3056 14.4756C1.20747 14.3775 1.15234 14.2444 1.15234 14.1056C1.15234 13.9669 1.20747 13.8338 1.3056 13.7357C1.40373 13.6375 1.53682 13.5824 1.67559 13.5824H5.1639C5.30268 13.5824 5.43577 13.6375 5.5339 13.7357C5.63202 13.8338 5.68715 13.9669 5.68715 14.1056ZM16.8498 14.1056C16.8498 14.2444 16.7946 14.3775 16.6965 14.4756C16.5984 14.5738 16.4653 14.6289 16.3265 14.6289H15.1056V18.9893C15.1056 19.1281 15.0505 19.2611 14.9523 19.3593C14.8542 19.4574 14.7211 19.5125 14.5823 19.5125C14.4436 19.5125 14.3105 19.4574 14.2124 19.3593C14.1142 19.2611 14.0591 19.1281 14.0591 18.9893V14.6289H12.8382C12.6994 14.6289 12.5663 14.5738 12.4682 14.4756C12.3701 14.3775 12.3149 14.2444 12.3149 14.1056C12.3149 13.9669 12.3701 13.8338 12.4682 13.7357C12.5663 13.6375 12.6994 13.5824 12.8382 13.5824H16.3265C16.4653 13.5824 16.5984 13.6375 16.6965 13.7357C16.7946 13.8338 16.8498 13.9669 16.8498 14.1056Z" fill="black"/>
    </g>
    <defs>
        <clipPath id="clip0_10701_44424">
            <rect width="18" height="20" fill="white"/>
        </clipPath>
    </defs>
</svg>