<svg xmlns="http://www.w3.org/2000/svg" width="18" height="20" viewBox="0 0 18 20" fill="none">
    <g clip-path="url(#clip0_10701_44425)">
        <path d="M1.5 10V2C1.5 1.44772 1.94772 1 2.5 1H10.5858C10.851 1 11.1054 1.10536 11.2929 1.29289L16.2071 6.20711C16.3946 6.39464 16.5 6.649 16.5 6.91421V18C16.5 18.5523 16.0523 19 15.5 19H15" stroke="black" stroke-linecap="round"/>
        <path d="M8.66602 12.0576C8.66602 12.0576 10.4462 12.8488 10.4462 14.8339C10.4462 16.8191 8.66602 17.6409 8.66602 17.6409" stroke="black" stroke-linecap="round"/>
        <path d="M11.2441 1.4504V6.04035C11.2441 6.09558 11.2889 6.14035 11.3441 6.14035H15.9341C16.0232 6.14035 16.0678 6.03263 16.0048 5.96964L11.4149 1.37969C11.3519 1.3167 11.2441 1.36131 11.2441 1.4504Z" stroke="black" stroke-linecap="square"/>
        <path d="M1.56932 16.7014V13.0282C1.56932 12.973 1.61409 12.9282 1.66932 12.9282L3.51092 12.9282C3.53654 12.9282 3.56118 12.9184 3.57976 12.9008L5.99423 10.6094C6.05794 10.549 6.16307 10.5941 6.16307 10.682L6.16308 14.6397L6.16303 19.0247C6.16303 19.1123 6.05839 19.1576 5.99456 19.0976L3.57969 16.8286C3.56114 16.8111 3.53666 16.8014 3.51121 16.8014L1.66932 16.8014C1.61409 16.8014 1.56932 16.7567 1.56932 16.7014Z" stroke="black" stroke-linecap="square"/>
    </g>
    <defs>
        <clipPath id="clip0_10701_44425">
            <rect width="18" height="20" fill="white"/>
        </clipPath>
    </defs>
</svg>