<svg xmlns="http://www.w3.org/2000/svg" width="18" height="20" viewBox="0 0 18 20" fill="none">
    <g clip-path="url(#clip0_10701_44424)">
        <path d="M16.5 11.8366V6.91421C16.5 6.649 16.3946 6.39464 16.2071 6.20711L11.2929 1.29289C11.1054 1.10536 10.851 1 10.5858 1H2.5C1.94772 1 1.5 1.44772 1.5 2V10V11.8366" stroke="black" stroke-linecap="round"/>
        <path d="M11.2441 1.4504V6.04035C11.2441 6.09558 11.2889 6.14035 11.3441 6.14035H15.9341C16.0232 6.14035 16.0678 6.03263 16.0048 5.96964L11.4149 1.37969C11.3519 1.3167 11.2441 1.36131 11.2441 1.4504Z" stroke="black" stroke-linecap="square"/>
        <path d="M14.6133 14.1094V18.9015C14.6133 18.9568 14.6581 19.0015 14.7133 19.0015H17.5154" stroke="black" stroke-width="1.05" stroke-linecap="round"/>
        <path d="M4.48613 14.1154L1.68399 14.1152C1.62876 14.1152 1.58398 14.16 1.58398 14.2152L1.58398 16.5552M4.48613 19.0013H1.68398C1.62876 19.0013 1.58398 18.9565 1.58398 18.9013L1.58398 16.5552M4.48613 16.5552H1.58398" stroke="black" stroke-width="1.05" stroke-linecap="round"/>
        <path d="M11.945 19.0014L11.9453 14.2195C11.9453 14.1209 11.8177 14.0818 11.7625 14.1635L9.60808 17.3495C9.56842 17.4081 9.48206 17.4081 9.4424 17.3495L7.28801 14.1635C7.23278 14.0818 7.10517 14.1209 7.10517 14.2195L7.10517 19.0014" stroke="black" stroke-width="1.05" stroke-linecap="round"/>
    </g>
    <defs>
        <clipPath id="clip0_10701_44424">
            <rect width="18" height="20" fill="white"/>
        </clipPath>
    </defs>
</svg>