<svg width="26" height="25" viewBox="0 0 26 25" fill="none" xmlns="http://www.w3.org/2000/svg">
    <g clip-path="url(#clip0_8652_36253)">
        <circle cx="12.9727" cy="12.5" r="12.5" fill="#70B62B"/>
        <path d="M6.69375 12.5002C6.69375 10.9415 7.24115 9.4324 8.24038 8.23619C9.23962 7.03998 10.6272 6.23269 12.161 5.95524C13.6947 5.6778 15.2772 5.94782 16.6322 6.71817C17.9872 7.48852 19.0286 8.71027 19.5746 10.1701C20.1206 11.63 20.1366 13.2353 19.6198 14.7058C19.1029 16.1762 18.086 17.4185 16.7467 18.2156C15.4073 19.0128 13.8305 19.3143 12.2915 19.0674C10.7525 18.8206 9.34914 18.0411 8.32628 16.865" stroke="white" stroke-width="1.16329" stroke-linecap="round" stroke-linejoin="round"/>
        <path d="M6.07212 13.5617C6.21981 13.7849 6.52053 13.8462 6.74379 13.6985L10.3821 11.2917C10.6054 11.1441 10.6666 10.8433 10.5189 10.6201C10.3713 10.3968 10.0705 10.3355 9.84727 10.4832L6.61321 12.6226L4.47386 9.38853C4.32617 9.16527 4.02545 9.104 3.80218 9.2517C3.57892 9.39939 3.51765 9.70011 3.66534 9.92337L6.07212 13.5617ZM6.69141 12.2388L6.21646 12.142L6.00143 13.1975L6.47638 13.2943L6.95132 13.391L7.16635 12.3355L6.69141 12.2388Z" fill="white"/>
    </g>
    <defs>
        <clipPath id="clip0_8652_36253">
            <rect x="0.472656" width="25" height="25" rx="12.5" fill="white"/>
        </clipPath>
    </defs>
</svg>
