<svg width="58" height="40" viewBox="0 0 58 40" fill="none" xmlns="http://www.w3.org/2000/svg">
    <path d="M11.4878 26.3759V39.182C11.4878 39.1912 11.4843 39.2001 11.4782 39.2066C11.472 39.2131 11.4636 39.2168 11.4549 39.2168H0.386371C0.382056 39.2168 0.377784 39.2159 0.373798 39.2141C0.369812 39.2124 0.36619 39.2098 0.363139 39.2066C0.356977 39.2001 0.353516 39.1912 0.353516 39.182V0.817989C0.353516 0.813421 0.354365 0.808897 0.356017 0.804677C0.357668 0.800457 0.360088 0.796622 0.363139 0.793392C0.3693 0.786868 0.377657 0.783203 0.386371 0.783203H32.3801C32.386 0.783191 32.3919 0.784893 32.397 0.788127C32.4021 0.791361 32.4063 0.796005 32.4091 0.801562C32.4119 0.80712 32.4132 0.813382 32.4129 0.819679C32.4127 0.825977 32.4108 0.832072 32.4074 0.837315L26.0071 11.3243C26.004 11.3292 25.9998 11.3332 25.9948 11.3359C25.9899 11.3386 25.9843 11.3399 25.9788 11.3398H11.5206C11.5119 11.3398 11.5036 11.3434 11.4974 11.3499C11.4913 11.3565 11.4878 11.3653 11.4878 11.3745V15.7257C11.4878 15.7349 11.4913 15.7437 11.4974 15.7503C11.5036 15.7568 11.5119 15.7605 11.5206 15.7605H23.5721C23.5766 15.7604 23.581 15.7614 23.5851 15.7633C23.5892 15.7651 23.593 15.7679 23.596 15.7713C23.5991 15.7748 23.6015 15.7788 23.603 15.7833C23.6046 15.7877 23.6052 15.7924 23.605 15.7972L23.1386 26.3083C23.1382 26.3172 23.1345 26.3256 23.1284 26.3317C23.1223 26.3378 23.1142 26.3412 23.1058 26.3412H11.5206C11.5119 26.3412 11.5036 26.3448 11.4974 26.3513C11.4913 26.3579 11.4878 26.3667 11.4878 26.3759Z" fill="#151515"/>
    <path d="M44.3456 11.3977C44.3827 11.3591 44.3751 11.3398 44.3228 11.3398H28.8288C28.7898 11.3398 28.781 11.3227 28.8023 11.2885L35.2857 0.825719C35.3034 0.797375 35.3283 0.783203 35.3606 0.783203H57.6236C57.6297 0.783203 57.6355 0.785748 57.6398 0.790279C57.6441 0.794809 57.6465 0.800953 57.6465 0.80736V11.2963C57.6465 11.3291 57.6352 11.3571 57.6127 11.3803C53.169 16.0407 48.99 21.3764 45.9016 27.2108C44.4405 29.9724 43.2467 33.0858 42.9091 36.2252C42.8105 37.1451 42.8379 38.1848 42.8388 39.1675C42.8388 39.2003 42.8236 39.2168 42.7932 39.2168H29.9942C29.9626 39.2168 29.9459 39.2 29.944 39.1665C29.854 37.3177 29.9903 35.5626 30.3529 33.9013C31.1697 30.1608 32.9676 26.4745 34.9837 23.2462C37.6723 18.9405 40.8894 15.0174 44.3456 11.3977Z" fill="#70B62B"/>
</svg>
