<svg width="17" height="17" viewBox="0 0 17 17" fill="none" xmlns="http://www.w3.org/2000/svg">
	<g clip-path="url(#clip0_8658_40763)">
		<path d="M12.7899 7.44437C12.6882 8.85654 11.6406 9.94441 10.4982 9.94441C9.35586 9.94441 8.30654 8.85689 8.20654 7.44437C8.10237 5.97525 9.12218 4.94434 10.4982 4.94434C11.8743 4.94434 12.8941 6.00199 12.7899 7.44437Z" stroke="white" stroke-width="1.5" stroke-linecap="round" stroke-linejoin="round"/>
		<path d="M10.5003 12.1665C8.2374 12.1665 6.06129 13.2905 5.51614 15.4794C5.44391 15.769 5.70261 15.9998 6.00019 15.9998H15.155C15.4526 15.9998 15.556 15.769 15.4848 15.4794C14.9397 13.2554 12.7636 12.1665 10.5003 12.1665Z" stroke="white" stroke-width="1.5" stroke-miterlimit="10"/>
		<path d="M7.49493 3.56725C7.41144 4.72611 6.54159 5.63878 5.60394 5.63878C4.66629 5.63878 3.79501 4.72646 3.71295 3.56725C3.62767 2.36165 4.47434 1.5 5.60394 1.5C6.73354 1.5 7.58021 2.38377 7.49493 3.56725Z" stroke="white" stroke-width="1.5" stroke-linecap="round" stroke-linejoin="round"/>
		<path d="M7.5 8.01202C6.87762 7.6422 6.19214 7.5 5.46563 7.5C3.67263 7.5 1.94514 8.65595 1.51241 10.9075C1.45551 11.2053 1.59964 11.5 1.83549 11.5H5.707" stroke="white" stroke-width="1.5" stroke-miterlimit="10" stroke-linecap="round"/>
	</g>
	<defs>
		<clipPath id="clip0_8658_40763">
			<rect width="16" height="16" fill="white" transform="translate(0.5 0.5)"/>
		</clipPath>
	</defs>
</svg>
