<svg width="24" height="24" viewBox="0 0 14 16" fill="none" xmlns="http://www.w3.org/2000/svg">
	<path d="M2.85859 5.83333L2.8457 5.15385C2.8457 2.85974 4.70544 1 6.99955 1C9.29366 1 11.1534 2.85974 11.1534 5.15385V5.949" stroke="white" stroke-width="1.5"/>
	<path d="M1 12.3692V8.09228C1 6.97935 1.9022 6.07715 3.01513 6.07715H10.9849C12.0978 6.07715 13 6.97935 13 8.09228V12.3692C13 13.4824 12.0976 14.3848 10.9844 14.3848H3.01562C1.90243 14.3848 1 13.4824 1 12.3692Z" stroke="white" stroke-width="1.5"/>
	<path d="M5.61479 10.8383C5.46455 10.8383 5.33695 10.7793 5.23198 10.6612C5.12701 10.5431 5.07453 10.3996 5.07453 10.2305C5.07453 10.0615 5.12701 9.91797 5.23198 9.79988C5.33695 9.68179 5.46455 9.62274 5.61479 9.62274C5.76503 9.62274 5.89263 9.68179 5.9976 9.79988C6.10257 9.91797 6.15506 10.0615 6.15506 10.2305C6.15506 10.3996 6.10257 10.5431 5.9976 10.6612C5.89263 10.7793 5.76503 10.8383 5.61479 10.8383ZM5.61479 11.7882C5.9416 11.7882 6.22715 11.6843 6.47143 11.4764C6.71571 11.269 6.87258 11.0183 6.94204 10.7244H7.77615L8.08901 10.9944C8.11067 11.0102 8.13301 11.0229 8.15603 11.0326C8.17906 11.0423 8.20442 11.047 8.23213 11.0468C8.25983 11.0465 8.2851 11.0418 8.30793 11.0326C8.33076 11.0229 8.3531 11.008 8.37495 10.9878L8.7721 10.6421L9.12681 10.9493C9.15218 10.9682 9.1795 10.9834 9.20876 10.9951C9.23783 11.0067 9.26622 11.0098 9.29393 11.0043C9.32163 10.9988 9.34856 10.9896 9.37471 10.9766C9.40085 10.9637 9.42426 10.945 9.44495 10.9207L9.86697 10.4146C9.89136 10.3861 9.90873 10.3568 9.91907 10.3267C9.92921 10.2968 9.93429 10.2641 9.93429 10.2286C9.93429 10.193 9.92892 10.1606 9.91819 10.1314C9.90746 10.1022 9.8898 10.0739 9.86522 10.0465L9.66094 9.81634C9.63557 9.78781 9.60825 9.7674 9.57899 9.7551C9.54972 9.74281 9.51948 9.73667 9.48826 9.73667H6.94204C6.87375 9.44802 6.71825 9.19856 6.47553 8.98828C6.23301 8.77799 5.94609 8.67285 5.61479 8.67285C5.22457 8.67285 4.89619 8.82277 4.62967 9.12261C4.36354 9.42223 4.23047 9.79154 4.23047 10.2305C4.23047 10.6695 4.36373 11.039 4.63025 11.3388C4.89678 11.6386 5.22496 11.7883 5.61479 11.7879" fill="white"/>
</svg>
